<svg width="235" height="635" viewBox="0 0 235 635" fill="none" xmlns="http://www.w3.org/2000/svg">
<path fill-rule="evenodd" clip-rule="evenodd" d="M230.983 618.529C232.308 613.171 230.359 608.896 224.762 605.74C224.281 604.465 213.464 600.331 204.87 594.262C197.148 588.81 191.547 581.325 191.312 580.91C190.155 578.215 189.51 576.26 189.378 575.044C188.429 566.295 188.978 560.559 188.392 557.838C192.341 557.319 202.05 300.654 200.48 292.148C203.052 291.582 205.779 290.985 208.231 289.534C208.426 289.484 208.105 288.915 208.114 288.808C214.265 276.724 204.829 235.634 198.915 224.258C203.612 224.135 209.797 223.496 212.705 219.572C214.081 219.119 214.949 218.329 215.617 217.06C216.386 215.851 217.1 214.583 217.743 213.283C220.872 206.778 222.802 199.555 221.759 192.388C221.958 192.325 222.982 192.318 223.033 192.032C223.133 190.27 222.81 188.717 222.281 187.053C216.908 168.309 210.44 149.855 201.89 132.209C197.606 122.764 188.741 119.317 179.557 115.772C175.138 114.034 170.718 112.029 166.107 110.891C166.048 110.568 166.324 109.586 165.719 109.666C164.973 109.822 165.12 111.023 164.844 111.697C154.181 102.961 160.943 98.4601 154.513 93.6761C147.86 90.2202 139.747 90.0798 132.411 90.8277C129.705 90.9061 127.54 92.1268 126.902 94.8528C124.576 100.493 119.125 104.644 113.179 105.917C112.687 105.042 111.336 102.531 110.58 103.324C101.992 103.617 88.9711 106.772 80.933 109.132C72.8637 111.195 64.7005 114.96 62.5894 123.734C58.7588 139.37 64.853 203.627 74.8491 216.002L75.1741 216.007C76.9462 217.822 79.3549 219.152 82.0845 220.044C82.0232 225.829 80.2011 231.477 79.2943 237.135C77.2528 247.396 75.6837 257.668 73.4095 267.984C73.3994 269.133 69.0725 284.861 73.3384 281.707C74.2188 282.14 75.2975 282.612 76.2457 283.017C71.7136 293.354 69.6397 310.032 69.961 322.801C70.0413 330.405 69.7271 337.067 68.0226 344.854C55.4122 410.835 44.2938 558.415 44.0324 560.387C43.7921 562.273 45.3879 572.509 44.0324 575.209C42.8295 577.605 37.6988 576.19 36.7173 577.115C34.1684 581.269 35.3354 583.916 33.2446 588.064C32.1724 589.024 29.7751 591.124 28.9886 592.601C27.3964 594.135 1.02801 611.451 2.09675 614.079C2.09675 614.079 1.97649 615.339 1.93611 615.613C-0.311967 628.703 3.43146 628.594 15.5431 630.52C33.2358 633.643 46.4587 627.634 61.4114 619.606C66.3802 616.252 73.4426 609.85 71.1439 602.267C71.0805 601.804 69.7169 593.828 69.1762 589.778C70.1531 587.616 68.7511 586.669 64.9701 586.939C65.9028 585.914 67.9517 572.642 67.2527 570.886C66.8088 566.363 67.4981 562.258 67.28 557.604C69.6558 557.78 111.367 359.886 137.529 347.588C137.691 348.903 137.377 351.349 139.12 351.595C147.213 414.775 166.67 556.312 167.563 556.56C166.222 563.775 166.263 580.5 166.238 587.663C166.032 587.854 165.091 588.695 164.939 588.901C164.907 588.847 164.294 589.46 164.263 589.476L164.18 589.286C161.424 595.505 157.407 601.91 160.957 608.005C158.322 607.813 158.745 612.887 158.627 615.222C160.128 619.791 202.79 632.119 212.324 632.705C215.456 633.252 230.044 628.608 232.851 627.941C236.488 627.26 232.92 620.495 230.983 618.529Z" fill="#FAFAFA"/>
<path fill-rule="evenodd" clip-rule="evenodd" d="M128.677 93.3164C130.058 93.2742 130.322 95.013 129.378 95.7339L129.339 95.7626C128.534 96.3338 128.157 96.8446 127.72 97.7559C125.591 103.395 119.586 106.63 113.713 105.432C115.753 109.24 117.123 112.925 119.165 116.669C128.567 136.051 159.445 142.356 163.138 115.763C157.48 114.669 154.127 101.936 157.758 98.1378L157.856 98.6001C158.902 103.587 159.618 108.693 163.396 112.453C163.511 112.487 163.621 112.497 163.729 112.497C163.873 111.814 164.039 111.139 164.245 110.477C164.748 108.861 167.265 109.165 167.194 110.913C174.729 113.21 181.969 116.465 189.176 119.608C195.167 122.224 200.066 126.902 202.857 132.826C210.682 149.032 216.657 166.138 221.866 183.347C222.215 185.673 226.11 194.316 222.968 195.147C223.739 202.266 221.767 209.468 218.721 215.862C217.308 218.264 216.31 221.594 213.471 222.596C210.523 226.302 205.133 227.263 200.645 227.525C206.681 241.744 214.882 277.963 209.336 292.092C209.828 294.41 203.437 295.511 201.727 296.041C203.106 304.282 202.805 312.772 202.211 321.073C196.645 391.875 195.589 463.065 201.444 533.885C201.789 538.299 202.16 542.713 202.552 547.125L202.79 549.77C203.102 553.292 203.366 556.801 203.285 560.351C203.259 561.583 202.239 562.323 201.218 562.387C197.791 564.575 193.188 564.593 189.223 565.121C189.923 568.946 190.316 574.914 191.541 578.132C194.093 577.465 195.737 579.845 193.194 581.189C196.324 582.928 197.935 586.255 200.44 588.59C207.323 585.793 208.605 589.973 202.98 590.926C204.509 592.203 206.133 593.383 207.811 594.504L207.93 594.487C209.914 594.186 213.655 592.544 214.594 594.718C215.016 596.293 213.074 596.793 211.667 596.984C212.915 597.772 214.168 598.555 215.421 599.337C216.517 598.854 217.604 598.251 218.722 597.865C221.473 597.252 221.711 600.825 218.12 601.026C220.369 602.689 223.474 601.731 224.912 604.078C230.172 606.203 232.659 612.623 231.431 617.753C233.278 619.397 234.575 621.861 234.725 624.337C235.081 626.989 232.972 629.485 230.114 630.183C226.895 631.255 223.63 632.234 220.373 633.154L220.032 633.271C217.348 634.186 214.417 635.006 211.626 634.847C195.072 633.858 172.999 627.054 159.749 618.587C156.445 616.102 155.867 609.954 160.415 607.989C158.319 604.186 159.32 601.424 160.209 597.283C160.826 594.582 161.663 591.81 163.18 589.312C163.314 589.09 163.638 589.157 163.656 589.375C163.854 592.201 163.591 595.091 163.38 597.937L163.357 598.252C163.169 600.877 162.744 601.842 163.455 604.327C165.158 610.665 181.573 613.831 188.024 616.445C193.087 618.014 198.229 619.42 203.442 620.656L203.824 620.739C208.225 621.708 212.757 623.175 217.392 622.413C219.796 620.663 223.404 621.156 225.766 619.154C229.328 615.304 226.527 609.66 224.031 606.162C221.617 606.932 219.553 604.858 217.776 603.762L217.71 603.722C215.896 602.573 214.086 603.377 212.268 602.232L211.858 602.309C205.181 603.583 200.011 605.035 210.66 601.224C208.906 600.127 207.148 599.021 205.444 597.857C201.946 598.279 198.114 600.117 194.864 600.284C197.051 598.244 200.036 597.115 202.848 595.993C201.211 594.749 199.653 593.418 198.259 591.953L196.928 592.286C188.75 594.318 185.535 594.905 196.545 589.949C194.38 587.543 194.028 583.98 191.647 581.717C187.819 582.52 184.301 584.205 181.183 586.381C179.922 587.284 178.972 588.413 177.973 589.543C173.241 595.636 165.909 596.576 163.67 588.673C163.631 588.511 163.885 588.41 163.956 588.548L163.965 588.567C165.036 590.994 168.492 592.962 171.379 591.453L171.467 591.407C174.29 589.934 175.601 586.93 177.825 584.884C180.826 582.172 184.588 580.354 188.47 578.99C187.529 575.549 187.211 569.285 187.318 565.248C180.783 565.557 174.205 565.242 167.785 563.999C168.813 571.503 168.137 581.269 168.61 587.961C169.293 590.207 165.136 591.61 164.694 589.373C164.45 582.133 165.157 571.688 166.259 563.608L165.798 563.496C165.363 563.387 164.906 563.257 164.532 563.046C160.412 563.513 161.536 553.036 160.844 550.09C156.196 485.114 146.405 420.721 138.084 356.174C136.93 355.732 136.725 354.314 136.534 353.13C126.049 360.233 123.959 374.426 119.266 385.429C98.7673 442.397 89.6086 502.5 75.4017 561.164L75.4798 561.184C75.5356 561.201 75.5361 561.209 75.4195 561.201L75.3927 561.199V561.203C76.2705 561.32 76.962 562.242 76.4263 563.101C74.827 566.331 70.3933 565.188 67.4748 564.983C67.7582 569.957 66.6936 580.691 67.3682 585.124C70.9683 585.19 71.1972 589.156 71.6739 591.513L71.7109 591.755C72.3471 595.782 74.4851 603.333 72.8879 606.588C75.3569 609.528 73.5809 613.523 71.0194 615.53C68.2765 617.558 64.8623 618.747 61.7616 620.309C47.1682 626.209 33.0497 637.584 15.1665 633.207L14.3879 633.043C1.85419 630.392 -1.74686 629.215 0.742293 616.801C-0.279918 614.278 -0.286722 611.515 1.15157 609.284C3.71654 605.99 8.02615 604.188 11.4553 601.686C17.2636 597.78 23.4454 594.365 29.1184 590.3C28.9075 590.117 29.2003 590.049 29.3723 590.08C33.376 586.944 33.0014 581.513 35.7946 577.639C36.4931 575.642 40.0204 575.156 42.3433 575.432C41.6176 571.711 45.1628 554.772 45.6132 566.737L45.613 566.909C45.6218 568.756 45.924 574.922 45.3805 576.13C53.0908 578.488 54.7534 585.9 56.4034 591.885L56.5097 591.914C57.0363 592.05 57.7418 592.16 58.0052 592.677C60.4846 591.1 61.1774 587.996 63.5787 586.326C62.9052 585.799 62.8696 584.793 63.2133 584.013C64.3316 579.91 65.002 569.467 66.6914 564.884C58.754 563.694 50.6678 563.088 42.9159 560.929C41.9086 561.919 39.8413 561.568 39.9225 559.78C42.3233 520.832 46.4526 482.004 51.6578 443.335C55.9375 407.14 63.4665 371.405 68.7108 335.4L68.7552 330.458C68.8968 315.602 69.2934 300.525 74.8287 286.539C74.3415 286.326 73.8587 286.106 73.3825 285.875C67.3803 288.365 72.1092 273.237 72.33 270.51C75.2797 254.702 78.7543 238.898 80.9697 222.992C78.6474 222.151 76.5031 220.959 74.7144 219.226C63.8694 210.392 57.5826 138.848 61.5242 124.462C63.5815 115.414 72.3002 110.968 80.6098 108.923L81.8371 108.576C91.1176 105.963 100.559 103.596 110.222 103.014C110.566 102.702 111.578 102.792 111.71 103.052C112.315 103.417 112.89 104.129 113.376 104.881C126.787 103.339 123.16 94.5662 128.677 93.3164ZM160.763 608.561C158.885 612.828 161.38 616.074 165.563 617.868C180.049 624.589 196.22 629.99 212.822 631.021C217.888 629.795 222.905 627.769 228.038 626.516L228.26 626.476C230.067 626.144 230.916 625.811 230.761 623.933L230.826 623.173C230.942 621.824 231.04 620.477 230.946 619.128C229.367 622.907 224.64 624.984 220.496 625.747C213.926 628.867 206.568 625.695 200.113 624.358C189.629 621.168 166.945 616.155 160.763 608.561ZM69.7598 608.65L69.5429 608.716C67.6625 609.299 65.7505 610.012 63.643 609.487C54.2284 612.68 45.0648 616.303 35.97 620.074C26.1569 624.776 10.3559 630.242 1.85207 618.88C3.07464 624.839 1.34623 626.877 9.46533 628.364C22.3481 632.568 32.6995 630.415 43.3895 624.671C51.2215 620.86 59.6454 617.831 67.2264 613.69L67.3287 613.618C68.8199 612.552 70.6192 610.609 69.7598 608.65ZM50.2061 582.995C47.748 578.457 41.1333 575.965 36.2138 577.638C35.7132 582.014 37.01 586.914 34.233 590.714C36.692 591.145 39.1432 591.642 41.5906 592.157L43.8303 592.631C44.9296 592.872 46.3283 593.284 46.1447 594.451C45.9415 595.74 44.2503 595.346 43.1247 595.022L42.6885 594.894C39.5275 593.963 36.3718 593.013 33.2509 591.949C31.6059 593.761 29.3976 595.182 27.2559 596.554L28.1442 596.655C31.2564 597.005 34.3986 597.322 37.4734 597.953C38.8169 598.351 38.527 600.184 37.1524 600.038C33.4814 599.079 29.82 597.996 26.086 597.308C24.2608 598.516 22.4442 599.729 20.6146 600.931C24.213 601.452 27.8272 601.499 31.4238 601.807C33.7524 602.022 33.7517 605.206 31.4236 605.022C27.2221 604.637 23.0233 603.393 19.0232 601.98L16.9149 603.367C14.4543 604.985 11.9882 606.598 9.49759 608.178C7.99894 609.133 6.06337 610.042 5.01614 611.426C1.70898 616.771 9.9727 621.879 15.5569 621.794C24.0381 621.884 31.1018 617.478 38.5312 614.84C42.6409 613.822 63.5352 603.354 65.4366 606.109C66.6319 605.534 68.2945 605.327 69.1552 604.38C69.3294 600.004 68.408 595.418 67.6346 591.004C67.477 590.233 67.1005 589.309 67.0583 588.518C63.5778 589.802 62.5868 594.664 58.0055 594.25C57.2885 595.396 55.0804 594.862 54.084 593.952C52.9997 592.962 52.8637 591.567 52.6049 590.325L52.485 589.754C51.9986 587.466 51.4155 585.121 50.2061 582.995ZM153.341 211.776L152.781 211.918C147.08 213.345 141.116 214.378 135.258 213.995C134.245 217.829 134.773 226.95 130.654 228.407C129.246 228.938 127.129 228.507 126.483 227.069C117.963 226.918 109.382 226.156 100.861 225.649C94.4467 225.144 87.7916 225.163 81.6168 223.215C82.3649 226.985 82.6226 230.686 82.2039 234.542C80.7634 250.986 76.0218 267.007 74.4326 283.38L74.3593 284.16L74.3132 284.134C74.3132 284.165 74.311 284.195 74.3086 284.226C74.7716 284.36 75.2347 284.501 75.6955 284.643C75.8601 284.56 76.0842 284.641 76.2025 284.799C110.138 295.362 146.158 299.949 181.527 295.301C187.721 294.527 193.87 293.443 199.976 292.158C199.923 291.612 200.756 291.468 200.902 291.985C202.257 291.748 203.612 291.489 204.96 291.315C204.797 290.856 204.769 290.36 204.936 289.912C207.564 282.019 206.364 273.021 205.534 264.836C204.477 252.269 201.842 239.942 199.713 227.545C189.635 227.086 179.617 225.44 169.49 225.647C168.423 228.414 164.704 230.738 161.793 229.156C159.737 228.044 159.128 225.622 158.303 223.621C156.672 219.663 155.006 215.72 153.341 211.776ZM110.638 103.389C100.055 106.518 89.2121 108.752 78.7253 112.224C70.01 114.398 64.0604 119.87 63.693 129.202C62.9739 149.193 65.164 169.284 68.4698 188.985L68.6424 189.874C70.4765 199.369 72.1207 209.029 75.5845 218.079C80.6411 220.431 86.3825 221.101 91.9146 221.374C99.9877 221.785 108.06 222.207 116.126 222.736L122.45 223.146C124.285 223.265 126.837 222.951 128.215 224.379C128.338 224.58 128.586 224.555 128.775 224.68L128.812 224.707C129.013 224.843 129.216 225.176 129.506 225.111C129.978 224.965 130.159 224.024 130.27 223.574L130.28 223.533C130.894 221.129 131.339 218.672 131.907 216.254C133.2 211.496 133.757 206.467 135.722 201.914C132.909 200.117 130.259 198.063 127.987 195.626L125.247 194.66C118.693 192.359 112.064 190.129 105.233 188.75C105.069 190.25 102.917 191.108 102.114 189.538C100.784 185.537 100.537 181.194 99.6201 177.07C97.5377 164.768 95.0636 152.511 93.6233 140.11C97.5941 151.093 99.6515 164.573 102.686 176.443C102.827 176.361 103.022 176.408 103.028 176.603C113.773 172.536 125.702 172.702 136.306 177.017C138.962 178.083 141.66 179.04 144.302 180.14C145.205 180.65 147.002 180.619 147.305 181.734C147.63 180.977 148.066 180.268 148.645 179.79C148.826 179.417 150.88 178.752 151.081 179.489C163.127 181.144 174.84 186.388 187.236 185.503C185.769 180.144 185.943 174.357 185.844 168.823L185.874 168.2C186.129 162.748 186.314 156.001 188.161 151.514C186.979 162.809 187.837 174.122 189.279 185.312C198.022 184.183 193.996 189.185 188.173 188.998C176.422 189.845 165.576 184.644 154.761 180.854C148.854 178.491 148.185 180.492 148.448 186.109C148.453 193.422 151.763 200.096 154.76 206.584L156.107 209.614C158.346 214.656 160.553 219.666 162.728 224.769C172.23 221.616 182.927 223.346 192.771 223.921C200.282 224.865 205.675 224.53 212.029 220.182C214.321 215.8 217.341 211.644 218.522 206.702C219.891 202.172 220.347 197.427 220.747 192.733L220.387 191.419C215.756 174.565 210.631 157.794 203.628 141.741L203.249 140.856C200.875 135.297 198.463 129.463 193.66 125.569C185.599 119.612 175.629 116.971 167.155 111.671L167.101 112.059C166.241 118.138 164.756 124.44 160.867 129.332C153.682 138.16 140.117 138.408 130.922 132.675C121.357 127.383 115.619 117.529 112.827 107.23L112.794 107.117C112.533 106.199 111.805 103.42 110.638 103.389ZM136.614 202.471C136.608 205.708 135.969 208.899 135.537 212.095C140.51 211.113 145.468 210.428 150.359 209.101C145.595 207.3 140.965 205.13 136.614 202.471ZM124.64 176.359C117.389 174.939 109.966 175.788 102.796 176.932C103.575 180.556 104.465 184.148 105.209 187.777C107.776 187.659 132.133 191.975 129.384 195.44C132.979 197.364 136.385 199.626 139.964 201.591C143.563 203.568 147.311 205.267 151.177 206.647L150.973 206.193C147.646 198.755 144.537 190.384 147.101 182.255C143.653 183.64 138.947 180.665 135.607 179.553C132.062 178.129 128.41 177.006 124.64 176.359ZM72.4389 147.556C72.4631 146.199 76.6515 150.09 77.1982 150.494L77.5286 150.794C81.548 154.444 85.5186 158.459 87.758 163.467C87.9218 168.39 80.5909 156.466 79.5746 155.737C77.3571 152.881 74.6556 150.401 72.4389 147.556ZM188.342 159.143C187.209 159.516 190.302 155.67 191.508 155.95C191.988 155.88 192.406 156.576 191.873 156.816L191.608 156.932C190.371 157.47 189.105 157.929 188.342 159.143Z" fill="#232323"/>
<path fill-rule="evenodd" clip-rule="evenodd" d="M143.411 1.69897C153.161 1.69897 164.858 6.48393 165.853 6.57963L165.88 6.58109C166.403 6.58109 168.448 8.15808 172.013 11.3121L168.151 18.9386L168.464 19.2408C169.959 20.6925 171.236 22.0158 172.244 23.059C180.474 31.5762 181.953 65.0175 180.013 76.6795C178.074 88.3416 174.482 99.7532 157.758 99.7532C141.035 99.7532 122.429 89.573 119.563 86.4027C117.653 84.2893 115.506 83.2767 113.125 83.3651C113.027 83.2401 112.93 83.1154 112.833 82.9911L112.483 82.9408C109.187 82.4575 106.825 81.807 105.397 80.9895C102.609 79.3926 99.5451 70.9977 99.5451 69.1484C99.5451 67.3176 94.9694 53.9992 94.8779 52.5898L94.8765 52.5507C94.8765 51.3725 88.8988 45.9564 88.8988 44.2364C88.8988 42.5163 87.6939 42.6207 88.8988 36.5595L89.2489 34.7788C90.5311 28.3254 93.0407 17.6395 102.609 12.9962C113.125 7.89362 133.563 1.69897 143.411 1.69897Z" fill="#FAFAFA"/>
<path fill-rule="evenodd" clip-rule="evenodd" d="M100.987 12.7565C106.231 7.12118 136.004 -1.59532 151.066 0.252372L151.518 0.31161C152.72 0.465931 153.905 0.699618 155.074 1.01708C158.853 1.9106 162.756 3.26355 165.879 5.52347C168.486 7.37224 176.709 10.3914 174.285 15.2278C175.184 16.9516 175.519 19.0812 174.912 20.779C174.836 21.3654 174.657 21.9055 174.429 22.4655C176.349 25.3339 177.869 28.5777 179.099 31.663C181.25 39.4278 182.588 47.5085 182.784 55.4307C183.436 70.4818 181.806 88.4604 168.857 98.1932C161.035 104.361 148.782 104.568 139.992 96.921C139.493 96.3233 137.147 94.7104 137.93 94.4276C138.163 94.6767 138.403 94.9192 138.646 95.1573C138.635 95.1308 138.633 95.1044 138.638 95.0757L138.408 94.8654C137.976 94.4608 137.417 93.874 138.054 93.9889C138.082 94.0219 138.113 94.0506 138.143 94.0837C138.278 94.1656 138.38 94.2367 138.46 94.2994L138.5 94.3325L138.488 94.3192C138.121 93.9228 137.9 93.5185 138.449 93.7767L138.522 93.8125C138.766 94.0726 139.014 94.3217 139.267 94.5643C139.263 94.5356 139.267 94.5069 139.282 94.4761L139.047 94.2457C138.817 94.0177 138.852 94.0167 138.964 93.8323C138.476 93.139 139.388 93.5508 139.452 93.8213C140.023 93.6846 140.524 94.7693 140.891 94.9016C157.005 107.443 180.39 96.3149 180.011 61.3667L180.005 60.6829C179.895 49.508 178.966 38.0223 174.4 27.9064C173.956 26.932 173.459 25.984 172.913 25.0669C172.536 24.3791 172.133 23.7089 171.7 23.0563C170.487 22.9571 169.289 22.7322 168.109 22.3839C167.704 22.2803 167.303 22.1657 166.903 22.0312C161.049 22.3544 155.327 22.706 149.457 23.0393L147.623 23.155C142.651 23.4786 137.509 23.9969 133.496 27.1106C129.559 29.9452 129.541 35.5349 126.171 38.6471C121.365 41.9494 121.33 44.9271 120.405 49.7935C120.473 53.462 122.986 58.792 118.375 60.3359C119.153 61.4587 118.069 60.9192 117.983 60.5255C117.975 60.5277 117.966 60.5299 117.959 60.5299C118.652 61.8343 117.634 61.0129 117.543 60.5938C117.489 60.5784 117.435 60.5387 117.38 60.4836C118.078 61.6264 116.95 60.8262 117.016 60.618C115.667 58.5182 112.89 58.1921 110.932 58.7486C110.908 58.8235 110.821 58.8301 110.767 58.7904C102.442 60.6167 104.59 78.0629 113.121 76.3764C113.486 76.301 113.477 76.4785 113.55 76.4955C113.353 75.9717 113.908 76.1848 113.902 76.2949L113.936 76.2932C113.963 76.2908 113.952 76.2878 113.972 76.2949C113.781 75.2236 114.854 76.7757 114.769 76.8394C114.802 76.8195 114.839 76.8085 114.871 76.8041L114.835 76.7024C114.657 76.2225 114.672 76.422 114.673 76.1471C114.539 75.8074 114.53 75.956 114.561 75.7347C115.031 75.3661 115.17 76.4842 115.326 76.566C115.058 76.1868 115.271 75.8771 115.525 76.083C117.446 80.1743 119.928 84.0184 123.135 87.0466C123.486 87.3266 123.841 87.6022 124.209 87.8623C125.573 89.0654 127.666 89.8389 128.943 90.9046C128.943 90.9223 128.934 90.9443 128.921 90.9664L128.951 90.9931L128.98 91.0215L129.424 91.2375C129.555 91.35 129.673 91.4756 129.777 91.6145C129.888 91.7446 129.986 91.8879 130.069 92.04C130.11 92.2252 130.019 92.3023 129.845 92.223C129.768 92.1965 129.692 92.1657 129.616 92.137C129.62 92.1436 129.622 92.148 129.627 92.1524C129.652 92.1907 129.821 92.5877 129.626 92.5231L129.603 92.514C129.496 92.4743 129.389 92.4302 129.285 92.3883C129.409 92.5449 129.522 92.7146 129.622 92.8579C129.729 92.9703 129.794 93.1026 129.821 93.2525C129.816 93.3363 129.771 93.3716 129.688 93.3605C129.562 93.3187 129.437 93.2746 129.313 93.2283L129.348 93.2966C129.436 93.4715 129.561 93.7649 129.339 93.667C129.15 93.6075 128.967 93.5391 128.784 93.4642C128.769 93.495 128.738 93.5061 128.677 93.4774C128.096 93.268 127.534 93.0122 126.996 92.7102C126.524 92.3619 126.047 92.0202 125.572 91.674C125.126 91.4029 124.694 91.1008 124.283 90.7613C121.529 88.9606 119.118 86.6732 117.206 84.1255C114.007 86.93 107.612 84.2508 103.656 82.0554C100.157 80.0934 98.7813 76.4655 98.4257 72.5541C97.6864 67.2882 93.4357 65.4858 93.7315 53.9315C93.7249 53.9337 93.7182 53.9337 93.7095 53.9337C93.5549 53.8875 93.4048 53.8257 93.2633 53.7464C93.1174 53.6758 92.9802 53.592 92.8515 53.4906L92.6925 53.268C92.61 53.2217 92.536 53.1732 92.4793 53.1247L92.45 53.163C92.357 53.2765 92.4195 53.1057 92.4249 53.0718L92.1488 52.6915C91.494 51.7865 90.7756 50.771 90.1905 49.9589L90.172 49.9919C90.1588 50.0168 90.1518 50.0348 90.158 50.0427C88.7655 48.0171 87.4559 45.5704 87.092 43.2018C86.6623 41.3773 86.8302 39.4972 87.205 37.8072C88.8118 31.889 94.0755 18.4966 100.987 12.7565ZM138.779 94.6024L138.691 94.5237L138.768 94.621C138.808 94.6713 138.849 94.7165 138.916 94.7627C138.912 94.7472 138.912 94.7318 138.914 94.7142C138.87 94.6798 138.824 94.6422 138.779 94.6024ZM151 3.22607C140.785 2.33696 130.738 4.61518 120.991 7.3729L120.319 7.56856C114.776 9.16965 108.916 10.6104 104.232 14.0374C97.6879 19.1117 94.3087 27.184 91.3598 34.637C88.7848 40.1745 90.1012 46.4185 93.9817 50.2852C94.3854 46.4428 95.0737 42.7128 96.1495 39.0129C96.374 38.4348 96.2041 38.2455 96.688 38.1701C97.4188 48.141 93.8194 55.5078 100.942 67.3248C104.033 72.9007 100.455 76.9805 109.183 79.9146L109.419 80.0059C111.237 80.7006 113.223 81.2489 115.004 80.8605L114.845 80.5978C114.682 80.3272 114.632 80.1959 114.869 80.0801C114.863 80.0669 114.854 80.0537 114.845 80.0382C114.654 79.6723 114.469 79.3019 114.292 78.9271C114.22 78.9514 114.149 78.969 114.074 78.9889C114.122 79.0792 114.129 79.1696 113.994 79.2005C113.514 79.3672 113.021 79.434 112.517 79.4027L112.409 79.3945C111.839 79.3592 111.48 79.2541 111.158 79.1564C111.052 79.1388 110.945 79.1211 110.841 79.0991C109.807 78.8672 108.713 78.2772 108.006 77.6926C99.9358 73.0523 100.77 57.2567 110.717 55.7635C110.921 45.8182 115.593 29.0396 123.348 19.5627C130.357 10.8456 149.492 7.06734 162.805 8.39957C162.999 8.46461 163.193 8.53031 163.387 8.59666C165.441 8.78141 167.398 9.70777 169.454 10.1381C167.978 9.0184 166.304 8.27259 164.58 7.63877C161.144 5.51113 157.205 4.35989 153.4 3.54794C152.611 3.35173 151.812 3.24371 151 3.22607ZM110.261 63.7529C110.796 63.4589 110.735 63.7428 110.858 63.6604C114.705 63.3427 118.853 66.7525 121.003 69.5951C120.834 69.7737 120.374 69.2446 120.294 69.1608C120.283 69.1718 120.27 69.1806 120.257 69.185L120.316 69.2706C121.188 70.5369 119.46 69.0468 119.298 68.7397C119.27 68.7551 119.242 68.764 119.209 68.7574C119.346 68.8934 119.764 69.2481 119.836 69.5003L119.947 69.5937C120.993 70.5004 120.906 71.1824 119.719 69.8949C119.747 69.9544 119.758 70.0096 119.738 70.0536L119.779 70.0812C120.363 70.4943 120.843 71.6457 119.623 70.4637C119.75 71.327 118.414 69.6584 118.371 69.6701C116.059 67.8325 112.654 66.0455 109.754 65.8054L109.654 65.7938C109.122 65.7246 108.87 65.5647 109.057 65.2124C108.402 65.0545 108.555 64.7278 108.866 64.7384C108.403 64.4306 108.819 64.1363 109.088 64.2512C108.903 63.7342 109.643 64.0786 109.71 64.0065C110.094 63.407 110.198 63.907 110.261 63.7529ZM102.198 31.7093C104.045 31.0241 109.503 33.0753 109.067 35.7918C108.807 36.4154 107.95 36.7728 107.348 36.4207L106.562 35.8864C105.194 34.9591 103.961 34.1461 102.493 33.3374C101.693 32.9359 101.349 32.0836 102.198 31.7093ZM112.71 27.6724L111.997 27.2023C108.146 24.6508 102.702 20.7847 112.356 24.7846C113.457 25.2624 114.919 25.545 115.519 26.6059C116.462 28.5611 113.98 28.6925 112.71 27.6724ZM113.143 16.2242C112.834 15.0371 116.679 16.4302 117.798 16.7974L117.969 16.8626C119.057 17.2734 120.305 17.6544 120.957 18.6056C121.72 19.92 120.175 20.1923 119.219 19.5986C117.257 18.301 115.107 17.3219 113.143 16.2242ZM122.92 10.6941C120.756 8.30134 126.548 10.5935 127.416 11.2297L127.441 11.2485C128.088 11.7099 127.957 12.7038 127.348 12.9956C125.618 13.0289 124.344 11.5686 122.92 10.6941ZM132.769 8.07255C129.328 5.56924 133.86 6.75994 135.434 7.74098C136.507 8.69887 135.402 10.3159 132.769 8.07255Z" fill="#232323"/>
<path fill-rule="evenodd" clip-rule="evenodd" d="M160.071 80.1179C160.411 79.5353 161.193 78.9956 161.909 79.0784C165.115 79.4493 165.11 83.2836 163.872 85.522C162.774 87.5069 160.502 88.672 158.228 88.5019C155.839 88.323 153.804 86.9377 152.908 84.7335C152.316 83.2755 152.042 80.5838 153.618 79.6041C153.647 79.5858 153.695 79.5904 153.719 79.6168C154.474 80.4837 154.504 81.7854 155.165 82.7506C155.781 83.6484 156.736 84.3897 157.856 84.5042C158.692 84.5898 159.538 84.2923 159.865 83.5518C160.042 83.1513 160.022 82.9338 159.956 82.6581L159.895 82.4186C159.686 81.5795 159.592 80.9406 160.071 80.1179ZM160.928 63.3021C162.601 64.3047 165.149 66.6425 163.35 69.1281C161.232 71.3197 158.183 68.8069 156.681 67.6704C155.288 66.7897 153.723 69.0549 155.015 70.0834C165.872 78.0113 170.277 63.5642 161.774 62.1232C160.838 61.9645 160.49 62.9919 160.928 63.3021ZM143.269 56.4271C144.296 54.9081 146.638 55.1318 147.204 56.9343C147.51 57.9107 147.087 58.7883 147.109 59.7634C147.127 60.5871 147.073 61.5049 146.817 62.3026C146.233 64.1217 144.574 65.4065 142.612 65.3532C140.656 65.3001 138.933 64.0791 138.114 62.3594C137.292 60.6332 137.466 58.8466 138.066 57.0913C138.095 57.007 138.207 56.9662 138.275 57.0372C138.984 57.7807 139.504 58.5657 140.041 59.3984L140.592 60.2518C141.012 60.8945 141.624 61.7154 142.41 61.6638L142.528 61.6523C142.746 61.6339 142.713 61.6766 142.881 61.383C142.959 61.2472 142.945 60.9947 142.983 60.8343L142.996 60.7802L142.988 60.751C142.972 60.6733 142.955 60.527 142.942 60.2731L142.939 60.2171C142.882 59.0295 142.542 57.5033 143.269 56.4271ZM169.288 57.4383C169.104 55.4956 171.873 55.0642 172.794 56.5017C173.274 57.2513 173.414 58.193 173.52 59.0851L173.569 59.5086C173.678 60.4249 173.721 61.3781 173.318 62.2328C172.683 63.579 171.302 64.2907 169.812 64.178C168.389 64.0701 167.091 63.2564 166.407 62.0212C165.797 60.919 165.19 58.767 165.931 57.6174C165.976 57.5477 166.065 57.5388 166.127 57.5925C166.827 58.2056 166.941 59.324 167.357 60.1228C167.787 60.9467 168.438 61.7497 169.425 61.8748C170.369 61.9945 170.73 61.4858 170.489 60.5979C170.178 59.4516 169.405 58.6718 169.288 57.4383ZM144.017 44.8772L144.47 44.7061C146.021 44.128 148.152 43.4598 149.413 44.7042C150.191 45.4716 150.339 46.6019 149.784 47.5384C149.111 48.6727 147.904 48.7006 146.738 48.8677C145.412 49.0578 144.064 49.419 142.829 49.9341C141.439 50.5145 140.148 51.2379 138.884 52.0459C137.683 52.8137 136.485 54.0685 135.047 54.3051C134.988 54.3147 134.921 54.2898 134.906 54.2262C134.58 52.8392 135.487 51.4742 136.297 50.3921C137.278 49.082 138.465 48.0067 139.793 47.0425C141.074 46.1118 142.537 45.4392 144.017 44.8772ZM172.201 49.8086L172.339 49.7847C173.28 49.6302 174.133 49.6658 174.842 50.4008C175.383 50.9615 175.591 51.6882 175.333 52.4296C175.095 53.1135 174.563 53.8083 173.79 53.9516C171.182 54.4356 168.293 54.3557 165.671 53.9892C164.472 53.8214 163.261 53.6161 162.093 53.2924L161.556 53.1387C160.58 52.8639 159.464 52.5768 158.755 51.8693C158.501 51.615 158.647 51.2511 158.952 51.1334C160.188 50.6559 161.883 50.91 163.201 50.8726C164.734 50.8293 166.27 50.716 167.796 50.5598C169.287 50.4069 170.73 50.0747 172.201 49.8086Z" fill="#232323"/>
</svg>
