<svg width="236" height="645" viewBox="0 0 236 645" fill="none" xmlns="http://www.w3.org/2000/svg">
<path fill-rule="evenodd" clip-rule="evenodd" d="M230.627 322.522C236.406 322.652 233.928 268.58 230.069 258.616C229.528 256.597 229.082 253.838 229.172 251.36C233.945 251.839 233.431 248.563 233.185 244.612C233.266 241.476 233.483 235.004 228.696 237.524C214.342 208.71 229.862 134.226 192.069 127.211C187.515 126.102 182.808 124.954 178.974 121.788C174.917 114.268 172.851 113.308 166.128 112.822C164.884 106.048 162.557 98.812 155.623 96.1763C149.274 93.6819 141.885 93.4829 135.266 94.814C129.786 96.606 129.285 106.818 128.068 111.853C120.689 109.891 111.594 105.764 107.621 115.119C105.697 114.542 103.914 114.917 101.958 115.558C85.57 118.206 69.6695 125.64 63.591 141.152C59.8362 150.46 62.5009 160.592 63.909 170.232C65.2223 180.729 61.7593 190.454 60.154 200.551C57.7639 214.455 57.3316 225.608 58.8914 235.942C54.7686 236.882 54.4646 240.642 56.1325 244.577C56.6223 245.908 57.1157 247.312 58.1988 248.065C60.4021 249.455 63.2497 247.853 65.6441 247.607C66.1422 253.16 67.1066 258.608 68.7023 264.799C68.2402 266.652 67.7102 268.722 67.2342 270.583L67.0736 270.408C61.607 293.368 45.3486 315.67 50.4018 340.072C50.6989 340.885 51.2627 340.715 51.6957 340.701C54.204 341.657 56.5081 341.05 59.0377 341.148C65.0377 341.152 70.8344 341.923 76.2119 342.593C77.1948 349.032 80.3907 359.573 86.09 362.028C86.1859 362.061 87.8752 361.708 88.0164 361.698C72.8443 423.383 45.5456 480.423 34.7019 543.352C34.6377 544.12 35.8839 543.713 36.2927 543.807C36.2367 545.553 37.362 545.973 38.9376 546.594C36.9072 550.85 35.0782 555.101 33.057 559.368C32.1197 561.48 30.5923 563.566 30.3139 565.824C28.0763 567.258 26.5692 570.061 26.6091 572.677C20.575 575.235 22.2151 587.866 20.8384 594.122C19.4464 603.442 12.8253 609.95 8.28536 617.592C7.36016 619.126 6.37496 621.136 6.33124 623.062C3.51684 624.385 2.4674 627.275 2.65364 632.139C2.64361 637.831 4.24464 639.998 8.56171 640.136C20.2877 641.31 33.971 640.832 45.7651 639.496C54.5879 638.371 62.4062 639.304 60.4335 628.674C60.0276 626.101 60.8074 622.636 59.2884 620.553C58.3518 614.353 58.8967 608.104 60.9162 601.98C62.1439 596.822 64.2181 586.17 63.3586 579.248C62.9611 576.047 56.4442 574.286 55.2971 574.13C55.662 571.721 55.5014 567.51 54.2084 565.835C56.5827 565.503 57.1795 564.874 57.674 562.23C58.8557 557.948 59.0129 553.298 61.9393 549.69C67.2026 549.758 72.4482 548.419 77.7085 548.256L77.9704 547.65C81.0817 547.61 84.1755 547.059 87.1287 545.978C87.7835 546.289 88.6213 546.555 88.9893 545.561L90.7461 540.053C111.196 474.8 133.863 409.389 155.965 344.614C157.255 341.465 158.806 338.118 160.824 335.311C161.507 374.945 169.788 414.536 170.499 454.15C171.46 481.402 171.212 508.367 173.769 535.716C174.427 541.504 175.126 541.312 175.988 540.957C176.333 541.011 177.146 541.185 177.498 541.259C176.922 547.011 176.259 556.347 173.799 562.23C168.362 563.071 169.335 567.255 170.541 570.722C169.244 571.833 169.429 574.423 169.814 575.856C164.698 575.862 163.582 580.034 163.934 582.667C164.421 587.071 164.148 593.923 167.079 597.684C168.804 602.48 171.614 607.006 172.711 612.172C173.4 615.974 173.134 621.511 173.799 625.282C172.126 626.057 172.835 627.272 172.553 629.622C171.104 640.382 176.202 638.553 185.216 639.294C190.619 640.49 231.749 642.871 229.972 635.712C230.275 632.797 228.923 631.517 228.344 628.646C228.084 627.885 222.959 619.069 219.903 615.731C209.652 606.073 210.1 593.108 210.424 578.173C209.822 574.125 206.716 570.249 202.753 570.684C203.891 566.361 201.782 562.602 197.375 561.352C197.816 556.457 198.279 549.806 199.891 545.572L198.373 544.022L200.404 544.266L201.079 542.563L201.815 544.429C205.303 544.429 209.238 543.653 212.579 543.289C213.113 543.319 212.875 542.592 212.962 542.311C216.118 541.656 216.463 539.975 215.906 535.969C216.64 470.931 216.322 406.503 215.317 341.344C220.248 341.564 225.057 339.761 229.902 338.559C231.624 339.642 232.112 335.784 231.911 334.951C231.637 330.64 231.105 326.436 230.627 322.522Z" fill="#FAFAFA"/>
<path fill-rule="evenodd" clip-rule="evenodd" d="M129.36 102.784C130.093 103.364 130.016 104.972 130.089 105.873L130.094 105.932C130.324 108.651 130.012 111.383 129.351 114.024L129.249 114.426C128.933 115.688 128.619 117.201 127.63 118.067C126.507 119.05 124.723 118.413 124.683 116.828C124.662 116.091 124.908 115.382 125.218 114.691C123.042 115.532 120.866 116.365 118.682 117.177C117.286 128.748 133.408 142.915 142.743 147.875C156.336 155.419 167.773 143.864 169.513 130.279C169.805 128.475 170.001 126.621 170.039 124.791L170.042 124.616C170.049 123.103 169.799 121.081 170.782 119.823C170.058 119.806 169.416 119.908 168.707 120.019L168.741 120.078C169.143 120.798 169.71 122.588 168.439 122.725C165.696 122.435 164.42 117.613 163.751 115.3L163.724 115.199C163.292 113.466 162.743 107.174 164.043 106.42C164.443 107.972 164.286 109.658 164.772 111.214C165.879 111.662 167.987 111.782 168.476 111.865C174.177 111.931 177.41 116.035 179.721 120.838C186.495 126.413 196.233 125.455 203.549 130.046C225.934 146.316 218.623 209.652 229.773 236.597C232.006 235.67 234.281 237.525 234.579 239.788C234.887 241.528 234.795 243.392 234.82 245.155L234.831 245.375C235.013 248.982 235.635 253.035 230.777 253.114C230.784 255.127 231.162 257.076 231.648 259.019C234.338 270.783 235.512 282.9 235.776 294.959L235.79 295.845C235.877 302.184 235.955 321.793 232.32 324.113L232.49 325.495C232.91 328.949 233.307 332.412 233.528 335.884C233.877 337.686 232.69 342.004 230.268 340.861C225.827 341.962 221.447 343.587 216.832 343.596C217.95 380.894 217.394 418.231 217.559 455.545C217.203 483.05 218.686 510.783 217.39 538.183L217.436 538.569C217.803 541.646 217.913 544.321 214.366 545.375C214.315 546.127 213.737 546.53 213.052 546.618C211.108 546.88 209.164 547.129 207.217 547.368C205.404 547.503 203.465 547.956 201.658 547.74C201.832 547.917 201.358 547.945 201.307 547.815C199.659 551.96 199.181 556.478 198.773 560.899C202.772 562.428 204.954 565.865 204.302 570.174C208.336 570.338 211.282 574.833 211.848 578.621C212.21 581.235 211.92 583.831 211.803 586.449C211.245 595.398 212.557 605.04 218.319 612.177C222.059 616.658 226.928 620.711 228.561 626.546C229.004 626.753 229.368 627.155 229.528 627.782L230.563 631.856L231.078 633.893C231.455 635.378 231.79 636.897 231.588 638.435L231.567 638.583C230.558 648.321 190.741 643.628 182.97 642.928C179.846 642.437 176.418 642.705 173.605 641.046C170.155 638.763 169.724 634.132 170.316 630.339L170.365 629.984C170.605 628.287 170.956 626.509 172.561 625.56C172.021 622.046 172.23 618.45 171.587 614.949C170.617 609.995 167.68 605.697 166.181 600.941C163.994 598.503 163.92 594.702 163.463 591.584C163.116 588.559 162.833 585.514 162.716 582.471C162.398 578.449 164.14 575.132 168.359 574.606C168.163 573.844 168.699 573.185 169.232 572.697C167.974 568.218 167.627 562.069 173.083 560.541C175.15 555.403 175.751 549.835 176.301 544.355C176.236 544.341 176.171 544.33 176.105 544.319C173.605 545.362 172.926 540.895 172.692 538.535L172.64 537.973C170.067 510.7 170.304 483.266 169.338 455.91L169.243 453.932C168.396 435.907 167.892 417.724 164.783 399.94C161.654 380.118 160.836 359.973 159.766 339.944C158.506 341.906 157.829 344.16 156.809 346.251C143.581 385.218 130.007 424.068 116.929 463.088C107.45 491.339 98.3939 519.74 89.3108 548.123C88.8473 549.576 87.3871 549.878 86.3184 549.412C83.598 550.358 80.743 550.896 77.8698 550.988C77.6968 551.388 77.3413 551.68 76.8213 551.622C75.2846 551.454 73.5164 551.935 71.9796 552.115C68.4634 552.464 65.0498 553.004 61.5014 553.055C59.3032 555.842 59.165 559.62 58.1514 562.936C57.568 564.627 57.6596 568.419 55.6447 568.895C56.367 570.01 56.4615 571.349 56.3445 572.729C56.9711 572.872 57.6067 573.142 58.1962 573.418C58.7704 573.709 59.5288 573.684 59.9244 574.271C71.178 576.316 62.9539 597.742 60.9978 604.828C59.078 610.621 58.4768 616.672 59.3529 622.72C60.6921 624.575 60.2437 627.333 60.4486 629.532C60.5564 631.493 60.7544 633.485 60.7366 635.449C60.5179 643.607 50.4721 642.28 44.8045 643.339C41.2655 643.752 37.7103 644.039 34.1554 644.263C25.1394 644.824 16.0728 644.867 7.07518 643.993C1.2658 643.809 0.0166232 640.009 0.025848 634.812L0.0169793 634.597C-0.113924 631.07 0.453353 626.81 3.79452 624.976C3.96102 623.113 4.90398 621.231 5.86673 619.602C10.3437 612.055 17.0654 605.442 18.3875 596.385C19.6844 590.457 18.2152 577.406 24.2264 574.314C24.3659 571.645 26.0014 568.923 28.0265 567.48C28.4174 565.257 29.8897 563.212 30.8007 561.169C32.6587 557.267 34.3775 553.303 36.2256 549.399C35.2579 548.988 34.2297 548.233 34.0947 547.161C33.1657 547.172 32.2477 546.57 32.3602 545.436C32.6883 542.145 33.4064 538.908 34.0846 535.674L34.1691 535.27C46.2366 476.783 71.1562 422.092 85.7357 364.356C83.7739 364.711 81.94 362.462 80.8555 360.998C77.3523 356.269 75.2833 350.547 74.3734 344.741L72.7268 344.536C67.2353 343.86 61.7167 343.268 56.1793 343.427L54.8448 343.472C53.3622 343.518 51.877 343.506 50.4676 342.971C49.4844 343.062 48.4606 342.533 48.2176 341.427C44.1164 320.933 54.1973 301.484 61.4181 282.966C63.1191 278.413 64.3298 273.794 65.484 269.079C65.522 268.926 65.7605 268.958 65.754 269.115C65.529 274.357 64.2328 279.642 62.9164 284.695C58.594 301.826 49.589 318.627 51.7906 336.764C58.6343 331.36 66.7624 327.606 75.3004 326.018C75.7931 323.872 76.3376 321.741 76.7471 319.581C76.3443 316.26 76.0698 312.923 75.7188 309.585C74.6704 299.604 73.0686 289.647 70.9334 279.84C67.621 269.973 64.7292 259.972 63.6951 249.569L63.5069 249.606C61.2103 250.073 58.6801 251.088 56.5494 249.621C55.1972 248.682 54.612 247.124 54.0657 245.627C52.5049 241.999 52.2163 237.231 56.6325 235.714C54.9862 224.179 56.0558 212.138 58.0457 200.711C59.6389 190.695 63.1342 180.828 61.8258 170.574C60.3733 160.721 57.6648 150.401 61.5801 140.756C68.015 124.66 84.3101 117.023 100.336 114.565L100.595 114.489C102.578 113.9 104.383 113.28 106.449 113.726C111.321 104.661 119.223 108.348 126.939 110.368C127.46 108.831 127.894 107.258 128.303 105.687C128.557 104.887 128.473 103.04 129.36 102.784ZM174.022 629.958L174.002 630.354C173.798 634.598 174.027 638.234 179.276 638.206C182.887 638.593 186.499 638.969 190.116 639.297L191.473 639.418C202.208 640.378 213.072 640.847 223.788 639.406L224.234 639.345C225.129 639.217 226.788 639.242 227.497 638.578C228.351 637.425 227.362 635.227 227.154 633.888C210.435 633.693 193.695 633.075 176.965 633.288C175.205 633.298 174.411 631.79 174.573 630.417C174.375 630.282 174.188 630.127 174.022 629.958ZM4.27399 627.83C3.45186 630.728 3.65435 633.468 4.11874 636.37C4.35094 639.409 5.79293 639.604 8.40243 639.675C18.5896 640.618 28.8502 640.42 39.0401 639.63C44.5016 639.039 50.1139 639.062 55.4737 637.851C58.0308 636.714 56.5546 633.141 56.6417 630.95C44.6044 638.728 26.3998 637.741 13.2736 633.241L13.0633 633.151C9.95826 631.843 5.98908 631.019 4.27399 627.83ZM24.2129 575.496C22.829 577.061 22.8002 581.519 22.7422 583.036L22.7349 583.206C22.5794 586.392 22.6041 589.586 22.4665 592.772C22.5679 606.192 14.8396 612.885 9.10014 623.674C7.53035 626.292 9.81406 626.664 11.6716 627.513C23.7001 633.126 37.9281 633.984 50.4944 629.686C56.8109 627.846 55.4319 623.584 54.8955 618.37C54.3674 607.717 59.9581 598.119 61.6119 587.813L61.6564 587.547C62.1494 584.521 63.0015 576.767 58.1939 578.425C57.1479 579.07 56.1645 578.261 56.041 577.271C55.9163 577.291 55.7885 577.303 55.6652 577.305C55.1093 580.749 54.5333 584.189 53.98 587.633C54.4455 587.93 54.882 588.265 55.269 588.648C55.7392 589.116 55.4108 590.097 54.702 590.038C54.3377 590.006 53.9778 589.951 53.6198 589.882C53.3361 592.877 48.5936 591.197 49.9636 588.797C43.1449 586.434 35.6327 586.623 28.7083 588.434L28.6797 588.446C28.1436 588.66 24.289 589.435 25.5291 590.038C26.0459 590.1 24.8692 590.778 24.6629 589.729C24.5963 588.413 27.5923 587.767 28.5103 587.22C26.1951 583.898 24.6131 579.592 24.2129 575.496ZM198.899 564.976C192.476 561.488 184.582 562.783 177.615 563.4L177.322 563.433C175.549 563.624 173.078 563.742 172.264 565.573C171.086 568.507 173.039 575.07 173.653 578.334L173.862 579.189C174.371 581.278 174.853 583.35 175.028 585.51C175.032 585.578 174.967 585.626 174.906 585.626C172.465 583.011 171.368 579.495 170.228 576.141C169.742 576.42 169.267 576.721 168.82 577.052C167.071 583.079 166.485 589.496 167.87 595.644L167.92 595.861C169.631 603.459 174.957 609.673 175.464 617.613C175.802 620.823 175.726 624.113 176.647 627.23C177.171 627.346 177.628 627.733 177.833 628.22L180.836 628.224C195.35 628.248 209.868 628.38 224.373 628.98C223.906 624.89 220.306 621.26 217.77 618.457C209.989 610.467 206.624 598.99 207.906 587.928C208.58 582.394 211.66 573.699 204.126 571.655C203.576 576.165 202.832 580.66 202.421 585.188C203.843 585.876 203.755 587.689 202.018 587.654C201.238 590.284 198.624 589.221 198.906 586.739C189.345 583.198 183.859 582.011 174.543 587.346C174.283 587.308 175.259 586.259 175.383 586.073C178.327 582.89 182.848 581.394 187.089 581.34C191.294 581.339 195.248 582.928 199.215 584.157C199.811 579.884 200.212 575.585 200.685 571.298L200.787 570.379C201.035 568.128 200.945 566.269 198.899 564.976ZM45.2365 620.152C46.6359 619.839 47.9231 619.365 49.3449 619.687C54.3488 623.456 33.9028 624.518 32.162 624.251C27.7303 624.12 23.2966 623.556 19.0315 622.3L18.7342 622.212C18.3142 622.094 14.0629 620.907 14.8691 620.377C20.6377 620.89 26.2853 621.952 32.162 621.676C35.0937 621.614 38.0366 621.406 40.9368 620.964C42.379 620.743 43.8145 620.473 45.2365 620.152ZM180.414 615.483C179.498 614.106 183.964 615.934 184.545 615.95C188.243 616.865 192.007 617.558 195.806 617.846C198.353 618.04 200.927 618.081 203.478 617.955C205.368 617.89 207.237 617.61 209.114 617.417L209.182 617.414C210.297 617.375 212.533 618.068 211.155 619.399C209.013 621.065 205.843 620.558 203.275 620.802C195.478 620.777 187.222 619.518 180.414 615.483ZM33.8272 605.476C36.0749 605.067 48.4476 604.934 47.2142 608.742C46.915 609.465 46.231 609.705 45.511 609.591C37.8537 607.723 29.5937 606.746 21.9607 609.322C21.837 609.365 21.7515 609.162 21.873 609.107C25.6259 607.221 29.6416 605.903 33.8272 605.476ZM194.424 601.753C196.444 601.599 198.476 601.653 200.497 601.806L201.325 601.871C202.177 601.939 203.049 602.028 203.863 602.276L204.025 602.328C205.135 602.687 207.636 604.599 205.737 605.519C203.699 606.18 201.975 605.394 200.009 604.887C194.527 603.585 188.765 604.026 183.334 605.357L184.099 605.603C184.146 605.569 184.207 605.649 184.162 605.688C183.613 606.169 182.859 605.998 182.47 605.4C182.403 605.298 182.446 605.133 182.553 605.076C186.234 603.14 190.293 602.068 194.424 601.753ZM23.6999 601.267C29.8905 598.519 37.0629 598.216 43.7018 599.012L44.1748 599.07C46.246 599.314 48.9475 599.426 50.1324 601.361C50.5419 602.031 50.1189 602.8 49.4574 603.042C47.5092 603.756 45.2185 602.325 43.3468 601.794C37.8114 600.274 31.9001 600.114 26.2716 601.164C26.311 601.373 25.3789 601.282 25.1759 601.356C24.9214 601.342 23.2331 601.902 23.6999 601.267ZM179.811 596.976C185.211 594.343 191.456 593.714 197.286 595.074L197.529 595.143C200.112 595.871 204.272 596.729 205.197 599.472C205.397 600.09 204.963 600.925 204.313 601.05C202.11 601.472 200.11 599.86 198.117 599.084C192.252 596.874 185.612 596.345 179.548 597.971C179.507 598.21 179.467 598.448 179.424 598.687C179.527 598.619 179.635 598.772 179.552 598.856C178.584 599.536 177.577 597.82 179.811 596.976ZM37.6159 592.346C41.9856 592.055 46.3922 592.612 50.6107 593.768L51.404 593.987C52.557 594.311 54.0505 594.822 54.2183 596.071C54.2835 596.568 54.1598 596.91 53.7571 597.219C52.2885 598.32 49.0945 596.012 47.2684 595.74C40.6393 593.743 33.5237 593.771 26.8086 595.3L26.5798 595.352L26.7418 596.509C26.9009 597.062 25.4252 595.758 25.9859 595.165C29.5307 593.355 33.667 592.672 37.6159 592.346ZM183.93 590.279C187.438 589.645 191.055 589.524 194.601 589.843L195.02 589.882C197.138 590.07 203.999 590.343 202.376 593.934C202.104 594.533 201.314 594.611 200.803 594.351C199.088 593.48 197.214 593.165 195.322 592.877C188.641 591.945 181.815 592.327 175.293 594.132C175.435 594.355 175.142 594.62 174.865 594.673C174.177 594.8 174.177 593.977 174.472 593.539C174.823 593.021 175.522 592.832 176.062 592.604C178.574 591.506 181.238 590.764 183.93 590.279ZM51.0998 570.304L50.7004 570.209C44.0077 568.63 29.1694 565.798 27.6328 575.044C27.0874 579.117 28.8865 583.089 28.7535 587.122C35.6935 584.291 43.3679 584.321 50.5781 586.192C51.2168 582.006 51.8266 577.816 52.4791 573.632L52.5845 573.132C52.875 571.721 52.9736 570.618 51.0998 570.304ZM36.1939 571.988C37.6523 570.733 40.0845 570.751 41.515 572.12C42.8234 572.395 43.7461 573.788 43.7672 574.983C45.7564 578.489 43.3577 583.334 39.56 584.209C30.9845 586.022 27.1511 574.208 36.1939 571.988ZM184.767 566.392C191.942 565.107 194.549 574.236 188.66 577.939C180.341 582.125 174.798 568.965 184.767 566.392ZM39.7443 546.114C39.8501 546.812 39.5076 547.309 39.0986 547.779C37.6276 553.827 35.4136 559.456 33.2307 565.254C40.3322 564.073 47.0418 565.104 53.3253 567.038C53.4004 565.269 54.2043 563.434 54.7628 561.766C55.8501 558.599 57.1647 555.513 58.6808 552.533L58.8714 552.161C59.4159 551.1 59.9401 549.992 60.5834 548.977C53.6331 548.025 46.6827 547.167 39.7443 546.114ZM179.723 544.825L179.538 545.667C178.74 549.318 177.983 553.003 176.796 556.55L176.78 556.623C176.598 557.518 176.189 561.662 175.932 558.737C175.734 559.177 175.522 559.613 175.297 560.042L177.018 559.836C183.437 559.08 190.134 558.478 196.429 560.094C195.776 555.018 196.737 550.168 198.141 545.368C191.988 545.226 185.889 545.272 179.723 544.825ZM63.2001 551.134C62.9751 551.347 62.7548 551.563 62.5454 551.789C62.8291 551.716 63.1126 551.645 63.3756 551.584C63.3648 551.417 63.2473 551.292 63.2001 551.134ZM201.86 546.479L201.66 546.951C201.764 546.889 201.879 546.83 202.002 546.778C201.946 546.686 201.899 546.588 201.86 546.479ZM35.9421 545.443C35.8694 545.714 35.8139 546.012 35.6831 546.257C35.7866 546.276 35.8924 546.296 35.9984 546.319C36.1264 546.059 36.2616 545.806 36.4076 545.557C36.2524 545.521 36.0971 545.484 35.9421 545.443ZM89.4616 246.086C88.8316 246.391 88.1746 246.469 87.3063 246.505C80.2498 246.799 73.216 247.619 66.287 249.017C66.6695 254.64 68.375 260.087 69.9979 265.447L70.3344 266.622C75.8181 285.829 80.6045 305.899 79.6405 325.988C79.6945 326.009 79.7463 326.036 79.796 326.061C79.7082 326.308 79.6455 326.56 79.5574 326.804L79.501 326.949L79.1718 327.769C78.9899 328.224 78.8131 328.682 78.6595 329.15C78.3902 329.247 78.0592 329.319 77.7438 329.364C76.143 340 77.6651 351.926 84.8786 360.243C82.307 355.05 81.41 349.152 81.5232 343.383L81.5435 342.502C81.5731 341.412 81.6381 340.326 81.9692 339.292C81.9827 339.237 82.0547 339.246 82.0729 339.292C83.6002 344.023 83.6997 349.163 85.2002 353.929L85.315 354.295C86.5017 358.03 88.4834 362.838 91.9253 364.768C92.559 364.958 93.5337 364.734 93.8631 365.466L93.885 365.519L93.9052 365.512C92.3688 360.463 91.3796 355.243 91.0406 349.973L91.0185 349.613C90.9105 347.775 90.6723 345.804 91.129 344.008C91.9997 345.65 91.7833 348.332 92.1885 350.318L92.2046 350.431C92.5246 352.578 95.6057 368.987 97.6291 366.794C98.0472 366.189 97.9385 365.02 97.9512 364.301L97.9529 364.23C97.9846 363.19 97.9732 362.15 97.9374 361.11C97.7189 354.982 96.7694 348.694 98.6301 342.724C98.9409 341.719 100.628 341.529 100.833 342.724C101.652 347.506 102.435 352.291 103.218 357.077C103.789 360 103.765 363.297 105.499 365.818C105.52 360.314 105.215 354.826 104.952 349.328L104.882 349.099C104.674 348.406 104.469 347.505 104.946 346.915C105.137 345.66 106.964 345.804 107.119 347.118C107.153 347.391 107.178 347.67 107.205 347.946C107.81 348.708 108.373 349.485 109.088 350.14C113.865 340.354 98.2346 323.454 96.0767 312.403C89.7212 290.882 93.3751 268.318 95.2237 246.403C93.3121 246.176 91.3848 246.115 89.4616 246.086ZM180.418 122.227C183.759 128.956 186.212 136.078 187.911 143.407C188.434 145.67 185.409 147.058 184.187 145.076L184.151 145.015C182.648 142.499 180.409 140.284 177.574 139.417C175.643 147.542 176.584 156.127 177.588 164.331C179.367 175.76 180.783 187.238 180.995 198.82L181.005 199.44C181.625 238.993 187.418 278.368 193.763 317.092C203.906 318.728 213.192 323.339 222.542 327.394C224.166 328.03 225.827 328.584 227.528 328.967C222.83 285.064 204.965 243.889 199.444 200.146C197.985 188.769 197.916 177.216 199.932 165.905C199.966 165.688 200.272 165.761 200.285 165.953C200.507 170.599 201.299 175.184 201.768 179.805C202.088 177.166 202.826 174.493 203.422 171.963C204.151 169.488 204.42 165.515 206.556 163.902L206.691 163.434C206.747 163.234 207.044 163.318 206.997 163.519C206.975 163.615 206.952 163.708 206.932 163.804C208.304 164.17 207.022 165.803 206.682 166.585C204.48 172.514 203.825 178.932 202.322 185.043C204.497 204.12 208.414 222.956 213.239 241.499C217.671 240.325 222.119 239.195 226.563 238.047C216.65 205.618 222.446 169.427 207.595 138.462C202.031 128.07 188.328 129.482 180.418 122.227ZM105.108 116.299C103.029 116.187 100.858 117.321 98.8619 117.711C96.2159 118.226 93.5835 118.635 90.996 119.426C77.7517 123.075 64.974 133.037 62.5746 147.392C60.9254 157.248 65.0091 166.851 64.8655 176.68C64.4346 186.418 61.239 195.777 59.9939 205.417C58.4961 215.274 57.9804 225.592 59.2651 235.497C71.146 232.11 83.5539 231.898 95.7369 233.647C94.7208 218.634 96.0542 203.547 96.7919 188.544C97.3229 178.909 98.2319 169.231 97.9104 159.577C97.9034 159.363 98.2499 159.31 98.2832 159.525C101.937 179.241 99.794 199.256 99.4246 219.14C99.1904 224.164 99.8093 229.235 99.5596 234.231C105.098 235.429 104.898 241.919 103.204 246.197C102.904 247.227 101.885 247.048 101.06 246.923C100.166 247.867 98.0341 246.635 96.8189 246.635C95.8677 271.317 90.0886 297.679 101.931 320.747C106.882 320.775 111.648 319.058 116.46 318.085L116.722 318.032L116.729 318.03C117.436 317.104 117.782 315.617 117.876 314.528C118.549 295.521 116.444 276.471 117.676 257.461C119.184 236.362 123.868 215.391 121.701 194.149C120.203 175.163 116.091 156.522 114.109 137.593L114.009 136.614C113.885 135.447 113.838 134.157 113.264 133.268C109.92 136.329 107.115 139.97 105.106 144.066C103.993 146.044 101.014 145.164 100.968 142.93C100.54 138.942 100.476 134.938 100.91 130.948L100.95 130.596C101.488 125.603 102.989 120.836 105.108 116.299ZM229.416 253.278C225.109 253.507 220.797 253.987 216.483 253.93L216.917 255.568C222.14 275.218 227.701 294.833 230.979 314.939L231.098 313.054C231.217 311.168 231.33 309.281 231.405 307.391C232.335 289.322 230.914 271.276 229.416 253.278ZM117.307 127.868C117.325 128.685 117.366 129.499 117.429 130.311C119.419 133.312 119.242 137.3 119.688 140.752C122.186 159.392 125.864 177.956 127.103 196.79C128.256 211.857 126.373 226.871 124.449 241.786C122.075 258.868 122.324 276.127 122.876 293.324C131.996 285.027 144.958 283.572 156.465 280.995L157.013 280.883C165.861 279.062 174.69 276.422 182.207 271.237C176.801 232.372 178.073 193.008 172.546 154.178C172.375 151.12 172.34 148.045 172.593 144.99C172.35 141.682 172.278 138.356 172.271 135.04C169.849 144.837 161.733 154.303 151.099 153.993C139.784 153.326 130.181 144.013 122.804 136.03C120.804 133.649 118.815 130.868 117.307 127.868ZM216.816 253.296L216.305 253.271L216.337 253.383C216.442 253.362 216.549 253.342 216.656 253.324L216.816 253.296ZM230.851 240.025C230.77 240 230.633 240 230.48 240.007C230.259 240.518 229.814 240.94 229.297 241.079L224.98 242.251C221.381 243.228 217.781 244.2 214.177 245.146C214.782 247.491 215.396 249.836 216.017 252.178C220.933 250.583 226.377 250.945 231.389 249.918C231.327 247.211 231.18 244.491 231.135 241.779C231.123 241.337 231.213 240.625 230.988 240.228C230.847 239.975 230.988 240.068 230.851 240.025ZM65.709 249.135L65.5738 249.165C65.6188 249.288 65.6595 249.412 65.6978 249.537C65.7 249.402 65.702 249.27 65.709 249.135ZM97.7146 236.111C88.4525 234.752 79.0328 233.95 69.6912 234.874C65.4658 235.451 61.1765 236.066 57.0354 236.852C55.5952 239.08 57.1884 244.503 58.9814 246.218C59.5192 246.423 60.4439 246.024 60.9591 245.908C64.8252 245.028 68.7289 244.319 72.6524 243.766C72.7692 243.914 72.9402 244.01 73.1516 243.989L74.053 243.905C79.4642 243.409 84.9232 243.044 90.346 243.355L90.3863 243.387C94.045 243.656 97.691 244.237 101.335 244.658C102.773 240.867 102.525 236.517 97.7146 236.111ZM165.108 112.471C165.465 113.693 165.895 114.88 166.43 116.034C166.989 115.878 167.759 116.003 168.17 116.358L168.344 116.326C168.824 116.234 169.401 116.094 169.551 116.078C176.169 115.154 175.665 124.08 175.689 128.566C175.729 130.815 175.774 133.067 175.842 135.316C177.736 134.666 180.268 135.835 181.923 136.869C180.628 132.519 179.104 128.24 177.406 124.036L177.084 123.217C175.746 119.825 174.264 116.391 171.421 114.029C169.259 113.459 167.165 113.356 165.108 112.471ZM117.125 110.232C110.974 108.02 108.537 113.047 106.831 118.06C104.82 123.612 104.271 129.725 104.606 135.699L104.813 135.423C107.076 132.381 110.339 127.36 114.466 128.167C114.425 125.859 114.508 123.324 114.947 120.927C114.691 119.381 114.625 117.818 114.803 116.256C114.897 114.296 117.014 114.594 118.407 114.317C119.613 113.507 121.073 113.181 122.54 113.751C123.647 113.603 124.754 113.461 125.861 113.32C126.031 112.943 126.168 112.565 126.311 112.179C123.248 111.541 120.185 110.883 117.125 110.232Z" fill="black"/>
<path fill-rule="evenodd" clip-rule="evenodd" d="M179.667 57.9963C179.579 53.0971 179.482 48.0999 178.75 43.2484C178.034 38.5053 176.065 34.218 172.681 30.7738C165.492 23.4578 155.072 21.6708 145.373 20.0333L128.791 17.2333C123.732 16.3793 118.335 15.0142 113.223 16.2253C110.704 16.8222 108.566 18.2087 106.611 19.8491C104.726 21.4303 102.7 23.1282 101.424 25.2555C100.145 27.3858 99.7047 29.8761 99.2889 32.2854C98.8199 35.0018 98.4556 37.7394 98.1968 40.4836C97.6781 45.9816 97.6073 51.5209 97.9835 57.0303C98.1658 59.7025 98.4558 62.3671 98.826 65.0199C99.0096 66.3353 99.2172 67.6475 99.4516 68.9551C99.5206 69.3406 99.5732 69.7675 99.644 70.1988C99.1209 71.6785 98.8236 73.2109 98.8476 74.7367C98.9182 79.2313 102.732 82.061 106.577 83.5803C108.807 84.4612 111.138 85.0598 113.328 86.0439C115.633 87.079 117.202 88.757 118.777 90.6713C121.782 94.3222 125.173 97.6035 129.045 100.341C137.255 106.145 147.653 108.891 157.614 106.807C160.004 106.307 162.416 105.531 164.564 104.361C166.832 103.126 168.538 101.336 169.97 99.2205C172.629 95.2925 174.537 90.8694 175.979 86.3684C177.451 81.7772 178.496 77.1776 179.065 72.3901C179.633 67.6182 179.753 62.7977 179.667 57.9963Z" fill="#FAFAFA"/>
<path fill-rule="evenodd" clip-rule="evenodd" d="M126.75 0.16715C133.612 -0.771707 143.084 2.27974 146.501 8.43251C162.817 4.60666 183.396 4.48134 196.843 17.2175C210.876 32.3254 193.25 52.2452 181.564 56.7363C182.414 60.8493 181.088 87.1987 171.7 98.9521C164.25 108.911 146.901 113.506 138.872 101.612L138.81 101.514C137.95 100.14 138.69 100.184 139.573 101.206C147.435 108.082 158.123 108.2 166.36 100.943C181.797 87.679 180.205 55.1569 172.86 36.3423C151.943 34.0574 129.548 40.3631 115.101 56.0236L116.078 61.8732C116.245 62.8698 116.434 63.8655 116.578 64.8656C116.67 65.5064 116.681 66.1437 116.234 66.6624C114.761 68.3748 112.277 65.8016 110.233 64.7781C109.63 64.6937 109.025 64.6611 108.432 64.7027C98.6133 65.9606 100.548 84.9062 111.34 81.5853C112.247 81.0235 113.026 81.1949 113.377 82.0102C115.95 84.3537 117.646 88.5334 121.919 92.5592C123.427 94.0693 124.8 95.3327 126.496 96.544C127.492 97.5461 130.498 98.5678 129.545 100.283C127.743 104.185 117.116 91.9278 115.237 88.5383C109.351 90.8503 102.827 90.065 96.7268 89.4999C64.544 87.8356 68.8403 54.0932 95.2198 32.7899C100.185 29.1538 105.664 26.1877 111.359 23.9052C112.136 23.5935 111.797 22.3238 111.008 22.6398C107.24 24.1503 103.567 25.9482 100.065 28.0291L100.06 26.785C100.054 24.6897 100.088 22.5082 100.453 20.5937C100.636 19.2671 100.944 17.8502 101.418 16.7842C102.003 13.5163 111.175 2.29899 126.75 0.16715ZM108.003 69.0522C108.5 68.5827 109.427 69.1426 109.87 69.1286C111.001 69.2825 112.076 69.7577 112.914 70.3443C113.467 70.6526 113.855 70.9422 114.179 71.2086L114.188 71.2062C114.186 71.2062 114.183 71.2086 114.18 71.2092L114.211 71.2297C114.682 71.5632 116.41 73.4416 115.319 72.9365C115.237 72.8313 115.154 72.7302 115.07 72.6312C115.061 72.6447 115.048 72.6581 115.033 72.671L115.095 72.7615C116.022 74.1494 114.421 72.6872 114.174 72.2988C114.163 72.3082 114.149 72.3145 114.137 72.3213L114.457 72.7097C114.502 72.7649 114.538 72.8089 114.567 72.8462L114.634 72.9111C115.707 73.9597 115.741 74.9034 114.494 73.3531C114.543 73.4261 114.583 73.5035 114.588 73.5722L114.662 73.6659C115.641 74.9198 114.845 74.4745 114.359 73.9389L114.318 73.8928L114.326 73.9054C114.779 74.5984 113.881 74.1121 113.723 73.7414L113.716 73.7246C113.543 73.5844 113.437 73.4271 113.4 73.3873L113.394 73.3806C112.552 72.5234 111.333 71.7979 110.297 71.4684C110.147 71.4399 109.995 71.4172 109.841 71.401C109.219 71.2628 108.589 71.1681 107.953 71.1169C107.875 71.1077 107.796 71.0509 107.737 70.9774C106.775 70.9451 107.072 70.5528 107.471 70.48L107.478 70.4788L107.399 70.4722C106.781 70.4122 106.359 70.1919 106.984 70.0566L107.063 70.041C107.053 70.0259 107.045 70.0108 107.036 69.9957C106.502 69.9373 106.851 69.4203 107.147 69.5454C107.023 69.1393 107.593 69.342 107.665 69.2816C107.719 69.2217 107.786 69.1688 107.825 69.166C107.997 69.0452 107.914 69.0562 108.003 69.0522ZM111.275 62.477L111.149 62.5499C111.048 62.6087 110.944 62.6478 110.839 62.6708C110.987 62.7334 111.133 62.8009 111.277 62.8731C111.275 62.7849 111.273 62.6968 111.273 62.6088L111.275 62.477Z" fill="black"/>
<path fill-rule="evenodd" clip-rule="evenodd" d="M151.164 86.3335C152.384 84.3235 154.983 89.2473 155.259 90.094C155.504 90.844 155.665 91.6123 155.747 92.3894C156.693 92.6018 157.674 92.6022 158.643 92.4161C160.083 92.1393 160.963 91.3637 162.214 90.6978C163.079 90.2376 164.168 90.7773 164.617 91.5404C165.146 92.4387 164.809 93.3711 164.114 94.0408C162.795 95.3107 160.201 95.6024 158.479 95.2652C157.493 95.072 156.589 94.7015 155.791 94.1629C155.786 94.2634 155.782 94.3639 155.774 94.4643L155.759 94.6384C155.627 96.0468 155.241 97.8178 154.149 98.7342C152.358 100.238 150.148 97.3464 151.888 95.8448L151.942 95.7997C153.024 94.9241 153.26 92.5749 153.201 91.281C153.163 90.4364 153.01 89.5811 152.744 88.7768L152.689 88.6166C152.609 88.3894 151.735 86.234 151.42 86.5085L151.405 86.524C151.274 86.6797 151.064 86.4983 151.164 86.3335ZM160.901 74.9915C162.547 75.9941 165.055 78.332 163.284 80.8176C161.2 83.0092 158.198 80.4964 156.719 79.3599C155.348 78.4791 153.807 80.7444 155.08 81.7728C165.767 89.7008 170.103 75.2537 161.733 73.8127C160.812 73.6539 160.469 74.6814 160.901 74.9915ZM143.323 65.7242C144.931 65.4383 146.579 65.8391 147.911 66.7823L148.012 66.855C149.294 67.7949 150.729 69.4452 149.993 71.0653C149.698 71.7158 148.813 71.8178 148.252 71.5229C147.317 71.0319 147.148 69.8237 146.314 69.1551C145.63 68.6071 144.709 68.2746 143.829 68.3548C141.76 68.5431 140.487 70.5878 139.845 72.3499C139.762 72.5753 139.432 72.6629 139.303 72.4209C137.788 69.583 140.47 66.2314 143.323 65.7242ZM169.092 64.6533C172.173 64.3988 175.781 67.6001 174.969 70.8595C174.58 72.4235 172.265 72.3787 171.853 70.8595C171.627 70.0236 171.649 69.284 171.049 68.5898C170.553 68.0166 169.849 67.6838 169.092 67.7349C168.257 67.7912 167.488 68.2091 166.903 68.7964C166.374 69.3268 166.059 70.1029 165.511 70.5723C165.377 70.6876 165.196 70.695 165.063 70.5723C164.122 69.7023 164.687 67.8911 165.284 66.9828C166.139 65.6832 167.53 64.7824 169.092 64.6533ZM137.454 59.9434C139.431 58.1899 143.023 56.4964 145.689 57.3594C147.222 57.8555 147.89 60.3301 146.179 61.1144C144.198 62.0227 141.913 61.6531 139.897 62.5945C139.05 62.9901 138.253 63.4844 137.664 64.2094C137.199 64.7808 136.726 65.5326 136.055 65.862C135.878 65.9487 135.639 65.9509 135.497 65.7901C134.025 64.1209 136.168 61.0839 137.454 59.9434ZM165.694 57.2724C166.916 56.9288 168.271 56.9358 169.512 57.1516C170.753 57.3674 172.013 57.8827 173.026 58.6343L173.144 58.7223C174.249 59.5573 175.569 60.7722 175.498 62.2515C175.439 63.4867 174.142 64.3222 173.023 63.6748C172.11 63.1468 171.681 62.0892 170.908 61.385C170.27 60.8037 169.521 60.3455 168.722 60.0244C167.834 59.6677 166.945 59.5006 165.993 59.4846C165.259 59.4724 164.521 59.7135 163.801 59.7906C163.861 59.9125 163.292 59.8557 162.966 59.7476C162.724 59.6445 162.723 59.3385 162.806 59.1399C163.222 58.1563 164.733 57.5423 165.694 57.2724Z" fill="black"/>
</svg>
