<svg width="472" height="91" viewBox="0 0 472 91" fill="none" xmlns="http://www.w3.org/2000/svg">
<path d="M0 89.472L33.024 1.536H60.544L93.568 89.472H69.12L63.872 74.24H28.8L23.552 89.472H0ZM34.304 57.088H58.24L51.968 38.528C51.6267 37.5893 51.2 36.4373 50.688 35.072C50.2613 33.6213 49.792 32.128 49.28 30.592C48.8533 28.9707 48.4267 27.3493 48 25.728C47.5733 24.1067 47.1467 22.6987 46.72 21.504H45.824C45.4827 23.1253 44.9707 24.96 44.288 27.008C43.6907 29.056 43.0507 31.104 42.368 33.152C41.7707 35.2 41.216 36.992 40.704 38.528L34.304 57.088Z" fill="#FAFAFA"/>
<path d="M91.747 89.472L123.363 43.136L94.819 1.536H122.595L138.723 27.136H139.363L155.491 1.536H181.475L152.803 43.136L184.419 89.472H156.515L137.443 59.136H136.803L117.731 89.472H91.747Z" fill="#FAFAFA"/>
<path d="M216.682 89.472V54.656L182.25 1.536H208.746L228.458 34.432H229.098L248.682 1.536H273.77L239.722 54.656V89.472H216.682Z" fill="#FAFAFA"/>
<path d="M314.556 91.008C309.009 91.008 303.804 90.496 298.94 89.472C294.076 88.5333 289.767 86.9547 286.012 84.736C282.343 82.5173 279.441 79.616 277.308 76.032C275.175 72.3627 274.108 67.8827 274.108 62.592C274.108 62.2507 274.108 61.8667 274.108 61.44C274.108 61.0133 274.151 60.672 274.236 60.416H296.38C296.38 60.672 296.337 61.0133 296.252 61.44C296.252 61.7813 296.252 62.08 296.252 62.336C296.252 65.0667 296.935 67.2853 298.3 68.992C299.751 70.6133 301.756 71.808 304.316 72.576C306.876 73.2587 309.863 73.6 313.276 73.6C315.153 73.6 316.903 73.5147 318.524 73.344C320.145 73.1733 321.596 72.8747 322.876 72.448C324.156 72.0213 325.265 71.5093 326.204 70.912C327.228 70.2293 327.953 69.4613 328.38 68.608C328.892 67.6693 329.148 66.6027 329.148 65.408C329.148 63.4453 328.38 61.824 326.844 60.544C325.393 59.264 323.388 58.1973 320.828 57.344C318.353 56.4907 315.537 55.68 312.38 54.912C309.223 54.144 305.937 53.3333 302.524 52.48C299.111 51.6267 295.825 50.56 292.668 49.28C289.511 48 286.652 46.3787 284.092 44.416C281.617 42.4533 279.612 40.0213 278.076 37.12C276.625 34.1333 275.9 30.5493 275.9 26.368C275.9 21.76 276.881 17.792 278.844 14.464C280.807 11.0507 283.495 8.27734 286.908 6.144C290.407 4.01067 294.417 2.47467 298.94 1.536C303.463 0.512001 308.284 0 313.404 0C318.439 0 323.132 0.512001 327.484 1.536C331.921 2.56001 335.847 4.18134 339.26 6.4C342.673 8.53334 345.319 11.264 347.196 14.592C349.159 17.8347 350.183 21.76 350.268 26.368V27.904H328.252V27.008C328.252 25.0453 327.697 23.3387 326.588 21.888C325.564 20.352 323.985 19.1573 321.852 18.304C319.719 17.3653 317.073 16.896 313.916 16.896C310.759 16.896 308.071 17.1947 305.852 17.792C303.719 18.3893 302.055 19.2427 300.86 20.352C299.751 21.4613 299.196 22.784 299.196 24.32C299.196 26.1973 299.921 27.7333 301.372 28.928C302.908 30.1227 304.956 31.1467 307.516 32C310.076 32.8533 312.935 33.664 316.092 34.432C319.249 35.1147 322.492 35.8827 325.82 36.736C329.233 37.504 332.519 38.528 335.676 39.808C338.833 41.0027 341.692 42.5813 344.252 44.544C346.812 46.4213 348.817 48.768 350.268 51.584C351.804 54.4 352.572 57.8133 352.572 61.824C352.572 68.8213 350.908 74.4533 347.58 78.72C344.337 82.9867 339.815 86.1013 334.012 88.064C328.295 90.0267 321.809 91.008 314.556 91.008Z" fill="#FAFAFA"/>
<path d="M397.615 48.5067C396.444 46.4837 393.516 46.4837 392.345 48.5067L371.263 84.9204C370.092 86.9434 371.556 89.4722 373.898 89.4722H416.061C418.404 89.4722 419.868 86.9434 418.696 84.9204L397.615 48.5067Z" fill="#FAFAFA"/>
<path d="M450.357 48.5067C449.186 46.4837 446.258 46.4837 445.087 48.5067L424.006 84.9204C422.835 86.9434 424.299 89.4722 426.641 89.4722H468.804C471.146 89.4722 472.61 86.9434 471.439 84.9204L450.357 48.5067Z" fill="#FAFAFA"/>
<path d="M423.986 2.98941C422.815 0.96642 419.887 0.966422 418.716 2.98941L397.635 39.4032C396.463 41.4262 397.927 43.9549 400.27 43.9549H442.432C444.775 43.9549 446.239 41.4262 445.068 39.4032L423.986 2.98941Z" fill="#FAFAFA"/>
<path d="M423.986 78.8515C422.815 80.8745 419.887 80.8745 418.716 78.8515L397.635 42.4377C396.463 40.4147 397.927 37.886 400.27 37.886H442.432C444.775 37.886 446.239 40.4147 445.068 42.4377L423.986 78.8515Z" fill="#FAFAFA"/>
</svg>
