<svg width="509" height="92" viewBox="0 0 509 92" fill="none" xmlns="http://www.w3.org/2000/svg">
<path d="M0 90.344L33.792 2.536H57.344L91.136 90.344H70.528L64.256 73.064H25.984L19.712 90.344H0ZM31.488 57.704H58.752L50.944 36.072C50.6027 35.1333 50.176 34.024 49.664 32.744C49.2373 31.3787 48.768 29.8853 48.256 28.264C47.744 26.6427 47.232 25.064 46.72 23.528C46.2933 21.9067 45.8667 20.456 45.44 19.176H44.672C44.2453 20.7973 43.6907 22.7173 43.008 24.936C42.3253 27.0693 41.6427 29.16 40.96 31.208C40.2773 33.1707 39.7227 34.792 39.296 36.072L31.488 57.704Z" fill="white"/>
<path d="M97.314 90.344L128.93 44.136L100.386 2.536H123.682L141.858 30.312H142.498L160.546 2.536H182.434L153.762 44.136L185.378 90.344H162.082L140.962 57.832H140.322L119.33 90.344H97.314Z" fill="white"/>
<path d="M225.542 90.344V55.016L191.494 2.536H213.638L235.398 37.864H236.038L257.67 2.536H278.534L244.742 55.016V90.344H225.542Z" fill="white"/>
<path d="M325.801 91.88C320.681 91.88 315.817 91.368 311.209 90.344C306.601 89.32 302.505 87.6987 298.921 85.48C295.422 83.176 292.649 80.3173 290.601 76.904C288.638 73.4053 287.657 69.1813 287.657 64.232C287.657 63.8053 287.657 63.3787 287.657 62.952C287.657 62.44 287.7 62.056 287.785 61.8H306.729C306.644 62.056 306.601 62.3973 306.601 62.824C306.601 63.2507 306.601 63.6347 306.601 63.976C306.601 66.7067 307.326 69.0107 308.777 70.888C310.313 72.7653 312.532 74.1733 315.433 75.112C318.334 76.0507 321.705 76.52 325.545 76.52C328.02 76.52 330.196 76.392 332.073 76.136C334.036 75.7947 335.742 75.368 337.193 74.856C338.729 74.2587 339.966 73.576 340.905 72.808C341.929 72.04 342.654 71.144 343.081 70.12C343.593 69.096 343.849 67.944 343.849 66.664C343.849 64.36 343.081 62.4827 341.545 61.032C340.094 59.5813 338.046 58.344 335.401 57.32C332.841 56.296 329.94 55.3573 326.697 54.504C323.454 53.6507 320.126 52.7973 316.713 51.944C313.3 51.0053 309.972 49.896 306.729 48.616C303.486 47.2507 300.585 45.6293 298.025 43.752C295.465 41.8747 293.417 39.4853 291.881 36.584C290.345 33.6827 289.577 30.184 289.577 26.088C289.577 21.736 290.473 17.9813 292.265 14.824C294.142 11.6667 296.745 9.064 300.073 7.016C303.401 4.968 307.241 3.47467 311.593 2.536C315.945 1.512 320.681 1 325.801 1C330.58 1 335.102 1.512 339.369 2.536C343.636 3.47467 347.39 5.01067 350.633 7.144C353.876 9.27733 356.393 11.9653 358.185 15.208C360.062 18.4507 361.001 22.2907 361.001 26.728V28.264H342.441V27.24C342.441 24.936 341.758 22.9733 340.393 21.352C339.028 19.7307 337.108 18.4507 334.633 17.512C332.158 16.5733 329.257 16.104 325.929 16.104C322.345 16.104 319.273 16.4453 316.713 17.128C314.238 17.8107 312.318 18.8347 310.953 20.2C309.673 21.48 309.033 23.016 309.033 24.808C309.033 26.856 309.758 28.5627 311.209 29.928C312.745 31.208 314.793 32.36 317.353 33.384C319.998 34.3227 322.942 35.176 326.185 35.944C329.428 36.712 332.756 37.5653 336.169 38.504C339.582 39.4427 342.91 40.552 346.153 41.832C349.396 43.112 352.297 44.7333 354.857 46.696C357.417 48.5733 359.465 50.92 361.001 53.736C362.537 56.552 363.305 59.9227 363.305 63.848C363.305 70.5893 361.684 76.008 358.441 80.104C355.198 84.2 350.761 87.1867 345.129 89.064C339.497 90.9413 333.054 91.88 325.801 91.88Z" fill="white"/>
<path d="M450.248 1.88122C451.691 -0.627077 455.309 -0.627071 456.752 1.88123L479.786 41.9093C480.454 43.0687 480.454 44.4957 479.786 45.6552L456.752 85.6832C455.309 88.1915 451.691 88.1915 450.248 85.6832L427.214 45.6552C426.546 44.4957 426.546 43.0687 427.214 41.9093L450.248 1.88122Z" fill="white"/>
<path d="M480.663 49.4135C482.108 46.9107 485.719 46.9107 487.163 49.4135L508.492 86.3687C509.936 88.8715 508.131 92 505.242 92H462.585C459.696 92 457.891 88.8715 459.335 86.3687L480.663 49.4135Z" fill="white"/>
<path d="M419.837 49.4135C421.281 46.9107 424.892 46.9107 426.337 49.4135L447.665 86.3687C449.109 88.8715 447.304 92 444.415 92H401.758C398.869 92 397.064 88.8715 398.508 86.3687L419.837 49.4135Z" fill="white"/>
</svg>
