<svg width="54" height="54" viewBox="0 0 54 54" fill="none" xmlns="http://www.w3.org/2000/svg">
<path d="M20.8052 49.1249V33.6239H16.0171V26.5008H20.8052V23.4316C20.8052 15.4966 24.3817 11.8194 32.1425 11.8194C32.9186 11.8194 33.9908 11.901 34.9836 12.0195C35.7273 12.0963 36.465 12.2229 37.1919 12.3983V18.8571C36.7717 18.8177 36.3501 18.7944 35.9281 18.7871C35.4553 18.7748 34.9824 18.769 34.5095 18.7697C33.1412 18.7697 32.0729 18.9561 31.2677 19.3699C30.7265 19.6424 30.2715 20.0608 29.9536 20.5781C29.4543 21.394 29.2298 22.5109 29.2298 23.9814V26.5008H36.8145L36.0674 30.5858L35.512 33.6239H29.2298V49.6397C40.7297 48.245 49.6402 38.4179 49.6402 26.5008C49.6402 13.6279 39.2414 3.19092 26.4158 3.19092C13.5901 3.19092 3.19141 13.6279 3.19141 26.5008C3.19141 37.4331 10.689 46.6055 20.8052 49.1249Z" fill="#FAFAFA"/>
</svg>
