<svg width="313" height="499" viewBox="0 0 313 499" fill="none" xmlns="http://www.w3.org/2000/svg">
<path fill-rule="evenodd" clip-rule="evenodd" d="M3.96692 251.707C5.64392 251.226 7.73911 251.103 9.57376 251.015C16.0585 250.634 22.6707 253.72 29.029 255.111C31.8123 255.798 34.7595 256.607 37.7379 257.21C40.3822 257.568 43.1158 257.837 45.8642 258.007C48.0858 258.074 50.6708 257.904 51.4293 260.235C55.8946 261.1 59.8474 261.459 64.1039 260.725C63.7053 259.371 63.4781 257.955 63.8904 256.497C63.6824 256.152 63.3992 255.684 63.2478 255.369H63.7595C71.2308 252.384 79.3098 250.345 86.8203 247.252C96.6232 243.725 111.061 236.911 122.387 232.258C121.619 228.06 121.335 223.795 121.66 219.649L121.205 219.282C121.056 218.467 120.823 217.492 120.402 216.754C119.868 215.338 119.855 213.407 119.643 211.807C119.201 208.678 118.905 203.968 119.711 200.253C120.062 195.215 123.464 191.332 127.132 188.217C131.636 183.771 136.145 179.433 140.542 174.815C164.875 150.053 166.799 118.865 204.891 109.387L204.91 109.239C205.21 108.905 205.333 108.64 205.675 109.168C206.932 108.687 208.501 108.727 209.554 107.914C211.424 106.211 212.75 104.246 213.618 101.913C214.286 97.5042 213.813 90.7086 217.683 87.8874C221.981 85.3174 244.818 83.4875 246.787 89.1066C248.009 90.2521 248.565 91.7074 248.947 93.4893C250.219 95.8918 251.022 98.5558 252.304 100.995C255.029 106.467 256.795 105.254 261.606 106.504C262.128 105.343 263.714 105.577 264.869 105.745C278.86 107.708 295.919 113.065 301.909 126.192L301.399 126.127C311.74 145.52 305.034 170.183 303.184 190.734C301.688 209.002 303.399 227.356 307.465 244.396C312.455 262.473 312.741 282.693 302.84 299.056C301.834 300.928 300.609 303.575 298.441 302.4C297.253 303.297 295.918 303.916 294.075 304.456C293.567 304.824 293.041 305.442 292.509 305.706C292.484 305.742 291.627 305.249 291.582 305.236C289.963 307.542 201.087 315.248 191.864 316.444C183.738 317.422 173.001 319.919 166.379 314.068C160.907 312.508 155.181 308.444 150.807 304.41C148.154 342.828 146.686 421.508 144.318 422.056C143.282 422.407 141.883 422.827 140.71 423.162C140.703 425.922 140.497 429.058 140.715 431.772C141.078 434.837 141.999 438.455 142.416 441.677C144.208 441.557 144.734 443.351 144.943 444.569C146.489 454.634 146.443 462.749 146.332 473.811C128.149 484.503 106.838 490.383 86.3776 497.292C84.4179 498.762 80.1714 497.172 77.9085 496.775C70.0525 495.231 61.1257 490.664 63.1088 482.289C64.5607 475.984 70.6569 472.356 75.7886 468.647C81.4029 464.587 87.3215 460.53 92.4848 455.695C96.627 451.8 99.7205 448.778 103.175 444.382C104.707 442.338 106.341 438.979 108.402 437.472C106.225 434.894 110.624 437.31 112.29 437.459C113.27 432.855 114.483 428.435 115.938 424.018L114.524 424.082C109.881 419.753 107.278 398.973 106.954 392.808C104.627 352.62 104.682 306.299 114.019 272.454C106.927 276.813 99.1499 280.455 92.0968 284.766C87.6494 287.367 83.1369 290.978 78.1515 292.239C77.8268 293.17 76.6381 293.532 75.9894 292.621C75.097 292.731 73.9474 292.361 73.8491 291.955C72.9365 290.092 71.6142 288.084 71.7733 286.06L72.9978 283.225C70.2546 284.338 67.2721 286.68 64.3438 286.895C58.429 306.611 46.7754 295.566 35.5615 287.893C28.7939 283.173 21.391 277.96 14.2687 272.927C8.22601 268.128 -3.57123 263.575 2.21188 254.071" fill="#FAFAFA"/>
<path fill-rule="evenodd" clip-rule="evenodd" d="M258.17 105.3C252.458 103.914 251.481 90.2426 248.032 92.1895C246.038 93.9207 249.3 97.1867 249.877 99.1406L250.13 99.6369C251.3 101.913 252.624 104.181 254.93 105.493C256.413 107.051 260.844 105.521 260.192 108.003C257.917 115.482 245.842 120.661 238.726 122.99C227.665 127.138 209.771 125.735 207.172 111.83C213.239 110.721 217.725 99.7913 213.985 95.2409C213.858 99.6611 212.648 104.223 209.173 107.218L208.981 107.393C208.37 107.951 207.578 108.616 206.788 108.492C206.019 107.422 204.525 108.03 204.085 109.16C169.54 115.122 161.845 152.319 140.09 174.214C135.745 178.782 131.202 183.155 126.718 187.584C122.138 191.212 118.897 196.269 118.671 202.208C118.262 205.511 118.465 208.816 118.903 212.125L118.933 212.423C119.136 214.474 119.257 216.676 120.234 218.496C120.403 219.113 120.334 219.892 120.869 220.328C120.635 224.102 120.858 227.944 121.497 231.707L119.83 232.45C101.49 240.605 82.9382 248.292 63.8146 254.405C62.1802 254.108 62.3136 256.006 63.1048 256.868C62.8961 257.883 62.8734 258.938 63.1184 259.941C59.6165 260.443 56.0595 260.025 52.6028 259.388C51.5093 256.984 48.6039 257.112 46.3574 257.045C43.5665 256.87 40.7806 256.598 38.0098 256.212C31.183 254.689 24.4791 252.685 17.718 250.925C13.1936 249.654 8.31458 249.714 3.77591 250.884C3.00485 251.747 2.29279 252.668 1.69183 253.646C-2.457 260.069 1.63104 265.954 7.42242 269.328C16.7138 275.903 26.0078 282.47 35.3407 288.985L36.0187 289.467C47.1227 297.402 59.6146 307.445 65.5448 288.133C67.538 287.9 69.2846 286.564 71.1417 285.776C70.6421 288.094 72.1338 290.435 73.1622 292.422C73.6051 293.553 74.8156 293.927 75.9334 293.916C76.8904 294.853 78.6864 294.484 79.3123 293.373C84.3885 291.922 88.5822 288.535 93.0753 285.904C99.4638 282.03 106.165 278.727 112.646 275.017C101.88 319.517 104.513 365.869 107.378 411.166L107.399 411.575C107.754 418.188 109.273 421.317 114.767 425.37C113.81 428.285 112.954 431.211 112.301 434.21C112.07 434.905 111.009 434.251 111 435.206C109.048 434.75 105.081 435.238 106.465 437.933C102.547 441.217 99.8933 445.664 96.4581 449.408C90.408 456.648 82.4994 462.036 74.7451 467.345C56.9192 476.413 55.8976 492.128 76.7539 497.496L76.963 497.545C79.835 498.235 83.2939 499.813 86.0782 498.485C90.2431 497.684 94.3766 496.063 98.4515 494.829C114.859 489.408 130.907 483.061 146.457 475.767C147.021 475.502 147.34 474.896 147.354 474.29C147.181 469.285 148.542 441.858 143.344 441.268C142.183 435.665 142.001 429.88 142.212 424.161C143.898 423.632 145.603 423.121 147.35 422.79C149.045 422.257 151.697 422.137 152.833 420.766C153.241 420.619 153.54 420.254 153.479 419.679C152.561 411.084 151.864 402.467 151.356 393.839C149.617 364.901 150.207 335.874 152.189 306.969C156.272 310.493 160.924 313.58 166.104 315.221C168.963 318.081 173.547 318.695 177.449 319.041C182.468 319.351 187.398 318.35 192.351 317.728C200.761 316.671 209.112 317.606 217.461 318.643L220.314 318.998C240.754 321.237 262.844 321.699 281.895 312.978C285.482 313.296 289.935 309.426 292.172 306.84C293.16 307.449 294.131 306.259 294.919 305.633C296.218 305.239 297.692 304.673 298.871 303.846C301.863 304.824 303.477 300.946 304.613 298.838C322.649 268.004 302.563 237.312 304.074 204.615C303.159 178.98 314.871 152.273 303.551 127.688C301.262 117.283 287.868 110.093 277.787 107.449C274.539 106.913 262.241 102.474 260.886 106.207C260.245 105.367 259.151 105.304 258.17 105.3ZM108.561 439.134C110.251 439.315 111.899 439.419 113.57 439.725C119.668 440.724 125.484 443.081 130.724 446.356C132.421 447.412 133.936 448.743 135.884 449.332C139.886 450.782 143.819 447.18 143.525 443.286C144.641 453.073 144.45 463.143 143.871 472.979C128.217 480.048 112.213 486.352 95.9183 491.828C92.2488 493.363 87.9038 493.854 84.5339 495.93C78.7874 495.568 73.0029 493.554 68.1763 490.405C60.1702 484.859 65.4852 476.063 72.1221 472.193C86.7323 465.611 99.1683 452.291 108.561 439.134ZM140.571 424.661C140.877 427.562 138.669 432.081 138.98 437.864C139.22 439.669 139.784 441.561 139.588 443.373C138.689 450.097 131.396 441.552 128.382 440.616C124.104 438.267 119.455 436.668 114.677 435.793C114.706 434.243 115.734 433.624 115.869 432.091C116.063 429.834 116.054 427.665 116.156 425.386C122.37 428.207 133.979 426.212 140.571 424.661ZM107.087 438.696C107.196 438.768 107.31 438.829 107.427 438.884C106.564 439.928 105.816 441.087 104.791 441.985L105.227 441.309C105.811 440.407 106.408 439.509 107.087 438.696ZM300.098 198.136C300.411 199.406 300.982 200.601 301.836 201.617C297.424 237.326 320.122 267.095 299.253 300.297C298.99 300.42 298.749 300.572 298.517 300.763C298.395 300.682 298.272 300.596 298.151 300.51C288.37 283.231 274.446 268.326 263.352 251.791C261.223 247.64 257.717 243.463 256.375 238.667C278.67 229.879 287.576 217.055 300.098 198.136ZM6.69214 252.3C7.63745 252.638 8.68933 252.359 9.69815 252.341C13.2797 252.265 16.7799 253.198 20.2056 254.14C30.1689 256.861 40.1848 259.269 50.3925 260.88C50.5988 261.093 50.796 261.311 50.9751 261.54C50.7982 261.839 50.7711 262.213 51.0277 262.584C52.5676 265.521 51.3228 269.116 52.4416 272.26C54.0625 278.623 58.374 285.801 64.8081 288.06C62.662 290.101 61.1245 292.728 58.914 294.698C53.4814 298.416 47.4984 292.875 43.0634 289.905C34.6194 283.949 26.1531 278.036 17.6638 272.146C13.8605 269 5.44711 265.034 3.6272 260.864C2.4613 257.668 4.5834 254.554 6.69214 252.3ZM64.8851 260.414C68.5197 267.814 70.6179 275.682 72.7169 283.627C70.5338 284.226 68.5229 285.166 66.3768 285.797C63.3544 286.476 59.0872 280.645 57.5718 278.33C56.0095 275.741 54.9157 272.897 54.4084 269.917C53.9802 266.999 54.4363 263.968 53.1647 261.265C57.1022 261.666 61.0965 261.75 64.8851 260.414ZM280.966 245.145C277.553 244.191 285.317 251.899 285.765 252.722C290.813 258.673 295.439 264.958 300.029 271.262L301.42 273.176C301.554 273.37 302.476 274.729 301.809 274.556C301.748 274.54 301.72 274.62 301.768 274.654C306.013 275.403 283.013 245.669 280.966 245.145ZM197.757 241.507C197.481 240.677 198.791 240.322 199.067 241.147L199.937 243.763C203.221 253.646 206.484 263.543 210.408 273.196C210.737 274.006 209.424 274.359 209.098 273.558C204.829 263.054 201.342 252.26 197.757 241.507ZM159.59 238.046C160.787 243.717 163.811 248.829 165.644 254.249C162.201 253.491 159.549 250.288 157.542 247.533L157.481 247.441C156.535 245.986 155.434 243.713 153.284 244.74C150.019 246.633 152.358 253.347 152.419 256.529C152.833 260.891 154.253 264.971 155.221 269.208C152.733 267.511 152.018 264.163 150.805 261.555L146.137 250.375C142.706 245.682 144.3 259.738 144.477 261.064C144.756 263.978 145.986 266.909 145.503 269.843C143.568 267.764 142.349 265.152 141.325 262.501C139.904 258.815 138.607 255.081 137.255 251.37C136.788 250.181 135.015 250.598 135.272 251.908C135.36 256.119 135.429 260.331 135.496 264.542L135.547 267.701C135.556 268.3 135.853 270.049 134.816 269.566C129.375 263.864 127.98 252.463 128.688 244.803C139.384 245.061 150.297 243.676 159.59 238.046ZM64.4061 259.317C64.45 259.457 64.5005 259.596 64.5511 259.735C64.5203 259.741 64.4874 259.748 64.4566 259.756C64.4369 259.608 64.4193 259.463 64.4061 259.317ZM301.8 259.317C302.986 258.443 283.044 232.88 284.336 240.259C289.899 246.831 296.387 252.59 301.8 259.317ZM125.682 202.831C144.332 198.457 160.756 214.797 179.485 212.328C179.268 218.181 178.967 224.073 179.085 229.928C154.213 231.976 157.043 242.544 128.411 241.48C124.711 239.006 123.192 223.843 123.504 219.266C123.265 213.854 127.93 211.425 132.577 210.475C134.256 211.487 137.269 208.468 134.775 207.405C131.494 206.42 128.423 204.87 125.682 202.831ZM263.269 106.912C269.904 107.565 276.476 109.37 282.574 112.16C305.116 118.657 308.366 145.001 305.656 164.965C304.533 180.147 300.196 194.994 291.079 207.34C266.806 244.297 226.602 238.445 188.521 233.557C187.149 232.604 184.823 233.281 183.5 232.021C183.638 231.974 183.763 231.908 183.869 231.826C183.234 231.331 182.742 230.463 182.595 229.539L182.321 229.566C182.052 223.835 182.267 218.216 182.18 212.529C194.693 209.103 208.113 207.352 220.794 203.939C222.235 204.943 223.897 203.788 225.305 203.243C228.956 201.693 232.638 200.22 236.348 198.818L237.276 198.469C239.694 197.564 242.11 196.636 244.506 195.669L245.403 195.304C246.776 194.744 250.241 192.67 251.738 193.965L251.617 194.225C250.73 196.159 247.672 203.313 251.431 201.898C254.483 199.758 256.066 184.835 259.089 184.703C260.129 187.482 260.874 190.365 261.044 193.335C261.106 194.004 261.985 194.567 262.514 193.943C266.1 189.228 260.683 184.092 260.539 179.116C260.197 173.329 262.762 167.915 264.039 162.376L264.118 161.994C264.867 158.401 266.032 154.044 265.723 150.822L264.979 153.619C264.233 156.418 263.468 159.218 262.591 161.978C260.414 168.871 256.484 175.973 258.668 183.348C254.286 183.494 253.545 190.399 251.899 193.553C249.236 190.103 230.497 198.375 226.221 199.702L225.397 198.768C212.004 183.607 202.337 173.346 181.58 185.339C185.166 173.79 185.512 161.523 186.124 149.53C185.914 147.249 187.235 141.231 185.372 139.985C185.049 140.032 184.735 140.13 184.438 140.26L184.438 141.442C184.429 143.732 184.322 147.529 183.361 148.391L182.919 152.926C181.763 164.716 180.453 176.497 176.927 187.859C168.462 192.584 160.738 198.5 153.472 204.883L152.644 204.581C143.666 201.299 132.864 197.093 123.684 201.189C123.838 198.876 124.732 196.663 125.979 194.707C128.058 194.192 129.419 192.002 130.907 190.545C135.626 185.484 140.469 180.539 145.079 175.376C164.749 154.249 173.117 119.556 204.006 111.361C206.048 128.433 227.923 131.157 241.105 125.315L241.605 125.123C249.8 121.965 259.06 117.199 261.938 108.516L262.058 108.265C262.354 107.653 262.707 107.028 263.269 106.912ZM258.408 204.066C258.384 204.04 258.337 204.075 258.357 204.104C262.198 208.916 265.323 215.48 261.506 221.228C260.801 222.522 262.45 223.765 263.505 222.779C268.803 216.772 262.925 208.63 258.408 204.066ZM124.788 205.153C126.9 206.659 129.165 207.909 131.564 208.896C131.556 209.171 131.691 209.467 131.813 209.683C128.655 209.934 125.366 210.748 123.15 213.048C123.042 212.206 122.937 211.363 122.856 210.52C122.652 208.35 123.024 206.408 124.788 205.153ZM270.012 183.881L269.988 183.765C269.97 183.633 269.77 183.624 269.776 183.765C269.85 185.485 271.103 186.709 272.165 187.934C273.74 189.751 275.316 191.568 276.892 193.384C279.528 196.55 283.41 199.733 282.537 204.319C282.52 205.948 284.565 206.297 285.394 205.099C288.693 198.817 278.309 193.472 274.808 189.419C273.165 187.665 270.574 186.374 270.012 183.881ZM220.566 202.741C220.517 202.819 220.482 202.904 220.463 202.991C219.91 203.049 219.359 203.112 218.809 203.18L220.566 202.741ZM303.169 188.049C303.07 188.705 302.978 189.363 302.889 190.022L302.802 190.68L302.789 190.623C302.744 190.452 302.659 190.303 302.548 190.184L302.51 190.146C302.738 189.45 302.958 188.751 303.169 188.049ZM151.555 181.254C150.232 181.113 156.228 185.418 156.559 185.95C157.043 186.37 157.608 185.624 157.092 185.261C155.229 183.949 153.393 182.602 151.555 181.254ZM163.221 168.591C162.3 168.214 161.675 169.745 162.548 170.172C165.729 171.726 169.093 172.825 172.024 174.869C172.152 174.959 172.314 174.75 172.192 174.654L171.84 174.376C169.14 172.235 166.443 169.908 163.221 168.591ZM302.07 149.234C301.181 153.415 296.371 154.788 292.638 155.902L291.471 156.345C288.174 157.605 284.759 159.022 282.387 161.684C281.458 164.687 288.091 159.456 289.017 159.191C293.547 156.387 301.731 155.91 302.07 149.234ZM203.87 110.201C203.845 110.414 203.833 110.631 203.826 110.848C203.547 110.848 203.27 110.85 202.991 110.859C203.316 110.669 203.614 110.452 203.87 110.201Z" fill="#232323"/>
<path fill-rule="evenodd" clip-rule="evenodd" d="M193.666 34.1553C195.931 26.0229 204.589 22.4744 212.386 21.9112C233.497 19.7284 254.985 31.4339 264.344 50.4146C271.836 64.8273 272.071 79.9675 255.967 88.1968C255.087 88.679 254.169 89.1945 253.231 89.6625C252.416 90.4161 251.577 91.1402 250.661 91.7482C241.891 97.4837 231.128 99.9643 220.698 99.4263C205.298 99.1175 199.8 88.7236 196.436 75.3944C192.888 62.1242 190.903 47.7249 193.666 34.1553Z" fill="#FAFAFA"/>
<path fill-rule="evenodd" clip-rule="evenodd" d="M183.557 110.809C184.276 108.646 185.177 106.549 186.019 104.43C186.198 103.374 186.316 102.309 186.347 101.235C186.464 97.3988 185.742 93.5301 184.933 89.7948C183.289 82.2039 181.545 74.6918 180.67 66.9609C179.107 53.1328 180.037 38.7536 186.36 26.1306C191.84 15.1958 201.125 6.25339 213.119 2.90298C216.665 1.91208 220.314 1.36556 223.988 1.1473C224.443 1.07535 224.897 1.00493 225.349 0.937136C230.46 0.170829 235.634 -0.211012 240.799 0.119436C249.366 0.667704 257.852 3.11621 264.986 7.95899C272.169 12.8352 277.273 19.6725 279.648 28.012C282.118 36.6876 281.909 46.0834 286.175 54.2171C287.435 56.6201 288.906 58.9046 290.309 61.2272C294.032 65.3585 298.074 69.9513 298.96 75.6319C300.052 82.6523 295.991 88.5854 292.148 94.0638C288.674 99.0106 283.96 105.843 287.535 111.933C289.221 114.807 291.924 116.957 293.953 119.577C296.057 122.297 297.7 125.42 298.548 128.758C300.142 135.025 298.676 141.558 294.413 146.456C292.192 149.006 289.34 150.693 286.253 152.007C283.093 153.35 280.006 154.625 277.394 156.91C276.2 157.953 275.108 159.097 274.074 160.296C273.111 161.794 271.99 163.193 270.726 164.475C269.334 165.885 266.607 163.954 267.885 162.294C267.979 162.172 268.072 162.052 268.166 161.929C269.101 160.718 270.04 159.506 271.022 158.334C273.953 153.715 275.081 148.06 273.624 142.664C273.245 141.262 272.713 139.933 272.051 138.678C271.911 139.043 271.757 139.404 271.594 139.76C270.961 141.142 270.072 142.78 268.942 144.18C268.898 145.14 268.753 146.091 268.472 147.023C266.731 152.799 260.908 155.648 255.658 157.866C255.143 158.085 254.635 158.294 254.136 158.502C252.764 159.073 251.313 157.129 252.168 155.956C252.393 155.648 252.61 155.333 252.817 155.014C255.28 151.222 256.451 146.686 255.787 142.168C255.088 137.389 252.256 133.435 249.444 129.641C246.682 125.91 243.716 122.103 242.481 117.552C241.113 112.524 242.358 107.511 244.468 102.884C246.401 98.6491 248.976 94.7461 251.134 90.6281C250.395 91.3613 249.633 92.0706 248.847 92.7546C247.963 93.524 247.055 94.4045 246.008 94.9468C245.234 95.3477 244.458 94.3881 245.071 93.7392C245.877 92.8867 246.909 92.228 247.804 91.4672C248.663 90.737 249.497 89.9774 250.311 89.1974C251.313 88.2371 252.266 87.2315 253.185 86.1955C253.921 84.332 254.527 82.4185 255.02 80.4762C255.691 77.8475 256.311 75.0504 256.262 72.3255C256.214 69.5306 254.754 67.5732 252.81 65.6968C251.987 64.9023 251.156 64.1172 250.326 63.3306C248.56 62.0405 246.893 60.5993 245.274 59.162C242.389 56.6009 239.599 53.8937 236.934 51.1073C236.22 50.3598 235.511 49.604 234.811 48.8394C232.365 46.3428 230.032 43.7359 227.833 41.039C225.647 40.2473 223.547 39.1998 221.577 37.9663C222.435 38.8302 223.301 39.6831 224.163 40.5426C226.083 42.4583 228.077 44.3828 230.302 45.9441C230.531 46.1062 230.392 46.4495 230.11 46.3948C227.281 45.8328 224.634 44.8968 222.162 43.4053C219.649 41.8875 217.435 39.8252 215.368 37.7564C214.198 37.2315 213.07 36.5558 212.039 35.8909C211.984 35.8559 211.929 35.8188 211.874 35.7835C212.89 38.9855 214.381 42.6114 217.558 43.753C217.661 43.7902 217.655 43.9608 217.532 43.9542C214.855 43.7981 212.704 42.6003 211.005 40.8544C209.64 39.8769 208.336 38.8409 207.092 37.7131C205.887 36.6205 204.746 35.4487 203.662 34.2354C205.177 37.2204 206.874 40.1391 208.548 43.0247C208.636 43.1778 208.451 43.3856 208.293 43.2784C204.759 40.899 202.079 37.8286 199.887 34.198C199.563 33.6635 199.254 33.1203 198.953 32.5729C199.18 33.4295 199.429 34.2807 199.694 35.1275C200.176 36.6603 200.65 38.1966 201.132 39.7286C201.392 40.5546 201.709 41.3618 202.056 42.1552C202.305 42.7229 202.631 43.2896 202.681 43.9122C202.685 43.9535 202.639 43.9807 202.603 43.9717C201.194 43.6213 199.882 42.0231 198.878 41.0331C198.319 40.4818 197.795 39.8766 197.314 39.2385C197.224 42.9141 197.163 46.5901 197.244 50.2767C197.396 57.0475 197.835 63.8161 198.398 70.5648C198.895 76.531 199.262 82.7922 202.609 87.9775C205.199 91.9905 209.399 94.7677 213.961 96.1129C214.363 96.2332 214.768 96.3404 215.175 96.4366C221.78 97.9959 228.358 96.2288 234.198 93.1059C235.953 92.1677 237.452 94.7131 235.759 95.7606C229.422 99.6842 221.39 101.02 214.218 99.2621C214.444 107.688 210.269 115.682 206.116 122.829C203.792 126.829 201.466 130.802 199.823 135.139C198.429 138.822 197.481 142.642 197.163 146.572C196.784 151.204 197.156 155.863 197.807 160.455C197.842 160.704 197.877 160.956 197.915 161.205C198.06 162.192 197.169 163.018 196.204 162.513C191.936 160.282 190.096 155.528 188.977 151.132C187.93 147.014 187.22 142.815 186.824 138.588C186.244 140.182 185.773 141.816 185.408 143.482C185.357 143.721 185.309 143.959 185.261 144.197C184.984 145.59 182.864 145.492 182.526 144.197C182.464 143.963 182.405 143.729 182.35 143.493C180.602 136.462 180.131 129.129 181.055 121.941C181.541 118.16 182.352 114.429 183.557 110.809Z" fill="#232323"/>
<path fill-rule="evenodd" clip-rule="evenodd" d="M213.89 85.2774C215.496 85.7507 217.22 85.7931 218.857 85.3042C220.341 84.8608 221.866 83.885 222.958 82.5938C223.929 81.4468 224.558 80.0528 224.533 78.5649C224.53 78.395 224.471 78.2531 224.379 78.143C224.28 78.0245 224.142 77.9431 223.994 77.9078C223.842 77.8715 223.681 77.8843 223.544 77.9477C223.42 78.005 223.314 78.1023 223.247 78.2446C223.079 78.4691 222.912 78.6903 222.744 78.9053C221.394 80.602 220.086 81.87 218.056 82.3248C216.954 82.5716 215.854 82.4622 214.844 82.0856C213.764 81.6825 212.787 80.9738 212.022 80.0669C211.676 79.657 211.267 79.4897 210.868 79.4869C210.415 79.4837 209.968 79.6977 209.631 80.0398C209.3 80.376 209.078 80.8329 209.058 81.3108C209.04 81.7303 209.175 82.1685 209.532 82.5594C210.711 83.8471 212.238 84.7904 213.89 85.2774ZM213.94 64.0267C212.293 65.045 209.785 67.4194 211.556 69.9438C213.641 72.1696 216.642 69.6175 218.121 68.4633C219.492 67.5688 221.033 69.8695 219.761 70.914C209.074 78.9658 204.737 64.293 213.107 62.8295C214.029 62.6682 214.371 63.7117 213.94 64.0267ZM229.338 59.5461C229.868 59.2018 230.49 59.0836 231.18 59.4029C231.719 59.6524 232.664 60.484 233.322 61.5772C233.772 62.325 234.091 63.2024 234.025 64.1163C234.009 64.3285 234.087 64.485 234.208 64.6007C234.304 64.6921 234.443 64.7592 234.606 64.7802C234.744 64.7981 234.899 64.782 235.025 64.742C235.264 64.666 235.391 64.5079 235.438 64.3789C235.899 63.1339 235.701 61.7446 235.184 60.4911C234.488 58.7995 233.222 57.3826 232.393 56.9258C230.975 56.1438 229.301 56.1078 227.88 56.9045C226.671 57.5825 225.915 58.6772 225.163 59.7931C225.003 60.0303 224.844 60.2658 224.68 60.4971C224.352 60.9606 224.319 61.4203 224.446 61.8146C224.587 62.2513 224.947 62.6198 225.396 62.8127C225.812 62.991 226.294 63.0161 226.721 62.8329C227.081 62.6782 227.412 62.3765 227.621 61.8647C227.974 61.0028 228.561 60.0518 229.338 59.5461ZM202.467 61.4638C202.83 61.6559 203.113 61.7139 203.515 61.5913C203.737 61.5234 203.957 61.3931 204.129 61.2181C204.3 61.0446 204.423 60.8289 204.47 60.5896C204.588 59.999 204.906 59.4461 205.358 59.0857C205.745 58.7777 206.233 58.6144 206.774 58.7065C207.359 58.8058 207.915 59.1871 208.299 59.6368C208.427 59.7872 208.528 59.9581 208.628 60.1278C208.817 60.4452 209.001 60.7402 209.262 60.9733C209.36 61.062 209.509 61.1234 209.653 61.1234C209.712 61.1234 209.771 61.1137 209.828 61.0957C210.41 60.5017 210.521 60.0511 210.503 59.6041C210.483 59.1354 210.301 58.6608 210.008 58.218C209.32 57.1794 208.013 56.3278 207.131 56.1349C205.923 55.8708 204.724 56.1878 203.762 56.8743C202.772 57.5807 202.039 58.6774 201.81 59.9133C201.756 60.2109 201.779 60.5322 201.89 60.8108C201.999 61.083 202.189 61.3161 202.467 61.4638ZM226.675 48.4723C227.4 49.1909 228.257 49.3023 229.125 49.4013C229.608 49.4568 229.993 49.5016 230.371 49.5885C231.413 49.8277 232.442 50.188 233.381 50.7068C234.362 51.2491 235.432 51.9032 236.201 52.7411C236.384 52.9405 236.557 53.1498 236.73 53.3594C236.887 53.5506 237.039 53.7347 237.199 53.9122C237.383 54.1161 237.557 54.3297 237.73 54.5428C237.838 54.7226 237.859 54.7669 237.88 54.8129C237.913 54.8821 237.951 54.9595 237.994 55.0426C238.053 55.1563 238.122 55.2808 238.195 55.3937C238.316 55.6001 238.38 55.6569 238.436 55.6823C238.529 55.7244 238.617 55.7452 238.703 55.7339C238.783 55.7234 238.858 55.6843 238.933 55.6201C239.305 55.3002 239.415 54.7751 239.404 54.2177C239.386 53.3719 239.08 52.4354 238.797 51.8597C238.14 50.522 237.229 49.1315 236.133 48.1331C234.883 46.9935 233.515 46.1308 231.943 45.5363C230.967 45.1667 229.836 44.8275 228.772 44.8704C228.007 44.9012 227.276 45.1328 226.672 45.7113C226.301 46.0664 226.123 46.5715 226.123 47.0763C226.123 47.5911 226.308 48.1089 226.675 48.4723ZM200.993 55.0532C201.039 55.1301 201.103 55.1831 201.174 55.2149C201.249 55.2483 201.332 55.2579 201.411 55.2442C201.491 55.2306 201.566 55.194 201.626 55.138C201.683 55.0844 201.727 55.0133 201.747 54.9261C202.228 52.7752 203.162 51.1749 205.157 50.143C206.138 49.6353 207.266 49.3128 208.334 49.0556C208.644 48.9809 208.972 48.9325 209.302 48.8834C210.337 48.7296 211.38 48.5535 212.055 47.7021C212.461 47.1892 212.632 46.5334 212.535 45.9335C212.444 45.3688 212.12 44.8509 211.531 44.5406C210.063 43.7684 208.239 44.5261 206.757 45.1716C206.647 45.2195 206.539 45.2665 206.434 45.3119C204.984 45.9345 203.662 46.7563 202.576 47.9315C201.714 48.8639 200.915 50.2423 200.593 51.6602C200.325 52.8399 200.388 54.0442 200.993 55.0532Z" fill="#232323"/>
</svg>
