<svg width="291" height="427" viewBox="0 0 291 427" fill="none" xmlns="http://www.w3.org/2000/svg">
<path fill-rule="evenodd" clip-rule="evenodd" d="M218.805 181.518C221.403 182.976 223.558 183.972 225.589 184.653L228.576 185.654L225.767 187.08C223.859 188.049 222.045 189.284 220.22 190.857L218.812 192.072L218.133 190.341C217.24 188.066 216.806 185.479 216.842 182.651L216.871 180.431L218.805 181.518ZM94.0459 188.863C96.4765 193.257 99.4106 197.583 102.248 201.766C108.511 210.999 114.987 220.546 116.981 231.963C117.137 232.91 117.247 235.049 117.314 238.381L115.458 237.624C109.259 235.094 102.681 233.213 96.3209 231.394C93.8624 230.69 91.3206 229.963 88.8292 229.207C87.8146 228.935 86.8056 228.617 85.8293 228.31C83.4609 227.564 81.2234 226.859 78.871 226.739L78.1548 226.703L77.7965 226.081C74.5554 220.458 76.9861 215.098 79.7693 210.089C81.4411 206.438 83.5914 203.008 85.6714 199.689C87.8272 196.25 90.0563 192.694 91.6851 188.973L92.7548 186.53L94.0459 188.863ZM213.666 235.444C209.982 239.312 206.559 243.242 203.494 247.126L201.166 246.054C202.291 240.318 205.785 236.277 212.16 233.336L213.666 235.444ZM90.403 321.857C90.7719 321.857 91.1179 322 91.3771 322.26C91.6401 322.524 91.7844 322.88 91.7833 323.261L90.403 323.257V321.857ZM243.727 417.493C245.892 413.771 246.21 407.927 242.966 404.759C244.057 397.916 241.913 390.27 237.166 384.822L237.155 384.839C230.106 374.258 229.588 370.488 234.738 358.661C243.943 358.308 253.424 358.203 262.411 356.047L262.075 354.034C262.407 353.945 264.107 353.499 264.471 353.404C264.423 353.779 264.169 355.488 264.175 355.831C264.595 356.291 265.61 356.718 265.799 355.812C271.452 331.592 276.512 307.851 282.01 283.667C287.764 259.258 299.336 220.217 271.01 206.765L271.595 204.264C273.159 204.264 273.788 202.556 274.505 200.142C277.701 191.507 271.486 183.041 265.675 177.7C257.732 169.73 250.404 160.88 243.314 152.325C223.093 127.684 195.578 94.8004 160.407 100.387L160.525 101.838C155.023 102.532 149.279 103.99 143.708 102.974C124.688 99.6718 103.996 107.143 92.2978 122.483L91.8681 119.624C91.8277 119.354 91.7315 119.104 91.3055 119.104C90.7481 119.085 90.4535 119.542 90.2475 119.963C70.0573 127.962 61.6938 153.999 55.2419 171.845C54.4182 174.861 54.6505 175.754 54.7223 175.931L55.8939 176.631C43.7259 192.858 37.0392 212.375 31.303 230.881C29.4071 235.814 29.2094 239.233 32.3757 242.217C11.4976 254.792 -4.8854 274.39 4.37748 296.733C16.4666 318.474 48.4781 332.268 72.5222 344.756C82.0703 349.941 95.9576 352.702 104.744 361.194C105.331 362.063 106.173 362.91 106.683 362.841C110.761 363.445 116.83 337.914 115.908 335.87C120.212 337.412 125.001 337.33 129.503 338.135C129.1 339.024 127.779 340.227 128.767 341.215C128.7 344.214 129.16 347.455 129.818 350.511C124.415 349.643 124.538 352.485 129.736 350.981C129.877 352.305 130.238 355.681 130.376 356.961C128.824 356.277 125.736 355.797 124.654 356.867C125.096 358.292 128.923 356.95 130.397 357.372C131.26 363.782 131.541 370.084 132.146 376.476C127.545 380.869 120.36 381.907 116.255 386.658C112.776 390.274 113.278 396.342 117.359 399.251C114.859 402.189 116.859 407.066 120.509 407.864C125.481 409.027 130.678 407.418 135.58 406.067C143.728 403.377 152.262 399.184 161.668 393.248C165.389 390.925 168.16 387.275 169.477 382.967C179.019 353.487 181.569 333.456 177.065 323.402C174.494 321.455 171.629 322.656 169.256 321.593C168.125 321.087 167.106 320.406 166.284 317.989C178.663 316.771 196.71 319.035 206.633 313.089L206.284 312.344C207.2 311.758 209.214 309.305 209.98 308.517C208.599 325.165 207.489 342.244 206.94 358.834C205.12 361.903 203.574 365.079 201.877 368.623C200.697 369.785 198.632 371.777 199.844 373.094C199.844 373.094 189.655 397.011 186.541 409.1C183.576 409.226 182.374 414.259 182.487 417.603C182.938 423.688 190.728 424.333 197.558 424.93C202.231 425.421 207.035 425.676 211.769 425.676C220.321 425.682 241.704 425.092 243.727 417.493Z" fill="#FAFAFA"/>
<path fill-rule="evenodd" clip-rule="evenodd" d="M122.494 334.681C125.858 335.475 129.249 336.133 132.633 336.84C133.501 337.222 137.866 337.284 137.07 338.711C137.075 338.715 137.077 338.72 137.081 338.722C136.192 339.407 134.989 339.019 133.918 339.109C142.239 342.521 147.945 335.489 146.414 327.462C146.196 326.029 145.915 324.398 145.298 323.088C144.971 322.501 142.625 317.976 142.211 319.52C142.536 319.715 141.617 319.795 141.745 319.096C113.172 318.778 120.208 305.62 117.496 333.56C119.177 333.688 120.855 334.294 122.494 334.681ZM129.438 346.88C129.595 347.579 129.769 348.293 129.972 348.985C135.562 349.958 139.673 352.798 130.822 352.263C131.077 353.309 131.317 354.36 131.543 355.415C132.638 355.837 136.617 357.173 136.414 358.449C135.034 358.759 133.529 358.186 132.112 358.247C133.032 364.354 134.377 370.602 134.254 376.793C134.271 378.832 131.162 379.217 130.763 377.196C126.999 382.732 115.645 384.895 116.723 392.986C117.323 394.639 118.109 395.765 119.798 395.826C120.997 396.136 122.336 397.554 121.646 398.82L121.677 398.831C121.546 399.976 120.24 400.39 119.383 400.719C118.531 401.384 118.5 402.454 119.177 403.454C122.486 406.946 131.924 403.467 136.027 402.318C144.353 399.422 152.223 395.229 159.731 390.641C163.251 388.611 165.67 385.21 166.816 381.344C171.977 362.943 178.673 343.417 175.637 324.169C174.322 322.295 171.473 322.635 169.619 321.643C172.685 332.972 167.604 344.737 165.536 355.908C161.268 376.021 157.906 392.063 135.78 398.774C132.794 399.4 126.358 401.667 124.144 399.155C123.439 398.48 123.509 397.35 124.144 396.662C125.264 395.162 127.116 395.341 128.788 395.171C133.118 394.63 137.356 393.312 141.218 391.276C149.805 387.028 155.772 378.836 157.29 369.392C159.866 358.758 162.18 348.039 165.19 337.517C167.25 330.359 170.614 324.13 163.164 318.858C158.123 319.008 153.077 319.146 148.033 319.164C149.275 321.253 150.649 323.888 149.949 326.365C153.024 333.349 149.053 342.656 141.392 344.437C137.152 345.351 132.749 344.262 128.836 342.468C128.898 343.943 129.085 345.369 129.438 346.88ZM208.01 312.674C208.031 312.389 208.053 312.101 208.076 311.813C207.686 312.241 207.241 312.626 206.762 312.973C207.175 312.868 207.588 312.76 208.01 312.674ZM207.269 359.834C206.865 361.291 206.414 362.735 205.925 364.167C213.201 362.062 222.902 360.314 228.95 366.029C229.814 363.698 230.843 361.489 232.287 359.493C224.924 358.655 217.506 359.118 210.145 358.368C209.601 359.397 208.358 360.01 207.269 359.834ZM229.776 376.649C229.75 376.574 229.721 376.499 229.695 376.427C229.28 376.375 228.868 376.325 228.456 376.27C228.897 376.391 229.337 376.517 229.776 376.649ZM204.141 369.245C203.866 370.186 203.14 370.765 202.408 370.828C201.683 371.62 201.396 372.818 200.428 373.36C196.762 385.502 191.832 397.297 189.347 409.785C206.338 415.293 222.264 415.608 239.363 410.056C238.952 409.651 238.759 409.108 238.75 408.506C238.739 408.517 238.726 408.526 238.713 408.537C241.026 397.169 239.721 393.593 233.816 383.874C225.882 383.532 217.924 383.238 209.982 383.476C208.117 383.695 204.498 382.159 206.129 379.928C208.042 377.827 211.05 378.396 213.62 378.532C219.617 378.834 225.601 379.719 231.316 381.606C230.716 380.327 230.529 378.808 230.046 377.453C224.506 376.824 218.911 376.676 213.354 377.139C211.283 377.334 208.842 378.33 207.05 376.884C203.847 371.307 226.517 374.364 229.124 374.987C228.265 372.97 227.35 370.877 227.742 368.614C222.029 364.11 210.054 365.666 204.141 369.245ZM187.333 413.738C186.876 414.059 186.291 414.043 185.797 413.824C184.653 416.594 185.447 419.429 188.614 420.08C194.384 421.434 200.399 421.687 206.3 422.034C212.581 422.28 218.884 422.098 225.141 421.502C235.181 421.201 244.101 418.373 243.691 406.578C243.289 408.153 243.027 410.568 241.007 410.667C225.239 419.002 204.767 419.796 188.497 412.551C188.216 412.999 187.845 413.38 187.333 413.738ZM262.595 354.835C262.597 354.802 262.597 354.774 262.602 354.741C262.432 354.785 262.262 354.835 262.09 354.877C262.259 354.861 262.426 354.846 262.595 354.835ZM217.865 182.229C217.834 184.667 218.169 187.138 219.064 189.419C220.846 187.883 222.77 186.533 224.875 185.465C222.43 184.645 220.112 183.491 217.865 182.229ZM268.606 204.48C268.277 203.898 269.742 204.608 269.97 204.638C269.015 203.87 269.21 202.237 270.317 201.8C275.568 192.635 269.198 184.313 262.465 178.223C250.974 166.847 241.622 153.596 230.938 141.49C217.46 143.741 204.442 149.519 194.387 158.828C204.684 168.338 215.426 178.332 228.385 184.017C229.59 183.432 231.192 183.591 231.593 184.9C233.08 185.171 234.563 185.55 236.046 185.792C236.121 185.803 236.11 185.913 236.046 185.931C234.588 186.434 233.085 186.768 231.527 186.669C216.54 191.896 210.933 208.041 200.27 218.587C191.564 226.213 179.077 231.84 177.821 244.814C175.724 249.008 174.211 253.385 174.767 258.082C174.62 261.751 175.9 265.39 174.854 268.948C177.053 277.363 179.573 286.116 185.869 292.461C186.047 292.417 186.232 292.428 186.403 292.512C185.951 289.7 185.465 286.893 184.986 284.086C183.172 280.373 182.012 276.379 181.252 272.325C180.942 270.283 183.94 269.873 184.066 271.953C186.11 279.246 188.587 287.888 195.694 292.129C194.401 287.23 192.84 282.385 190.687 277.794C189.863 276.267 189.086 274.712 188.323 273.154C187.502 271.465 189.956 269.982 190.867 271.666C194.187 277.999 197.317 285.172 203.64 288.962C201.644 282.355 199.015 275.883 196.522 269.441C196.245 268.779 196.821 267.997 197.442 267.819C198.2 267.601 198.789 268.087 199.064 268.74C200.064 271.061 200.823 273.749 202.438 275.761C203.088 277.99 207.62 281.434 205.316 276.324C203.076 269.75 201.556 262.737 198.341 256.605C197.457 245.483 199.136 238.525 209.846 233.376C211.399 232.598 213.326 231.602 215.189 231.268C220.396 226.082 225.956 221.263 231.936 216.891C244.053 207.725 262.474 199.537 276.367 209.764C274.138 207.559 271.55 205.737 268.606 204.48ZM215.762 125.311C201.368 111.253 182.616 100.046 161.956 100.042C162.141 100.103 162.174 100.328 162.064 100.473C177.738 166.513 102.484 192.185 88.8118 119.725C74.4579 129.097 63.5728 153.495 58.6068 169.617C71.475 170.616 83.054 178.749 90.5517 188.927C91.1978 187.827 91.3378 186.521 89.5934 186.841C89.1947 186.458 91.0186 186.676 91.1712 186.988C87.7015 179.575 84.132 171.901 82.1072 163.811C82.0476 163.607 82.3352 163.493 82.445 163.669C85.4877 168.52 88.6864 173.266 91.6543 178.164C101.696 197.837 121.74 215.122 120.888 238.617C120.892 238.619 120.895 238.621 120.897 238.623C120.508 239.303 120.664 240.249 120.071 240.844C123.159 254.525 130.858 268.505 143.362 275.55C152.808 279.908 163.089 274.858 171.243 269.92C171.544 267.031 171.846 264.144 172.15 261.257C170.665 260.883 170.854 258.165 170.81 256.97C170.498 251.936 171.799 246.997 174.472 242.683C175.706 236.281 179.164 230.59 184.165 226.434C187.504 223.578 191.215 221.206 194.615 218.432C203.644 211.092 208.481 200.186 216.463 191.883C215.501 188.4 215.298 184.914 216.327 181.332C210.622 177.647 179.534 157.347 185.304 150.244C186.14 149.002 187.952 149.222 188.429 150.653C189.03 152.597 189.923 154.394 191.401 155.821C201.853 146.332 215.761 140.037 230.031 140.448C225.461 135.221 220.74 130.118 215.762 125.311ZM160.717 101.227C151.8 105.663 141.047 102.594 131.534 102.983C116.905 103.563 102.71 110.764 93.6427 122.277C97.1924 137.969 105.656 155.814 122.874 159.415C139.94 162.485 155.022 147.847 159.096 132.189C161.828 122.143 161.884 111.52 160.717 101.227ZM37.9147 213.323C36.6052 216.863 35.3661 220.426 34.1624 224.003C32.9504 227.646 31.5236 231.263 30.531 234.974C30.9431 236.749 31.9287 238.167 32.9144 239.659C40.2803 250.749 55.2612 249.712 66.1509 255.097C67.8646 255.91 69.9363 256.924 71.4367 258.353C73.4566 259.106 74.0306 261.509 73.7101 263.462C71.9378 273.343 70.4941 283.122 70.0661 293.143C69.9275 295.908 69.8394 298.797 70.703 301.437C73.8465 298.905 75.6686 284.309 75.7536 279.997C75.7931 278.913 77.155 278.843 77.5331 279.755C82.1588 292.423 79.7512 306.34 80.3251 319.553C86.8757 310.015 86.8937 297.984 87.2494 286.842C87.3267 285.06 90.0506 285.04 90.0355 286.842C90.4285 298.568 88.7356 311.319 90.0133 322.734C94.8967 310.693 96.2673 297.177 95.0028 284.279C97.3348 291.082 97.2524 300.412 96.4765 308.049C98.7669 308.304 97.2355 314.845 97.9288 316.719C110.843 287.025 97.5105 269.619 83.3165 244.548C80.3501 237.28 72.1876 224.251 74.5247 216.849C75.3579 214.247 76.8389 211.914 78.2295 209.586C82.1812 203.023 86.2696 196.544 90.0616 189.89C89.3896 189.358 88.7325 188.808 88.0844 188.248C79.4057 180.495 71.4884 174.45 59.2593 173.576C49.7499 185.442 43.1213 199.097 37.9147 213.323ZM90.0638 322.852C90.1453 323.09 90.2703 322.622 90.0264 322.764C90.0376 322.793 90.053 322.822 90.0638 322.852ZM78.6774 303.367C78.6203 298.504 78.6809 293.592 78.014 288.775C78.2756 293.637 78.4577 298.504 78.6774 303.367ZM83.2952 225.86C94.0986 229.157 105.149 231.782 115.66 235.963C115.111 217.794 100.832 204.229 92.5968 189.063C89.35 196.481 84.02 202.864 80.6504 210.246C78.0641 214.895 75.7044 219.885 78.6425 224.983C80.1803 224.928 81.8936 225.502 83.2952 225.86ZM202.284 245.702C205.505 241.677 208.875 237.799 212.416 234.095C207.124 236.536 203.324 239.954 202.164 245.869C202.201 245.814 202.241 245.759 202.284 245.702ZM143.582 319.142C143.976 319.436 144.134 319.58 144.421 319.803C144.143 319.595 143.9 319.245 143.582 319.142ZM2.80211 270.905C7.84898 258.033 18.5251 248.533 30.0717 241.461C27.1724 238.079 28.3812 233.74 29.7711 229.984C35.5607 211.343 42.0855 192.498 53.6814 176.583C51.2455 175.128 56.3183 163.919 57.049 161.22C63.267 146.075 72.5901 124.252 89.0513 118.443C89.9129 116.937 92.5559 116.858 92.876 118.989C105.253 104.485 125.009 98.1534 143.639 101.236C149.217 102.212 154.562 100.764 160.069 100.09C157.352 100.202 154.65 100.53 151.989 101.114C151.781 101.161 151.701 100.868 151.901 100.798C168.736 94.4704 187.582 99.5585 202.098 109.222C228.057 126.784 244.467 154.386 266.277 176.296C272.49 182.079 278.43 190.311 275.734 199.219C274.999 201.511 274.325 205.144 271.299 205.143C300.921 219.814 288.68 258.221 282.999 283.52C277.534 307.56 272.39 331.677 266.785 355.681C266.356 357.466 264.436 357.572 263.344 356.662C254.249 359.001 244.679 359.163 235.332 359.508C230.555 370.898 231.414 373.549 237.966 383.683C237.865 383.665 237.746 383.652 237.601 383.648C237.755 383.657 237.928 383.705 238.056 383.808C238.029 383.77 238.007 383.75 237.966 383.683C238.432 383.764 238.429 383.949 238.315 383.986C238.236 383.918 238.155 383.857 238.067 383.804C238.072 383.817 238.072 383.824 238.058 383.811C238.127 383.975 238.243 384.011 238.315 383.986C242.74 389.505 245.015 396.851 244.058 403.896C247.298 407.538 246.932 413.628 244.59 417.686C241.685 423.34 235.237 424.866 229.405 425.377C222.245 426.318 215.017 426.701 207.799 426.505C204.231 426.409 200.67 426.176 197.12 425.802C191.043 425.143 181.794 425.093 180.878 417.286C180.676 414.381 181.909 408.303 185.171 407.554C188.238 395.777 191.992 383.803 198.91 373.657C196.835 371.877 198.946 368.817 200.503 367.385C201.991 364.281 203.491 361.18 205.228 358.205C204.747 356.415 205.944 355.305 205.707 353.531C205.651 340.044 207.038 326.604 207.972 313.156C198.455 319.841 179.633 317.804 167.952 318.72C169.762 322.782 174.77 318.767 177.877 322.215C184.606 336.75 175.316 367.853 170.441 382.913C169.049 387.466 166.121 391.398 162.075 393.925C153.794 399.15 144.984 403.818 135.667 406.89C130.616 408.292 125.135 409.952 119.902 408.706C115.841 407.72 113.187 402.828 115.383 399.073C111.295 395.393 111.384 389.275 114.955 385.365C119.041 380.555 125.873 379.493 130.475 375.486C129.941 369.707 129.663 363.95 128.933 358.196C127.239 358.113 125.546 358.838 123.957 358.051C120.923 355.123 126.103 353.907 128.555 354.668C128.465 353.828 128.377 352.991 128.287 352.151C122.915 353.351 122.737 348.145 127.89 348.603C127.406 346.148 127.144 343.651 127.152 341.173C126.633 340.392 126.666 339.441 127.092 338.709C123.735 338.197 120.153 338.175 116.901 337.196C116.83 341.428 110.424 371.8 103.489 361.661C99.7716 357.722 94.702 355.381 89.7387 353.362C83.6689 350.856 77.6339 348.269 71.674 345.512C53.9499 337.304 36.8035 327.746 20.9766 316.266C5.00689 305.979 -5.23602 289.893 2.80211 270.905Z" fill="black"/>
<path fill-rule="evenodd" clip-rule="evenodd" d="M148.312 20.3968C134.457 19.6385 122.181 15.7352 112.429 24.4709C101.91 16.595 95.7736 14.1569 94.0186 17.1565C92.2547 20.1715 94.7009 24.2188 94.045 27.9392C89.768 35.2497 90.0098 47.6236 89.768 50.5234C89.1585 57.8324 85.3195 85.336 85.3195 91.8672C85.3195 95.201 88.0608 103.932 89.768 108.791C93.5679 119.606 100.821 125.118 112.717 125.118C124.612 125.118 144.028 115.149 150.255 106.298C150.8 105.523 154.329 107.786 158.02 103.86C162.019 99.6076 164.238 91.4965 164.238 86.6615C164.238 80.526 168.192 76.2711 167.732 68.4174C166.705 50.8781 163.138 21.2083 148.312 20.3968Z" fill="#FAFAFA"/>
<path fill-rule="evenodd" clip-rule="evenodd" d="M149.861 0.00485557C149.68 -0.00616736 149.498 0.0026508 149.315 0.0205079C149.115 0.0293263 148.915 0.0489466 148.715 0.0888496C147.697 0.284837 146.789 0.824961 146.085 1.58554C146.066 1.60538 146.05 1.62765 146.033 1.64727C145.703 1.89639 145.397 2.1788 145.122 2.4784C145.074 2.4321 145.028 2.38603 144.977 2.33973C144.832 2.21164 144.68 2.09039 144.522 1.97598C143.86 1.40641 143.082 0.992351 142.246 0.756771L142.132 0.725754C142.11 0.719141 142.088 0.714731 142.066 0.710322C141.472 0.51213 140.848 0.410719 140.219 0.412704C139.467 0.388453 138.713 0.51213 138.009 0.802914C137.176 1.14925 136.451 1.69577 135.841 2.35296C135.441 2.67924 135.092 3.03837 134.722 3.43321C133.959 4.25089 133.357 5.20768 132.977 6.26169C132.924 6.4094 132.878 6.56129 132.836 6.71341C131.906 6.6056 130.971 6.52844 130.037 6.49075C128.988 6.42703 127.939 6.40477 126.888 6.44026C123.993 6.53484 121.161 7.04652 118.419 7.98347C117.869 8.14639 117.335 8.35362 116.82 8.60935C116.013 8.93122 115.25 9.34127 114.531 9.83731L113.919 10.2015C113.611 10.3848 113.304 10.5706 113.005 10.761C112.295 11.2176 111.622 11.7288 110.985 12.28C110.312 12.8247 109.677 13.4178 109.072 14.0392C108.908 14.2075 108.749 14.3779 108.593 14.5494C107.199 15.3036 105.961 16.2692 104.806 17.4209C103.89 16.8926 102.942 16.4138 101.963 15.9881C100.954 15.5494 99.6723 15.0974 98.6148 14.8C97.6649 14.5333 96.726 14.3503 95.774 14.2156C95.3408 14.1407 94.9055 14.0811 94.4679 14.0304L94.4855 14.0373C94.1777 14.004 93.8721 13.9753 93.5621 13.9489L93.5709 13.9467C93.4389 13.9359 93.3048 13.9246 93.1729 13.9158L92.8519 13.8896C92.7551 13.8807 92.6144 14.1076 92.6056 14.187L92.5946 14.2685C92.5221 14.3503 92.4561 14.4407 92.4099 14.4958C92.3528 14.4912 92.2956 14.487 92.2384 14.4846C92.0669 14.4694 91.869 14.7756 91.7679 14.8924L91.6765 15.0002C91.5723 15.1258 91.4682 15.2704 91.4513 15.4281C91.3391 16.3433 91.2336 17.2601 91.1369 18.1773C91.0995 18.8717 91.1369 19.5595 91.2512 20.2407C91.3369 20.9021 91.4249 21.5635 91.5128 22.2227C91.6536 22.6859 91.7921 23.1488 91.9306 23.6116C91.9856 23.7881 92.0471 23.9621 92.1065 24.1362C92.4581 25.2994 92.8703 26.4317 93.3613 27.5289C93.0031 27.9262 92.6692 28.338 92.3585 28.7632C92.2842 28.8397 92.2094 28.9158 92.1395 28.9952C92.1197 28.9645 92.0911 28.9359 92.0603 28.9202C91.9548 28.8739 91.8778 28.929 91.8119 29.0196C91.1193 29.683 90.6158 30.457 90.3035 31.3408L90.1091 31.8018C90.0768 31.8789 90.0448 31.956 90.0133 32.0331C89.7649 32.7035 89.5736 33.3913 89.4153 34.0877C89.2737 34.6358 89.1721 35.1914 89.1066 35.7529C88.6316 37.3519 88.2561 38.9877 87.9019 40.6014C87.846 40.8554 87.8724 41.082 87.9535 41.2751L87.7464 41.4775L87.3926 41.8309C86.798 42.4252 86.1916 43.0499 85.75 43.7571C85.2926 44.4912 84.9562 45.276 84.5824 46.0545L84.5019 46.2198L84.3373 46.5514C84.1594 46.9134 84.074 47.1135 83.9162 47.5511C83.6546 48.2811 83.5139 49.015 83.4479 49.789C83.3512 50.9153 83.3644 52.1433 83.8569 53.1905C83.8591 53.1993 83.8635 53.2061 83.8679 53.2125C84.0921 54.2246 84.6462 55.1636 85.4883 55.7632C85.6686 55.9332 85.8621 56.0853 86.0688 56.2064C86.5648 56.4984 87.0203 56.5245 87.5618 56.3894L87.6299 56.3717C87.698 56.3541 87.7596 56.3386 87.819 56.3254C87.731 56.3982 87.6871 56.4844 87.819 56.5459C87.9465 56.6076 88.0608 56.6429 88.1686 56.6561C88.1224 56.7156 88.118 56.7795 88.2147 56.8325C88.4258 56.9449 88.5973 56.9804 88.7732 56.9493L88.7362 57.2558C88.4478 59.575 88.1898 60.0337 87.9641 62.5249C87.8146 65.0754 87.5771 67.6195 87.2495 70.1528L87.1366 71.0733C86.7749 73.9907 86.3682 76.9296 85.7456 79.7998C85.4312 81.0542 85.1607 82.3175 84.932 83.5895C84.6088 84.5573 84.3824 85.5472 84.257 86.5569C84.0745 87.5842 83.9492 88.6204 83.8767 89.6653C83.6238 90.3336 83.5007 91.0123 83.5073 91.7046C83.4743 92.6349 83.5051 93.5633 83.604 94.487C83.659 95.448 83.7909 96.4004 83.9998 97.3439C84.1867 98.6382 84.5275 99.8882 85.0156 101.101C85.407 102.454 85.8863 103.782 86.4316 105.08C87.2781 107.09 88.3005 108.958 89.4636 110.799C90.5542 112.525 91.7239 114.187 93.0608 115.733C94.789 117.73 96.759 119.56 98.9182 121.103C100.149 122.016 101.449 122.836 102.808 123.537C104.47 124.396 106.159 125.17 107.959 125.693C109.083 126.019 110.226 126.244 111.383 126.416C113.654 126.753 116.007 126.702 118.291 126.308C119.764 126.109 121.213 125.765 122.583 125.274C123.709 124.868 124.782 124.403 125.855 123.878C126.407 123.612 126.939 123.303 127.449 122.957C128.306 122.399 129.109 121.769 129.857 121.072C130.101 120.862 130.338 120.649 130.571 120.424C130.683 120.325 130.622 120.177 130.492 120.142L130.452 120.137C130.503 120.091 130.556 120.045 130.606 119.996C130.617 119.987 130.626 119.976 130.635 119.965C130.659 119.943 130.685 119.921 130.707 119.899C130.793 119.824 130.707 119.657 130.633 119.617C130.604 119.601 130.567 119.599 130.525 119.604C130.534 119.595 130.54 119.588 130.549 119.582C130.558 119.575 130.56 119.557 130.558 119.54L130.591 119.513C130.703 119.414 130.646 119.269 130.514 119.231C130.449 119.211 130.343 119.221 130.232 119.246L130.191 119.255L130.265 119.185C130.397 119.07 130.356 118.942 130.193 118.903C130.072 118.91 129.952 118.927 129.833 118.956L129.744 118.98C129.7 118.991 129.659 119.004 129.615 119.017C129.689 118.949 129.764 118.883 129.837 118.814C129.909 118.751 129.832 118.567 129.766 118.53C129.676 118.479 129.5 118.55 129.419 118.609C129.219 118.632 128.955 118.72 128.858 118.803C128.592 119.059 128.317 119.304 128.038 119.542C127.869 119.595 127.708 119.665 127.585 119.771C127.269 120.075 126.939 120.362 126.602 120.64L126.347 120.816C126.304 120.846 126.261 120.874 126.218 120.902C125.734 121.187 125.25 121.469 124.769 121.753C123.003 122.353 121.238 122.953 119.474 123.55L119.241 123.62L117.528 123.832C116.402 123.951 115.275 123.945 114.149 123.814C113.304 123.826 112.467 123.742 111.642 123.57C110.242 123.332 108.867 122.981 107.531 122.492C105.991 121.929 104.525 121.189 103.094 120.391C102.579 120.102 102.073 119.795 101.576 119.472C101.416 119.357 101.255 119.24 101.095 119.121C100.037 118.325 99.0259 117.476 98.0519 116.579C97.5945 116.158 97.1548 115.719 96.7304 115.265C96.6689 115.199 96.6095 115.135 96.5501 115.069C96.1434 114.623 95.7498 114.163 95.3738 113.687L95.0154 113.281C93.5687 111.476 92.2824 109.533 91.1259 107.534C89.9781 105.552 89.0327 103.466 88.2807 101.308C88.0389 100.538 87.8278 99.7582 87.6519 98.9689C87.3265 98.0207 87.1132 97.0487 87.0142 96.0567C86.9813 95.8624 86.9549 95.6684 86.9285 95.4744L86.9133 95.1686C86.9111 95.1176 86.9094 95.0666 86.9087 95.0159C86.8647 94.7075 86.8273 94.3986 86.7988 94.09C86.7812 93.7793 86.7702 93.4683 86.768 93.1574L86.7922 91.2504C86.7988 91.1909 86.8054 91.1294 86.8098 91.0675L86.8581 90.6466C86.9637 89.7778 87.045 88.907 87.1506 88.0386C87.1506 88.034 87.1506 88.0273 87.1528 88.0207C87.1923 87.6967 87.2341 87.3704 87.2825 87.0441C87.3067 86.8501 87.3375 86.6561 87.366 86.4621L87.421 86.1228C87.523 85.5325 87.6468 84.9471 87.797 84.3669L87.863 84.1186L88.2455 82.1896L88.6765 80.2915C88.9557 79.0194 89.1888 77.7385 89.3735 76.4467C89.7077 74.3878 89.9935 72.3263 90.242 70.2562C90.2552 70.157 90.2684 70.0556 90.2794 69.9564C90.5322 68.0364 90.7147 66.1094 90.8334 64.1759C90.9939 62.2714 91.0863 60.362 91.1105 58.4508C91.1127 58.3646 91.0555 58.2943 90.9874 58.2544L90.9935 57.887C91.0016 57.5619 91.0074 57.9518 91.0102 57.5812L91.0144 56.5619C91.0141 56.4769 91.0133 56.4178 91.0115 56.4136C92.1864 56.495 92.9764 56.4283 94.1107 56.3684L94.303 56.3585C95.343 56.3102 96.3764 56.1955 97.4032 56.0234C97.4076 56.0765 97.4428 56.1138 97.5022 56.1248C97.6077 56.1292 97.7067 56.1292 97.8078 56.1316L97.7704 56.2747C97.7682 56.3477 97.8012 56.3937 97.8716 56.4136L98.1649 56.4268C98.5564 56.4433 98.9494 56.4511 99.3381 56.3982C99.6877 56.3521 100.029 56.2703 100.367 56.1733C100.576 56.138 100.789 56.0897 101.007 56.0278C101.565 55.8668 102.12 55.6508 102.68 55.4791C103.252 55.3576 103.832 55.3181 104.439 55.4634C105.081 55.6155 105.624 55.8911 106.297 55.7235C106.431 55.6907 106.561 55.64 106.691 55.5869L106.811 55.5785C106.831 55.5767 106.852 55.5744 106.873 55.5714C107.575 55.4702 108.199 55.0249 108.867 54.7866C109.101 54.7296 109.332 54.744 109.559 54.8386L109.615 54.864L109.837 55.0293C109.926 55.135 110.015 55.2417 110.102 55.3489L110.233 55.5097C110.473 55.8073 110.728 56.0741 111.038 56.2681C111.411 56.6142 111.856 56.817 112.385 56.8302C112.687 56.8391 112.986 56.7751 113.276 56.6828C114.371 57.0223 115.543 57.0906 116.636 56.7599C117.069 56.6936 117.493 56.5769 117.9 56.3937C118.091 56.3078 118.282 56.2064 118.467 56.0939C119.239 56.4204 119.969 56.8545 120.714 57.2295L120.882 57.314C121.644 57.6944 122.486 58.0653 123.348 58.0099C124.434 57.9392 125.501 57.7939 126.565 57.6107C126.574 57.6107 126.585 57.6085 126.594 57.6063L126.74 57.5818L127.272 57.4882L127.702 57.4081L127.921 57.4924C129.684 58.1609 131.615 58.6825 133.385 58.2147C134.157 58.1202 134.881 57.8598 135.534 57.4167C135.556 57.4012 135.578 57.3858 135.6 57.3682C135.703 57.3153 135.8 57.256 135.885 57.192L135.904 57.1776L135.921 57.1631L135.929 57.1587C136.895 56.7136 137.449 55.7654 137.352 54.703C137.411 54.3655 137.409 54.0348 137.343 53.6823C137.658 54.0547 137.979 54.4231 138.304 54.7888C139.494 56.2259 140.66 57.6917 141.739 59.2176L141.987 59.5708C142.581 60.4105 143.132 61.2793 143.643 62.1742C144.159 63.0582 144.689 63.9336 145.237 64.7978C145.948 65.5866 146.637 66.3943 147.3 67.2218L147.583 67.5776L148.537 68.8364C149.212 69.6391 149.773 70.5165 150.215 71.4687C150.577 72.1457 150.912 72.8358 151.213 73.5434C151.31 73.7571 151.402 73.9731 151.492 74.1892C151.802 75.0335 152.064 75.8935 152.268 76.7818C152.432 77.4246 152.55 78.0764 152.62 78.7373L152.642 78.9579C152.668 79.2178 152.688 79.478 152.699 79.7381C152.635 79.7758 152.583 79.8131 152.543 79.8505L152.383 79.9081L152.253 79.9466C152.05 80.0096 151.701 80.1397 151.784 80.3003L152.209 81.1118C152.165 81.1581 152.145 81.2064 152.174 81.2595C152.457 81.8038 152.743 82.3483 153.029 82.8931C153.038 82.9129 153.053 82.9281 153.069 82.9394C152.824 83.0516 152.587 83.175 152.361 83.3095C151.919 83.5743 151.593 83.8805 151.292 84.2377C150.975 84.4275 150.676 84.6347 150.395 84.8726C150.047 85.2385 149.744 85.64 149.487 86.0741C149.249 86.4841 149.056 86.9118 148.906 87.3594C148.84 87.5952 148.81 87.84 148.812 88.0891C149.078 89.972 151.226 88.6821 151.268 88.5168C151.562 87.3792 151.901 86.6607 152.662 85.8142L152.682 85.8007C153.121 85.6067 153.557 85.4149 154.012 85.265C154.08 85.2782 154.15 85.2873 154.221 85.2981C154.142 85.4107 154.181 85.5209 154.342 85.5406C155.034 85.6775 155.733 85.7147 156.437 85.6552L157.506 85.5033C157.949 85.6737 158.373 85.8926 158.772 86.1532L158.904 86.2416L158.928 86.2593C159.959 87.0904 160.755 88.1949 161.301 89.3986C161.349 89.5059 161.395 89.6142 161.44 89.7234L161.505 89.888L161.509 89.8968C162.222 92.7035 161.586 95.7853 160.285 98.3316C159.575 99.4713 158.834 100.589 158.06 101.685L157.308 102.67C156.864 103.089 156.428 103.519 156.004 103.96C155.938 104.026 155.868 104.092 155.797 104.156C155.573 104.304 155.344 104.434 155.111 104.544C155.021 104.575 154.929 104.604 154.836 104.628C154.388 104.844 153.917 104.959 153.423 104.972C152.769 105.015 152.135 104.938 151.522 104.743L151.4 104.703L151.31 104.67C150.975 104.456 150.665 104.189 150.371 103.876C150.305 103.808 150.182 103.808 150.041 103.845C149.964 103.766 149.887 103.682 149.814 103.592C149.764 103.537 149.685 103.535 149.623 103.576C149.414 103.552 148.849 103.874 148.996 104.044C149.021 104.083 149.051 104.119 149.078 104.156C148.979 104.207 148.88 104.264 148.792 104.324C148.33 104.452 147.648 104.914 147.704 105.053L147.71 105.064C147.817 105.267 147.956 105.437 148.127 105.572L148.185 105.616L148.315 105.706C148.132 105.821 147.978 105.953 148.055 106.045C148.091 106.114 148.128 106.18 148.172 106.24C147.798 106.703 147.427 107.17 147.057 107.637C146.688 108.44 146.23 109.189 145.685 109.884C145.23 110.638 144.683 111.315 144.043 111.918C143.99 111.972 143.935 112.022 143.882 112.073C143.411 112.422 142.918 112.749 142.404 113.063L142.183 113.197C142.066 113.268 141.87 113.356 141.963 113.526C141.974 113.548 141.987 113.565 142.002 113.578C141.679 113.79 141.345 113.991 141 114.176L140.967 114.196C140.836 114.28 140.66 114.431 140.846 114.555C141.004 114.661 141.424 114.374 141.622 114.242C141.659 114.242 141.703 114.231 141.747 114.218C141.681 114.253 141.616 114.291 141.55 114.329L141.45 114.383C141.373 114.429 140.995 114.681 141.259 114.787C141.389 114.798 141.508 114.765 141.618 114.69C141.747 114.626 141.875 114.558 142 114.487C141.956 114.555 141.956 114.623 142.066 114.668C142.103 114.67 142.141 114.668 142.178 114.663C141.919 114.829 141.653 114.983 141.378 115.128L141.333 115.156C141.217 115.232 141.032 115.375 141.167 115.499C141.319 115.635 141.736 115.344 141.844 115.278L142.165 115.086C142.189 115.097 142.216 115.102 142.244 115.104C142.147 115.164 142.057 115.228 141.958 115.285L141.824 115.358C141.655 115.452 141.417 115.605 141.503 115.759C141.59 115.911 141.846 115.786 142.012 115.687L142.19 115.577C142.198 115.572 142.205 115.567 142.213 115.563L142.22 115.589C142.222 115.594 142.224 115.598 142.227 115.602C142.309 115.746 142.516 115.652 142.659 115.569L142.774 115.499C142.969 115.381 143.162 115.265 143.354 115.147L143.64 114.97H143.645C144.636 114.372 145.553 113.777 146.417 113.01C146.934 112.551 147.416 112.066 147.873 111.548C148.792 110.51 149.476 109.322 150.135 108.109C150.146 108.089 150.131 108.038 150.105 107.983C150.177 107.834 150.248 107.681 150.318 107.525C150.995 107.715 151.751 107.77 152.448 107.723C152.822 107.699 153.192 107.633 153.559 107.534C154.731 107.37 155.861 106.835 156.837 106.193C156.899 106.153 156.954 106.109 157.011 106.07C157.413 105.843 157.796 105.578 158.159 105.276C158.867 104.69 159.542 104.037 160.155 103.356C160.599 102.827 161.019 102.278 161.413 101.709C161.813 101.147 162.217 100.585 162.622 100.022C163.746 98.2588 164.465 96.2284 164.744 94.1539C164.88 93.3891 164.95 92.6151 164.935 91.8435C164.924 91.2857 164.863 90.7213 164.755 90.1594C164.819 90.0975 164.882 90.0359 164.946 89.972C164.981 90.0335 165.016 90.0778 165.038 90.0556L165.542 89.5497C165.9 89.1883 166.14 88.9224 166.551 88.3382C167.206 87.4056 167.694 86.3805 168.057 85.3005C168.319 84.5289 168.493 83.6512 168.561 82.8027C168.583 82.6614 168.605 82.5181 168.622 82.3726C168.763 81.224 168.633 80.1239 168.46 78.9907C168.449 78.916 168.411 78.8697 168.361 78.8452C168.348 78.7555 168.333 78.6634 168.318 78.5714C169.774 77.0256 170.822 75.1625 170.737 72.9125C170.71 72.2035 170.565 71.5046 170.288 70.8521L170.254 70.7784C171.47 70.5911 172.434 69.7348 173.159 68.6735C173.223 68.6226 173.285 68.5712 173.345 68.5201C174.641 67.4107 175.539 65.84 176.154 64.1808C176.594 63.2174 176.886 62.1878 177.01 61.1199C177.018 61.0437 177.024 60.968 177.031 60.8922C177.331 59.2037 177.408 57.4982 177.269 55.8181C177.571 54.7782 177.816 53.72 177.985 52.6371C178.064 52.1215 178.119 51.6054 178.16 51.0895L178.165 51.0611L178.171 50.9683L178.19 50.7369C178.193 50.6986 178.196 50.6603 178.198 50.6221C178.569 45.8999 177.516 41.2526 175.775 36.8788C175.623 36.4854 175.466 36.093 175.305 35.7038L175.133 35.2972C173.385 32.4709 170.761 30.185 168.537 27.7707C167.77 26.9378 169.011 25.6874 169.781 26.5236C171.258 28.1276 172.843 29.664 174.274 31.3128C174.526 31.3314 174.779 31.3382 175.032 31.3256C175.471 31.3034 175.898 31.233 176.311 31.1204C177.343 30.9683 178.281 30.5516 179.134 29.9387C180.276 29.4054 181.25 28.3999 181.346 27.0882C181.357 26.9559 181.355 26.8258 181.346 26.696C181.452 26.0542 181.357 25.3821 181.089 24.7624C181.043 24.5926 180.984 24.425 180.909 24.2597C180.691 23.7681 180.333 23.2965 179.895 22.9766C179.884 22.97 179.875 22.9658 179.867 22.959C179.821 22.9107 179.777 22.862 179.726 22.8181C179.651 22.7496 179.572 22.6859 179.488 22.6263C179.785 22.1367 180.054 21.6343 180.282 21.0983C180.531 20.5163 180.658 19.9257 180.729 19.3016C180.757 19.0547 180.768 18.81 180.773 18.5655C180.786 18.4528 180.795 18.3382 180.803 18.2236C180.858 17.3505 180.757 16.4447 180.432 15.6288C180.408 15.5672 180.377 15.5053 180.348 15.4414C180.287 15.2562 180.218 15.0712 180.135 14.8902C179.81 14.1958 179.348 13.6071 178.778 13.1243C178.47 12.8135 178.125 12.5379 177.749 12.3042C177.527 12.1653 177.274 12.0419 177.008 11.9405C176.533 11.6892 175.924 11.4599 175.43 11.4425C175.37 11.44 175.318 11.4469 175.26 11.4469C175.214 10.1812 175.051 8.80336 174.552 7.65697C174.262 6.82606 173.827 6.08753 173.172 5.556C172.792 5.15832 172.323 4.83536 171.739 4.62427L171.635 4.58819L171.595 4.57717C171.07 4.32143 170.502 4.22002 169.92 4.22245C169.24 4.18695 168.548 4.31504 167.956 4.62787C167.833 4.69401 167.701 4.77558 167.576 4.86376C167.481 4.67417 167.376 4.48237 167.255 4.29079C166.83 3.60935 166.318 3.01632 165.724 2.47619C165.654 2.41226 165.577 2.35494 165.502 2.29344C165.214 2.03109 164.909 1.78858 164.592 1.56813C163.908 1.09172 163.159 0.736997 162.371 0.5075C161.463 0.1708 160.504 0.0144781 159.545 0.0473689L159.346 0.0557804C159.302 0.0599691 159.258 0.0621741 159.216 0.0643786C158.264 0.126327 157.325 0.360013 156.428 0.712526C155.498 1.08091 154.711 1.63845 153.979 2.27778C153.807 2.03991 153.612 1.81482 153.372 1.60318C153.304 1.54388 153.231 1.49075 153.163 1.43563C153.11 1.38272 153.055 1.33202 152.998 1.28131C152.737 1.04983 152.459 0.849211 152.156 0.67064C151.815 0.470243 151.448 0.331354 151.068 0.245375C150.681 0.112879 150.274 0.0313106 149.861 0.00485557ZM154.379 90.8889C154.34 90.8868 152.304 91.6524 151.289 92.1475L151.239 92.172C150.069 92.754 149.507 93.1729 148.456 93.9202C148.385 93.9709 148.313 94.0481 148.313 94.1231C148.313 95.2116 148.576 96.5425 149.489 95.9529C149.621 95.8676 149.754 95.7843 149.888 95.7024L150.089 95.5803L150.096 95.5825C150.094 95.5825 150.091 95.5803 150.089 95.5781C152.077 94.3634 154.177 93.411 156.393 92.7298C156.545 92.6747 155.421 90.9727 155.111 91.0675C155.289 90.9969 154.409 90.8906 154.379 90.8889ZM133.495 42.8102C134.816 42.9519 136.138 43.0915 137.46 43.228C138.302 43.325 139.146 43.4109 139.99 43.4837C141.259 43.5787 142.528 43.5939 143.792 43.4198C144.241 43.3582 144.68 43.2698 145.116 43.1618C145.413 43.3801 145.72 43.5851 146.035 43.7815L149.526 46.4599C151.868 48.3053 154.159 50.2606 156.222 52.4189C159.823 56.1896 162.757 60.601 164.602 65.4874C164.769 65.5864 164.898 65.759 164.941 66.0238C165.267 68.0267 166.22 69.8534 166.565 71.8481C166.904 73.8128 166.453 75.483 165.222 77.0403C164.959 77.373 164.421 77.3554 164.091 77.1307C164.014 77.282 163.681 77.2756 163.565 76.6076C163.017 76.0135 162.549 75.3907 162.232 74.6195C161.999 74.0516 162.391 73.6579 162.867 73.5805C162.67 72.8662 162.446 72.1583 162.195 71.4579C161.452 69.3765 160.507 67.3882 159.317 65.5232C158.271 63.8827 157.059 62.4541 155.758 61.0212C155.742 61.0013 155.716 60.9949 155.687 60.9905L155.417 60.6905C155.379 60.6486 155.302 60.653 155.217 60.675C155.135 60.5891 155.056 60.5009 154.973 60.4149C154.891 60.3267 154.801 60.3532 154.751 60.4237C154.612 60.3929 154.359 60.5428 154.282 60.5915C154.15 60.6795 154.109 60.7787 154.221 60.9043C154.24 60.9266 154.26 60.9486 154.28 60.9683C154.128 61.0324 153.979 61.1182 153.862 61.2022C153.456 61.2923 152.884 61.6715 152.983 61.7842C153.192 62.0022 153.394 62.2251 153.594 62.4519C153.418 62.5756 153.304 62.6967 153.35 62.7498C154.207 63.6556 154.999 64.6149 155.725 65.631C156.276 66.3893 156.776 67.1786 157.222 68.0009C157.886 69.1649 158.449 70.362 158.948 71.5922C159.018 71.7798 159.086 71.9669 159.152 72.1543C159.882 74.2024 160.428 76.3276 160.659 78.4925L160.668 78.6385C160.711 79.4184 160.728 81.5065 160.808 82.0044C160.322 82.2447 159.816 82.4497 159.291 82.6175C159.192 82.6462 159.091 82.6726 158.99 82.6969C158.933 82.6726 158.873 82.6526 158.814 82.6349C158.33 82.4387 157.824 82.2976 157.308 82.2293C156.959 82.1832 156.613 82.1671 156.267 82.1771L156.118 82.183C155.964 82.1874 155.813 82.1984 155.659 82.2141C155.667 82.1257 155.672 82.0399 155.678 81.9515C155.722 81.9228 155.755 81.8834 155.758 81.8303C155.861 80.8382 155.863 79.8461 155.764 78.8541C155.698 78.336 155.621 77.8201 155.538 77.3045C155.452 76.881 155.353 76.4645 155.245 76.0476C154.959 74.8794 154.579 73.7394 154.117 72.6241C152.802 69.4427 150.918 66.5745 149.023 63.7218C147.64 61.6387 146.332 59.5088 144.9 57.4608C143.682 55.7169 142.402 53.9996 141.037 52.3682C139.674 50.7392 138.234 49.1715 136.679 47.7211C136.429 47.4894 136.176 47.2646 135.918 47.0421C134.445 45.7194 132.845 44.6323 131.178 43.5655C131.114 43.5236 131 43.5699 130.905 43.649L130.636 43.4833C130.591 43.4558 130.546 43.4286 130.501 43.4021C130.459 43.3759 130.413 43.4198 130.389 43.4572C130.274 43.3977 130.16 43.3406 130.046 43.2831C129.962 43.2156 129.876 43.1517 129.792 43.0851C131.028 43.0227 132.262 42.9301 133.495 42.8102ZM117.994 28.1133C118.993 27.9129 119.995 27.884 121.002 28.034C121.424 28.0959 121.844 28.1704 122.261 28.2606C121.315 29.0873 120.554 30.1453 120.061 31.3629C119.527 32.679 121.655 33.2463 122.181 31.9491C122.688 30.6978 123.648 29.7379 124.808 29.1625C125.059 29.3029 125.302 29.455 125.534 29.6235C125.837 29.8704 126.123 30.1371 126.391 30.4303C126.976 31.0677 127.513 31.9184 127.864 32.7606C128.001 33.2191 128.102 33.6909 128.166 34.1759C128.179 34.2862 128.192 34.3986 128.203 34.511C128.42 36.7926 127.769 39.0124 126.65 40.9766L126.606 40.9773C125.607 40.4341 124.561 39.9764 123.485 39.6036C122.623 39.0218 121.728 38.4837 120.807 37.9965C118.848 36.9605 116.779 36.1618 114.648 35.6157L114.402 35.5538C113.9 35.4252 113.393 35.3119 112.884 35.2128L112.579 35.155H112.574L112.607 34.8263C112.779 33.5366 113.282 32.3395 113.933 31.233C114.421 30.3975 115.158 29.5421 115.976 28.8587L115.98 28.8563C116.352 28.6446 116.742 28.4696 117.144 28.3249L117.295 28.272L117.994 28.1133ZM144.797 26.1537C146.873 25.9572 148.948 25.9771 151.024 26.1468C152.38 26.2815 153.728 26.4687 155.069 26.7068C155.977 26.8633 156.868 27.0838 157.743 27.3574L157.243 28.3723C156.406 30.0625 155.549 31.7417 154.539 33.3382C154.018 34.1605 153.453 34.9433 152.838 35.6949C152.422 36.2328 151.965 36.7313 151.463 37.1896C151.332 37.3508 151.191 37.5029 151.048 37.6504C150.591 38.0428 150.098 38.3867 149.559 38.6711C149.127 38.9866 148.676 39.2622 148.206 39.5038L148.029 39.5928L146.38 40.2275C146.292 40.2525 146.203 40.2775 146.114 40.3012L145.98 40.3358L145.729 40.3885L145.541 40.2861C145.51 40.2692 145.478 40.2525 145.446 40.2363C145.393 40.2079 145.355 40.263 145.344 40.3025C145.34 40.3181 145.347 40.34 145.358 40.362L145.117 40.2317C144.704 40.3999 144.266 40.5344 143.795 40.623C143.583 40.6629 143.369 40.6936 143.156 40.7198L143.127 40.739C143.122 40.7423 143.118 40.746 143.113 40.7502H142.879C141.235 40.9092 139.568 40.6991 137.927 40.4034C135.605 40.1693 133.283 39.9112 130.962 39.6698C130.919 39.6656 130.901 39.6852 130.901 39.7163L130.758 39.703C130.551 39.6808 130.309 40.0269 130.466 40.1528C130.34 40.2275 130.219 40.3358 130.129 40.4195L130.076 40.4149C130.395 39.7888 130.641 39.134 130.817 38.453L131.042 37.3109C131.103 36.8854 131.138 36.4314 131.145 35.9837C131.16 35.7787 131.171 35.5871 131.171 35.4193C131.171 35.2606 131.169 35.1019 131.163 34.9433C131.6 34.7624 132.044 34.6038 132.497 34.4691C133.783 34.3106 135.068 34.1517 136.354 33.9952C137.126 34.0238 137.897 34.0789 138.667 34.1649C139.54 34.2421 140.41 34.3413 141.279 34.4603C141.36 34.4691 141.505 34.3589 141.593 34.231L141.965 34.282C142.158 34.3062 142.361 33.918 142.106 33.8386C142.013 33.8019 141.921 33.7671 141.829 33.7336L141.69 33.6843L141.769 33.6931C141.796 33.6956 141.829 33.6887 141.866 33.6757C142.07 33.7019 142.275 33.7284 142.477 33.7526C142.734 33.7848 142.675 33.4456 142.496 33.3658L142.409 33.3338C142.561 33.2388 142.695 32.9787 142.507 32.8937L142.482 32.884C142.394 32.849 142.308 32.8201 142.22 32.787C142.227 32.7586 142.227 32.7319 142.218 32.7079L142.581 32.754C142.614 32.7583 142.456 32.5262 142.38 32.4803L142.367 32.474L142.194 32.4211C142.167 32.3461 142.027 32.1808 141.978 32.1656C141.341 31.9647 140.747 31.7842 140.127 31.6451C140.096 31.6076 140.061 31.5789 140.021 31.5701C139.634 31.4775 139.243 31.4048 138.852 31.3433C138.825 31.3034 138.799 31.2749 138.768 31.2725C137.798 31.149 136.827 31.1204 135.85 31.1867C135.663 31.2041 135.476 31.2242 135.29 31.2482C134.931 31.2881 134.573 31.3388 134.217 31.4072C133.324 31.5607 132.453 31.7941 131.604 32.1089L131.409 32.183C131.196 32.2626 130.984 32.3461 130.776 32.4367C130.67 32.0597 130.538 31.6892 130.382 31.3256C130.358 31.2549 130.331 31.1867 130.303 31.1184L130.516 30.9903C130.562 31.0785 130.657 31.1468 130.718 31.1096C132.247 30.0756 133.863 29.2134 135.567 28.5256C136.521 28.1023 137.497 27.7432 138.498 27.4431C138.997 27.2824 139.5 27.1369 140.006 26.998C140.259 26.9449 140.512 26.892 140.769 26.8479C142.09 26.4907 143.434 26.2595 144.797 26.1537ZM94.4431 29.653C94.6287 29.9744 94.8217 30.2928 95.0264 30.6067C96.0205 32.1321 97.2122 33.5635 98.5635 34.8115C98.2111 34.8106 97.8595 34.8241 97.5123 34.8567C96.9136 34.9134 96.3272 35.013 95.7555 35.1526C95.7091 35.1153 95.6572 35.0966 95.6157 35.1261L95.4666 35.2295C94.2404 35.5613 93.0891 36.0829 92.0463 36.7818L92.065 36.6437C92.0682 36.6207 92.0716 36.5977 92.0757 36.5747C92.0581 36.3036 92.0537 36.0322 92.0625 35.7632C92.278 34.1737 92.8167 32.7099 93.4323 31.2286C93.444 31.2 93.4356 31.1627 93.4178 31.1248C93.7285 30.616 94.0687 30.1239 94.4431 29.653ZM94.1601 17.1565C94.6197 17.2403 95.0748 17.3483 95.5277 17.4828C96.3786 17.6109 97.2032 17.8358 97.9991 18.1552C99.0963 18.5454 100.16 18.9996 101.22 19.4804C103.278 20.4149 105.209 21.5968 106.966 23.0209C107.078 23.1067 107.185 23.1951 107.293 23.2833C107.687 23.6248 108.069 23.9819 108.432 24.3589C108.812 24.7734 109.195 25.1881 109.575 25.6045C110.042 26.0941 110.578 26.537 111 27.0661C111.086 27.1742 111.161 27.2932 111.229 27.4125L110.98 27.4982C110.772 27.5688 110.807 27.9612 111.013 27.9039C111.084 27.884 111.15 27.8598 111.216 27.8336C111.187 27.871 111.167 27.9085 111.163 27.9414C111.15 28.0472 111.231 28.1929 111.361 28.1554C111.42 28.1398 111.48 28.1177 111.539 28.0935C111.556 28.1618 111.57 28.2302 111.57 28.2963C111.559 28.3007 111.548 28.3051 111.534 28.3075C111.389 28.3582 111.117 28.5851 111.077 28.7396C111.046 28.8587 111.148 28.9863 111.277 28.9511C111.374 28.9246 111.469 28.8849 111.561 28.8408C111.499 28.9006 111.451 28.9645 111.447 29.0196C111.438 29.121 111.526 29.2641 111.647 29.2313C111.871 29.1693 112.051 29.0747 112.201 28.9557C112.24 29.0084 112.297 29.0503 112.344 29.0373L112.429 29.0108C112.406 29.0327 112.384 29.0558 112.364 29.0785L112.333 29.112C111.726 29.769 111.196 30.4965 110.772 31.2793C110.752 31.2571 110.728 31.2372 110.697 31.213C110.499 31.0454 110.294 30.8823 110.09 30.7238L110.028 30.6696L109.965 30.6155L110.424 30.7676L110.414 30.7557C110.382 30.714 110.28 30.575 110.233 30.5287L110.222 30.5185C109.591 29.9522 108.903 29.4713 108.159 29.0791C107.678 28.7659 107.172 28.5013 106.642 28.2831C105.378 27.6944 104.09 27.2471 102.766 26.8327C102.568 26.7687 102.37 26.7004 102.172 26.6385C102.115 26.6186 102.104 26.6429 102.113 26.6825L102.01 26.6517C101.825 26.5922 101.51 26.9184 101.636 27.0706C101.56 27.1323 101.486 27.2011 101.421 27.2656L101.374 27.3131L101.321 27.2976C101.164 27.249 100.899 27.4946 100.731 27.6685L100.607 27.8003C100.512 27.9017 100.328 28.1111 100.554 28.1929L100.838 28.2897C100.829 28.347 100.853 28.3955 100.941 28.4286C101.04 28.4616 101.137 28.4969 101.233 28.5324C101.175 28.5837 101.117 28.6371 101.06 28.6911L100.976 28.7725C100.877 28.8744 100.641 29.099 100.849 29.1981L100.875 29.209L101.145 29.306C101.11 29.3854 101.119 29.4605 101.238 29.5044C102.817 30.0423 104.358 30.6731 105.864 31.3896C106.992 32.0154 108.184 32.483 109.439 32.7892C109.542 32.8225 109.767 32.666 109.859 32.5095L110.047 32.5648C110.078 32.5739 110.109 32.5827 110.14 32.5908L110.171 32.5977C109.936 33.226 109.762 33.907 109.666 34.5661C109.655 34.6257 109.646 34.6876 109.639 34.7471C109.393 34.7271 109.149 34.7094 108.903 34.6964C107.199 34.6058 105.475 34.6609 103.766 34.8638C103.076 34.4515 102.412 33.9996 101.777 33.5104C101.583 33.3602 101.392 33.2059 101.203 33.0494C100.068 32.0617 99.0413 30.953 98.131 29.7557C97.2889 28.6468 96.5567 27.4564 95.9411 26.2088C95.3958 25.0379 94.9451 23.821 94.6043 22.5644C94.292 21.4158 94.1843 20.2981 94.1052 19.1098C94.0788 18.9158 94.0612 18.722 94.0458 18.5278L94.0476 18.4447L94.0502 18.4043C94.0722 17.9879 94.1139 17.571 94.1601 17.1565ZM110.27 31.9206C110.321 31.9383 110.374 31.9559 110.426 31.9713C110.396 32.0397 110.367 32.106 110.338 32.1742L110.335 32.1728L110.127 32.0088C110.171 31.989 110.222 31.9583 110.27 31.9206ZM94.4679 14.0304C94.0722 13.8827 93.7731 13.8541 93.5709 13.9467C93.8699 13.9687 94.1689 13.9974 94.4679 14.0304Z" fill="black"/>
<path fill-rule="evenodd" clip-rule="evenodd" d="M108.627 89.1757C106.955 90.1783 104.407 92.5162 106.206 95.0018C108.323 97.1934 111.372 94.6805 112.875 93.5441C114.268 92.6633 115.833 94.9286 114.54 95.957C103.684 103.885 99.2781 89.4379 107.781 87.9969C108.717 87.8381 109.065 88.8655 108.627 89.1757ZM123.736 70.0551L123.32 69.9833L123.107 69.9477C121.862 69.7446 120.385 69.6087 119.525 70.573C119.043 71.1138 118.876 72.119 119.525 72.6367C120.666 73.5475 121.927 73.1946 123.295 73.2717C124.421 73.3354 125.504 73.5194 126.59 73.8254C128.971 74.4966 130.911 75.722 132.944 77.0675C133.211 77.244 133.484 76.9074 133.356 76.6613C132.182 74.3933 129.907 72.5303 127.629 71.3947C126.412 70.7886 125.082 70.2857 123.736 70.0551ZM112.722 101.387C109.083 101.647 101.197 99.934 97.9223 102.504C85.5813 117.704 134.507 121.612 129.223 104.796C125.858 99.3582 118.117 101.544 112.722 101.387ZM113.345 110.563C114.245 110.49 115.338 111.194 115.602 111.737C115.866 112.28 115.764 113.429 115.756 113.628C114.182 113.784 112.595 113.808 111.017 113.706C111.427 112.368 111.441 110.765 113.345 110.563ZM106.08 112.806C106.333 111.146 107.537 110.753 108.511 111.002C109.508 111.257 110.093 112.389 110.03 113.396C110.026 113.466 110.067 113.525 110.093 113.581C108.738 113.423 107.396 113.163 106.08 112.806ZM117.24 110.863C117.808 110.012 119.163 109.601 120.032 109.751C121.45 110.046 121.618 111.823 121.618 112.185C120.31 112.676 118.922 113.003 117.595 113.263C117.329 113.315 117.062 113.361 116.795 113.405L116.777 113.189C116.745 112.727 116.721 111.643 117.24 110.863ZM101.201 110.723C102.654 108.504 105.78 110.093 105.521 112.516C105.244 112.43 104.967 112.34 104.692 112.245C103.55 111.853 102.297 111.386 101.201 110.723ZM112.646 103.079C114.602 102.905 116.207 102.964 117.482 103.197L117.521 103.617C117.662 105.074 117.844 106.507 117.068 107.093C116.438 107.569 114.347 107.524 112.945 107.179C112.599 107.093 112.148 104.071 112.646 103.079ZM109.622 102.905C109.936 104.341 110.083 106.085 109.454 106.603C108.789 107.15 106.649 107.076 106.09 106.711C105.6 106.392 105.613 104.926 105.794 103.279C106.878 103.028 108.765 102.905 109.622 102.905ZM118.347 103.211L118.988 103.217L119.35 103.222C120.267 103.238 121.256 103.29 122.191 103.491C124.048 107.45 117.266 108.133 118.313 103.358L118.347 103.211ZM104.932 103.307L104.944 103.531C104.999 104.643 104.962 106.107 104.338 106.503C103.419 107.084 101.693 106.972 100.758 104.281C101.067 103.479 104.349 103.366 104.932 103.307ZM122.931 79.7031C122.538 79.7031 122.163 79.8345 121.821 80.0778C121.484 80.3172 121.179 80.6666 120.925 81.1025C120.445 81.9272 120.145 83.0659 120.145 84.325C120.145 85.5841 120.445 86.7229 120.925 87.5476C121.179 87.9834 121.484 88.3329 121.821 88.5723C122.163 88.8155 122.538 88.947 122.931 88.947C123.323 88.947 123.699 88.8155 124.041 88.5723C124.378 88.3329 124.682 87.9834 124.936 87.5476C125.417 86.7229 125.717 85.5841 125.717 84.325C125.717 83.0659 125.417 81.9272 124.936 81.1025C124.682 80.6666 124.378 80.3172 124.041 80.0778C123.699 79.8345 123.323 79.7031 122.931 79.7031ZM98.0749 79.7031C97.6822 79.7031 97.3066 79.8345 96.9646 80.0778C96.6279 80.3172 96.3232 80.6666 96.0694 81.1025C95.589 81.9272 95.2888 83.0659 95.2888 84.325C95.2888 85.5841 95.589 86.7229 96.0694 87.5476C96.3232 87.9834 96.6279 88.3329 96.9646 88.5723C97.3066 88.8155 97.6822 88.947 98.0749 88.947C98.4675 88.947 98.8431 88.8155 99.1851 88.5723C99.5218 88.3329 99.8265 87.9834 100.08 87.5476C100.561 86.7229 100.861 85.5841 100.861 84.325C100.861 83.0659 100.561 81.9272 100.08 81.1025C99.8265 80.6666 99.5218 80.3172 99.1851 80.0778C98.8431 79.8345 98.4675 79.7031 98.0749 79.7031ZM101.457 69.0391L101.138 69.1034L100.927 69.1475C97.495 69.8757 93.1433 71.3113 91.5366 74.5985C91.4741 75.0729 91.5401 75.1746 91.5938 75.241L91.6117 75.2631C91.6559 75.3198 91.6912 75.398 91.8997 75.4626C91.9575 75.449 92.016 75.4346 92.075 75.4193C92.8267 75.225 93.4214 74.9574 93.9972 74.6796L94.6214 74.3763C95.3457 74.026 96.0764 73.6884 96.8507 73.4393C98.5032 72.9076 100.203 72.5331 101.929 72.3331C102.303 72.2898 102.663 72.1653 102.948 71.9518C103.217 71.7492 103.424 71.4687 103.517 71.0959C103.639 70.6134 103.604 70.2481 103.342 69.8127C103.144 69.4858 102.862 69.2592 102.538 69.1291C102.207 68.9965 101.831 68.9652 101.457 69.0391Z" fill="black"/>
</svg>
