<svg width="286" height="601" viewBox="0 0 286 601" fill="none" xmlns="http://www.w3.org/2000/svg">
<path fill-rule="evenodd" clip-rule="evenodd" d="M121.647 357.803C121.404 366.617 119.982 375.402 118.913 384.166C118.057 392.828 116.443 401.572 115.147 410.074C115.095 411.56 113.055 412.282 112.069 411.177C112.094 391.849 117.249 372.017 115.423 352.285C116.895 351.461 118.393 350.551 119.822 349.641C121.75 352.189 121.963 355.132 121.647 357.803ZM45.4957 243.85C43.2911 251.877 38.6198 258.796 36.5739 266.835L34.4136 266.619C33.3506 248.887 36.3389 231.465 39.8288 214.329L42.0003 214.458C42.7664 224.333 47.8015 233.687 45.4957 243.85ZM283.351 178.536C283.233 178.206 283.114 177.869 283.002 177.528L281.738 177.799C284.094 173.323 281.897 171.851 279.231 168.151L278.94 168.823L277.915 166.575C277.711 166.004 277.503 165.519 276.94 165.306C276.391 162.509 274.755 159.948 272.577 158.557L272.16 159.027C271.297 158.27 270.256 157.982 269.265 157.632C271.392 154.413 272.76 150.236 274.194 146.785C275.362 143.16 277.187 139.641 277.53 135.966C277.254 132.433 273.924 134.728 272.3 136.49C267.339 140.852 263.066 147.761 259.864 156.151C254.366 154.716 251.212 156.23 249.684 163.762C248.278 168.879 246.841 174.128 246.651 179.433C245.913 179.179 244.604 178.224 243.896 178.973C231.676 192.378 217.247 202.706 203.292 214.009C192.747 206.232 187.259 190.844 181.46 179.293C171.342 159.467 161.224 130.441 135.2 130.544C131.751 130.183 128.382 129.77 125.127 128.765C123.866 128.422 122.307 128.008 121.879 127.241C121.108 124.768 120.962 122.092 119.606 119.824C115.886 113.761 107.825 113.284 101.509 114.601C90.7851 116.593 91.055 115.43 90.2808 126.739C90.0486 129.423 87.9733 129.808 85.7577 130.363C83.2423 131.159 80.6797 131.808 78.0944 132.332C78.3628 132.256 78.6309 132.181 78.8993 132.105C36.9281 132.772 9.06064 181.584 3.53218 216.117C-2.88901 251.446 5.41619 290.765 18.5463 320.438C17.9825 331.245 20.0969 342.1 21.4356 352.751C22.2759 355.415 25.1849 355.675 26.0167 352.588L27.042 348.525L28.1394 352.569C28.8353 355.072 29.9537 355.369 30.9598 355.386C32.2081 355.386 32.8923 354.769 32.9334 351.516L35.0008 351.018C35.7975 352.539 36.5886 353.885 37.8403 354.821C40.3575 373.167 41.9375 392.242 48.0473 409.994C50.4837 416.582 54.2251 422.564 56.9729 429.027C44.0173 458.345 41.8456 490.833 38.7348 522.223C38.985 522.243 40.2708 522.356 40.5453 522.379L39.8358 524.27C38.867 524.681 38.2975 525.546 38.0041 526.505C37.3505 526.451 34.6241 526.471 34.7759 527.097C35.0913 530.785 36.1227 533.416 38.0771 535.337C38.1039 535.928 38.1401 536.531 38.1858 537.091C34.3085 550.655 31.4672 565.115 29.7408 580.026C27.546 582.143 26.9967 589.107 30.2701 590.965C39.3067 597.203 51.4455 600.165 62.8747 599.04C75.2437 597.867 89.9955 592.926 84.0762 578.783C83.9996 578.344 83.399 578.323 82.9254 578.419C81.8769 577.399 80.7401 576.627 79.5105 576.194C77.0673 570.077 74.8699 563.662 72.9532 557.258C72.0195 554.317 71.0539 551.275 71.1333 548.05C71.5955 540.13 72.4088 536.856 77.8988 530.617C81.2975 532.255 87.7744 520.392 89.2588 517.902C92.3812 510.535 96.3605 503.837 99.6949 496.61C100.21 495.389 102.01 495.363 102.714 496.421C103.031 496.866 103.11 497.418 102.932 497.933C100.028 506.333 96.0744 514.353 92.2605 522.189C93.5601 526.74 94.0732 534.342 97.3233 537.728C99.0912 549.52 86.9938 554.923 94.789 568C92.1508 568.182 91.9048 569.239 91.9508 572.451C91.9421 574.757 91.8822 577.178 92.316 579.333C92.842 581.982 95.2804 582.692 98.9404 583.473C101.907 584.131 104.763 584.882 107.706 585.592C110.683 586.584 113.819 586.503 115.043 583.485C129.785 588.493 172.281 587.92 186.337 581.283C190.218 579.726 192.956 578.845 189.391 574.46C187.429 561.944 155.392 570.893 150.867 557.165C150.221 555.383 149.288 554.446 147.473 554.121C147.75 552.705 147.38 551.131 145.808 550.724C145.335 550.582 144.83 550.545 144.343 550.099C143.134 547.601 141.15 546.086 138.839 544.757C139.783 543.396 139.02 542.762 138.595 541.239C138.164 538.324 139.155 535.531 139.104 532.699C139.635 531.806 140.045 530.554 140.895 529.935C141.683 529.378 141.193 529.136 140.886 528.521C141.12 528.314 141.65 527.841 141.89 527.652C142.81 526.637 141.845 525.157 140.665 525.044C140.52 524.554 140.347 523.986 140.237 523.501C143.501 513.665 147.353 500.894 148.631 487.362C149.869 465.717 148.708 447.47 155.287 425.474C164.483 390.646 182.348 357.962 182.589 321.106C182.282 314.997 183.972 308.492 182.44 302.496L184.342 301.504C184.616 301.82 185.111 301.812 185.21 301.382C186.458 299.351 185.059 296.917 184.772 294.693C185.425 293.993 185.099 293.354 184.311 292.972C175.86 263.069 161.725 258.701 165.616 221.323C171.965 234.807 186.029 248.456 201.531 246.45C217.147 248.789 253.576 210.657 260.611 198.331C261.901 198.431 261.917 197.504 262.113 196.631C268.539 197.389 274.554 192.333 274.673 186.148C280.312 189.652 286.338 184.648 283.351 178.536Z" fill="#FAFAFA"/>
<path fill-rule="evenodd" clip-rule="evenodd" d="M238.405 219.103L237.8 219.643C227.901 228.465 217.4 237.271 205.007 242.256C203.328 242.869 201.579 243.035 199.854 243.4C185.44 243.543 175.652 232.358 166.524 222.713C167.288 206.209 166.656 189.168 160.148 173.745L159.993 173.348C158.4 169.314 156.454 165.314 153.341 162.231C153.264 162.157 153.159 162.269 153.225 162.348C155.881 165.608 157.428 169.591 158.539 173.609L158.595 173.813C162.382 187.419 163.041 201.695 162.543 215.748L162.527 216.174C162.187 225.669 161.369 235.215 162.51 244.691C163.342 254.471 167.661 263.314 172.366 271.761C176.466 279.562 179.531 287.902 181.389 296.521C180.792 299.064 178.627 300.929 176.377 302.345C172.311 304.861 167.599 306.238 162.997 307.391C144.167 312.233 124.555 314.481 105.182 312.137C84.5137 309.449 64.342 303.886 44.3257 298.223C42.2672 297.59 39.9827 297.018 38.0164 296.033C37.8848 295.889 37.7289 295.766 37.56 295.665C37.22 290.854 36.7697 286.086 36.4342 281.287C36.8873 271.992 39.4653 262.952 43.415 254.558C50.633 240.795 48.2489 232.425 43.8488 218.403C42.8378 214.834 42.1158 211.101 42.2058 207.423C42.6666 205.106 43.1121 202.787 43.5225 200.461C43.6937 200.016 43.8802 199.574 44.0887 199.135C44.1282 199.052 44.0163 198.986 43.9636 199.063C43.8714 199.194 43.7836 199.328 43.6959 199.464C44.0009 197.69 44.284 195.913 44.532 194.132C44.5649 193.898 44.2621 193.806 44.1743 194.034C36.2652 215.342 31.6738 238.182 31.8627 260.952C31.9749 267.657 32.4357 274.359 32.9273 281.048L32.8816 281.693C32.7073 284.224 32.6157 286.804 33.5001 289.215C33.6884 293.352 34.3893 297.44 34.1716 301.589C33.6612 305.378 32.52 308.059 29.6792 310.679C26.8658 313.54 23.6458 315.908 19.9774 317.55C4.72652 272.9 -4.20872 226.519 17.8456 182.369C28.0816 160.873 45.7021 141.561 69.3499 135.418C65.9796 139.146 68.6068 144.723 71.0299 148.278L71.178 148.493C82.7828 165.707 108.337 169.808 127.503 166.064C136.787 164.469 145.492 158.452 146.233 148.39C146.808 141.65 142.976 135.003 137.183 131.683L137.888 131.76C143.527 132.387 149.002 133.292 153.33 137.331C169.281 152.105 176.681 173.147 186.103 192.196L186.478 192.889C190.514 200.381 194.413 208.472 201.118 213.905L199.865 214.975C199.707 215.111 199.876 215.419 200.076 215.337C200.721 215.076 201.362 214.801 202 214.523C202.901 215.245 203.936 214.514 204.043 213.596C219.206 206.33 232.021 194.806 243.916 183.115C246.919 190.078 251.984 197.672 260.092 198.81C252.437 205.097 245.663 212.366 238.405 219.103ZM116.532 352.604C117.517 352.043 118.488 351.461 119.447 350.857C121.029 353.392 120.627 355.62 120.457 358.419C120.095 363.089 120.175 367.84 119.23 372.437C117.59 384.167 116.62 396.424 114.186 407.854C114.131 408.493 114.075 409.132 114.025 409.771C113.96 410.612 112.643 410.616 112.709 409.771C114.312 390.796 117.714 371.71 116.532 352.604ZM125.457 581.184C137.81 583.237 150.42 581.781 162.778 580.462L164.592 580.226C170.441 579.465 176.324 578.665 182.07 577.388C182.554 576.987 183.3 576.81 183.59 576.217L183.945 576.242C184.245 576.072 184.55 575.912 184.86 575.762C185.763 575.6 186.498 575.404 187.43 575.148C188.695 575.578 188.827 576.692 187.969 577.48C188.054 577.882 187.574 578.112 187.26 578.29C187.209 578.391 187.131 578.488 187.014 578.57C186.45 578.927 185.881 579.352 185.236 579.529C183.66 581.17 180.274 581.794 178.409 582.126L178.225 582.159C162.727 584.936 146.872 585.682 131.179 584.428C128.473 584.21 125.769 583.934 123.076 583.597L122.341 583.503C120.015 583.202 117.45 583.086 115.661 581.382C114.771 580.534 112.986 581.069 113.036 582.416L113.039 582.469C113.195 584.682 108.026 582.851 107.003 582.565L106.973 582.557C104.111 581.779 101.267 580.921 98.3967 580.18L97.6926 580.044C95.1992 579.548 95.0053 579.297 94.9776 576.203L94.8849 575.362C94.7597 574.241 94.6251 573.124 94.4442 572.011L94.3741 571.594C94.2929 571.126 93.4985 568.232 94.8218 568.616C94.9886 568.665 95.151 568.531 95.1598 568.368C104.458 574.297 114.52 579.258 125.457 581.184ZM76.3461 588.646L77.1352 588.172C78.457 587.372 79.7845 586.503 80.722 585.286C82.2684 585.345 82.9049 583.886 82.8463 582.585C84.1445 586.814 82.5344 590.199 78.7291 592.34C65.4731 599.385 48.5131 598.348 35.3172 591.648C34.0509 590.994 32.8132 590.284 31.6128 589.518L31.3427 589.346C30.8928 589.057 30.4566 588.747 30.2171 588.251C29.6397 586.556 29.6476 584.885 29.585 582.996C30.5849 584.346 32.2442 585.281 33.623 586.211C36.2542 587.974 39.1049 589.373 42.0609 590.495C53.007 594.567 66.0085 594.319 76.3461 588.646ZM36.2542 241.377C37.3113 232.188 39.1229 223.127 40.8781 214.055C41.5915 223.805 46.6457 233.299 44.3981 243.163C42.2012 251.102 37.4933 258.146 35.4817 266.155C35.0907 257.883 35.3312 249.607 36.2542 241.377ZM49.2809 321.105C48.0915 321.323 46.8692 321.318 45.6663 321.233C40.7921 320.641 40.0211 323.597 40.0378 327.731C39.8895 330.402 39.7261 333.074 39.5868 335.747L39.5065 337.351C39.4056 339.488 39.1376 341.877 39.4056 344.111C38.5225 346.139 38.0449 348.253 37.9045 350.47C37.4985 350.36 37.064 350.413 36.7524 350.626C34.9638 347.433 34.5359 343.535 34.1672 339.94C33.9873 338.173 31.3933 338.091 31.3538 339.94C31.3034 342.455 31.2661 344.971 31.2222 347.486L31.1541 351.366L31.1543 351.424C31.1653 351.977 31.4147 353.372 30.7363 353.318L30.6977 353.314C29.4354 353.219 29.3772 348.72 29.1042 347.598L28.0511 340.072C27.8144 338.388 25.3974 338.938 25.2313 340.406L25.2267 340.454C24.9311 343.894 24.6313 347.333 24.3774 350.776C24.2973 351.371 24.2866 352.448 23.6379 352.708C23.0649 352.192 22.9563 351.325 22.8345 350.604C21.7556 340.673 19.7299 330.87 18.4807 320.962C19.2905 320.846 20.0323 320.341 20.2693 319.564C26.7681 318.234 33.5883 314.569 36.8533 308.614C37.5051 309.19 38.0142 309.943 38.6463 310.534C39.6448 311.471 40.742 312.317 41.791 313.193C44.7312 315.687 47.6824 318.041 50.5625 320.611C50.1412 320.749 49.7571 321.02 49.2809 321.105ZM119.989 117.815C120.022 117.685 120.202 117.723 120.21 117.846C120.39 120.349 120.989 122.991 121.902 125.446C122.229 125.499 122.543 125.683 122.771 126.041C123.079 126.522 124.548 126.858 125.315 127.084L125.425 127.117C128.608 128.102 131.93 128.499 135.232 128.85C150.76 129.711 156.411 134.586 165.172 146.903C175.57 160.78 181.405 177.249 189.244 192.565C191.173 196.289 193.255 199.926 195.544 203.441L195.762 203.775C197.807 206.892 200.069 210.05 203.192 212.153C210.75 205.805 218.832 200.138 226.308 193.692L227.007 193.085C232.616 188.227 237.973 183.08 243.071 177.687C243.672 177.05 244.8 176.883 245.634 177.256C245.96 172.402 247.329 167.64 248.59 162.949C249.915 156.907 252.217 152.824 259.159 154.319C261.954 147.27 265.696 140.391 271.361 135.244L271.725 134.916C272.931 133.819 274.514 132.246 276.208 132.388C277.747 132.515 278.537 133.91 278.598 135.328C278.669 137.011 277.936 138.724 277.412 140.301L277.367 140.436C276.691 142.507 275.963 144.56 275.192 146.598C274.451 148.559 273.656 150.5 272.824 152.424C271.977 154.033 271.353 156.698 269.809 157.67C269.012 158.145 268.191 157.507 268.106 156.691C267.985 155.621 268.6 154.682 269.052 153.75C269.469 152.894 269.877 152.033 270.274 151.168C271.871 147.684 273.303 144.129 274.534 140.502C274.9 139.281 276.396 136.107 275.877 135.01C275.357 135.014 274.287 136.114 273.909 136.441C267.957 141.38 264.089 148.203 259.664 154.429C262.441 155.224 265.455 155.597 267.762 157.464C272.506 161.61 268.696 169.821 262.337 168.292C264.112 172.07 265.638 178.174 262.493 181.587C261.547 182.474 259.71 182.191 259.422 180.777C259.115 179.275 259.484 177.988 259.822 176.532C260.434 173.568 260.805 170.532 260.388 167.515L260.257 167.437C259.179 166.781 258.501 166.045 258.534 164.691C258.393 163.711 259.436 162.392 260.482 163.193C260.823 163.452 261.237 163.472 261.595 163.733C262.202 164.311 262.956 164.766 263.816 164.759L263.899 164.757C265.005 164.748 265.822 164.08 266.16 163.044C267.086 160.2 263.88 159.245 261.795 158.698L261.256 158.532C255.566 156.789 253.503 156.761 252.073 163.459C250.524 168.456 249.159 173.601 246.541 178.168L246.866 178.947C249.499 185.228 252.804 192.459 259.883 194.385C260.134 192.287 262.4 192.211 264.04 192.264C266.157 192.149 268.281 191.073 269.776 189.527C271.082 188.21 271.739 186.374 273.184 185.199C272.53 183.71 274.007 182.068 275.55 182.924C276.59 183.499 277.218 184.321 278.473 184.488C279.586 184.637 280.611 184.248 281.455 183.535C283.661 181.668 282.612 178.925 283.152 176.481C282.441 177.713 281.26 178.657 279.996 179.31C271.556 184.145 271.64 174.664 276.305 176.222C281.372 175.067 281.287 173.233 279.393 168.927L279.359 168.826C279.051 167.922 278.363 166.324 279.002 165.35C279.037 165.301 279.101 165.286 279.147 165.33C279.726 165.901 279.954 166.858 280.444 167.53L281.027 168.228C282.798 170.365 284.651 172.905 283.501 175.759C283.624 175.732 283.758 175.785 283.799 175.934C284.344 177.917 285.425 179.865 285.202 181.986C284.733 186.635 279.702 189.188 275.535 187.25C274.733 193.227 268.849 197.528 262.951 197.262C262.765 198.081 262.159 198.801 261.222 198.876C252.543 212.801 218.425 248.626 201.693 247.129C200.093 247.855 198.057 247.491 196.363 247.272C183.368 245.574 172.509 236.057 166.451 224.775C164.224 261.727 176.808 261.279 185.228 291.892C186.07 292.421 186.562 293.576 185.908 294.553C186.269 296.405 187.009 298.303 186.724 300.204C186.584 300.746 186.301 301.24 186.044 301.736C185.516 302.749 184.122 302.627 183.47 301.84C184.576 305.848 184.104 310.057 183.821 314.144C183.648 316.544 183.661 318.911 183.658 321.314C183.328 357.886 165.49 390.862 156.319 425.558C153.725 435.284 151.733 445.195 150.949 455.242C150.117 465.929 150.697 476.676 149.696 487.351C148.536 499.714 145.239 511.731 141.35 523.483C141.582 524.435 142.066 525.518 141.767 526.339C136.211 527.277 130.849 528.982 125.453 530.565C125.241 530.626 125.11 530.758 125.043 530.914L123.81 531.324C123.01 531.591 123.353 532.864 124.16 532.595L125.508 532.146C130.119 530.618 134.784 529.159 139.58 528.473L139.727 528.413C140.686 528.029 141.814 527.747 142.319 528.805C142.576 529.341 142.373 529.881 142.006 530.306C141.697 530.664 141.303 530.885 141.033 531.291C140.73 531.826 140.474 532.389 140.173 532.931C140.176 535.616 139.294 538.273 139.636 540.951C139.894 542.062 140.793 543.128 140.222 544.318L140.482 544.484C141.995 545.457 143.441 546.525 144.436 548.029C144.653 548.358 144.818 549.037 145.066 549.27C145.324 549.511 145.807 549.54 146.125 549.654C147.737 550.145 148.751 551.602 148.612 553.293C152.385 554.38 151.086 558.218 154.98 560.889C158.979 563.79 164.393 564.108 169.115 564.861L177.163 566.146L177.631 566.203C182.724 566.833 189.367 568.017 190.392 573.975L190.475 574.071C191.706 575.543 192.889 578.337 191.37 579.934C190.134 581.032 188.447 581.547 186.951 582.187C184.877 583.687 181.888 584.386 179.612 584.81C159.936 588.458 139.667 588.881 119.859 586.05L119.528 586.002C118.144 585.794 116.714 585.513 115.45 584.919C113.683 587.899 110.279 587.524 107.414 586.678C105.165 586.121 102.915 585.572 100.666 585.023L100.455 584.967C96.9805 584.074 92.0533 583.803 91.2118 579.559C90.7773 577.374 90.8058 574.943 90.8278 572.723L90.8228 571.994C90.8199 570.124 90.9669 567.588 93.0815 567.193C90.144 561.744 90.7841 555.043 93.5202 549.641L93.6653 549.376C95.6787 545.678 96.9365 542.591 96.268 538.224C94.9271 536.959 94.3017 535.143 93.8057 533.357C92.7638 529.599 91.8537 525.801 91.0834 521.977L92.2784 519.519C95.7829 512.307 99.2488 505.064 101.867 497.477C102.108 496.78 100.977 496.288 100.664 496.969C97.3528 504.164 93.3041 511.001 90.2216 518.304C88.1779 522.123 85.7242 525.714 82.9733 529.057L82.8516 529.228C81.7837 530.693 80.8893 531.181 79.1353 531.785C78.8544 531.904 78.5691 531.906 78.3014 531.829C76.6276 534.101 74.5962 535.9 73.717 538.612C72.758 541.612 72.3915 544.911 72.2026 548.047C72.1019 552.132 73.8015 555.99 74.8692 559.87C76.5014 565.097 78.3196 570.267 80.3307 575.361C81.4047 575.796 82.3795 576.465 83.2786 577.289C84.028 577.217 84.8176 577.558 85.0978 578.472L85.2142 578.854C86.2046 582.144 87.0448 585.944 85.7586 589.239C82.2039 597.224 70.7803 599.214 62.966 600.171C51.3943 601.271 39.2557 598.502 29.6224 591.898C28.2617 590.943 27.3335 589.856 27.1074 588.163L27.0837 587.952C26.7727 585.12 26.7005 581.76 28.6633 579.566C30.3413 565.203 33.0899 550.847 37.0486 536.935C37.0179 536.542 36.9938 536.149 36.974 535.753C34.7644 533.449 33.8995 530.205 33.6515 527.09C33.6228 525.781 34.9452 525.508 35.9707 525.348L36.3485 525.345C39.6902 525.321 43.1388 525.485 46.1206 526.734L45.9738 526.74C45.8229 526.748 45.6653 526.766 45.5509 526.844C47.0449 527.324 48.6744 527.537 50.1026 528.167C51.1604 528.219 52.0828 528.722 53.1541 528.813L53.3246 528.824C53.5151 528.84 53.6599 528.784 53.7641 528.689C56.6423 529.203 59.5037 529.895 62.3772 530.318C63.2061 530.44 63.5638 529.171 62.7273 529.048C58.8831 528.481 55.0565 527.443 51.1856 526.962C50.3297 526.63 49.5026 526.203 48.6445 525.86C48.5945 525.746 48.5006 525.644 48.348 525.572C47.4068 525.13 46.4291 524.766 45.4293 524.462C42.8659 523.665 40.1732 523.331 37.5038 523.173L37.693 521.261C40.7644 490.015 43.0055 457.931 55.7482 428.832C53.0408 422.567 49.3586 416.6 46.9898 410.155C46.0067 407.579 45.4098 404.953 44.6307 402.324C44.1242 401.065 43.7057 399.79 43.5027 398.44C40.383 384.143 38.6193 369.599 36.7785 355.097C35.5395 354.071 34.7209 352.593 34.0026 351.232L33.9994 351.439C33.957 353.678 33.6413 356.257 30.8271 356.191C28.5558 356.136 27.5615 354.438 27.0526 352.561C26.0633 356.487 21.6674 356.701 20.379 352.835C19.804 351.276 19.8282 349.497 19.657 347.861C18.7386 338.882 16.8219 329.91 17.3725 320.868C16.7931 320.67 16.2884 320.227 16.0424 319.487C5.06952 286.188 -4.69569 250.553 2.42753 215.416C9.5501 180.99 28.8396 142.452 65.2922 132.691C72.672 130.822 80.1687 130.188 87.7335 129.706C88.825 127.591 89.5306 125.184 89.6734 122.789C89.7173 122.097 89.6844 121.412 89.6822 120.72C89.68 120.081 89.9521 119.319 89.8249 118.722C89.7941 118.577 89.9916 118.529 90.0443 118.663C90.2045 119.082 90.5315 119.293 90.7532 119.646C91.3044 120.646 91.4503 121.832 91.5958 122.949C92.1428 127.309 90.8987 131.795 88.2659 135.296L88.1746 135.416C87.3582 136.51 85.8045 138.49 84.1981 137.542C82.7983 136.713 83.6948 135.025 84.5298 134.121L84.5931 134.054C85.7233 132.877 86.6713 131.619 87.4416 130.246C84.019 131.16 80.6232 132.166 77.2107 133.119L77.0488 133.208C74.3765 134.666 70.4056 136.227 70.7564 139.841C77.8623 161.324 109.3 166.844 128.729 161.715L129.039 161.631C132.757 160.604 136.479 158.953 139.009 155.945L139.114 155.819C143.605 150.492 143.261 141.691 137.637 137.318C134.297 134.577 129.682 133.121 125.514 132.173C126.727 134.189 129.407 135.612 129.895 138.001C130.02 138.82 129.568 139.599 128.666 139.617C126.375 139.661 124.685 137.21 123.482 135.563C120.973 132.117 119.549 127.952 119.245 123.709C119.093 121.645 119.473 119.785 119.989 117.815ZM271.582 156.572C271.461 156.489 271.528 156.241 271.692 156.309C277.92 158.895 280.462 168.155 275.774 173.255C274.218 174.9 271.885 175.851 269.761 174.988C267.15 174.545 265.625 171.904 265.291 169.471C265.268 169.358 265.395 169.306 265.467 169.378L265.479 169.393C266.466 170.611 268.021 171.426 269.438 172.05C269.835 171.834 270.27 171.663 270.707 171.562C271.328 171.421 271.964 171.909 271.905 172.544C274.837 172.006 276.012 168.511 276.101 165.86L276.103 165.78C276.222 162.111 274.565 158.718 271.582 156.572Z" fill="#232323"/>
<path fill-rule="evenodd" clip-rule="evenodd" d="M125.693 41.6047C111.232 29.8198 88.0576 25.9933 72.5779 37.8829C60.5499 49.041 55.5725 80.7486 57.7011 96.6816C58.2929 106.901 66.0798 118.484 77.5103 115.252C79.4513 115.06 81.3361 114.314 83.2949 114.158C85.6381 113.888 87.9991 113.883 90.3377 114.214C95.4335 114.937 99.9508 117.65 104.897 118.918C114.074 121.271 124.314 119.688 132.213 114.388C158.318 97.179 146.493 58.2603 125.693 41.6047Z" fill="#FAFAFA"/>
<path fill-rule="evenodd" clip-rule="evenodd" d="M123.766 119.201C124.035 119.108 124.303 119.011 124.569 118.912C124.586 118.974 124.615 119.033 124.648 119.091C124.686 119.183 124.723 119.274 124.765 119.364C124.431 119.366 124.096 119.307 123.766 119.201ZM123.23 4.99884C123.111 4.7323 122.975 4.47657 122.821 4.22944C123.195 4.35091 123.569 4.51846 123.907 4.73451C123.679 4.81167 123.454 4.89985 123.23 4.99884ZM66.1092 39.8668C66.0938 39.8641 66.0786 39.8619 66.0634 39.8593C66.2596 39.3357 66.6089 38.8414 66.9948 38.4845C67.0641 38.4204 67.1391 38.3611 67.2116 38.2998C66.802 38.789 66.4304 39.3108 66.1092 39.8668ZM170.626 94.6174C170.432 92.7788 170.186 90.947 169.867 89.1258C169.561 87.3822 169.304 85.5171 168.418 83.9695C167.539 82.4285 166.657 80.9314 165.611 79.5758C165.76 78.8835 165.958 78.2332 166.129 77.7085C167.119 74.6882 168.093 70.8522 166.037 68.0458C165.56 67.3954 164.977 66.8972 164.311 66.4475C164.027 66.2557 163.557 66.0815 163.339 65.817C163.185 65.6296 163.238 65.731 163.231 65.6384C163.194 65.1402 164.359 64.0886 164.632 63.6939C165.142 62.964 165.522 62.1419 165.813 61.302C166.96 57.9775 166.18 54.3156 165.49 50.9843C165.125 49.2186 164.722 47.4484 164.59 45.645C164.467 43.9519 164.698 42.2984 164.834 40.6141C164.966 38.9517 164.931 37.2367 164.221 35.6977C163.873 34.9481 163.348 34.2868 162.708 33.7709C162.084 33.2663 161.305 32.973 160.696 32.4704C160.089 31.9697 160.263 31.2932 160.422 30.6009C160.639 29.6618 160.914 28.7292 160.94 27.7592C160.989 26.0683 160.3 24.4212 159.225 23.1428C158.117 21.8223 156.534 20.9292 154.823 20.7286C154.041 20.636 153.271 20.7927 152.493 20.7376C151.723 20.6847 151.556 20.2989 151.411 19.5934C151.077 17.9775 151.213 16.3813 150.42 14.8734C149.716 13.533 148.465 12.6245 147.082 12.089C144.547 11.1058 141.598 11.3086 138.924 11.8882C137.346 7.2323 132.419 4.17895 127.57 4.14147C126.814 2.854 125.532 1.8928 124.07 1.3282C121.651 0.391253 119.09 0.93821 116.57 0.93821H116.559C116.306 0.922558 116.053 0.916165 115.801 0.918369C115.563 0.904921 115.325 0.88508 115.088 0.858845C112.221 0.519119 109.384 -0.658131 106.544 0.495088C105.277 1.00876 104.27 1.8002 103.633 2.8099C102.672 3.07203 101.724 3.37207 100.794 3.7204C96.7637 3.826 92.7708 5.9931 90.7328 9.50523C87.8634 9.17895 84.75 9.7323 82.8523 12.0824C82.358 12.6939 81.9752 13.4124 81.7215 14.1752C79.7866 14.8026 77.9962 15.9206 76.8245 17.6044C75.7552 19.141 75.5499 21.1278 76.273 22.7773C74.5457 24.0319 73.1959 25.828 72.5457 27.9488C72.1506 29.2374 72.0919 30.5687 72.3461 31.837C70.5777 32.2303 68.8862 32.9594 67.3875 34.0535C65.817 35.1997 63.8555 37.024 63.7521 39.1236C63.7444 39.2777 63.7504 39.4318 63.7627 39.5855C60.3052 39.3419 56.7797 39.9292 54.4427 42.7085C52.6879 44.7938 51.9252 47.4792 52.3935 49.9241C48.2797 50.7618 44.3899 52.9179 41.6766 56.1058C39.7046 58.4228 37.9522 61.3681 38.0575 64.5227C38.0905 65.473 38.3128 66.4298 38.6976 67.3139V67.3159C38.5327 67.6269 38.3632 67.973 38.2005 68.3412C35.6521 70.1289 33.8008 72.9312 32.7586 76.0198C31.9167 78.5218 31.3868 81.7716 32.2859 84.3178C32.4224 84.7059 32.5961 85.0718 32.7984 85.4111C32.6289 85.5921 32.4686 85.7729 32.3125 85.9558C30.595 87.9684 28.8558 90.5037 28.9748 93.2749C29.0232 94.3906 29.4363 95.5127 30.1115 96.434C27.7367 98.8483 25.824 101.895 26.0129 105.297C26.1756 108.257 27.7963 111.264 30.3356 112.686C29.9115 114.968 30.4787 117.376 32.2507 119.157C33.1348 120.048 34.1768 120.634 35.2808 120.947C35.527 123.634 37.9058 125.797 40.4322 126.419C40.9029 126.536 41.3734 126.606 41.8416 126.639C44.115 127.757 46.8261 127.629 49.1457 126.604C49.8295 127.475 50.72 128.185 51.7578 128.694C52.1778 128.901 52.6222 129.073 53.0859 129.212C56.362 130.184 59.7219 128.866 62.5866 127.327C62.6789 127.279 62.8482 127.217 62.9977 127.149C63.3935 127.592 64.1147 128.03 64.4907 128.246C65.7662 128.981 67.3251 129.322 68.7894 129.225C70.5066 129.111 72.0213 128.542 73.4241 127.733C73.6288 127.768 73.8353 127.788 74.0422 127.799C75.3614 127.869 76.5375 127.451 77.5953 126.789C78.2943 126.882 79.0111 126.873 79.7367 126.745C81.3354 127.153 82.8921 126.505 84.143 125.475C84.6973 125.019 85.1654 124.483 85.6669 123.972C86.1878 123.44 86.5838 123.317 87.1926 122.96C88.633 122.115 88.8065 119.975 88.182 118.427C88.3008 118.156 88.3691 117.854 88.3691 117.519C88.3645 114.596 87.0213 111.915 85.3723 109.576C84.6355 108.533 83.8353 107.512 82.9578 106.586C82.252 105.843 81.2606 104.638 80.2162 104.335C80.1525 104.289 80.0863 104.243 80.0203 104.199C80.2228 103.489 80.3413 102.766 80.291 102.027C80.238 101.269 79.9939 100.55 79.6028 99.9373C80.9152 97.3866 81.4695 94.589 81.2057 91.6701C82.274 90.151 83.0834 88.4735 83.5009 86.6349C83.7582 85.4973 83.9057 84.3002 83.8857 83.1338C83.8769 82.574 83.6724 81.8661 83.6682 81.2865C83.699 81.4695 83.9365 80.7861 84.0288 80.6161C85.0884 78.6432 86.4494 77.1044 86.6761 74.7786C86.8078 73.4182 86.4868 71.9148 85.6733 70.7993C86.1944 68.7402 86.1878 66.5288 85.3676 64.5648C85.1478 64.0401 84.8951 63.5264 84.6049 63.0392C84.7388 62.6291 84.8622 62.2147 85.0202 61.8419C85.082 61.6942 85.1434 61.5445 85.2049 61.3946C85.8008 60.8674 86.3551 60.2923 86.8212 59.7277C87.8544 58.4779 88.644 57.0449 88.7429 55.3935C88.7913 54.5667 88.5978 53.7753 88.3581 52.9907C88.2524 52.6357 88.1886 52.2411 88.0633 51.895C87.9931 51.703 87.8236 51.507 87.7645 51.3262C87.7511 51.2865 87.7401 51.2535 87.7313 51.227C87.7401 51.2006 87.7469 51.1454 87.7469 51.0416C87.7489 50.2502 87.8522 49.4764 87.8568 48.7138C88.5802 49.4457 89.4509 49.9922 90.4403 50.3121C92.4344 50.9536 94.5146 50.6626 96.28 49.6728C98.1799 50.9779 100.315 52.1593 102.553 52.6335C103.883 52.9155 105.216 52.7989 106.55 52.973C107.876 53.1472 109.158 53.727 110.407 54.179C113.186 55.1865 115.959 56.2202 118.747 57.2014C120.998 57.9929 123.434 58.6212 125.792 58.1759C126.453 59.1986 127.313 60.063 128.415 60.6979C129.204 61.1499 130.07 61.4561 130.965 61.6084C131.756 61.7429 132.685 61.69 133.326 62.2345C133.953 62.7636 134.344 63.5526 134.907 64.1481C135.534 64.8139 136.308 65.3915 137.119 65.8059C137.77 66.1388 138.434 66.3789 139.109 66.5357C139.05 68.0414 138.993 69.5449 138.975 71.0528C138.942 74.3289 138.955 77.6047 138.911 80.8809C138.867 84.1457 138.764 87.4109 138.593 90.6715C138.43 93.7314 138.201 96.8022 137.473 99.7874C135.059 109.693 126.016 116.785 115.893 117.146C112.887 117.254 109.912 116.831 107.038 115.945C104.061 115.026 101.403 113.134 98.3512 112.552C97.553 112.402 96.801 113.207 97.2584 113.98C98.0457 115.31 99.002 116.121 100.31 116.921C101.68 117.757 103.206 118.376 104.712 118.919C107.482 119.915 110.414 120.493 113.353 120.654C115.596 120.777 117.847 120.623 120.044 120.2C120.198 120.674 120.471 121.134 120.677 121.573C120.708 121.637 120.811 121.593 120.792 121.527C120.758 121.417 120.737 121.32 120.728 121.24C121.466 122.206 122.608 122.874 123.78 123.198C124.606 123.427 125.484 123.498 126.335 123.401C126.609 123.37 126.871 123.324 127.131 123.266C127.997 124.027 129.105 124.534 130.217 124.787C130.026 125.951 130.6 127.221 131.93 127.552C132.489 127.691 133.025 127.693 133.562 127.642C133.995 127.845 134.461 128.004 134.956 128.112C135.6 128.253 136.369 128.072 136.855 127.605C137.121 127.792 137.37 127.922 137.616 128.22C138.63 129.446 140.815 128.469 140.912 127.052C141.233 127.052 141.556 127.056 141.88 127.067C141.956 127.102 142.033 127.138 142.113 127.175C143.526 127.834 144.991 128.41 146.554 127.891C146.842 127.796 147.106 127.675 147.345 127.534C148.447 127.634 149.533 127.636 150.65 127.274C151.31 127.06 151.93 126.721 152.447 126.276C154.17 126.783 155.989 127.012 157.704 126.383C158.988 125.914 160.021 125.173 160.749 124.196C161.862 124.236 162.992 123.967 164.01 123.436C165.751 122.532 166.971 120.815 167.822 119.093C169.696 115.294 170.804 111.214 171.239 107.005C171.668 102.861 171.057 98.738 170.626 94.6174Z" fill="#232323"/>
<path fill-rule="evenodd" clip-rule="evenodd" d="M124.73 104.252C124.884 104.211 125.019 104.415 124.892 104.526C124.371 104.982 124.04 105.832 123.659 106.412C123.297 106.963 122.948 107.509 122.63 108.086C122.273 108.733 121.929 109.377 121.651 110.061L121.596 110.2C121.679 110.395 121.744 110.587 121.792 110.714L121.806 110.75C122.281 111.944 121.285 113.272 120.162 113.606C118.241 114.177 116.593 112.621 116.547 110.771C116.511 109.316 117.511 108.019 118.528 107.056C119.417 106.215 120.413 105.498 121.526 104.973C122.018 104.742 122.528 104.549 123.062 104.436C123.607 104.322 124.196 104.395 124.73 104.252ZM121.11 109.527C121.251 109.593 121.371 109.753 121.472 109.94C121.422 109.781 121.317 109.624 121.11 109.527ZM122.312 89.3021C123.984 90.3047 126.532 92.6425 124.733 95.1281C122.616 97.3197 119.567 94.8069 118.064 93.6705C116.671 92.7897 115.106 95.0549 116.398 96.0834C127.255 104.011 131.661 89.5642 123.158 88.1233C122.221 87.9645 121.874 88.9919 122.312 89.3021ZM108.565 79.6748L108.861 79.6504C110.143 79.5389 111.44 79.3692 112.704 79.6551C114.402 80.0396 114.277 82.4759 112.704 82.9239C111.317 83.3186 109.781 83.1478 108.349 83.1614C108.124 83.1636 107.899 83.1692 107.674 83.173C107.63 83.7009 107.454 84.1561 107.185 84.6109C106.993 84.9372 106.747 85.2472 106.505 85.537C105.93 86.226 104.574 86.2104 103.994 85.537C103.565 85.0386 103.223 84.4652 103.218 83.7905C103.216 83.6177 103.238 83.4342 103.279 83.2538L102.498 83.2672C100.586 83.296 98.659 83.2832 96.7813 82.9836C96.1134 83.1199 95.5669 81.9312 96.4888 81.5754C98.9949 80.6086 101.795 80.324 104.454 80.0337C105.821 79.8843 107.195 79.7814 108.565 79.6748ZM129.916 78.6758L129.984 78.6691C131.643 78.5015 133.471 78.2114 135.133 78.3783C137.614 78.6271 137.61 81.9355 135.133 82.1829C134.223 82.2738 133.265 82.2297 132.31 82.1428C132.798 83.1646 132.219 84.3849 131.042 84.5409C129.949 84.6858 128.816 83.6378 129.175 82.5137L129.191 82.4641C129.261 82.269 129.324 82.051 129.399 81.8359L129.003 81.8029C127.82 81.6998 126.179 81.4892 125.743 80.5681C125.612 80.2905 125.643 80.0327 125.845 79.7955C126.674 78.8221 128.718 78.7901 129.916 78.6758ZM112.281 71.101C113.481 70.6709 114.728 71.6775 114.884 72.8118C115.063 74.1189 114.107 74.9795 112.896 75.1356L112.835 75.1429C110.161 75.4334 107.507 75.9646 104.829 76.2649C103.613 76.4012 102.387 76.4908 101.163 76.523L100.288 76.5424C99.2159 76.5692 98.0659 76.5933 97.076 76.2291L97.0798 76.2226C96.8169 76.1474 96.696 75.7735 96.9885 75.569C98.0424 74.834 99.4631 74.5562 100.69 74.2069C101.923 73.8554 103.166 73.5315 104.412 73.2272C107.028 72.589 109.746 72.0093 112.281 71.101ZM123.35 71.4066C123.668 69.7529 126.043 69.5755 126.916 70.7788C127.479 70.9697 128.306 71.1689 128.818 71.3188C129.711 71.5798 130.604 71.8393 131.499 72.0907C133.353 72.6114 135.161 73.2715 136.984 73.8869C137.172 73.9504 137.12 74.1855 136.939 74.2088C134.396 74.5353 131.895 74.6873 129.336 74.5826L128.812 74.5593C126.557 74.4726 122.729 74.6379 123.35 71.4066Z" fill="#232323"/>
<path d="M235.766 56.6716C230.84 56.0964 227.012 57.1872 224.421 59.2506C221.83 61.3141 220.678 64.137 220.129 66.3206L225.836 67.7559C226.238 66.3242 226.872 64.9195 228.103 63.9393C229.334 62.9592 231.202 62.0535 235.085 62.507C238.91 62.9536 240.887 64.1309 241.924 65.3166C242.96 66.5024 243.274 67.8403 243.097 69.3575C242.531 74.2008 240.404 75.3128 237.207 77.542C234.009 79.7712 229.748 83.0591 228.95 89.8865L228.78 91.3453L234.576 92.0221L234.746 90.5633C235.312 85.7199 237.265 84.5876 240.463 82.3584C243.66 80.1293 248.095 76.8616 248.893 70.0342C249.22 67.2333 248.602 63.9671 246.434 61.4071C244.208 58.8403 240.635 57.2401 235.766 56.6716ZM228.099 97.1807L227.417 103.016L233.213 103.693L233.894 97.8575L228.099 97.1807Z" fill="#4F66AF"/>
</svg>
