<svg width="297" height="650" viewBox="0 0 297 650" fill="none" xmlns="http://www.w3.org/2000/svg">
<path fill-rule="evenodd" clip-rule="evenodd" d="M246.883 296.672C246.846 299.195 246.594 304.99 245.961 307.433C253.01 296.124 263.571 283.763 265.178 269.911C264.677 269.774 262.456 269.569 262.068 269.278C258.421 270.974 259.111 265.755 258.572 263.341C257.117 258.23 254.059 253.203 252.73 248.058C249.238 246.546 256.251 245.906 257.27 245.876C253.034 241.154 251.085 234.664 248.069 229.156C243.637 219.796 239.668 210.228 236.123 200.509C235.349 206.598 235.21 212.754 235.682 218.877C237.139 245.104 246.982 270.323 246.883 296.672ZM2.24847 250.083C4.44132 250.452 8.09565 250.801 10.2841 250.98C7.41159 249.266 -1.07827 246.001 4.27195 243.066C5.92164 242.463 7.69186 243.323 9.35537 243.589C16.264 244.727 24.7945 244.667 31.7837 244.094C29.236 242 25.8815 238.986 23.395 236.819C22.0737 235.668 20.7924 235.232 22.2789 233.513C24.8988 231.071 29.5841 232.869 32.6133 233.943C40.9695 238.629 50.4045 243.712 59.373 247.318C59.4669 246.06 59.4089 244.434 60.6203 243.589C64.174 241.913 66.7905 242.403 70.5718 241.956C74.979 241.295 78.8964 240.543 83.261 239.376C86.1157 237.197 87.8564 230.77 92.4212 231.488C88.3783 221.303 94.5404 210.678 96.8552 200.926C99.744 190.946 101.262 180.581 101.303 170.204C101.331 153.59 110.945 140.843 124.835 132.318C130.311 128.616 133.988 119.612 140.768 117.809C141.63 114.497 141.682 113.042 142.44 109.705C142.82 108.747 143.102 103.545 144.058 103.722C145.112 98.5704 150.484 96.5042 155.133 95.4251C161.177 94.1712 169.612 92.6524 175.045 96.1905C176.619 97.5013 177.31 99.6963 177.426 101.657C178.029 104.268 179.285 106.973 180.749 109.238C183.247 108.394 181.833 106.819 184.304 106.452C206.864 103.105 231.906 119.673 246.544 135.836C273.077 163.11 294.273 200.344 290.804 239.217C291.737 239.079 295.873 238.43 295.814 239.738C295.611 245.427 294.565 250.172 294.277 255.856C294.563 263.386 286.748 264.293 281.103 266.15C281.45 287.998 273.521 309.851 261.111 327.81C258.096 331.343 253.572 343.606 248.069 338.721C247.421 337.962 252.45 332.702 253.345 331.403C256.4 327.552 264.493 308.488 258.774 304.681C257.502 308.796 245.189 328.584 242.994 317.353C240.079 319.046 235.262 320.202 231.778 320.027C225.226 323.579 218.852 327.416 212.56 331.403C209.63 337.164 205.332 342.697 201.731 348.229C226.653 405.856 250.979 500.705 283.05 554.983C285.847 558.528 270.463 564.553 267.746 565.853C272.942 574.299 273.593 584.087 277.546 593.182C278.299 593.06 279.059 593.22 279.738 593.584C284.614 596.89 286.454 608.725 286.732 614.56C286.507 617.163 287.471 621.099 285.367 623.016C285.661 623.335 285.881 623.724 286.037 624.121C287.518 625.275 287.335 627.824 286.544 629.405C283.759 635.191 263.406 634.654 256.801 635.891C233.406 637.875 213.769 638.188 190.376 636.019C187.505 635.417 189.677 630.933 191.094 629.716C190.439 629.318 190.021 628.589 190.307 627.654C195.625 612.429 214.846 613.459 226.477 605.329C223.418 603.558 225.392 604.123 227.314 604.812C229.353 603.529 231.337 602.085 233.174 600.49C231.763 599.618 232.459 599.042 233.986 599.772C236.392 597.84 238.266 594.854 241.332 593.918C244.334 593.182 244.334 591.896 244.334 591.086C242.547 583.893 240.595 576.518 239.592 569.223C238.522 570.803 229.289 558.144 227.314 554.983C219.638 542.813 219.658 530.821 214.287 517.586C203.256 488.764 180.66 428.358 166.88 400.794C134.638 453.388 150.342 524.521 130.452 580.605C129.568 582.29 127.906 588.61 125.604 586.787C124.709 586.996 123.758 587.109 122.906 587.23C123.152 593.361 123.611 599.475 124.628 605.542C125.576 605.793 126.382 606.291 126.799 607.162C128.395 605.989 131.452 623.301 131.713 625.064C131.717 627.339 133.676 632.404 131.887 633.756C134.465 634.812 134.886 638.715 133.073 640.721C127.69 647.964 101.451 645.974 91.7714 647.188C79.5304 646.884 28.321 651.472 24.7655 639.847C24.0586 637.193 25.2702 633.843 27.7348 632.822C26.7485 630.517 29.1103 628.292 30.5551 626.675C39.0749 617.803 52.1755 616.406 63.5189 612.545C63.096 612.111 78.3261 604.299 81.6279 602.368C81.41 599.745 86.8552 602.375 86.8703 602.368C89.4666 597.774 91.3056 590.628 93.0464 585.672C89.8337 584.675 82.093 583.79 80.6584 580.605C76.0475 579.057 80.6726 572.363 81.6279 569.223C108.656 501.525 83.0134 416.133 122.906 352.237C115.593 348.045 107.204 338.87 114.427 331.173C115.873 329.323 119.409 323.562 119.351 324.568C120.694 319.083 123.694 309.636 124.628 304.09C128.06 283.728 125.811 264.658 122.906 244.094C118.873 259.567 104.972 272.459 90.8317 279.529C85.3129 281.808 78.0255 286.514 71.9667 285.029C66.4984 283.41 56.5671 272.172 55.3968 266.775C39.4558 268.672 22.9044 267.149 7.67007 262.133C5.71446 261.392 3.40026 261.455 4.00487 258.677C4.60795 256.319 8.90808 256.92 10.757 257.358C7.93083 255.79 0.593966 255.379 0.648276 251.279C0.745613 250.424 1.3759 249.936 2.24847 250.083Z" fill="#FAFAFA"/>
<path fill-rule="evenodd" clip-rule="evenodd" d="M177.37 98.3916C177.128 98.49 176.962 98.8591 176.864 99.4138C176.594 99.4982 176.363 99.6978 176.293 99.9984C176.089 100.883 176.328 101.804 176.512 102.686L176.533 102.787C176.708 103.64 176.921 104.488 177.182 105.32L177.22 105.53C177.854 108.966 179.078 112.234 180.514 111.679L180.182 112.284C174.545 122.526 158.443 150.026 145.871 146.106C138.55 143.168 138.655 133.619 139.19 126.974C144.626 130.312 145.643 104.76 144.529 101.936C143.641 101.283 143.213 107.161 142.883 107.971C142.163 111.195 141.28 114.378 140.451 117.575C138.698 117.923 137.04 118.622 135.574 119.625C135.505 119.665 135.433 119.701 135.364 119.743C134.485 120.279 133.798 120.962 133.186 121.719C132.495 122.494 131.904 123.341 131.345 124.213C130.117 125.609 128.947 127.058 127.738 128.469C127.164 129.139 126.576 129.788 125.976 130.421L125.513 130.811C125.435 130.875 125.358 130.94 125.28 131.004C111.391 139.685 101.775 152.675 101.748 169.594C101.707 180.164 100.19 190.721 97.3007 200.887C94.9861 210.82 87.5076 220.972 91.5503 231.346C86.9855 230.614 86.5615 236.489 83.7069 238.709L82.8099 238.952C78.7996 240.033 75.1215 240.934 71.0183 241.561C67.2367 242.016 62.865 241.516 59.3116 243.224C58.1002 244.085 58.5337 245.638 58.4393 246.919C49.4714 243.246 41.417 238.172 33.0609 233.399L32.781 233.299C29.6881 232.199 24.1708 230.548 21.6296 232.961C20.1432 234.712 21.6438 236.275 22.9652 237.447C25.4516 239.653 28.0892 241.677 30.6366 243.81C23.7723 244.383 16.8866 243.926 10.098 242.811L9.72778 242.749C8.06455 242.478 6.10329 241.83 4.45344 242.444C-0.896383 245.434 5.29396 248.923 8.16638 250.669C5.97777 250.487 3.7929 250.214 1.59991 249.839C0.727584 249.689 0.0973096 250.186 0.000785459 251.057C-0.0543323 255.233 5.44075 255.459 8.26665 257.056L8.04012 257.002C6.19256 256.574 3.53615 256.198 2.95721 258.503C2.3524 261.333 6.1632 262.477 8.11875 263.231C23.3525 268.34 39.9034 269.892 55.8436 267.959C57.0137 273.457 66.945 284.903 72.4132 286.553C78.4718 288.065 85.759 283.272 91.2776 280.95C105.418 273.749 118.52 261.87 122.552 246.109C125.941 270.547 124.571 295.184 119.484 319.229C118.66 321.103 117.791 322.949 116.814 324.747C116.518 324.795 116.268 324.992 116.21 325.392C116.18 325.611 116.136 325.824 116.086 326.034C115.113 327.69 114.046 329.281 113.055 330.928C112.851 331.268 112.649 331.621 112.464 331.982C105.869 339.769 113.907 349.804 121.096 354.001C81.2047 419.085 106.969 501.104 79.9422 570.06L79.8821 570.257C78.8562 573.536 75.7318 580.287 80.2505 581.832C81.685 585.076 88.9143 585.458 92.1266 586.474C90.3861 591.521 88.4508 596.513 85.8546 601.192L85.8077 601.213C84.7736 600.451 82.5563 599.665 81.6398 600.494C81.4169 600.523 81.1948 600.585 80.978 600.693C79.5597 601.399 78.4187 602.748 77.0621 603.597C76.3284 604.057 75.5658 604.474 74.7804 604.838C74.0494 605.177 73.2725 605.401 72.6761 605.96C72.4875 606.136 72.4399 606.361 72.4865 606.567C72.0155 606.812 71.545 607.057 71.0761 607.304L70.8213 607.144C66.6758 604.559 63.3423 603.158 69.3727 608.125C67.2119 609.126 64.9959 610.001 62.7658 610.82C61.0719 610.004 59.264 609.409 57.4 609.327C57.0649 609.743 59.627 611.346 60.0496 611.788C48.7068 615.721 36.2307 618.8 27.7113 627.837L27.5201 628.053C26.0695 629.679 23.9475 631.851 24.8909 634.097C22.4266 635.138 21.2146 638.55 21.9219 641.253C25.477 653.094 79.9766 648.421 92.217 648.731C101.897 647.494 128.135 649.521 133.518 642.144C135.33 640.1 134.909 636.125 132.331 635.049C134.12 633.673 132.162 628.513 132.157 626.196L132.116 625.928C131.842 624.198 130.655 617.428 129.422 612.697C129.397 612.324 129.347 611.942 129.287 611.557L129.249 611.313C129.004 609.805 128.627 608.271 127.654 607.058C126.956 606.188 125.988 605.65 124.937 605.456C124.655 603.654 124.424 601.849 124.226 600.04C124.086 597.914 124.033 595.783 124.057 593.652C124.07 592.576 124.098 591.501 124.15 590.426C124.189 589.635 124.144 588.695 124.344 587.887C124.478 588.023 124.668 588.097 124.881 588.024C125.334 587.869 125.751 587.582 126.166 587.348C126.182 587.339 126.194 587.329 126.208 587.319C128.427 588.762 130.034 582.587 130.897 580.911C150.786 523.784 135.082 458.04 167.323 404.468C171.774 414.033 175.599 422.808 179.883 432.439C193.263 462.519 209.78 515.502 220.857 547.351C223.871 553.862 227.413 560.154 231.624 565.968C232.97 567.496 233.873 569.745 235.822 570.567L235.992 570.593C236.513 571.566 237.235 572.385 238.308 572.358C238.571 572.351 238.84 572.322 239.111 572.275C240.063 578.902 241.259 585.571 242.85 592.093L242.635 592.003C241.594 591.572 240.499 591.205 239.431 591.301C236.838 591.958 237.798 594.229 239.848 594.977C237.296 595.771 235.57 598.009 233.675 599.873C232.074 599.009 230.279 598.561 228.362 598.75C228.068 598.778 227.844 598.907 227.689 599.083C227.579 599.084 227.472 599.09 227.37 599.107L227.579 599.233C227.238 599.807 227.482 600.68 228.362 600.685C229.052 600.689 229.718 600.751 230.361 600.87C230.807 601.132 231.252 601.396 231.69 601.672C230.212 602.979 228.638 604.185 227.017 605.288C226.161 604.85 225.255 604.482 224.314 604.188C223.098 603.808 222.567 605.743 223.788 606.094C224.048 606.168 224.304 606.251 224.559 606.339L224.81 606.491C224.869 606.526 224.929 606.563 224.993 606.6C213.363 614.882 193.704 613.833 188.386 629.34C188.21 629.925 188.301 630.43 188.548 630.828C187.395 631.886 186.864 633.79 187.123 635.25L187.101 635.372C186.903 636.554 187.188 637.592 188.455 637.861C196.913 638.65 205.35 639.152 213.845 639.306L214.531 639.312C226.701 639.394 285.899 638.951 288.569 631.124C289.282 629.675 289.501 627.427 288.459 626.135C288.338 625.44 288.1 624.807 287.677 624.311C289.391 622.577 288.548 618.205 288.758 616.003C288.381 608.652 286.892 600.77 282.406 594.755C282.332 594.66 282.244 594.601 282.152 594.573C281.369 593.784 280.339 593.286 279.162 593.219C279.126 593.128 279.088 593.036 279.052 592.945C278.137 590.783 277.268 588.583 276.405 586.372C275.764 583.859 275.095 581.354 274.426 578.861C273.757 576.371 273.102 573.877 272.462 571.38C271.952 569.389 271.513 567.145 270.63 565.243C270.654 565.161 270.677 565.08 270.704 564.999L271.622 564.627C277.638 562.178 287.17 558.047 285.076 555.32C262.758 508.877 240.912 442.759 220.43 394.611C220.11 393.667 219.772 392.728 219.401 391.799C218.496 389.535 217.58 387.275 216.651 385.021L216.091 383.669L207.169 362.169C206.235 359.918 205.182 357.68 204.446 355.354C203.736 353.115 203.546 350.886 204.893 348.848C206.099 347.024 207.798 345.514 209.157 343.801C210.185 342.505 211.187 341.121 212.085 339.667C212.901 338.59 213.582 337.358 214.19 336.365C215.165 334.773 216.404 333.011 217.112 331.172C218.024 330.596 218.938 330.023 219.855 329.456C221.439 328.566 222.998 327.635 224.516 326.628C226.432 325.487 228.36 324.366 230.304 323.27C231.006 322.921 231.708 322.574 232.411 322.227C234.516 322.41 240.334 319.811 242.316 318.052C242.542 318.006 242.768 317.955 242.992 317.898C243.081 319.022 243.448 320.039 244.302 320.793C249.981 323.615 257.219 310.834 259.213 306.57C263.178 310.448 253.719 329.632 250.663 333.554L250.5 333.797C249.683 335.024 248.826 336.401 247.667 337.307L247.55 337.396C246.756 337.984 246.608 338.904 247.256 339.678C252.76 344.653 258.536 333.728 261.551 330.128C273.96 311.836 281.89 289.576 281.542 267.323C287.187 265.431 295.002 264.507 294.715 256.837C295.004 251.047 296.049 245.32 296.253 239.525C296.312 238.193 292.176 238.854 291.242 238.994C292.617 225.681 290.54 212.165 286.835 199.37C277.108 166.631 237.053 107.623 197.628 105.493C197.662 105.428 197.646 105.342 197.557 105.318C195.773 104.854 193.801 104.929 191.967 104.987C190.059 105.048 188.119 105.061 186.22 105.277C184.253 105.5 182.169 106.225 180.847 107.658L180.39 106.83C179.858 105.865 179.346 104.889 178.959 103.823C178.763 103.285 178.61 102.727 178.47 102.162C178.312 101.358 178.272 100.52 177.892 99.7894C177.882 99.7703 177.869 99.7544 177.858 99.7367C177.721 99.2762 177.565 98.8251 177.37 98.3916ZM128.983 635.021C129.546 635.595 130.523 635.845 131.388 635.571C134.263 643.75 118.665 643.237 113.659 643.697C108.321 644.267 11.0822 649.331 27.5269 637.338C46.8199 644.702 111.348 645.514 128.983 635.021ZM81.6278 602.587C82.9258 603.928 84.8831 604.524 86.2756 605.803C90.2119 609.137 93.3784 613.828 98.8186 614.712C105.966 616.047 112.409 612.515 118.802 609.718C119.598 609.68 120.428 609.343 121.244 609.094C121.273 609.153 121.302 609.213 121.335 609.267C121.375 609.252 121.417 609.238 121.464 609.231C121.535 609.219 121.603 609.211 121.672 609.201C121.837 609.07 122.01 608.96 122.189 608.866C122.297 608.85 122.404 608.837 122.511 608.83C123.829 608.749 125.259 609.056 126.105 610.15C126.177 610.243 126.243 610.341 126.306 610.441C126.716 611.895 126.768 613.654 126.57 614.884C126.506 615.286 126.674 615.681 126.957 615.909C127.209 621.994 127.893 628.105 128.371 634.11C125.98 634.97 123.499 635.625 121.016 636.04C103.879 638.15 86.5598 639.13 69.2917 638.599C59.0121 638.227 48.7469 637.308 38.574 635.779C35.2855 635.469 31.9195 634.195 28.6332 634.709C28.4932 634.445 28.2748 634.218 27.9715 634.064C36.395 622.514 50.7929 619.392 63.345 614.328C65.4181 615.655 66.6944 618.418 69.0035 619.242C69.9 619.376 71.1465 618.847 71.015 617.708C70.6424 615.377 68.1275 614.314 66.434 612.961C68.2512 612.111 70.0339 611.187 71.7728 610.16C73.481 611.702 75.5026 612.875 77.102 614.519C76.1928 616.742 79.983 616.549 80.0253 614.184C79.7631 611.567 75.6227 610.459 73.7733 608.934C76.6618 607.174 79.2417 604.954 81.6278 602.587ZM285.138 625.455C285.239 625.654 285.403 625.835 285.646 625.976C286.068 626.22 285.865 627.51 285.844 627.945L285.843 627.977C285.82 628.758 285.771 629.536 285.703 630.314C284.992 630.956 284.083 631.444 283.073 631.738C252.309 636.653 220.955 637.052 189.894 635.267C190.037 634.441 190.64 633.76 191.175 633.071C210.811 634.742 230.919 632.993 250.589 631.365C262.087 629.851 274.135 629.225 285.138 625.455ZM240.349 595.209C245.419 596.957 250.137 599.381 254.631 602.286C256.301 603.373 257.895 604.621 259.815 605.245C266.462 607.248 276.428 597.626 276.588 597.518C278.896 595.962 281.344 597.413 282.6 599.569C282.716 599.769 284.641 610.799 284.583 616.202C284.928 618.039 284.007 621.041 284.497 623.044C284.112 623.509 283.562 623.727 283.192 624.213C283.058 624.389 283.096 624.589 283.211 624.739C265.261 626.218 247.415 629.024 229.379 629.617C217.036 630.27 204.668 630.12 192.323 629.97C195.131 621.713 204.699 619.532 212.006 616.814C217.528 614.828 222.611 611.869 227.084 608.066C229.024 609.429 230.554 611.339 231.928 613.259C232.552 614.039 233.834 614.628 234.503 613.547C235.192 612.426 233.847 611.008 232.187 609.766C231.314 608.471 230.213 607.369 228.946 606.46C230.347 605.209 231.697 603.906 232.961 602.52C235.583 604.299 237.509 606.857 239.395 609.34C240.301 610.33 241.996 609.021 241.253 607.906C240.657 607.136 239.987 606.427 239.268 605.762C238.186 603.718 236.628 601.83 234.737 600.523L234.881 600.34C236.461 598.31 237.826 595.876 240.349 595.209ZM285.022 624.159C285.065 624.213 285.111 624.265 285.16 624.314C285.116 624.403 285.083 624.496 285.058 624.591L284.598 624.628C284.758 624.495 284.898 624.333 285.022 624.159ZM93.8131 586.809C103.218 588.586 112.933 589.27 122.426 587.802C121.326 593.94 120.638 600.116 120.999 606.35C106.805 610.452 100.908 617.292 89.0993 603.622C89.6698 602.752 89.999 601.684 90.3822 600.654C92.014 596.184 93.3628 591.561 93.8131 586.809ZM266.551 566.677C266.685 566.974 266.927 567.218 267.275 567.326C267.4 567.876 267.528 568.425 267.665 568.973C267.895 571.801 268.962 574.604 270.064 577.213L270.289 577.754C271.016 579.923 271.779 582.089 272.531 584.257C273.1 586.509 273.602 588.78 274.127 591.043C274.228 592.578 274.446 594.1 274.78 595.604C274.796 595.675 274.817 595.739 274.84 595.801C274.314 596.036 273.807 596.308 273.328 596.582C258.929 607.413 261.416 600.172 247.59 594.108C247.669 593.526 247.378 593 247.14 592.397L247.11 592.318C247.095 592.28 247.081 592.241 247.066 592.203C247.089 591.973 247.076 591.726 247.015 591.464C245.615 585.729 243.665 580.095 241.84 574.484C241.548 573.64 241.21 572.814 240.864 571.99C249.63 571.877 258.301 569.54 266.551 566.677ZM270.343 569.462C270.513 570.212 270.698 570.951 270.866 571.665L271.114 572.73C270.761 571.653 270.483 570.561 270.343 569.462ZM186.952 106.892C190.003 107.635 193.129 107.938 196.198 108.555C217.346 111.079 233.56 126.092 247.527 140.999C273.984 168.817 289.377 203.046 288.241 241.732C278.793 243.455 269.442 245.977 259.816 246.528C261.215 244.407 258.872 241.754 258.066 239.722C244.142 212.793 233.391 183.065 224.661 154.713L224.898 155.951C227.64 170.18 230.833 184.349 235.706 198.017C234.295 196.628 211.103 178.164 212.916 184.269C220.001 189.813 228.004 194.206 235.428 199.293C226.601 228.812 239.363 258.722 241.788 288.252C242.397 294.819 242.344 301.431 243.163 307.972C243.474 308.712 243.146 310.216 243.605 310.92C243.265 312.656 242.551 314.238 241.077 315.594C240.457 316.164 239.78 316.658 239.068 317.099C237.291 317.367 235.505 318.053 234.058 318.687C230.837 320.099 228.002 322.181 225.123 324.17L225.046 324.222C220.404 326.61 215.767 329.322 211.112 332.151L210.905 332.26C209.173 333.169 207.403 333.99 205.895 335.251C205.826 335.309 205.78 335.375 205.75 335.443L202.923 337.191C180.279 351.18 156.93 365.015 130.381 355.03C122.922 352.022 112.077 345.928 113.47 336.505C113.744 335.601 114.162 334.753 114.634 333.926C114.766 333.749 114.901 333.574 115.036 333.402C116.065 332.101 117.217 330.907 118.11 329.501C118.473 328.929 118.799 328.34 119.084 327.734C119.286 327.673 119.465 327.531 119.578 327.284C120.856 324.494 122.107 321.7 123.273 318.86C137.406 269.539 120.251 216.545 115.398 166.799C115.062 163.95 114.567 161.073 114.568 158.203C114.568 158.069 114.373 158.073 114.362 158.203C112.651 170.9 113.949 183.715 115.576 196.355C117.66 212.167 120.398 227.913 122.279 243.754C117.279 259.721 103.275 271.259 88.5713 278.177C86.0695 279.367 83.5115 280.427 80.9033 281.361L80.7284 281.422C77.8625 282.425 74.6281 283.977 71.8632 281.943C66.5573 278.339 62.8114 272.838 59.3728 267.541C60.7639 267.39 62.1568 267.26 63.5508 267.164C66.9734 271.083 71.1669 274.409 75.5924 277.128C77.3958 278.163 79.4447 277.725 80.2784 275.7C81.0652 273.789 80.1017 271.556 79.4041 269.714L79.3033 269.445C75.7715 259.911 69.6389 251.174 61.3587 245.203C67.6058 243.953 74.0946 243.991 80.0874 241.52C79.7607 241.864 80.1888 242.248 80.3968 242.54C80.3229 243.105 80.7331 243.518 81.2372 243.669C86.127 250.064 89.8329 257.638 90.6067 265.749C90.4008 268.511 92.8703 271.701 95.2483 268.801C97.1082 260.727 89.7921 248.109 83.3588 243.126C89.8101 238.694 87.9296 232.297 91.9798 232.268C93.0264 234.279 94.392 236.204 96.1132 237.698C96.8912 238.331 97.8359 238.808 98.6709 239.37C99.5492 239.961 100.463 238.661 99.768 237.947L99.5845 237.726C96.9429 234.564 93.8061 231.455 93.2605 227.176C92.4718 221.906 94.8377 216.568 96.6513 211.755C100.128 202.527 102.434 192.926 103.557 183.128C104.83 174.349 103.283 165.243 106.285 156.748C106.882 154.382 107.74 152.228 108.792 150.228C108.817 150.207 108.842 150.186 108.864 150.16C110.113 148.714 111.111 147.105 112.275 145.59C113.493 144.006 114.813 142.498 116.212 141.072C118.549 138.688 121.129 136.698 123.818 134.783C123.868 134.765 123.918 134.742 123.969 134.712C124.473 134.414 124.957 134.052 125.424 133.654L125.469 133.623C127.033 132.535 128.629 131.354 129.85 129.876C131.048 128.426 131.901 126.734 132.879 125.137C134.217 123.504 135.491 121.754 137.104 120.394C138.016 119.872 138.966 119.381 139.78 118.729C139.913 118.673 140.049 118.62 140.186 118.57C139.839 119.986 139.314 121.289 138.842 122.728C138.156 122.438 137.219 122.759 137.103 123.816L137.061 124.21C136.373 130.68 136.025 138.509 139.826 144.111C148.196 156.259 160.699 145.887 167.022 137.345C172.696 130.533 177.467 122.955 180.99 114.811L181.048 114.703C181.704 113.457 183.126 109.656 183.527 107.83C184.543 107.295 185.779 107.035 186.952 106.892ZM213.75 333.309C213.776 333.341 213.805 333.369 213.836 333.393C212.649 335.081 211.518 336.826 210.352 338.52C211.308 336.957 212.206 335.381 213.002 333.788C213.251 333.627 213.501 333.469 213.75 333.309ZM280.19 267.743C275.653 292.397 269.169 318.335 251.103 336.767C256.726 328.841 261.098 319.587 262.37 309.895C262.423 307.293 261.476 304.545 258.601 304.16C258.11 304.094 257.737 304.534 257.562 304.926L257.545 304.965C256.414 307.668 254.943 310.238 253.201 312.593L253.03 312.816C251.716 314.517 246.137 321.452 245.359 318.137C245.928 301.381 263.231 294.472 266.064 271.395C270.912 270.881 275.513 269.038 280.19 267.743ZM242.994 316.645C242.976 316.908 242.967 317.168 242.971 317.425C242.714 317.319 242.449 317.233 242.179 317.167C242.454 316.997 242.725 316.823 242.994 316.645ZM243.251 314.839C243.156 315.321 243.076 315.807 243.026 316.288C242.532 316.445 242.044 316.617 241.558 316.795C241.853 316.531 242.133 316.25 242.395 315.952C242.702 315.604 242.989 315.23 243.251 314.839ZM236.564 200.462C240.108 210.361 244.078 220.108 248.51 229.642C251.485 235.221 253.471 241.722 257.589 246.563C257.629 246.602 257.669 246.638 257.71 246.672L257.642 246.674C256.415 246.729 249.748 247.385 253.17 248.894C254.499 254.135 256.24 259.255 257.696 264.461L257.728 264.612C258.261 267.13 258.934 272.202 262.508 270.509C262.896 270.806 263.361 271.015 263.862 271.154C262.255 285.263 253.339 294.448 246.29 305.968C247.866 299.888 247.405 293.54 246.857 287.332L246.721 285.805C243.809 257.343 233.121 229.356 236.564 200.462ZM206.965 290.932C212.709 283.765 240.965 212.81 220.997 255.797C213.9 270.762 208.058 286.783 196.35 298.909C195.541 299.779 196.607 301.309 197.659 300.606C201.439 298.081 204.497 294.731 206.965 290.932ZM227.415 205.173C227.438 205.058 227.291 204.994 227.226 205.093C219.549 220.261 214.068 236.561 205.393 251.27C200.157 260.377 193.874 268.867 186.679 276.523C186.139 277.098 186.952 277.892 187.537 277.382C208.076 258.419 218.062 230.853 227.415 205.173ZM76.0333 267.619L76.0458 267.621L76.2346 268.11C76.2987 268.275 76.364 268.441 76.4298 268.609C76.3984 268.595 76.3668 268.582 76.3352 268.569C76.2679 268.501 76.2005 268.432 76.1331 268.36C76.1483 268.111 76.1173 267.86 76.0333 267.619ZM291.161 239.59C292.204 240 293.485 240.077 294.638 240.177C293.347 246.262 292.233 252.393 291.065 258.494C290.525 260.367 289.255 261.024 287.498 261.618L286.085 262.07C279.491 264.184 272.86 266.356 266.061 267.653C265.583 267.342 264.904 267.357 264.587 267.856C264.256 267.887 263.917 267.905 263.581 267.937C261.765 261.223 258.656 254.718 254.496 249.149C266.123 249.524 277.834 246.456 288.895 243.025C289.343 243.242 289.933 243.106 290.122 242.591L290.292 242.543C292.149 241.991 294.611 240.637 290.709 241.325C290.944 240.775 291.075 240.184 291.161 239.59ZM23.8118 234.622C31.5188 233.347 37.4085 239.596 43.9859 242.465C47.924 244.155 58.4184 249.398 62.2336 247.654C67.4643 252.693 71.8805 258.579 74.9687 265.185C74.1269 265.134 73.2848 265.097 72.4428 265.07C70.9178 264.58 69.2899 264.555 67.7066 265.027C51.8465 265.202 35.9759 268.286 20.1797 264.377L19.8162 264.309C16.5713 263.693 5.49283 261.35 4.86186 259.053C5.02755 258.054 8.0064 259.11 8.57895 259.223C13.1317 260.12 17.7576 260.548 22.3709 260.998C23.654 261.122 23.6378 259.125 22.3709 258.998C16.8179 258.445 11.5565 256.359 6.46101 254.188C5.9194 253.948 4.4844 253.45 3.49159 252.804C8.19951 253.605 13.0507 253.744 17.8144 253.574C19.4544 253.362 19.57 250.869 17.8144 250.918C14.5985 251.274 11.5262 249.685 8.90087 248.009L8.32952 247.637C3.95347 244.783 4.25924 244.659 9.78945 245.72C17.916 247.201 26.1404 247.146 34.3471 246.581C35.5183 246.561 36.327 244.984 35.3579 244.139C31.5791 240.874 27.528 237.962 23.8118 234.622ZM61.0644 246.514L61.1537 246.599C61.3423 246.78 61.497 246.941 61.5835 247.026L61.6185 247.06C61.7346 247.169 61.8472 247.282 61.9622 247.392C61.4583 247.561 60.9024 247.571 60.329 247.482C60.6751 247.265 60.9323 246.912 61.0644 246.514ZM205.874 220.378L205.831 220.424C200.873 225.792 195.849 234.498 191.741 241.364C191.2 246.991 203.344 223.644 205.856 220.401L205.874 220.378ZM81.1044 241.148C81.0564 241.207 81.0101 241.269 80.9652 241.331L80.899 241.426L80.7923 241.36C80.753 241.337 80.7118 241.322 80.6696 241.311C80.8149 241.258 80.9595 241.202 81.1044 241.148ZM103.787 222.821C99.3259 223.522 108.447 229.068 109.651 229.862C110.422 230.156 117.752 236.211 117.307 234.246L117.1 233.98C113.686 229.633 109.034 224.661 103.787 222.821ZM278.28 211.199C276.63 208.541 267.651 212.041 264.813 212.46C263.217 212.882 261.639 213.38 260.027 213.734C258.767 214.192 252.891 213.748 255.047 216.241C257.297 217.451 260.235 216.516 262.539 215.873C267.124 214.62 271.724 213.158 276.419 212.462C276.56 212.392 276.568 212.439 276.445 212.606C275.435 214.851 273.311 216.958 270.919 217.682C270.754 217.73 270.823 217.983 270.991 217.94C273.602 217.421 279.683 214.522 278.28 211.199Z" fill="#232323"/>
<path fill-rule="evenodd" clip-rule="evenodd" d="M125.867 38.1882C126.716 33.0385 123.93 31.97 125.867 27.0748C130.172 18.0043 141.906 18.3951 150.516 17.6977C160.12 17.3287 169.84 18.5999 178.693 22.4592C180.808 23.381 182.842 24.465 184.792 25.6967C186.478 26.7618 186.246 28.7869 185.183 29.8916C192.849 40.7761 188.465 55.3862 194.581 66.8434C195.711 68.8914 197.206 70.7279 198.188 72.8588C199.681 76.0979 199.776 80.7392 196.391 82.8903C191.622 85.4565 188.961 80.3756 186.618 87.741C174.917 113.422 151.391 114.869 129.057 101.479C127.125 100.402 125.153 99.1836 123.694 97.4906C120.382 93.7535 120.772 88.4982 120.699 83.8314C120.658 81.0966 120.651 78.3613 120.678 75.626C120.782 64.5462 124.444 49.1767 125.867 38.1882Z" fill="#FAFAFA"/>
<path fill-rule="evenodd" clip-rule="evenodd" d="M173.436 7.38698C159.951 1.25383 144.657 -1.07201 129.947 0.453561C122.687 1.20537 115.522 2.81832 108.704 5.43839L108.106 5.66998C106.423 6.31952 104.608 6.96427 103.329 8.28645C101.84 9.82305 101.423 12.1467 102.487 14.0448C103.314 15.5197 104.8 16.5777 106.385 17.1423C105.827 17.6008 105.297 18.1123 104.8 18.6833C103.962 19.6401 103.899 21.0045 104.8 21.9483C106.537 23.7671 108.791 25.083 111.218 25.7137C110.946 27.0343 111.093 28.4959 111.678 29.812C113.356 33.59 118.084 34.0403 121.722 33.8159L121.832 33.8089L122.034 36.1304C122.142 37.3671 122.88 38.3261 124.134 38.5157C124.178 38.5223 124.222 38.5268 124.266 38.5309C122.282 45.7225 121.084 53.1363 119.978 60.5065C119.4 64.3537 118.883 68.2098 118.388 72.0685L118.223 73.3548C117.696 77.5149 117.036 81.7168 116.807 85.9077C116.603 89.7106 117.326 93.3416 119.664 96.4104C121.761 99.1617 124.622 101.223 127.698 102.753C134.648 106.212 141.963 108.787 149.65 109.982L150.163 110.061C153.13 110.515 156.187 110.898 159.122 110.074C161.701 109.351 164.406 107.486 163.823 104.49C163.627 103.478 162.216 103.434 161.732 104.217L161.62 104.396C161.04 105.319 160.405 106.177 159.392 106.653C158.207 107.213 156.833 107.369 155.538 107.385C151.921 107.427 148.155 106.523 144.672 105.617C138.168 103.924 131.488 101.163 126.161 96.9813C123.894 95.2044 122.073 92.9822 121.431 90.1229C120.638 86.5977 121.368 82.7441 121.728 79.2014C122.47 71.8911 123.353 64.5944 124.285 57.3058L124.472 55.8482C125.257 49.7547 126.081 43.659 126.473 37.5303C126.636 37.3076 126.746 37.0541 126.79 36.7763L126.851 36.3773C126.904 36.0356 126.913 35.7225 126.875 35.4337C126.873 34.327 126.842 33.2269 126.779 32.12C126.768 31.9218 126.759 31.7234 126.752 31.5272C127.9 31.7807 129.057 31.9857 130.218 32.1599C138.379 33.3923 146.668 33.7009 154.896 33.088C159.001 32.7814 163.075 32.2547 167.136 31.5955C169.203 31.2604 171.263 30.8901 173.317 30.4756C174.801 30.178 176.255 29.7745 177.715 29.3954C179.221 31.5933 180.034 34.2984 179.876 36.9549C179.698 39.9862 177.684 42.7353 178.249 45.8327C178.779 48.7316 181.256 49.6304 183.702 50.3483L184.742 50.6496C185.542 50.8838 186.123 51.1098 186.268 52.0739C186.516 53.7296 186.21 55.5925 186.147 57.2569C186.07 59.2256 185.969 61.1943 185.922 63.163C185.898 64.1815 185.859 65.2044 185.861 66.223C185.863 66.9461 185.971 67.4399 186.25 67.907C186.035 68.1784 185.841 68.4716 185.67 68.7825C185.615 68.8839 185.751 68.9917 185.832 68.9081C186.05 68.6811 186.281 68.4761 186.525 68.2928C186.648 68.4452 186.791 68.5995 186.958 68.7648L186.971 68.7472C187.494 69.2697 188.326 69.3204 188.974 68.7648L189.145 68.6169C189.62 68.1995 189.946 67.8519 190.078 67.1621C190.085 67.1268 190.091 67.0916 190.096 67.0563C191.303 67.0144 192.53 67.3008 193.616 67.9029C195.337 68.8574 196.549 70.2177 197.265 71.8976C196.98 72.2327 196.646 72.5325 196.256 72.7838C196.201 72.8213 196.25 72.9029 196.309 72.8742C196.707 72.6868 197.063 72.4553 197.382 72.1842C197.639 72.8455 197.82 73.5554 197.93 74.3072C198.317 76.9615 197.626 80.2044 195.234 81.7168C194.198 82.3716 193.016 82.7265 191.789 82.7309C191.191 82.7329 190.674 82.6317 190.093 82.4884C189.7 82.3914 189.308 82.2503 188.897 82.2503C188.545 82.2503 188.22 82.3385 187.919 82.5148L188.002 82.5222C188.205 82.5413 188.166 82.5499 187.884 82.5499C187.004 82.5876 186.501 83.4827 186.905 84.2609L186.958 84.3811C186.969 84.4054 186.979 84.4255 186.986 84.4414L187.018 84.6479C187.022 84.6675 187.025 84.6877 187.028 84.7084L187.041 84.7502C187.043 84.7569 187.045 84.7635 187.048 84.7701L185.729 86.787C184.112 89.2542 182.459 91.7119 180.577 93.9655C179.258 95.5462 177.86 97.096 176.382 98.5312C175.054 99.8208 173.462 100.443 171.958 101.457C171.155 101.995 170.92 103.121 171.65 103.846C173.792 105.978 176.824 104.285 178.581 102.552C180.243 100.91 181.679 98.9346 182.917 96.9571C185.113 93.4408 186.861 89.7018 187.626 85.6432C187.945 85.9364 188.352 86.1193 188.763 86.2626C189.588 86.5492 190.496 86.6683 191.366 86.6992C193.035 86.7543 194.706 86.3486 196.208 85.6299C202.318 82.7089 203.215 73.9611 199.48 68.8023C199.983 67.3377 200.265 65.7485 200.57 64.3933L200.71 63.7875C202.254 57.021 203.291 49.897 200.553 43.2666C200.201 42.4112 199.805 41.5779 199.337 40.7798C198.961 40.1383 198.314 39.4549 198.136 38.7252C197.741 37.1224 200.183 35.4381 200.896 34.1661C201.733 32.6736 201.852 30.9121 200.711 29.5473C200.566 29.3755 200.408 29.2166 200.236 29.0779C201.318 27.1114 201.368 24.6379 199.944 22.6978C199.007 21.4192 197.578 20.5241 196.017 20.2529C195.063 20.0876 193.915 20.1493 192.866 20.4447C187.123 15.0986 180.571 10.6321 173.436 7.38698ZM195.489 74.2807C193.956 72.9249 192.263 72.2151 190.175 72.3936C188.075 72.5742 185.546 73.4452 184.313 75.2508C183.339 76.6771 185.324 78.7693 186.753 77.6979C188.055 76.7212 188.924 75.6189 190.54 75.0942C191.991 74.6247 193.787 74.3226 195.307 74.5916C195.474 74.6203 195.641 74.413 195.489 74.2807Z" fill="#232323"/>
<path fill-rule="evenodd" clip-rule="evenodd" d="M161.266 86.8079C161.243 84.4013 159.161 83.9862 157.184 84.3071C153.837 84.8497 150.477 85.2315 147.084 85.3003L146.5 85.3106C146.406 85.173 146.248 85.0686 146.035 85.0456C144.154 84.8421 142.233 84.875 140.342 84.8191C138.692 84.7706 136.997 84.6053 135.348 84.735L135.217 84.7466C133.201 84.9422 131.074 85.9731 131.317 88.3435C131.541 90.5385 133.635 92.4816 135.307 93.7014C135.645 93.9458 135.991 94.1749 136.347 94.3837C136.458 94.5264 136.621 94.6258 136.809 94.6461C138.456 95.5373 140.273 96.0646 142.154 96.2402C146.141 96.6119 150.777 96.2096 154.607 94.4781C155.852 93.9152 157.014 93.2123 158.04 92.3491C159.624 91.0173 161.283 88.9979 161.266 86.8079ZM145.554 91.58C147.153 91.5317 148.749 91.7558 150.271 92.2499C151.303 92.5834 152.243 93.225 153.232 93.6708C149.9 94.944 146.03 95.2216 142.611 94.9899C141.112 94.8881 139.658 94.5417 138.303 93.9458C138.514 93.7931 138.728 93.6378 138.952 93.5026C139.628 93.0926 140.334 92.7438 141.071 92.4661C142.507 91.9264 144.022 91.6285 145.554 91.58ZM145.019 70.5343C145.45 70.2241 145.108 69.1967 144.186 69.3554C135.816 70.7964 140.153 85.2435 150.839 77.3156C152.112 76.2871 150.571 74.0219 149.2 74.9026L148.713 75.2788C147.13 76.4946 144.511 78.3328 142.635 76.3603C140.864 73.8747 143.372 71.5369 145.019 70.5343ZM139.352 59.6001C137.573 58.079 135.341 59.2 134.031 60.7407L133.8 61.0162C133.538 61.3305 133.248 61.6966 133.074 62.088C131.622 60.8495 129.653 59.978 127.77 60.5437C125.943 61.0944 124.901 62.8418 125.215 64.7179C125.571 66.8514 127.182 68.2854 128.913 69.3942L129.404 69.7065C131.484 71.0352 133.43 72.3738 135.142 74.2002C135.422 74.4971 136.025 74.4577 136.208 74.0626L136.356 73.7446L136.505 73.4267C137.719 70.832 139.02 68.2543 140.089 65.5984C140.88 63.6302 141.137 61.1248 139.352 59.6001ZM159.635 60.978L159.364 60.664C158.06 59.1437 155.852 58.1258 154.11 59.6002C152.255 61.1707 152.619 63.7679 153.445 65.7709C154.44 68.1867 155.602 70.5493 156.719 72.9189L156.957 73.4269C157.057 73.6387 157.155 73.8506 157.253 74.0625C157.437 74.4578 158.042 74.4972 158.319 74.2001C159.978 72.4308 161.855 71.1217 163.859 69.835L164.464 69.4492C166.224 68.3309 167.887 66.8871 168.249 64.718C168.559 62.8461 167.523 61.0877 165.694 60.5436C163.806 59.9825 161.842 60.8475 160.388 62.0881C160.215 61.6868 159.917 61.3088 159.635 60.978ZM157.249 50.0714C156.613 50.8997 157.293 52.2533 158.222 52.4673C159.374 52.7327 160.537 52.5713 161.668 52.9005C162.703 53.2021 163.696 53.8065 164.584 54.409C165.596 55.0957 166.529 55.8624 167.386 56.7359C167.895 57.2555 168.538 58.4866 169.324 58.5095C170.105 58.5325 169.056 56.0837 168.969 55.8718C168.353 54.3635 167.488 52.9756 166.405 51.7598C164.268 49.3608 159.743 46.8294 157.249 50.0714ZM133.39 49.4084L132.856 49.5569C131.537 49.9245 130.128 50.3762 128.996 51.1689L128.907 51.232L128.77 51.3324C127.348 52.3943 125.338 54.513 126.344 56.3614C126.414 56.4888 126.561 56.5014 126.68 56.4494C128.019 55.8616 129.012 54.6878 130.437 54.1968L130.699 54.1071C132.079 53.6414 133.786 53.1518 135.271 53.1964C136.315 53.5364 137.725 53.2548 137.997 51.9812L138.01 51.9188L138.033 51.7868C138.19 50.9166 137.957 49.8072 137.059 49.3878C135.829 48.8133 134.628 49.0689 133.39 49.4084Z" fill="#232323"/>
</svg>
