<svg width="54" height="54" viewBox="0 0 54 54" fill="none" xmlns="http://www.w3.org/2000/svg">
<circle cx="27.2302" cy="26.4153" r="23.2244" fill="#FAFAFA"/>
<path d="M21.2019 13.0979C19.7123 13.1682 18.695 13.4059 17.8057 13.7554C16.8853 14.114 16.1053 14.5954 15.3291 15.3743C14.5529 16.1533 14.075 16.9339 13.7188 17.8557C13.3741 18.7469 13.1406 19.765 13.0748 21.2555C13.009 22.7459 12.9944 23.225 13.0017 27.0268C13.009 30.8287 13.0258 31.3053 13.098 32.7988C13.1691 34.2881 13.406 35.3051 13.7555 36.1946C14.1147 37.115 14.5955 37.8948 15.3747 38.6712C16.154 39.4477 16.9341 39.9245 17.8581 40.2812C18.7485 40.6254 19.7669 40.86 21.257 40.9253C22.7472 40.9905 23.2268 41.0056 27.0276 40.9983C30.8284 40.9911 31.3069 40.9743 32.8001 40.9034C34.2934 40.8326 35.305 40.594 36.1949 40.2462C37.1153 39.8862 37.8956 39.4062 38.6715 38.6267C39.4474 37.8472 39.9251 37.066 40.281 36.1437C40.6259 35.2533 40.8603 34.2349 40.925 32.7459C40.9902 31.2515 41.0056 30.7744 40.9983 26.9731C40.9911 23.1718 40.974 22.6952 40.9031 21.2023C40.8323 19.7093 40.5951 18.6954 40.246 17.8053C39.8862 16.8849 39.406 16.1057 38.627 15.3287C37.848 14.5517 37.0663 14.0743 36.1442 13.7192C35.2532 13.3746 34.2354 13.1396 32.7453 13.0752C31.2551 13.0108 30.7754 12.9943 26.9733 13.0016C23.1711 13.0089 22.6951 13.0251 21.2019 13.0979ZM21.3654 38.4066C20.0004 38.3473 19.2592 38.1205 18.7653 37.9306C18.1112 37.6786 17.6453 37.374 17.153 36.8865C16.6608 36.399 16.3584 35.9314 16.103 35.2788C15.9112 34.7848 15.6802 34.0445 15.6164 32.6795C15.5469 31.2042 15.5324 30.7612 15.5242 27.0235C15.5161 23.2857 15.5304 22.8433 15.5951 21.3675C15.6533 20.0036 15.8815 19.2616 16.0711 18.7679C16.3231 18.113 16.6266 17.6479 17.1152 17.156C17.6038 16.664 18.07 16.361 18.7233 16.1057C19.2166 15.913 19.957 15.684 21.3214 15.619C22.7979 15.549 23.2403 15.535 26.9775 15.5269C30.7147 15.5188 31.1582 15.5328 32.6352 15.5978C33.9991 15.6571 34.7414 15.8831 35.2345 16.0738C35.8889 16.3258 36.3545 16.6284 36.8465 17.1179C37.3384 17.6073 37.6417 18.0719 37.897 18.7265C38.09 19.2185 38.319 19.9585 38.3834 21.3238C38.4537 22.8002 38.4696 23.2429 38.4764 26.9798C38.4831 30.7167 38.4699 31.1605 38.4052 32.6358C38.3456 34.0008 38.1194 34.7423 37.9292 35.2367C37.6772 35.8906 37.3734 36.3568 36.8845 36.8484C36.3957 37.3401 35.93 37.6431 35.2765 37.8984C34.7837 38.0908 34.0425 38.3204 32.6792 38.3854C31.2027 38.4548 30.7603 38.4694 27.0217 38.4775C23.2831 38.4856 22.8421 38.4705 21.3657 38.4066M32.7786 19.5175C32.7791 19.8498 32.8782 20.1745 33.0633 20.4504C33.2484 20.7264 33.5112 20.9413 33.8184 21.0679C34.1256 21.1946 34.4635 21.2272 34.7893 21.1618C35.1151 21.0964 35.4142 20.9359 35.6487 20.7005C35.8833 20.4651 36.0427 20.1654 36.1069 19.8394C36.1712 19.5133 36.1373 19.1756 36.0095 18.8688C35.8817 18.5621 35.6659 18.3001 35.3892 18.116C35.1126 17.9319 34.7875 17.834 34.4552 17.8347C34.0098 17.8356 33.5829 18.0134 33.2685 18.3289C32.9541 18.6445 32.7778 19.072 32.7786 19.5175ZM19.8117 27.014C19.8195 30.9844 23.044 34.1957 27.0136 34.1881C30.9832 34.1806 34.1968 30.9564 34.1892 26.986C34.1817 23.0155 30.9563 19.8034 26.9862 19.8112C23.016 19.8191 19.8041 23.0441 19.8117 27.014ZM22.3334 27.0089C22.3315 26.0859 22.6035 25.1831 23.1147 24.4147C23.626 23.6462 24.3537 23.0466 25.2057 22.6917C26.0578 22.3368 26.9959 22.2425 27.9015 22.4208C28.8072 22.5991 29.6396 23.0419 30.2935 23.6933C30.9475 24.3446 31.3936 25.1753 31.5755 26.0802C31.7573 26.9851 31.6668 27.9236 31.3153 28.777C30.9637 29.6305 30.367 30.3605 29.6006 30.8748C28.8341 31.3891 27.9324 31.6646 27.0094 31.6665C26.3965 31.6677 25.7894 31.5483 25.2227 31.3149C24.656 31.0815 24.1408 30.7388 23.7066 30.3063C23.2724 29.8738 22.9276 29.36 22.692 28.7942C22.4564 28.2284 22.3345 27.6218 22.3334 27.0089Z" fill="#DB5C3E"/>
</svg>
