<svg width="248" height="96" viewBox="0 0 248 96" fill="none" xmlns="http://www.w3.org/2000/svg">
<g clip-path="url(#clip0_380_67)">
<path d="M94.3361 56.1238C94.3361 60.8922 89.7189 64.2193 83.1017 64.2193C77.3072 64.2193 73.6191 61.8963 71.5446 59.9511L71.0269 59.4648L73.6652 56.9529L74.1369 57.4042C76.4809 59.6258 79.6619 60.8467 83.0982 60.8467C87.4352 60.8467 90.2402 59.0555 90.2402 56.2777C90.2402 53.4999 88.2189 52.5938 84.9174 51.3658L80.0449 49.5676C77.9313 48.7804 72.9844 46.9332 72.9844 42.1228C72.9844 37.7566 77.332 34.594 83.3251 34.594C87.0486 34.594 90.5771 35.8605 92.9992 38.068L93.5276 38.5508L91.0417 40.9403L90.5665 40.5344C88.5806 38.8307 86.1444 37.9665 83.3251 37.9665C79.5307 37.9665 77.0767 39.5234 77.0767 41.9338C77.0767 44.5787 79.903 45.6073 82.1761 46.4329L87.0522 48.2312C90.5771 49.5466 94.3361 51.3518 94.3361 56.1238Z" fill="#fafafa"/>
<path d="M122.17 35.0769V52.3805C122.17 60.0142 117.957 64.2159 110.308 64.2159C102.659 64.2159 98.4922 60.0142 98.4922 52.3805V35.0769H102.542V52.2685C102.542 57.9606 105.156 60.8434 110.308 60.8434C115.461 60.8434 118.252 57.9571 118.252 52.2685V35.0769H122.167H122.17Z" fill="#fafafa"/>
<path d="M151.459 35.0769V63.7296H147.646L134.164 44.6383L131.639 40.8739C131.639 40.9054 131.639 40.9404 131.646 40.9754C131.759 42.8156 131.876 44.7153 131.876 46.6884V63.7296H127.961V35.0769H131.77L145.299 54.1262L147.76 57.8696C147.639 55.9035 147.54 53.9093 147.54 51.9292V35.0769H151.455H151.459Z" fill="#fafafa"/>
<path d="M178.545 38.9113C175.853 36.3679 171.917 35.0769 166.849 35.0769H158.477V63.7296H166.895C176.793 63.7296 182.467 58.4749 182.467 49.3123C182.467 44.8727 181.147 41.3707 178.545 38.9148V38.9113ZM162.523 38.2955H166.58C174.236 38.2955 178.282 42.1054 178.282 49.3088C178.282 54.3991 176.25 60.4725 166.58 60.4725H162.523V38.2955Z" fill="#fafafa"/>
<path d="M207.304 60.434V63.7296H187.428V35.0769H206.815V38.334H191.478V46.9473H204.396V50.2079H191.478V60.434H207.304Z" fill="#fafafa"/>
<path d="M226.067 51.0371C230.94 50.089 233.709 47.2237 233.709 43.0535C233.709 36.4588 227.429 35.0769 222.159 35.0769H211.953V63.7296H215.999V51.4079H221.62L230.294 63.7296H234.996L226.063 51.0406L226.067 51.0371ZM216.003 38.2955H221.535C225.532 38.2955 229.617 38.8623 229.617 43.0535C229.617 46.4575 226.897 48.1858 221.535 48.1858H216.003V38.2955Z" fill="#fafafa"/>
<path d="M15.6242 46.1216H13.0532L13.0674 45.8837C13.9043 33.0512 24.7699 23 37.8093 23C50.8488 23 61.7143 33.0512 62.5513 45.8837L62.569 46.1216H59.9944L59.9767 45.9117C59.1646 34.4856 49.4267 25.5329 37.8093 25.5329C26.1919 25.5329 16.4576 34.4856 15.642 45.9117L15.6278 46.1216H15.6242Z" fill="#fafafa"/>
<path d="M15.8442 58.9575H59.718L59.53 59.2899C59.1222 60.0246 58.6577 60.7627 58.147 61.4869L58.0796 61.5849H17.4826L17.4152 61.4869C16.9046 60.7627 16.4365 60.0246 16.0286 59.2899L15.8442 58.9575Z" fill="#fafafa"/>
<path d="M26.7911 69.4917H48.767L47.7741 69.922C44.6109 71.3004 41.2455 71.9966 37.7773 71.9966C34.3091 71.9966 30.9473 71.2969 27.7805 69.922L26.7876 69.4917H26.7911Z" fill="#fafafa"/>
<path d="M13.7803 53.689H61.7818L61.7038 53.9723C61.4946 54.7245 61.2534 55.4627 60.9839 56.1694L60.9272 56.3163H14.6314L14.5782 56.1694C14.3051 55.4627 14.064 54.721 13.8583 53.9723L13.7803 53.689Z" fill="#fafafa"/>
<path d="M19.6489 64.2263H55.9125L55.5366 64.6112C54.7671 65.3878 53.9302 66.1295 53.0507 66.8082L52.9904 66.8572H22.571L22.5107 66.8082C21.6313 66.1295 20.7944 65.3913 20.0248 64.6112L19.6489 64.2263Z" fill="#fafafa"/>
<path d="M13 48.4236H62.5619L62.5512 48.658C62.5193 49.3647 62.4519 50.1029 62.3455 50.855L62.3207 51.051H13.2411L13.2128 50.855C13.1099 50.1029 13.0426 49.3647 13.0106 48.658L13 48.4236Z" fill="#fafafa"/>
</g>
<defs>
<clipPath id="clip0_380_67">
<rect width="222" height="49" fill="white" transform="translate(13 23)"/>
</clipPath>
</defs>
</svg>
