<svg width="248" height="96" viewBox="0 0 248 96" fill="none" xmlns="http://www.w3.org/2000/svg">
<path d="M63.2249 3.10915C62.145 3.41638 61.3257 4.07738 60.8416 5.05493C59.8361 7.10312 60.6088 9.39336 62.6291 10.343C64.8914 11.4043 67.6099 9.93334 68.0754 7.41035C68.2988 6.20936 67.8333 4.97114 66.7999 4.0029C66.4089 3.63051 66.0365 3.38845 65.6734 3.2488C64.9659 2.97881 63.9045 2.92295 63.2249 3.10915Z" fill="#fafafa"/>
<path d="M79.8617 19.2622C78.6794 19.4671 77.5436 20.3329 76.985 21.4687C76.6964 22.0552 76.6777 22.1576 76.6777 23.0328C76.687 23.7776 76.7243 24.0662 76.9012 24.5037C77.1991 25.2672 78.0463 26.1516 78.847 26.5426C79.4335 26.8312 79.5266 26.8499 80.4948 26.8499C81.4724 26.8499 81.5468 26.8312 82.1427 26.5333C83.7998 25.7047 84.7122 23.7683 84.2188 22.0925C84.0047 21.3384 83.7067 20.8636 83.0737 20.2677C82.422 19.644 82.1054 19.4764 81.3048 19.2995C80.6158 19.1598 80.5134 19.1598 79.8617 19.2622Z" fill="#fafafa"/>
<path d="M118.665 30.8062C116.18 31.132 114.225 32.482 113.219 34.5767C112.381 36.3177 112.195 37.5931 112.195 41.8571V44.4918L109.523 44.5104L106.842 44.5384V46.0745C106.842 46.9217 106.87 47.7224 106.916 47.862C107.009 48.2158 107.503 48.7465 107.922 48.9699C108.238 49.1282 108.48 49.1468 110.24 49.1468H112.195V58.4102V67.6736H114.755H117.315V58.4102V49.1468H121.365H125.415L125.397 46.8379L125.369 44.5384L121.393 44.5104L117.409 44.4918V41.5312C117.409 38.4124 117.483 37.7142 117.855 36.988C118.07 36.569 118.544 36.1035 118.954 35.8987C119.969 35.3867 122.427 35.6194 124.587 36.4294C125.061 36.6063 125.471 36.7459 125.48 36.7273C125.564 36.6435 126.439 32.6216 126.402 32.5192C126.337 32.333 124.838 31.6068 123.963 31.3369C123.553 31.2065 122.874 31.0389 122.464 30.9551C121.514 30.7783 119.513 30.6945 118.665 30.8062Z" fill="#fafafa"/>
<path d="M66.2427 32.0075C65.2093 32.3892 64.5203 33.0316 64.0269 34.0557C63.7569 34.6236 63.7383 34.7446 63.7383 35.6477C63.7383 36.5507 63.7569 36.6718 64.0362 37.249C64.4179 38.0683 65.0603 38.7386 65.7772 39.0924C67.7881 40.0699 70.097 39.2227 71.0745 37.1652C71.3445 36.588 71.3724 36.4483 71.3724 35.6477C71.3724 34.847 71.3445 34.7074 71.0745 34.1301C70.6835 33.3016 69.9666 32.5568 69.1939 32.1844C68.6539 31.9144 68.4957 31.8771 67.6578 31.8585C66.9316 31.8399 66.6151 31.8771 66.2427 32.0075Z" fill="#fafafa"/>
<path d="M24.6823 44.166C23.0252 44.5197 21.9266 45.097 20.8001 46.2235L19.9343 47.08V45.7859V44.4918H17.4671H15V56.0827V67.6736H17.5137H20.0274V61.2218C20.0274 57.5444 20.0646 54.4348 20.1205 53.9693C20.3998 51.5115 21.6101 49.7985 23.5652 49.0816C24.2075 48.8396 24.3751 48.8209 25.5668 48.8209C26.2837 48.8209 27.1867 48.8582 27.5871 48.9047C28.518 49.0071 28.8998 48.9327 29.3373 48.523C29.6259 48.2716 29.747 48.0575 29.8866 47.5734C30.1845 46.5772 30.65 44.6594 30.6128 44.6221C30.5942 44.5942 30.1566 44.4732 29.6539 44.3429C28.8532 44.1287 28.5087 44.0915 27.0098 44.0636C25.7809 44.0449 25.1106 44.0729 24.6823 44.166Z" fill="#fafafa"/>
<path d="M42.5208 44.1758C38.0986 44.9764 34.6725 48.2442 33.5274 52.7409C32.1867 57.9731 33.9929 63.3449 38.0427 66.2031C39.9792 67.5717 42.1484 68.2327 44.69 68.2327C47.455 68.2327 49.5498 67.3948 51.2907 65.598L51.9611 64.8997V66.2869V67.6741H54.5213H57.0815L57.0629 56.1018L57.035 44.5388L54.5027 44.5109L51.9611 44.4923V45.926V47.3598L51.3838 46.7546C50.006 45.3209 48.5722 44.5388 46.6544 44.1758C45.6955 43.9896 43.5356 43.9896 42.5208 44.1758ZM47.1758 48.868C49.1122 49.3707 50.7973 50.8231 51.6445 52.7409C52.5104 54.696 52.4917 57.4704 51.5887 59.4441C50.5087 61.8367 48.3954 63.2518 45.7141 63.3636C44.2897 63.4287 43.368 63.2518 42.1856 62.6746C41.4408 62.3208 41.1708 62.1253 40.5005 61.4457C39.8395 60.7754 39.6254 60.4775 39.2623 59.7513C38.6199 58.4479 38.443 57.6566 38.4337 56.0832C38.4244 54.1374 38.8433 52.713 39.8395 51.3351C41.4501 49.1007 44.3083 48.1325 47.1758 48.868Z" fill="#fafafa"/>
<path d="M88.1379 44.1753C86.276 44.5384 84.656 45.46 83.6412 46.7169C83.3992 47.0241 83.1664 47.2755 83.1292 47.2755C83.0826 47.2848 83.0547 46.6517 83.0547 45.8883V44.4918H80.541H78.0273V56.0827V67.6736H80.5317H83.0454L83.0733 60.7656C83.1106 53.988 83.1106 53.8297 83.3154 53.1221C83.8647 51.1484 85.196 49.724 87.058 49.1375C87.8307 48.8861 89.3855 48.8023 90.2885 48.9606C92.0947 49.2585 93.5098 50.5153 94.087 52.3215C94.4594 53.5038 94.506 54.5372 94.506 61.3056V67.6736H97.0196H99.5426L99.5147 59.5925L99.4868 51.5208L99.2354 50.6271C98.7513 48.8489 98.053 47.6572 96.7683 46.4376C95.5673 45.2925 94.1522 44.5756 92.374 44.2125C91.2754 43.9891 89.162 43.9705 88.1379 44.1753Z" fill="#fafafa"/>
<path d="M139.194 44.0732C139.12 44.0918 138.738 44.157 138.356 44.2128C135.219 44.7155 132.156 46.68 130.415 49.3054C129.018 51.4001 128.395 53.5041 128.395 56.1295C128.395 58.727 129.028 60.8776 130.396 62.9258C132.23 65.6909 135.219 67.5529 138.71 68.1021C140.032 68.307 142.583 68.2418 143.765 67.9625C146.139 67.4132 148.048 66.417 149.64 64.8995C152.256 62.3951 153.569 58.8108 153.243 55.0589C152.815 50.1433 149.742 46.2238 145.106 44.6876C143.56 44.1756 142.536 44.0266 140.786 44.0359C139.985 44.0452 139.269 44.0639 139.194 44.0732ZM143.058 48.9981C145.022 49.5288 146.623 50.888 147.48 52.7314C147.955 53.7462 148.132 54.491 148.197 55.7572C148.355 59.2111 146.428 62.1158 143.244 63.1772C142.564 63.4099 142.378 63.4286 140.963 63.4379C139.604 63.4379 139.343 63.4099 138.729 63.2237C137.481 62.8327 136.625 62.3207 135.749 61.4362C134.52 60.2166 133.878 58.8108 133.711 56.9954C133.347 52.9828 135.554 49.7522 139.241 48.905C139.995 48.7374 142.294 48.784 143.058 48.9981Z" fill="#fafafa"/>
<path d="M168.056 44.1661C164.686 44.734 162.005 46.4284 160.152 49.1749C159.677 49.8731 158.97 51.4372 158.7 52.3589C158.355 53.5598 158.188 54.7888 158.188 56.1946C158.188 62.4229 162.098 67.1244 168.103 68.0927C169.201 68.2696 171.342 68.2696 172.394 68.0927C174.685 67.6923 176.686 66.7055 178.297 65.1787C178.614 64.8714 178.856 64.5642 178.837 64.499C178.818 64.4339 178.129 63.6146 177.319 62.6836L175.839 60.9892L175.411 61.3337C173.018 63.3074 170.048 63.9218 167.591 62.9536C166.082 62.3484 164.816 61.1847 164.099 59.723C163.457 58.4196 163.28 57.6469 163.28 56.0363C163.28 54.947 163.327 54.5467 163.485 53.9416C164.276 50.9903 166.408 49.0631 169.294 48.6814C171.203 48.4301 173.065 49.0073 174.843 50.4131L175.625 51.0275L175.97 50.6738C176.156 50.4689 176.863 49.7148 177.543 48.9887C178.967 47.4618 178.949 47.6108 177.906 46.717C176.305 45.3392 174.517 44.5106 172.404 44.1661C171.37 43.9985 169.043 43.9985 168.056 44.1661Z" fill="#fafafa"/>
<path d="M219.354 44.2127C216.058 44.7993 213.814 46.4192 212.93 48.8677C212.278 50.6552 212.353 52.7686 213.116 54.2675C213.423 54.8726 214.122 55.7198 214.671 56.1481C216.235 57.377 217.929 57.9263 221.681 58.4104C223.683 58.6804 224.474 58.848 225.182 59.1552C227.258 60.0676 227.202 62.3392 225.079 63.3354C224.297 63.7078 223.329 63.8754 221.812 63.9312C218.786 64.0243 216.524 63.475 214.587 62.1903L213.787 61.6503L212.707 63.4099C212.111 64.3688 211.599 65.216 211.571 65.2905C211.45 65.6163 213.88 66.9476 215.555 67.4783C217.864 68.2045 220.369 68.5024 222.715 68.3255C226.113 68.0741 228.515 67.1152 230.2 65.337C231.289 64.1919 231.885 62.7861 231.987 61.1569C232.118 58.969 231.261 57.107 229.567 55.906C227.984 54.7888 226.392 54.2861 222.752 53.7554C220.192 53.383 219.633 53.262 218.814 52.8617C218.069 52.4986 217.753 52.061 217.697 51.2976C217.604 50.0128 218.563 49.0074 220.285 48.5791C221.123 48.365 223.469 48.4208 224.661 48.6722C225.973 48.9515 227.342 49.417 228.385 49.9384C228.859 50.1711 229.25 50.3573 229.269 50.3387C229.288 50.3201 229.781 49.4356 230.377 48.365C231.187 46.9033 231.429 46.3913 231.345 46.3354C230.926 46.0468 229.288 45.2927 228.515 45.0227C226.485 44.3152 224.549 44.0265 222.026 44.0359C220.816 44.0359 220.052 44.0917 219.354 44.2127Z" fill="#fafafa"/>
<path d="M64.9941 56.0827V67.6736H67.5544H70.1146L70.096 56.1013L70.0681 44.5384L67.5358 44.5104L64.9941 44.4918V56.0827Z" fill="#fafafa"/>
<path d="M184.348 51.7909C184.348 59.2481 184.376 59.8347 184.72 61.2032C185.856 65.6348 189.785 68.3533 195.054 68.3533C196.59 68.3533 197.68 68.1857 198.983 67.7667C202.865 66.5192 205.23 63.5214 205.667 59.2854C205.723 58.7268 205.761 55.5428 205.761 51.4185V44.4919H203.2H200.649L200.612 51.8188C200.584 59.9371 200.612 59.5367 199.96 60.8774C199.607 61.5942 198.759 62.488 198.061 62.8604C196.479 63.7076 193.546 63.7076 191.954 62.8604C191.218 62.4694 190.483 61.6873 190.092 60.8774C189.422 59.5274 189.44 59.7043 189.403 51.6792L189.366 44.4919H186.852H184.348V51.7909Z" fill="#fafafa"/>
</svg>
