<svg width="248" height="96" viewBox="0 0 248 96" fill="none" xmlns="http://www.w3.org/2000/svg">
<path d="M143.094 48.7488C143.575 48.0143 143.819 46.9753 143.819 45.6561C143.819 44.3387 143.575 43.3014 143.096 42.5747C142.618 41.8556 141.898 41.5054 140.894 41.5054C139.888 41.5054 139.171 41.8556 138.703 42.5747C138.229 43.3016 137.989 44.3388 137.989 45.6561C137.989 46.9753 138.229 48.0163 138.703 48.7488C139.171 49.4775 139.888 49.8295 140.894 49.8295C141.898 49.8295 142.618 49.4756 143.094 48.7488Z" fill="#FAFAFA"/>
<path d="M169.213 42.5754C168.903 43.0503 168.702 43.6599 168.594 44.3923H174.051C173.997 43.6865 173.859 43.0503 173.544 42.5754C173.068 41.8561 172.404 41.4587 171.4 41.4587C170.396 41.4587 169.681 41.8542 169.213 42.5754Z" fill="#FAFAFA"/>
<path d="M107.939 42.5754C107.628 43.0503 107.429 43.6599 107.32 44.3923H112.777C112.722 43.6865 112.585 43.0503 112.271 42.5754C111.793 41.8561 111.13 41.4587 110.126 41.4587C109.121 41.4587 108.407 41.8542 107.939 42.5754Z" fill="#FAFAFA"/>
<path d="M90.3404 48.9789C90.4419 49.1341 90.4833 49.1946 90.7823 49.4351C90.7766 49.4332 91.4686 49.9801 93.0255 49.8854C94.1198 49.8192 95.0919 49.6092 95.0919 49.6092H95.0901V46.1076C95.0901 46.1076 94.1104 45.9448 93.0143 45.9297C91.4537 45.9089 90.79 46.4881 90.7955 46.4861C90.3348 46.8136 90.1129 47.3 90.1129 47.9776C90.1129 48.4054 90.1899 48.7423 90.3404 48.9789Z" fill="#FAFAFA"/>
<path fill-rule="evenodd" clip-rule="evenodd" d="M129.669 4.90901C123.114 4.90901 117.188 7.67823 112.93 12.1431C108.247 5.97847 100.859 2 92.5457 2C78.3867 2 66.9072 13.5379 66.9072 27.771C66.9072 31.4146 67.6612 34.8802 69.0169 38.0201C62.432 41.8944 58 49.1361 58 57.4299C58 69.8063 67.8643 79.8377 80.032 79.8376C81.5852 79.8376 83.0989 79.6748 84.5599 79.3625C87.9031 88.491 96.6128 95 106.832 95C116.646 95 125.066 89.0002 128.68 80.4433C131.429 81.7928 134.517 82.5517 137.781 82.5517C145.579 82.5517 152.373 78.2268 155.938 71.8257C157.783 72.2007 159.661 72.389 161.543 72.3879C177.259 72.3879 190 59.4511 190 43.4919C190 27.5345 177.259 14.5978 161.543 14.5978C157.446 14.5978 153.552 15.478 150.033 17.0601C145.985 9.79973 138.383 4.90901 129.669 4.90901ZM135.912 34.5502C136.202 34.605 136.424 34.6562 136.668 34.7319C136.721 34.7527 136.869 34.8265 136.809 35.001L136.224 36.6173C136.175 36.7384 136.141 36.8122 135.891 36.7365C135.829 36.7175 135.737 36.691 135.5 36.6398C135.329 36.6039 135.102 36.5774 134.872 36.5774C134.569 36.5774 134.293 36.6152 134.05 36.6947C133.813 36.7724 133.597 36.9068 133.409 37.096C133.219 37.2891 132.994 37.5712 132.873 37.9176C132.634 38.6124 132.519 39.3446 132.481 39.58C132.475 39.6208 132.471 39.6469 132.469 39.655H134.915C135.12 39.655 135.184 39.7497 135.165 39.9029L134.88 41.5041C134.836 41.7368 134.624 41.7292 134.624 41.7292H132.104L130.38 51.5467C130.199 52.5611 129.972 53.4318 129.707 54.1322C129.44 54.8418 129.159 55.3604 128.714 55.8564C128.3 56.3143 127.834 56.6532 127.3 56.8482C126.768 57.0412 126.124 57.1414 125.421 57.1414C125.085 57.1414 124.726 57.1359 124.301 57.0354C123.994 56.9616 123.827 56.9087 123.601 56.8292C123.505 56.7932 123.43 56.6739 123.483 56.5207C123.537 56.3672 123.989 55.1201 124.051 54.9554C124.13 54.7567 124.327 54.8323 124.327 54.8323C124.464 54.8911 124.56 54.9307 124.741 54.9667C124.923 55.0045 125.169 55.035 125.354 55.035C125.687 55.035 125.991 54.9933 126.254 54.9044C126.574 54.7965 126.758 54.6111 126.954 54.3612C127.157 54.1 127.321 53.7423 127.488 53.2653C127.659 52.7809 127.813 52.143 127.947 51.3669L129.662 41.7292H127.971C127.768 41.7292 127.702 41.6328 127.723 41.4813L128.007 39.8783C128.052 39.6472 128.263 39.6548 128.263 39.6548H130L130.094 39.1344C130.354 37.588 130.871 36.4127 131.632 35.6403C132.398 34.8644 133.488 34.4707 134.872 34.4707C135.269 34.4707 135.619 34.4973 135.912 34.5502ZM102.268 51.6207C102.396 51.6207 102.488 51.5166 102.488 51.3878V34.9515C102.488 34.8229 102.396 34.7187 102.268 34.7187H100.239C100.111 34.7187 100.021 34.8229 100.021 34.9515V51.3878C100.021 51.5166 100.111 51.6207 100.239 51.6207H102.268ZM77.1558 50.5073C77.1162 50.4698 77.0507 50.4076 77.1192 50.2273L77.6536 48.7357C77.7382 48.4782 77.9319 48.5635 78.0089 48.6127C78.0712 48.6505 78.127 48.6869 78.1852 48.7248C78.264 48.7761 78.3473 48.8304 78.4565 48.8947C80.0303 49.896 81.4876 49.9055 81.9445 49.9055C83.1217 49.9055 83.8512 49.2772 83.8512 48.433V48.3875C83.8512 47.4648 82.7309 47.1182 81.4295 46.7156L81.1378 46.6254C79.3496 46.1106 77.441 45.3724 77.441 43.0955V43.0501C77.441 40.8905 79.1709 39.3839 81.6492 39.3839L81.9199 39.382C83.3752 39.382 84.7818 39.8079 85.7991 40.4306C85.8912 40.4874 85.9814 40.5934 85.9307 40.7373C85.8836 40.8698 85.4323 42.0925 85.3797 42.2288C85.2837 42.4843 85.0224 42.3139 85.0224 42.3139C84.1312 41.8181 82.7472 41.4281 81.5814 41.4281C80.5321 41.4281 79.8552 41.9884 79.8552 42.7493V42.7966C79.8552 43.6857 81.0122 44.0642 82.3539 44.503L82.5873 44.5794C84.3681 45.1454 86.2652 45.9289 86.2652 48.0867V48.132C86.2652 50.4658 84.5842 51.9155 81.8766 51.9155C80.5472 51.9155 79.276 51.7055 77.9297 50.9864C77.8773 50.9563 77.825 50.9269 77.7727 50.8975L77.7719 50.897C77.5714 50.7843 77.3722 50.6723 77.1756 50.5283C77.1711 50.5218 77.1639 50.5151 77.1558 50.5073ZM116.795 50.5073C116.756 50.4698 116.69 50.4076 116.759 50.2273L117.293 48.7357C117.372 48.4915 117.601 48.5805 117.65 48.6127C117.67 48.6255 117.689 48.638 117.708 48.6503L117.74 48.6716C117.846 48.7408 117.947 48.8073 118.096 48.8947C119.669 49.896 121.127 49.9055 121.583 49.9055C122.761 49.9055 123.492 49.2772 123.492 48.433V48.3875C123.492 47.4654 122.371 47.1187 121.071 46.7164L120.777 46.6254C118.989 46.1106 117.08 45.3724 117.08 43.0955V43.0501C117.08 40.8905 118.81 39.3839 121.288 39.3839L121.559 39.382C123.014 39.382 124.421 39.8079 125.438 40.4306C125.53 40.4874 125.621 40.5934 125.57 40.7373C125.523 40.8698 125.071 42.0925 125.019 42.2288C124.923 42.4843 124.662 42.3139 124.662 42.3139C123.77 41.8181 122.386 41.4281 121.221 41.4281C120.171 41.4281 119.494 41.9884 119.494 42.7493V42.7966C119.494 43.6857 120.651 44.0641 121.993 44.503L121.995 44.5038L122.227 44.5794C124.007 45.1454 125.905 45.9289 125.905 48.0867V48.132C125.905 50.4658 124.223 51.9155 121.516 51.9155C120.187 51.9155 118.915 51.7055 117.569 50.9864C117.516 50.9562 117.464 50.9266 117.411 50.897C117.211 50.7844 117.011 50.6721 116.815 50.5283C116.81 50.5218 116.803 50.5151 116.795 50.5073ZM145.051 41.2347C145.512 41.7892 145.858 42.4554 146.08 43.2107C146.301 43.9621 146.413 44.7855 146.413 45.6561C146.413 46.5267 146.302 47.3501 146.08 48.1015C145.858 48.8566 145.512 49.5228 145.051 50.0775C144.59 50.6338 144.006 51.0787 143.316 51.3947C142.624 51.7108 141.809 51.8716 140.894 51.8716C139.976 51.8716 139.162 51.7108 138.47 51.3947C137.78 51.0787 137.195 50.6339 136.734 50.0775C136.272 49.5211 135.928 48.8548 135.704 48.1015C135.484 47.352 135.373 46.5287 135.373 45.6561C135.373 44.7835 135.484 43.9621 135.704 43.2107C135.928 42.4574 136.274 41.7912 136.732 41.2347C137.195 40.6784 137.778 40.2316 138.47 39.906C139.16 39.5824 139.976 39.4178 140.894 39.4178C141.809 39.4178 142.625 39.5824 143.315 39.906C144.007 40.2316 144.59 40.6783 145.051 41.2347ZM164.352 49.339C164.352 49.339 164.565 49.2558 164.64 49.4772L165.195 51.0199C165.266 51.2109 165.103 51.2904 165.103 51.2904C164.249 51.6293 163.06 51.8658 161.902 51.8658C159.943 51.8658 158.44 51.2961 157.44 50.1756C156.442 49.0588 155.936 47.5334 155.936 45.6464C155.936 44.7738 156.06 43.9485 156.304 43.1972C156.551 42.4438 156.919 41.7778 157.404 41.2213C157.889 40.6647 158.502 40.2181 159.224 39.8945C159.948 39.5689 160.794 39.4061 161.744 39.4061C162.38 39.4061 162.951 39.4459 163.44 39.5215C163.963 39.6011 164.655 39.7883 164.948 39.9038C165.001 39.9247 165.147 39.9985 165.087 40.1707C164.945 40.5822 164.831 40.8965 164.712 41.2282L164.64 41.4255C164.621 41.4802 164.601 41.5359 164.58 41.5931C164.565 41.6366 164.549 41.6811 164.533 41.7266C164.448 41.9612 164.269 41.8836 164.269 41.8836C163.525 41.647 162.814 41.5392 161.881 41.5392C160.763 41.5392 159.924 41.916 159.373 42.6503C158.818 43.3883 158.51 44.3575 158.506 45.6464C158.502 47.0622 158.852 48.1088 159.476 48.7561C160.099 49.4034 160.968 49.7309 162.062 49.7309C162.507 49.7309 162.923 49.7004 163.301 49.6419C163.673 49.5832 164.023 49.4659 164.352 49.339ZM175.225 40.9796C175.537 41.3165 176.012 42.0528 176.204 42.7815C176.662 44.4009 176.47 45.8144 176.436 46.0639C176.434 46.0818 176.432 46.0937 176.432 46.0993C176.411 46.2962 176.21 46.3 176.21 46.3L168.559 46.2924C168.607 47.462 168.884 48.2911 169.45 48.855C170.001 49.4059 170.881 49.758 172.067 49.7598C173.723 49.7632 174.516 49.4577 175.058 49.2489C175.11 49.2289 175.16 49.2098 175.208 49.1919C175.208 49.1919 175.42 49.1144 175.495 49.3244L175.995 50.7346C176.097 50.9731 176.016 51.0563 175.932 51.1036C175.452 51.3705 174.288 51.8663 172.079 51.8739C171.005 51.8759 170.071 51.7207 169.301 51.4216C168.527 51.1208 167.88 50.6893 167.378 50.1384C166.874 49.5915 166.502 48.931 166.268 48.1814C166.037 47.4376 165.921 46.6105 165.921 45.7227C165.921 44.8504 166.033 44.0232 166.257 43.2642C166.479 42.5014 166.829 41.8295 167.293 41.2656C167.758 40.6997 168.35 40.2453 169.055 39.9122C169.758 39.5791 170.625 39.4182 171.58 39.4182C172.4 39.4182 173.149 39.596 173.773 39.8648C174.251 40.0731 174.732 40.4459 175.225 40.9796ZM113.95 40.9796C114.262 41.3165 114.736 42.0528 114.928 42.7815C115.387 44.3983 115.196 45.8098 115.162 46.0626C115.161 46.0723 115.16 46.0803 115.159 46.0865C115.158 46.0922 115.158 46.0965 115.158 46.0993C115.137 46.2962 114.936 46.3 114.936 46.3L107.285 46.2924C107.334 47.462 107.61 48.2911 108.176 48.855C108.727 49.4059 109.607 49.758 110.791 49.7598C112.45 49.7632 113.242 49.4579 113.784 49.2491C113.836 49.2291 113.886 49.2099 113.934 49.1919C113.934 49.1919 114.146 49.1144 114.223 49.3244L114.721 50.7346C114.823 50.9731 114.742 51.0563 114.657 51.1036C114.178 51.3705 113.014 51.8663 110.805 51.8739C109.731 51.8759 108.796 51.7207 108.027 51.4216C107.253 51.1208 106.606 50.6893 106.104 50.1384C105.6 49.5915 105.228 48.931 104.994 48.1814C104.763 47.4376 104.646 46.6105 104.646 45.7227C104.646 44.8504 104.761 44.0232 104.983 43.2642C105.205 42.5014 105.555 41.8295 106.019 41.2656C106.483 40.6997 107.076 40.2453 107.781 39.9122C108.484 39.5791 109.353 39.4182 110.306 39.4182C111.126 39.4182 111.874 39.596 112.499 39.8648C112.976 40.0731 113.457 40.4459 113.95 40.9796ZM92.6324 43.9877C93.1138 43.9877 93.5162 44.001 93.8265 44.0238C93.8265 44.0238 94.4301 44.0786 95.0882 44.1731V43.8475C95.0882 42.8217 94.8757 42.3353 94.4583 42.0136C94.0297 41.6824 93.3941 41.5159 92.5667 41.5159C92.5667 41.5159 90.7053 41.4913 89.2329 42.2975C89.1651 42.3373 89.1069 42.3601 89.1069 42.3601C89.1069 42.3601 88.9244 42.4244 88.8567 42.2352L88.3151 40.7702C88.2324 40.5581 88.3828 40.4634 88.3828 40.4634C89.0711 39.9221 90.7427 39.5965 90.7427 39.5965C91.2955 39.485 92.2187 39.4053 92.7923 39.4053C94.3209 39.4053 95.5036 39.7632 96.3066 40.471C97.1133 41.1807 97.5231 42.3259 97.5231 43.8704L97.527 50.9131C97.527 50.9131 97.542 51.1177 97.352 51.1649C97.1741 51.2135 96.9954 51.2596 96.8161 51.3031C96.5604 51.3616 95.6391 51.549 94.8888 51.6777C94.1311 51.8085 93.3488 51.8727 92.5648 51.8727C91.8201 51.8727 91.1395 51.8027 90.5396 51.6646C89.9304 51.5264 89.4057 51.2975 88.9808 50.9852C88.5522 50.6728 88.2156 50.2678 87.9824 49.7814C87.7492 49.2967 87.6327 48.7043 87.6327 48.023C87.6327 47.3529 87.7699 46.7548 88.0407 46.2475C88.3085 45.744 88.6882 45.3094 89.1501 44.9775C89.6127 44.6446 90.1504 44.3927 90.7483 44.2319C91.3425 44.071 91.9762 43.9877 92.6324 43.9877ZM155.421 39.7792C155.472 39.798 155.594 39.8813 155.536 40.0555C155.465 40.2655 155.092 41.3198 154.96 41.6719C154.912 41.8062 154.829 41.8971 154.682 41.88C154.682 41.88 154.242 41.776 153.842 41.776C153.563 41.776 153.17 41.812 152.815 41.9218C152.467 42.0297 152.149 42.2208 151.869 42.4933C151.591 42.7678 151.365 43.1501 151.2 43.6272C151.031 44.1098 150.946 44.8782 150.946 45.6485V51.3871C150.946 51.4491 150.922 51.5086 150.879 51.5526C150.835 51.5966 150.776 51.6215 150.715 51.6219H148.705C148.577 51.6219 148.472 51.5159 148.472 51.3871V39.9003C148.472 39.7696 148.564 39.6656 148.691 39.6656H150.653C150.781 39.6656 150.873 39.7697 150.873 39.9003V40.8372C151.166 40.4415 151.693 40.0933 152.166 39.8776C152.644 39.6619 153.178 39.4991 154.139 39.5577C154.641 39.5899 155.292 39.7281 155.421 39.7792Z" fill="#FAFAFA"/>
</svg>
