<svg width="248" height="96" viewBox="0 0 248 96" fill="none" xmlns="http://www.w3.org/2000/svg">
<path d="M61.0904 40.4656C61.0904 35.4193 63.6626 32.9741 68.9617 32.9741H77.5257C82.8248 32.9741 85.397 35.4193 85.397 40.4656V41.0155L80.8939 41.4169V41.1196C80.8939 38.0205 79.4567 36.6753 76.0886 36.6753H70.3473C66.9791 36.6753 65.5935 38.0205 65.5935 41.2162V53.9992C65.5935 57.1949 66.9791 58.5401 70.3473 58.5401H76.0886C79.4567 58.5401 80.8939 57.1949 80.8939 54.0958V53.7985L85.397 54.1999V54.7498C85.397 59.7961 82.8248 62.2412 77.5257 62.2412H68.9617C63.6626 62.2412 61.0904 59.7961 61.0904 54.7498V40.4656Z" fill="#fafafa"/>
<path d="M187.693 40.4656C187.693 35.4193 190.266 32.9741 195.565 32.9741H204.129C209.428 32.9741 212 35.4193 212 40.4656V41.0155L207.497 41.4169V41.1196C207.497 38.0205 206.06 36.6753 202.692 36.6753H196.95C193.582 36.6753 192.197 38.0205 192.197 41.2162V53.9992C192.197 57.1949 193.582 58.5401 196.95 58.5401H202.692C206.06 58.5401 207.497 57.1949 207.497 54.0958V53.7985L212 54.1999V54.7498C212 59.7961 209.428 62.2412 204.129 62.2412H195.565C190.266 62.2412 187.693 59.7961 187.693 54.7498V40.4656Z" fill="#fafafa"/>
<path d="M139.375 36.6678C136.007 36.6678 134.57 38.013 134.57 41.2087V61.7284H130.067V40.4581C130.067 35.4118 132.639 32.9667 137.938 32.9667H145.507C150.807 32.9667 153.379 35.4118 153.379 40.4581V61.7284H148.876V41.2087C148.876 38.013 147.438 36.6678 144.07 36.6678H139.375Z" fill="#fafafa"/>
<path d="M54.2581 57.537V61.2307H45.0897C43.5935 61.2307 42.3775 60.0044 42.3775 58.4957V38.4814C42.3775 37.4781 41.5741 36.668 40.5792 36.668H35V32.9743H45.0823C46.0772 32.9743 46.8806 33.7844 46.8806 34.7877V55.7236C46.8806 56.7269 47.6839 57.537 48.6789 57.537H54.2581Z" fill="#fafafa"/>
<path d="M41.2207 26.5604V26.0625C41.2207 24.316 42.0166 23.818 44.3898 23.818H44.4856C46.8588 23.818 47.6548 24.316 47.6548 26.0625V26.5604C47.6548 28.307 46.8662 28.8049 44.4856 28.8049H44.3898C42.0166 28.8049 41.2207 28.307 41.2207 26.5604Z" fill="#fafafa"/>
<path d="M161.596 37.6042V33.9105H170.764C172.26 33.9105 173.477 35.1368 173.477 36.6455V56.6598C173.477 57.6631 174.28 58.4732 175.275 58.4732H180.854V62.1669H170.772C169.777 62.1669 168.973 61.3568 168.973 60.3535V39.4176C168.973 38.4143 168.17 37.6042 167.175 37.6042H161.596Z" fill="#fafafa"/>
<path d="M174.199 69.0787V69.5766C174.199 71.3231 173.403 71.8211 171.03 71.8211H170.934C168.561 71.8211 167.765 71.3231 167.765 69.5766V69.0787C167.765 67.3321 168.553 66.8342 170.934 66.8342H171.03C173.403 66.8342 174.199 67.3321 174.199 69.0787Z" fill="#fafafa"/>
<path d="M112.04 23.2011V40.2129C112.04 41.5804 111.457 42.8885 110.433 43.7952L102.805 50.5508C101.78 51.4575 101.198 52.7581 101.198 54.133V62.4717L99.0976 61.9886C96.9161 61.4907 95.2136 59.7367 94.8082 57.5146C94.7787 57.3659 94.764 57.2544 94.764 57.1801V39.2616C94.764 36.4747 96.0095 33.8437 98.1468 32.0824L110.094 22.2722C110.875 21.633 112.047 22.1904 112.047 23.2086L112.04 23.2011Z" fill="#fafafa"/>
<path d="M102.385 71.7988V54.7871C102.385 53.4196 102.967 52.1115 103.991 51.2048L111.62 44.4492C112.644 43.5425 113.226 42.2419 113.226 40.867V32.5283L115.327 33.0114C117.508 33.5093 119.211 35.2633 119.616 37.4854C119.646 37.6341 119.66 37.7456 119.66 37.8199V55.7383C119.66 58.5253 118.415 61.1563 116.277 62.9176L104.33 72.7278C103.549 73.367 102.377 72.8096 102.377 71.7914L102.385 71.7988Z" fill="#fafafa"/>
</svg>
