<svg width="248" height="96" viewBox="0 0 248 96" fill="none" xmlns="http://www.w3.org/2000/svg">
<path d="M38.9551 48.9622C39.6304 48.9622 40.1778 48.4148 40.1778 47.7395C40.1778 47.0643 39.6304 46.5168 38.9551 46.5168C38.2798 46.5168 37.7324 47.0643 37.7324 47.7395C37.7324 48.4148 38.2798 48.9622 38.9551 48.9622Z" fill="#FAFAFA"/>
<path d="M20.0177 48.7587C20.2189 48.7587 20.4157 48.699 20.583 48.5872C20.7504 48.4754 20.8808 48.3164 20.9578 48.1305C21.0349 47.9445 21.055 47.7399 21.0158 47.5425C20.9765 47.3451 20.8796 47.1638 20.7372 47.0215C20.5949 46.8791 20.4136 46.7822 20.2162 46.7429C20.0188 46.7037 19.8142 46.7238 19.6282 46.8009C19.4423 46.8779 19.2833 47.0083 19.1715 47.1757C19.0597 47.343 19 47.5398 19 47.7411C19.0004 48.0108 19.1078 48.2694 19.2985 48.4602C19.4893 48.6509 19.7479 48.7583 20.0177 48.7587Z" fill="#FAFAFA"/>
<path d="M39.4185 57.9056C40.0938 57.9056 40.6412 57.3582 40.6412 56.6829C40.6412 56.0076 40.0938 55.4602 39.4185 55.4602C38.7432 55.4602 38.1958 56.0076 38.1958 56.6829C38.1958 57.3582 38.7432 57.9056 39.4185 57.9056Z" fill="#FAFAFA"/>
<path d="M20.6918 59.6718C20.8917 59.6507 21.0809 59.5709 21.2355 59.4424C21.3901 59.3139 21.5031 59.1425 21.5605 58.9499C21.6178 58.7572 21.6167 58.5518 21.5575 58.3598C21.4982 58.1677 21.3834 57.9975 21.2275 57.8706C21.0716 57.7437 20.8817 57.6657 20.6816 57.6467C20.4814 57.6276 20.2802 57.6682 20.1031 57.7634C19.9261 57.8586 19.7812 58.0041 19.6867 58.1815C19.5923 58.359 19.5525 58.5604 19.5724 58.7604C19.5858 58.8939 19.6255 59.0233 19.6891 59.1414C19.7527 59.2594 19.839 59.3638 19.9429 59.4485C20.0469 59.5331 20.1666 59.5964 20.2951 59.6347C20.4236 59.6731 20.5584 59.6856 20.6918 59.6718Z" fill="#FAFAFA"/>
<path d="M40.816 66.7501C41.4912 66.7501 42.0387 66.2027 42.0387 65.5274C42.0387 64.8521 41.4912 64.3047 40.816 64.3047C40.1407 64.3047 39.5933 64.8521 39.5933 65.5274C39.5933 66.2027 40.1407 66.7501 40.816 66.7501Z" fill="#FAFAFA"/>
<path d="M22.5041 70.4574C22.7002 70.4141 22.8792 70.3138 23.0184 70.1689C23.1576 70.0241 23.2508 69.8414 23.2863 69.6437C23.3219 69.446 23.2981 69.2422 23.218 69.058C23.1379 68.8738 23.0051 68.7174 22.8363 68.6085C22.6675 68.4996 22.4703 68.4431 22.2695 68.4462C22.0686 68.4492 21.8732 68.5116 21.7077 68.6255C21.5423 68.7393 21.4142 68.8997 21.3397 69.0862C21.2652 69.2727 21.2475 69.4771 21.289 69.6737C21.3169 69.8051 21.3706 69.9298 21.4469 70.0404C21.5231 70.151 21.6206 70.2455 21.7335 70.3183C21.8464 70.3912 21.9726 70.441 22.1049 70.4649C22.2372 70.4887 22.3728 70.4862 22.5041 70.4574Z" fill="#FAFAFA"/>
<path d="M208.169 66.8336C208.845 66.8336 209.392 66.2862 209.392 65.6109C209.392 64.9356 208.845 64.3882 208.169 64.3882C207.494 64.3882 206.947 64.9356 206.947 65.6109C206.947 66.2862 207.494 66.8336 208.169 66.8336Z" fill="#FAFAFA"/>
<path d="M226.902 68.553C226.705 68.5112 226.5 68.5286 226.313 68.6032C226.126 68.6778 225.965 68.8061 225.851 68.9719C225.737 69.1378 225.675 69.3337 225.672 69.5349C225.67 69.7362 225.727 69.9337 225.836 70.1025C225.946 70.2713 226.103 70.4038 226.288 70.4833C226.473 70.5628 226.677 70.5857 226.875 70.5491C227.073 70.5125 227.256 70.418 227.4 70.2777C227.544 70.1373 227.643 69.9574 227.685 69.7605C227.713 69.6298 227.715 69.4948 227.691 69.3633C227.666 69.2319 227.616 69.1065 227.544 68.9944C227.471 68.8823 227.377 68.7855 227.267 68.7098C227.156 68.6341 227.032 68.5808 226.902 68.553Z" fill="#FAFAFA"/>
<path d="M209.574 57.9908C210.25 57.9908 210.797 57.4434 210.797 56.7681C210.797 56.0928 210.25 55.5454 209.574 55.5454C208.899 55.5454 208.352 56.0928 208.352 56.7681C208.352 57.4434 208.899 57.9908 209.574 57.9908Z" fill="#FAFAFA"/>
<path d="M228.513 57.7355C228.313 57.7156 228.111 57.7553 227.934 57.8498C227.756 57.9443 227.611 58.0893 227.516 58.2664C227.421 58.4436 227.38 58.6449 227.399 58.8451C227.418 59.0453 227.496 59.2353 227.623 59.3911C227.75 59.547 227.921 59.6617 228.113 59.7208C228.305 59.7799 228.511 59.7808 228.703 59.7232C228.896 59.6657 229.067 59.5524 229.196 59.3975C229.324 59.2427 229.404 59.0534 229.424 58.8534C229.438 58.7201 229.425 58.5855 229.387 58.4571C229.348 58.3288 229.285 58.2093 229.2 58.1055C229.116 58.0017 229.012 57.9156 228.894 57.8521C228.776 57.7886 228.646 57.749 228.513 57.7355Z" fill="#FAFAFA"/>
<path d="M210.048 49.0489C210.723 49.0489 211.271 48.5015 211.271 47.8262C211.271 47.1509 210.723 46.6035 210.048 46.6035C209.373 46.6035 208.825 47.1509 208.825 47.8262C208.825 48.5015 209.373 49.0489 210.048 49.0489Z" fill="#FAFAFA"/>
<path d="M228.982 46.8071C228.781 46.8071 228.584 46.8668 228.417 46.9786C228.25 47.0905 228.119 47.2494 228.042 47.4353C227.965 47.6213 227.945 47.8259 227.984 48.0233C228.024 48.2207 228.121 48.4021 228.263 48.5444C228.405 48.6867 228.587 48.7836 228.784 48.8229C228.981 48.8622 229.186 48.842 229.372 48.765C229.558 48.6879 229.717 48.5575 229.829 48.3902C229.94 48.2228 230 48.0261 230 47.8248C230 47.555 229.892 47.2964 229.702 47.1056C229.511 46.9149 229.252 46.8075 228.982 46.8071Z" fill="#FAFAFA"/>
<path d="M209.583 40.106C210.258 40.106 210.806 39.5586 210.806 38.8833C210.806 38.2081 210.258 37.6606 209.583 37.6606C208.908 37.6606 208.36 38.2081 208.36 38.8833C208.36 39.5586 208.908 40.106 209.583 40.106Z" fill="#FAFAFA"/>
<path d="M228.308 35.8924C228.108 35.9135 227.919 35.9933 227.764 36.1218C227.61 36.2503 227.497 36.4217 227.439 36.6143C227.382 36.807 227.383 37.0124 227.442 37.2044C227.501 37.3965 227.616 37.5667 227.772 37.6936C227.928 37.8206 228.118 37.8985 228.318 37.9175C228.518 37.9366 228.719 37.896 228.897 37.8008C229.074 37.7056 229.218 37.5601 229.313 37.3827C229.407 37.2052 229.447 37.0038 229.427 36.8037C229.414 36.6703 229.374 36.5409 229.311 36.4228C229.247 36.3048 229.161 36.2004 229.057 36.1158C228.953 36.0311 228.833 35.9678 228.705 35.9295C228.576 35.8911 228.441 35.8786 228.308 35.8924Z" fill="#FAFAFA"/>
<path d="M208.188 31.2616C208.863 31.2616 209.41 30.7141 209.41 30.0389C209.41 29.3636 208.863 28.8162 208.188 28.8162C207.512 28.8162 206.965 29.3636 206.965 30.0389C206.965 30.7141 207.512 31.2616 208.188 31.2616Z" fill="#FAFAFA"/>
<path d="M226.498 25.1055C226.301 25.1474 226.121 25.2466 225.981 25.3908C225.84 25.5349 225.746 25.7174 225.709 25.9152C225.672 26.113 225.695 26.3173 225.774 26.5022C225.854 26.6871 225.986 26.8443 226.155 26.954C226.323 27.0637 226.521 27.1209 226.722 27.1185C226.923 27.116 227.119 27.0539 227.285 26.9402C227.451 26.8264 227.579 26.6659 227.654 26.4792C227.729 26.2924 227.747 26.0876 227.705 25.8908C227.649 25.6266 227.49 25.3955 227.264 25.2483C227.038 25.101 226.762 25.0497 226.498 25.1055Z" fill="#FAFAFA"/>
<path d="M40.8321 31.1778C41.5074 31.1778 42.0548 30.6304 42.0548 29.9551C42.0548 29.2798 41.5074 28.7324 40.8321 28.7324C40.1568 28.7324 39.6094 29.2798 39.6094 29.9551C39.6094 30.6304 40.1568 31.1778 40.8321 31.1778Z" fill="#FAFAFA"/>
<path d="M22.0985 27.0131C22.2954 27.0549 22.5002 27.0374 22.6871 26.9629C22.874 26.8883 23.0347 26.76 23.1487 26.5942C23.2627 26.4283 23.325 26.2324 23.3276 26.0312C23.3303 25.8299 23.2732 25.6324 23.1637 25.4636C23.0541 25.2948 22.897 25.1623 22.7121 25.0828C22.5272 25.0033 22.3229 24.9804 22.125 25.017C21.9271 25.0536 21.7445 25.148 21.6003 25.2884C21.4561 25.4288 21.3567 25.6087 21.3148 25.8056C21.2593 26.0696 21.3106 26.3447 21.4575 26.571C21.6044 26.7973 21.8348 26.9562 22.0985 27.0131Z" fill="#FAFAFA"/>
<path d="M39.4278 40.0206C40.1031 40.0206 40.6505 39.4732 40.6505 38.7979C40.6505 38.1226 40.1031 37.5752 39.4278 37.5752C38.7525 37.5752 38.2051 38.1226 38.2051 38.7979C38.2051 39.4732 38.7525 40.0206 39.4278 40.0206Z" fill="#FAFAFA"/>
<path d="M20.4884 37.8304C20.6884 37.8503 20.8899 37.8104 21.0673 37.716C21.2448 37.6215 21.3903 37.4766 21.4854 37.2996C21.5806 37.1226 21.6213 36.9213 21.6022 36.7212C21.5831 36.5211 21.5052 36.3311 21.3783 36.1752C21.2514 36.0193 21.0812 35.9045 20.8891 35.8453C20.697 35.786 20.4917 35.785 20.299 35.8423C20.1064 35.8996 19.935 36.0127 19.8065 36.1673C19.678 36.3218 19.5982 36.511 19.5771 36.7109C19.5634 36.8443 19.5762 36.979 19.6146 37.1074C19.653 37.2358 19.7163 37.3554 19.8009 37.4594C19.8855 37.5633 19.9898 37.6496 20.1078 37.7133C20.2257 37.7769 20.3551 37.8167 20.4884 37.8304Z" fill="#FAFAFA"/>
<path d="M79.0264 28.0566H81.2758L83.6741 35.2835L86.2198 28.0566H87.7918L90.3375 35.2835L92.7358 28.0566H94.9853L91.1486 39.632H89.5765L86.9944 32.3065L84.4305 39.632H82.8585L79.0264 28.0566Z" fill="#FAFAFA"/>
<path d="M96.4712 39.632L101.432 28.0566H103.002L107.963 39.632H105.632L104.541 37.0697H99.8932L98.8012 39.632H96.4712ZM100.738 35.0845H103.681L102.211 31.6609L100.738 35.0845Z" fill="#FAFAFA"/>
<path d="M118.05 28.0566V30.0403H114.991V39.632H112.76V30.0403H109.701V28.0566H118.05Z" fill="#FAFAFA"/>
<path d="M123.175 33.8434C123.165 34.3657 123.26 34.8846 123.455 35.3694C123.649 35.8542 123.939 36.2948 124.308 36.6651C124.676 37.0354 125.116 37.3278 125.599 37.5249C126.083 37.7219 126.602 37.8197 127.124 37.8122C127.757 37.8195 128.383 37.6781 128.951 37.3996C129.52 37.121 130.015 36.713 130.397 36.2083L131.934 37.5753C131.346 38.2903 130.603 38.8615 129.76 39.2453C128.918 39.6291 127.999 39.8154 127.074 39.7898C126.276 39.8174 125.481 39.6845 124.736 39.3989C123.991 39.1133 123.311 38.6808 122.736 38.1271C122.161 37.5735 121.704 36.91 121.39 36.176C121.077 35.442 120.914 34.6526 120.912 33.8546C120.91 33.0565 121.068 32.2662 121.377 31.5305C121.686 30.7948 122.14 30.1287 122.712 29.5719C123.284 29.015 123.961 28.5787 124.705 28.2889C125.448 27.9991 126.243 27.8617 127.04 27.8848C128.613 27.8614 130.133 28.4546 131.274 29.5374L129.835 31.0563C129.468 30.682 129.031 30.3842 128.548 30.1798C128.066 29.9754 127.548 29.8686 127.024 29.8655C126.508 29.867 125.997 29.972 125.523 30.1741C125.048 30.3762 124.619 30.6714 124.26 31.0422C123.901 31.413 123.62 31.8519 123.434 32.333C123.247 32.8141 123.159 33.3277 123.175 33.8434Z" fill="#FAFAFA"/>
<path d="M143.598 34.7288H137.811V39.6317H135.578V28.0563H137.811V32.7405H143.598V28.0518H145.831V39.6272H143.598V34.7288Z" fill="#FAFAFA"/>
<path d="M153.023 30.04V32.7405H156.579V34.7242H153.023V37.6435H157.901V39.6272H150.79V28.0518H157.734V30.0354L153.023 30.04Z" fill="#FAFAFA"/>
<path d="M60.8987 43.634L65.8928 55.2079H64.8994L63.3806 51.7145H57.7607L56.2418 55.2079H55.25L60.2441 43.634H60.8987ZM58.1541 50.7728H62.9659L60.5676 45.1848L58.1541 50.7728Z" fill="#FAFAFA"/>
<path d="M69.4443 43.634H70.105L77.8772 53.2728V43.634H78.8705V55.2079H78.2083L70.4377 45.5676V55.2079H69.4458L69.4443 43.634Z" fill="#FAFAFA"/>
<path d="M91.4528 54.1147C90.2828 54.912 88.8803 55.2963 87.4673 55.2068H84.1606V43.6344H87.4642C88.8773 43.5445 90.2799 43.9288 91.4498 44.7265C92.1652 45.2824 92.7442 45.9944 93.1424 46.8082C93.5407 47.622 93.7478 48.5161 93.7478 49.4221C93.7478 50.3282 93.5407 51.2222 93.1424 52.036C92.7442 52.8498 92.1652 53.5618 91.4498 54.1177L91.4528 54.1147ZM90.9394 45.5497C89.9134 44.8271 88.6687 44.4825 87.4171 44.5746H85.1509V54.2666H87.4171C88.6687 54.3589 89.9135 54.0143 90.9394 53.2915C91.5086 52.82 91.9667 52.2288 92.2812 51.56C92.5956 50.8911 92.7587 50.1612 92.7587 49.4221C92.7587 48.6831 92.5956 47.9531 92.2812 47.2843C91.9667 46.6154 91.5086 46.0242 90.9394 45.5528V45.5497Z" fill="#FAFAFA"/>
<path d="M97.8018 43.634H100.051L102.45 50.8594L104.995 43.634H106.567L109.114 50.8594L111.51 43.634H113.759L109.922 55.2079H108.352L105.77 47.8823L103.206 55.2079H101.634L97.8018 43.634Z" fill="#FAFAFA"/>
<path d="M122.439 43.4716C123.613 43.4878 124.756 43.8507 125.724 44.5148C126.693 45.1788 127.443 46.1144 127.881 47.2037C128.319 48.2931 128.425 49.4877 128.186 50.6372C127.947 51.7868 127.374 52.84 126.538 53.6644C125.702 54.4889 124.64 55.0477 123.488 55.2707C122.335 55.4937 121.142 55.3709 120.059 54.9177C118.976 54.4645 118.051 53.7012 117.4 52.7237C116.75 51.7462 116.403 50.5982 116.403 49.4241C116.388 48.6312 116.535 47.8436 116.834 47.1092C117.133 46.3748 117.578 45.7089 118.143 45.1521C118.708 44.5953 119.38 44.1592 120.118 43.8703C120.857 43.5814 121.646 43.4457 122.439 43.4716ZM122.439 53.393C123.231 53.4278 124.016 53.2248 124.691 52.8099C125.367 52.3951 125.903 51.7875 126.231 51.0653C126.558 50.3431 126.662 49.5394 126.529 48.7577C126.396 47.976 126.032 47.2521 125.483 46.6791C124.935 46.1062 124.228 45.7104 123.453 45.5428C122.678 45.3752 121.871 45.4434 121.135 45.7387C120.399 46.0339 119.768 46.5427 119.324 47.1996C118.879 47.8564 118.642 48.6311 118.642 49.4241C118.626 49.9349 118.712 50.4438 118.895 50.921C119.078 51.3982 119.354 51.834 119.708 52.203C120.062 52.5721 120.485 52.8668 120.954 53.0701C121.423 53.2734 121.928 53.3811 122.439 53.3869V53.393Z" fill="#FAFAFA"/>
<path d="M132.608 43.634H134.179L140.628 51.1738V43.634H142.861V55.2079H141.289L134.84 47.6682V55.2079H132.607L132.608 43.634Z" fill="#FAFAFA"/>
<path d="M151.46 43.634C152.873 43.5439 154.276 43.9283 155.446 44.726C156.161 45.2819 156.74 45.994 157.138 46.8078C157.537 47.6216 157.744 48.5156 157.744 49.4217C157.744 50.3277 157.537 51.2217 157.138 52.0356C156.74 52.8494 156.161 53.5614 155.446 54.1173C154.276 54.9147 152.873 55.299 151.46 55.2094H147.815V43.634H151.46ZM154.668 46.9071C154.313 46.473 153.859 46.1297 153.344 45.9054C152.83 45.6812 152.269 45.5826 151.709 45.6176H150.057V53.2242H151.711C152.271 53.2595 152.831 53.1609 153.346 52.9367C153.86 52.7125 154.314 52.369 154.67 51.9346C155.217 51.2111 155.513 50.3288 155.513 49.4217C155.513 48.5145 155.217 47.6322 154.67 46.9087L154.668 46.9071Z" fill="#FAFAFA"/>
<path d="M164.107 45.6223V48.3274H167.662V50.3171H164.107V53.2349H168.985V55.2201H161.875V43.634H168.82V45.6177L164.107 45.6223Z" fill="#FAFAFA"/>
<path d="M175.518 50.3189V55.2112H173.285V43.6358H178.203C179.127 43.5768 180.037 43.8859 180.734 44.4955C181.39 45.1547 181.759 46.0471 181.759 46.9773C181.759 47.9076 181.39 48.7999 180.734 49.4592C180.404 49.7703 180.009 50.0024 179.576 50.1381L182.271 55.2127H179.743L177.263 50.3204L175.518 50.3189ZM178.071 48.3337C178.272 48.3633 178.478 48.3475 178.672 48.2876C178.867 48.2277 179.045 48.1251 179.195 47.9874C179.41 47.6975 179.526 47.3464 179.526 46.9857C179.526 46.625 179.41 46.2738 179.195 45.984C179.047 45.843 178.869 45.7371 178.675 45.674C178.48 45.6109 178.274 45.5923 178.071 45.6194H175.518V48.3337H178.071Z" fill="#FAFAFA"/>
<path d="M190.079 48.4611C187.801 47.9173 187.44 47.5072 187.44 46.7402V46.7068C187.44 45.9473 188.15 45.4279 189.208 45.4279C190.316 45.468 191.38 45.8757 192.232 46.5868L192.291 46.6309L193.438 44.9996L193.385 44.9585C192.22 43.9964 190.75 43.482 189.24 43.508C188.756 43.4517 188.266 43.4962 187.8 43.6387C187.335 43.7812 186.903 44.0186 186.534 44.336C186.165 44.6533 185.865 45.0438 185.654 45.4827C185.443 45.9216 185.326 46.3994 185.309 46.886V46.9194C185.309 49.058 186.65 49.7901 189.126 50.3946C191.252 50.8883 191.621 51.3272 191.621 52.0654V52.0988C191.621 52.9251 190.862 53.4658 189.691 53.4658C188.372 53.4496 187.111 52.925 186.17 52.0016L186.114 51.953L184.827 53.4977L184.879 53.5433C186.179 54.7339 187.879 55.3916 189.642 55.3857C192.138 55.3857 193.743 54.0187 193.743 51.909V51.8771C193.752 49.7886 192.283 49.0018 190.079 48.4611Z" fill="#FAFAFA"/>
<path d="M166.292 32.8866C164.014 32.3428 163.653 31.9342 163.653 31.1657V31.1338C163.653 30.3744 164.363 29.8534 165.42 29.8534C166.529 29.8935 167.593 30.3012 168.445 31.0123L168.504 31.0579L169.651 29.4266L169.597 29.384C168.432 28.4227 166.963 27.9089 165.452 27.935C164.969 27.8787 164.479 27.9232 164.013 28.0657C163.547 28.2082 163.116 28.4456 162.747 28.763C162.378 29.0804 162.078 29.4708 161.867 29.9097C161.656 30.3486 161.539 30.8264 161.522 31.313V31.3449C161.522 33.4835 162.863 34.2156 165.339 34.8201C167.465 35.3138 167.834 35.7527 167.834 36.4909V36.5228C167.834 37.3491 167.075 37.8898 165.903 37.8898C164.585 37.873 163.324 37.3479 162.383 36.4241L162.327 36.3755L161.04 37.9186L161.092 37.9657C162.392 39.1565 164.092 39.8142 165.855 39.8081C168.35 39.8081 169.956 38.4411 169.956 36.3314V36.2995C169.959 34.2065 168.496 33.4197 166.292 32.8866Z" fill="#FAFAFA"/>
<path d="M134.493 65.134H114.592V67.2589H134.493V65.134Z" fill="#FAFAFA"/>
</svg>
