<svg width="248" height="96" viewBox="0 0 248 96" fill="none" xmlns="http://www.w3.org/2000/svg">
<g clip-path="url(#clip0_380_54)">
<path fill-rule="evenodd" clip-rule="evenodd" d="M42.8048 24C29.0884 24 18 35.1701 18 48.9891C18 60.0353 25.1047 69.3857 34.9608 72.6951C36.1931 72.9439 36.6445 72.1574 36.6445 71.4959C36.6445 70.9165 36.6038 68.9308 36.6038 66.8618C29.7037 68.3515 28.2669 63.8829 28.2669 63.8829C27.158 60.9868 25.515 60.2425 25.515 60.2425C23.2566 58.7117 25.6795 58.7117 25.6795 58.7117C28.1846 58.8772 29.4991 61.2767 29.4991 61.2767C31.7164 65.0827 35.2893 64.0073 36.7267 63.3452C36.9318 61.7316 37.5893 60.6146 38.2875 59.9942C32.7842 59.4149 26.994 57.2636 26.994 47.6649C26.994 44.9343 27.979 42.7003 29.5398 40.9628C29.2935 40.3424 28.4309 37.7768 29.7865 34.343C29.7865 34.343 31.8809 33.6809 36.6033 36.9081C38.6252 36.3611 40.7103 36.0828 42.8048 36.0805C44.8992 36.0805 47.0342 36.3704 49.0057 36.9081C53.7286 33.6809 55.823 34.343 55.823 34.343C57.1787 37.7768 56.3155 40.3424 56.0693 40.9628C57.6712 42.7003 58.6156 44.9343 58.6156 47.6649C58.6156 57.2636 52.8254 59.3732 47.2809 59.9942C48.1847 60.7802 48.9646 62.2693 48.9646 64.6278C48.9646 67.9788 48.924 70.6682 48.924 71.4953C48.924 72.1574 49.3759 72.9439 50.6076 72.6956C60.4637 69.3852 67.5684 60.0353 67.5684 48.9891C67.609 35.1701 56.48 24 42.8048 24Z" fill="#fafafa"/>
</g>
<path d="M97.3897 44.5691C97.094 44.5691 96.7983 44.8657 96.7983 45.1623V51.2429C96.7983 51.5395 97.094 51.8361 97.3897 51.8361H102.268V59.3997C102.268 59.3997 101.233 59.8447 98.1289 59.8447C94.5807 59.8447 89.702 58.5099 89.702 47.5352C89.702 36.5605 94.8764 35.2257 99.7551 35.2257C104.042 35.2257 105.817 35.9673 106.999 36.2639C107.295 36.4122 107.738 35.9673 107.738 35.6707L109.069 29.7384C109.069 29.5901 109.069 29.4418 108.773 29.2935C108.33 28.9969 105.521 27.3655 98.2767 27.3655C89.8498 27.3655 81.5708 30.7765 81.5708 47.9801C81.5708 65.0354 91.3282 67.5566 99.4594 67.5566C106.26 67.5566 110.4 64.7388 110.4 64.7388C110.547 64.5905 110.547 64.4422 110.547 64.2939V45.1623C110.547 44.8657 110.252 44.5691 109.956 44.5691" fill="#fafafa"/>
<path d="M173.823 29.4419C173.823 29.1452 173.527 28.8486 173.231 28.8486H166.283C165.987 28.8486 165.691 29.1452 165.691 29.4419V42.9378H154.751V29.4419C154.751 29.1452 154.456 28.8486 154.16 28.8486H147.211C146.916 28.8486 146.62 29.1452 146.62 29.4419V66.0736C146.62 66.3703 146.916 66.6669 147.211 66.6669H154.16C154.456 66.6669 154.751 66.3703 154.751 66.0736V50.3531H165.691V66.0736C165.691 66.3703 165.987 66.6669 166.283 66.6669H173.231C173.527 66.6669 173.823 66.3703 173.823 66.0736V29.4419Z" fill="#fafafa"/>
<path d="M118.53 38.9335C121.061 38.9335 123.113 36.8752 123.113 34.336C123.113 31.7969 121.061 29.7385 118.53 29.7385C115.999 29.7385 113.947 31.7969 113.947 34.336C113.947 36.8752 115.999 38.9335 118.53 38.9335Z" fill="#fafafa"/>
<path d="M122.522 41.4546C122.522 41.1579 122.227 40.8613 121.931 40.8613H114.982C114.687 40.8613 114.391 41.1579 114.391 41.4546V65.7769C114.391 66.5184 114.835 66.6667 115.426 66.6667H121.783C122.522 66.6667 122.67 66.3701 122.67 65.7769" fill="#fafafa"/>
<path d="M193.485 41.0098C193.189 41.0098 192.894 41.3064 192.894 41.603V59.5481C192.894 59.5481 191.12 60.8829 188.606 60.8829C186.093 60.8829 185.502 59.6964 185.502 57.3235V41.603C185.502 41.3064 185.206 41.0098 184.91 41.0098H177.962C177.666 41.0098 177.371 41.3064 177.371 41.603V58.51C177.371 65.777 181.362 67.5567 186.98 67.5567C191.563 67.5567 195.259 65.0355 195.259 65.0355C195.259 65.0355 195.407 66.3702 195.555 66.5185C195.703 66.6668 195.851 66.8151 195.998 66.8151H200.434C200.729 66.8151 201.025 66.5185 201.025 66.2219V41.603C201.025 41.3064 200.729 41.0098 200.434 41.0098" fill="#fafafa"/>
<path d="M216.844 61.0312C213.887 61.0312 212.557 59.6964 212.557 59.6964V47.9802C212.557 47.9802 214.183 46.9421 216.105 46.7938C218.618 46.4971 220.984 47.387 220.984 53.3193C220.984 59.6964 220.244 61.0312 216.696 61.0312H216.844ZM212.852 41.8996V29.4419C212.852 29.1452 212.557 28.8486 212.261 28.8486H205.313C205.017 28.8486 204.721 29.1452 204.721 29.4419V66.0736C204.721 66.3702 205.017 66.6669 205.313 66.6669H210.191C210.339 66.6669 210.635 66.5186 210.635 66.3702C210.783 66.2219 210.93 64.7389 210.93 64.7389C210.93 64.7389 213.739 67.5567 219.209 67.5567C225.567 67.5567 229.263 64.294 229.263 53.0226C229.263 41.7513 223.497 40.2683 219.505 40.2683C215.513 40.2683 212.852 42.0479 212.852 42.0479V41.8996Z" fill="#fafafa"/>
<path d="M137.454 40.8614V33.891C137.454 33.5944 137.306 33.446 137.011 33.446H129.767C129.471 33.446 129.323 33.5944 129.323 34.0393V41.3063C129.323 41.3063 125.775 42.1961 125.479 42.1961C125.183 42.3445 125.036 42.4928 125.036 42.7894V47.3869C125.036 47.6835 125.331 47.9801 125.627 47.9801H129.323V58.8065C129.323 66.9634 134.941 67.7049 138.785 67.7049C140.559 67.7049 142.629 67.1117 142.924 66.9634C143.072 66.8151 143.22 66.6668 143.22 66.3702V61.476C143.22 61.1794 142.924 60.8828 142.629 60.8828C142.333 60.8828 141.594 61.0311 140.707 61.0311C138.193 61.0311 137.306 59.8447 137.306 58.2133C137.306 56.5819 137.306 47.9801 137.306 47.9801H142.481C142.776 47.9801 143.072 47.6835 143.072 47.3869V41.4546C143.072 41.158 142.776 40.8614 142.481 40.8614" fill="#fafafa"/>
<defs>
<clipPath id="clip0_380_54">
<rect width="49.7578" height="48.7423" fill="white" transform="translate(18 24)"/>
</clipPath>
</defs>
</svg>
