<svg width="248" height="96" viewBox="0 0 248 96" fill="none" xmlns="http://www.w3.org/2000/svg">
<path d="M160.293 52.1776L159.931 55.3836C152.412 52.2269 151.103 58.3958 154.769 59.4048C165.521 62.3649 161.575 70.4602 156.993 71.4032C154.721 71.8709 151.564 71.8486 149.068 70.9193L149.431 67.4199C152.544 69.2551 157.364 69.0457 157.364 66.1374C157.364 62.9413 151.489 63.6313 149.287 59.9552C148.016 57.8332 148.174 52.253 154.527 51.4805C157.454 51.1244 160.293 52.1776 160.293 52.1776ZM118.429 51.7858H122.485V71.3647H118.429V51.7858ZM82.0005 51.7858H92.9358V54.8684H85.9062V59.761H92.5725V62.7652H85.9062V71.3652H82.0005V51.7858Z" fill="#FAFAFA"/>
<path d="M94.6152 71.7829C92.6799 73.6432 90.6461 75.0794 89.0395 77.3483C86.1482 80.0221 89.3708 74.3804 90.1842 73.0864C91.09 71.2215 92.116 69.529 93.2342 67.7052C94.781 65.2471 96.6499 62.5785 98.376 60.043C101.004 56.8258 103.513 53.1267 106.483 50.0441C108.707 47.2465 111.288 44.5371 113.591 42.0262C117.032 38.4893 120.523 34.9385 124.318 31.6604C126.985 29.1517 129.937 26.8846 132.626 24.4397C134.914 22.5592 137.357 20.7563 139.638 18.8909C142.019 16.7268 144.824 14.9668 147.32 12.9029C151.834 9.81889 156.376 6.2606 161.357 3.75543C162.649 2.53708 165.353 3.10056 165.569 4.61676C164.581 6.60552 161.539 7.40108 159.913 9.05898C158.015 11.2875 155.325 12.5372 153.317 14.623C151.588 16.0852 150.074 17.8813 148.058 19.333C146.189 21.3169 143.522 23.1892 141.54 25.2441C139.864 27.0048 137.905 28.4893 136.352 30.3988C134.591 32.3885 132.343 34.3384 130.565 36.1973C128.716 37.836 127.115 39.7277 125.335 41.3301C123.601 43.1193 121.836 45.5291 119.901 47.0494C118.538 48.3264 117.314 50.0007 116.007 51.3518C115.109 52.118 113.908 53.5094 113.116 54.4077C111.662 56.1475 109.788 57.9018 108.462 59.571C106.934 61.1127 106.57 61.3319 104.974 62.8981C103.768 63.9863 102.378 65.4816 101.234 66.8439C100.003 67.5623 99.4558 69.2551 98.2363 69.378C98.0269 68.9552 101.235 65.3113 98.1739 67.7702C96.8206 68.9807 95.9341 70.4114 94.6152 71.7835V71.7829Z" fill="#FAFAFA"/>
<path d="M154.086 31.006C157.404 27.3355 160.987 23.764 164.558 20.2631C167.337 18.1219 164.771 23.0204 163.879 23.9176C162.752 25.8861 161.886 27.906 160.569 29.7484C159.706 31.6463 158.711 33.2055 157.465 34.9648C156.35 36.8479 155.039 38.5286 153.868 40.3678C152.19 42.604 150.915 45.1144 149.257 47.4256C148.423 48.7729 147.394 50.3945 146.707 51.8628C145.37 53.7696 143.974 55.7378 142.939 57.8651C141.459 60.5792 139.718 63.1494 138.327 65.8697C137.418 67.5772 136.07 69.6131 135.192 71.4612C133.984 73.1835 132.511 75.5685 131.688 77.716C130.323 80.6419 128.797 83.5607 127.033 86.2771C126.834 86.9319 127.131 84.9946 126.504 86.7885C125.932 87.2419 124.137 90.2288 124.611 88.1622C124.878 86.3413 122.831 90.3674 122.345 91.1854C121.427 91.1476 120.29 94.8184 119.954 93.4462C120.196 91.744 120.255 89.9393 120.923 88.4268C121.191 85.8016 122.182 83.2897 122.957 80.7803C123.651 78.3719 124.681 76.0002 125.566 73.6978C127.023 70.9559 128.033 67.9795 129.629 65.3305C130.577 63.3024 131.864 61.0785 132.891 59.3334C134.184 56.9052 135.725 54.7506 137.109 52.4661C139.056 49.5942 141.174 46.6917 143.22 43.8812C144.432 42.4724 145.426 40.9415 146.565 39.6193C147.768 38.0381 149.162 36.3711 150.561 34.9498C151.546 33.5088 152.894 32.2872 154.087 31.0054L154.086 31.006Z" fill="#FAFAFA"/>
</svg>
