<svg width="272" height="647" viewBox="0 0 272 647" fill="none" xmlns="http://www.w3.org/2000/svg">
<path fill-rule="evenodd" clip-rule="evenodd" d="M221.582 237.957L221.883 241.554L222.108 241.132C222.14 248.387 223.214 255.721 224.398 262.959C227.494 260.411 230.04 258.164 229.305 253.814C227.443 247.615 225.055 241.568 223.125 235.402L222.801 237.019L221.527 237.276L221.582 237.957ZM0.470032 620.134C1.0401 617.614 1.66232 614.945 2.24518 612.417C2.30264 612.204 2.8363 612.156 3.0083 612.098C6.09027 604.545 8.78714 602.823 14.7563 601.795C24.3817 600.052 33.8803 596.274 42.9731 590.675C42.7608 589.841 42.1806 588.403 41.6531 586.866C41.7218 586.889 41.7912 586.91 41.8628 586.924C41.9847 586.948 42.0995 586.953 42.2089 586.945C42.8256 588.395 43.4968 589.668 43.8518 590.137C44.9875 589.404 46.2513 588.598 47.3642 587.819L47.3595 587.805C48.35 587.118 49.5742 586.269 50.5441 585.74C50.7259 584.735 52.1968 584.423 52.9653 583.76C54.4571 582.693 55.2845 582.143 56.6529 583.505C59.6044 579.668 61.9815 575.611 64.3184 570.367C65.7808 567.301 66.4993 563.907 68.4656 561.17C68.4279 561.148 67.1779 560.759 67.1472 560.724C89.4924 511.177 93.0725 456.045 97.8389 403.084C98.8903 391.24 99.9902 379.288 102.04 367.791C102.321 366.05 102.573 364.336 103.62 362.948C91.0628 352.592 90.9404 332.518 97.0228 317.63C83.0379 279.87 110.451 239.767 108.428 201.231C107.294 175.091 111.995 144.803 141.496 138.532C145.154 136.424 149.54 136.109 153.031 136.053C156.173 134.464 156.669 130.955 157.788 128.071L158.881 128.078C159.202 126.772 159.519 125.341 159.795 124.026C160.21 123.192 159.964 122.105 161.271 122.336C164.234 118.043 187.941 115.885 188.21 122.797C189.066 123.302 189.235 124.288 189.434 125.485C190.749 133.974 199.806 140.744 207.967 139.379L208.099 139.26C242.843 137.971 256.52 162.709 263.309 196.425C268.613 222.621 271.985 251.01 267.831 277.25C263.773 289.141 251.48 294.862 241.97 302.188C243.066 304.953 243.168 308.004 243.202 310.996C243.327 314.45 243.578 317.931 243.883 321.339C244.509 325.658 245.521 333.092 239.648 333.596C237.372 385.213 232.62 436.694 239.882 488.461C245.911 517.09 243.603 551.73 236.149 579.741C235.719 581.125 234.614 582.37 233.203 581.928C232.487 582.391 231.927 582.682 231.334 582.244C230.985 582.892 230.603 583.513 230.189 584.116C230.033 591.812 229.161 599.362 229.558 607.108C230.15 607.039 231.451 606.387 231.957 606.814L232.03 607.404L232.511 607.569C233.519 610.415 234.151 613.403 234.619 615.813C236.659 619.944 239.265 627.256 237.812 631.858C237.882 631.94 238.273 632.395 238.335 632.464C238.682 632.663 238.746 632.929 238.831 633.234C239.821 633.606 239.922 634.738 240.024 635.896C240.52 638.701 239.783 641.251 239.53 643.995L239.515 643.977C239.515 643.977 238.684 644.941 238.683 644.942C228.238 645.578 217.954 645.742 207.555 646.116C206.771 644.611 206.534 642.578 205.945 640.926C193.617 649.952 172.259 646.499 156.775 644.282C150.487 643.375 144.546 642.517 139.279 642.232C138.936 642.185 138.911 642.037 138.903 641.9C138.851 639.834 138.463 637.716 138.656 635.711C137.569 634.653 138.064 632.726 138.812 631.034C141.56 625.076 149.031 624.424 155.083 623.407C166.469 621.195 175.625 617.035 183.032 610.675C182.534 610.224 182.082 609.781 181.67 609.347C181.83 609.24 181.991 609.133 182.152 609.024C182.542 608.853 182.914 608.678 183.256 608.457C183.43 608.555 183.649 608.575 183.864 608.454C184.608 608.035 185.215 607.42 185.922 606.95C186.063 607.152 186.204 607.357 186.345 607.572C187.023 606.857 187.791 606.047 188.462 605.296C188.486 605.089 188.431 604.572 188.684 604.516C190.591 604.709 192.8 605.352 194.795 606.067C197.049 598.651 198.355 590.624 198.205 583.045C195.987 583.045 194.045 583.025 192.392 581.97C191.94 582.091 191.31 582.354 191.193 581.643C190.522 578.74 190.348 575.667 190.179 572.695C186.747 516.48 181.518 471.308 164.175 423.688C162.509 430.3 159.713 437.177 157.168 443.759C145.592 471.267 137.251 500.934 130.102 529.807C127.289 540.614 124.231 552.49 121.211 563.185C120.04 568.327 117.659 570.209 112.67 570.168C108.826 570.348 104.968 570.292 101.108 570.021C95.8458 574.823 93.6879 581.305 92.1505 587.141C93.4314 588.095 95.4643 587.735 96.9619 588.05C98.2532 590.133 97.8063 593.046 97.7761 595.616C97.5735 598.955 97.7461 602.537 96.775 605.689C96.6015 609.137 96.58 612.914 96.3209 616.923C99.1738 618.579 98.6512 622.238 97.7037 625.738C97.2803 626.629 81.9472 626.452 78.1436 626.415C73.6741 626.154 67.3005 627.297 65.8349 622.393C55.1941 628.309 39.0056 626.31 26.6088 624.569C17.6118 623.472 9.46088 622.451 0.625641 620.589C0.534302 620.549 0.405975 620.264 0.470032 620.134Z" fill="#FAFAFA"/>
<path fill-rule="evenodd" clip-rule="evenodd" d="M96.9545 587.954C94.5567 589.286 92.6385 591.366 90.1213 592.519C79.2272 597.982 65.4356 595.04 57.1347 586.278C55.9637 586.302 55.0238 585.019 55.272 583.864C52.7817 584.084 50.8184 586.005 48.9647 587.522C49.218 589.277 49.1009 591.041 48.3921 592.721C48.3367 592.855 48.0962 592.909 48.0663 592.721C47.8513 591.443 47.63 590.156 47.3405 588.893C46.8179 589.322 46.2865 589.73 45.746 590.135C45.6992 591.185 44.6051 591.95 43.711 591.588C36.3761 596.572 28.0854 600.109 19.4755 602.177C12.7388 603.586 9.23981 603.441 6.25195 610.544C7.35931 610.766 8.44867 611.305 10.1134 611.712C38.2798 615.003 66.7058 611.456 94.9173 613.857C95.2945 607.647 95.6319 601.441 96.0583 595.235C96.2084 593.002 96.2737 590.748 97.1397 588.661C97.1227 588.406 97.0822 588.154 97.0013 587.958C96.9864 587.956 96.9715 587.956 96.9545 587.954ZM95.9029 572.666C95.8118 572.252 96.1356 571.904 96.4564 571.631C96.8247 571.009 97.244 570.423 97.7421 569.929C87.9592 569.062 78.5794 566.049 69.3897 562.942C68.2794 570.851 64.3387 578.035 59.8978 584.561C67.4354 592.427 79.7095 594.342 89.5764 590.042C88.9182 588.588 90.3304 586.488 90.6895 584.987C91.9271 581.39 93.6216 577.952 95.0898 574.458C95.3409 573.88 95.6049 573.269 95.9029 572.666ZM97.9167 572.53C97.8507 572.577 97.7826 572.626 97.7166 572.668C97.6761 572.766 97.6378 572.864 97.5974 572.962C97.6996 572.851 97.8039 572.743 97.9082 572.636C97.9103 572.6 97.9124 572.566 97.9167 572.53ZM188.355 605.153C188.159 605.5 187.955 605.843 187.742 606.18C188.152 606.435 191.239 612.997 189.513 611.948C188.555 610.583 187.597 609.207 186.565 607.892C186.278 608.276 185.982 608.653 185.675 609.021C186.737 609.786 186.325 611.577 184.917 611.581C184.414 611.584 184.024 611.479 183.555 611.305C177.258 617.338 168.979 620.906 160.646 623.116C153.741 625.283 140.734 624.176 140.383 634.029C141.085 634.012 141.838 634.24 142.373 634.747C172.86 645.074 204.357 634.188 235.106 631.173C234.682 630.32 235.222 628.779 236.347 628.847C236.358 621.946 234.453 615.094 231.694 608.815C216.048 623.754 204.846 609.14 189.064 605.566C188.76 605.504 188.526 605.353 188.355 605.153ZM180.29 602.471C180.335 602.471 180.45 602.457 180.494 602.471C181.129 604.615 182.479 606.547 184.198 607.933C184.656 607.513 185.105 607.085 185.545 606.65C184.398 605.317 183.142 604.084 181.688 603.042C181.281 602.763 180.804 602.44 180.29 602.471ZM241.124 326.396C241.531 324.905 241.071 323.344 241.024 321.828C240.675 317.702 240.2 313.544 240.292 309.399C240.404 307.908 240.436 306.466 240.104 305.009C240.205 304.618 240.554 305.542 240.658 305.629C240.679 305.512 240.707 305.395 240.73 305.277C240.564 305.088 240.388 304.922 240.196 304.762C232.02 311.53 224.096 318.603 216.454 325.972C215.663 326.732 214.494 326.685 213.696 325.972C212.039 324.489 210.324 323.098 208.557 321.788C207.946 323.786 207.011 325.637 205.943 327.427C212.927 328.28 219.818 326.422 226.753 325.88C231.403 325.523 236.071 325.742 240.69 326.357C240.809 326.374 240.996 326.374 241.124 326.396ZM225.727 260.127C228.166 258.018 229.188 256.639 228.888 253.317C227.446 248.407 225.576 243.635 223.979 238.776C223.774 239.803 223.757 240.854 223.671 241.895C224.235 247.987 224.672 254.1 225.727 260.127ZM223.247 237.07C223.281 237.006 223.315 236.942 223.351 236.88C223.298 236.716 223.245 236.552 223.192 236.388C223.211 236.616 223.228 236.842 223.247 237.07ZM267.22 274.569C267.205 271.964 267.546 269.342 267.697 266.743C268.944 244.883 267.415 222.863 263.139 201.388C257.501 171.025 247.055 140.535 210.96 139.916C209.694 141.063 209.25 142.833 208.544 144.353C206.417 148.567 203.292 152.216 199.71 155.264C184.862 167.358 145.596 181.164 142.147 151.864C142.139 150.954 142.2 149.994 142.347 149.033C142.022 148.025 142.173 146.763 142.403 145.629C142.247 144.818 142.486 143.887 142.897 143.011C142.828 142.954 142.765 142.89 142.709 142.82C144.33 139.724 147.107 138.711 150.192 137.545C150.617 137.119 150.241 136.237 149.587 136.468C148.15 136.972 146.673 137.313 145.174 137.571C144.966 137.607 144.834 137.716 144.768 137.854C109.763 148.457 110.908 177.309 111.446 207.804C110.915 240.66 91.8937 271.506 97.4441 304.702C103.996 264.644 116.883 225.686 119.808 185.009C120.027 181.361 120.569 177.759 120.979 174.131C121.189 172.602 121.418 168.321 121.941 169.037C124.44 183.027 122.488 197.401 120.392 211.329C115.77 239.634 108.134 267.33 102.966 295.528C100.115 308.063 99.8083 321.245 112.373 328.493C125.955 335.972 142.853 334.469 157.527 331.438C158.698 331.163 159.584 331.772 160.005 332.611C162.87 326.604 169.299 323.648 173.484 318.721C177.675 313.345 180.417 306.989 184.27 301.373C183.879 297.956 187.054 292.569 190.678 292.496C199.829 282.936 209.728 274.086 220.424 266.289C220.58 265.797 220.997 265.52 221.291 265.079C221.727 264.336 222.011 263.41 221.942 262.553C220.318 253.165 219.939 243.424 222.479 234.158C217.95 220.078 215.195 205.538 212.61 191.008C212.368 190.305 213.544 189.976 213.719 190.701C214.023 192.243 214.315 193.788 214.6 195.332C219.82 214.61 226.037 233.568 232.82 252.345C233.612 254.963 234.353 257.577 233.906 260.318C233.518 261.917 231.096 261.763 230.819 260.124C230.277 259.966 229.798 260.107 229.374 260.429C229.369 260.423 229.367 260.416 229.363 260.412C226.118 265.056 221.816 268.894 217.44 272.528C209.943 278.906 202.59 285.454 195.665 292.454C194.02 294.582 188.496 298.381 188.106 301.258C188.83 306.381 194.129 308.81 198.29 310.813C204.343 313.756 210.019 317.483 215.054 321.952C226.013 311.812 237.431 302.143 249.499 293.344C256.419 288.36 264.991 283.418 267.22 274.569ZM144.391 143.286C144.361 143.45 144.333 143.614 144.306 143.776C144.436 143.595 144.57 143.416 144.712 143.246C144.606 143.261 144.499 143.273 144.391 143.286ZM104.865 359.72C104.982 359.372 105.105 359.027 105.229 358.682C104.908 357.142 104.426 355.698 104.279 354.079C101.176 350.923 99.2493 346.624 98.7341 342.24C98.5808 340.951 98.4915 339.715 99.4366 338.708C99.7836 338.337 100.52 338.297 100.861 338.708C102.019 340.103 101.719 342.206 102.132 343.908C103 347.512 105.011 350.911 107.892 353.206C109.514 354.533 111.586 356.208 113.444 356.718C111.994 351.049 108.805 345.653 108.382 339.679C108.26 337.928 108.371 336.29 108.799 334.586C109.117 333.525 109.595 332.603 109.218 331.497C104.835 328.666 100.963 324.588 98.9959 319.662C98.2962 319.739 97.5769 319.428 97.261 318.648C95.6879 330.298 93.5656 342.6 99.6431 353.282C101.005 355.704 102.762 357.902 104.865 359.72ZM167.366 332.746C169.077 330.989 170.618 329.091 172.192 327.214C173.863 325.48 176.712 328.182 173.763 330.72C168.623 337.148 168.806 345.163 171.247 352.607C171.668 350.694 172.005 348.794 172.637 346.917C174.206 342.263 176.586 337.926 179.555 334.023C180.27 333.084 182.122 333.561 181.652 334.908C180.168 339.149 179.498 343.842 180.17 348.315C180.485 350.4 181.384 352.383 181.505 354.501C181.546 355.234 181.111 357.087 182.267 356.667C182.712 356.505 183.108 355.562 183.297 354.961C184.242 351.859 184.043 348.573 184.404 345.384C184.854 341.238 185.545 336.98 188.515 333.832C189.166 333.14 190.129 333.585 190.437 334.339C192.785 340.007 190.356 347.038 194.531 352.011C194.739 352.241 195.931 353.406 196.125 353.253C196.453 352.993 196.1 351.525 196.044 351.184C193.174 339.313 202.93 329.457 206.415 320.254C199.476 314.543 187.596 312.717 184.581 303.354C181.769 309.57 179.331 316.147 174.874 321.42C170.502 326.656 162.304 330.111 161.966 337.758C164.053 336.543 165.679 334.448 167.366 332.746ZM230.272 580.982C224.909 581.066 219.519 582.731 214.202 582.643C209.291 582.818 204.374 582.591 199.471 582.294C201.324 589.609 200.61 598.186 198.16 605.281C207.691 609.742 216.37 616.114 226.823 609.893C226.938 608.972 227.251 608.058 227.554 607.164C227.433 606.669 227.342 606.022 227.794 605.63C227.769 597.361 228.622 589.087 230.272 580.982ZM42.6275 581.093C41.9944 581.762 44.2498 586.972 44.7924 587.854C45.4355 587.438 46.0724 587.031 46.704 586.597C46.2016 585.097 45.5247 583.664 44.5412 582.354C44.2751 582 43.2257 580.577 42.6275 581.093ZM1.81354 611.375C1.91785 610.923 2.35001 610.512 2.82043 610.397C4.17538 606.895 6.3407 603.393 9.69385 601.551C11.7185 600.501 13.9622 600.196 16.1696 599.757C25.4342 597.949 34.2401 594.275 42.2847 589.413C41.4946 587.177 40.754 584.956 40.2795 582.638C39.5055 580.042 41.5682 577.872 44.154 578.961C46.4279 579.983 47.8026 583.115 48.4793 585.36C49.052 584.966 49.6565 584.571 50.2781 584.214C50.6017 583.308 51.6703 582.923 52.4941 582.409C53.7775 581.553 55.5018 580.052 57.0453 581.214C59.8356 577.49 62.072 573.361 63.9594 569.115C65.442 566.124 66.0072 562.722 68.0848 560.051C67.7932 558.201 68.924 556.356 69.679 554.711C70.3796 553.209 71.048 551.691 71.6781 550.157C84.7529 514.548 89.4048 476.37 94.8928 439.006C98.8403 413.85 98.2407 388.041 103.811 363.173C90.2795 352.16 90.6003 331.837 96.4904 316.814C83.9082 281.627 105.241 246.602 107.819 211.553C108.647 185.975 104.395 155.262 130.966 140.822C134.331 138.964 137.945 137.465 141.726 136.721C145.224 134.752 149.394 134.272 153.355 134.195C155.59 132.98 156.225 130.191 157.027 127.951C157.246 127.144 157.738 126.234 157.825 125.408C157.834 125.335 157.944 125.306 157.964 125.389C161.066 133.572 153.243 142.123 145.283 143.154C141.694 155.819 149.242 167.111 162.845 166.394C178.595 165.212 200.86 156.514 206.554 140.506C204.043 140.459 201.654 139.676 199.286 138.93C198.739 138.679 197.978 138.717 197.641 138.161C192.198 135.424 188 130.274 187.093 124.221C187.131 124.251 187.197 124.296 187.302 124.362C187.208 124.302 187.123 124.238 187.046 124.172C186.97 123.244 186.959 122.315 187.048 121.384C187.465 121.007 188.057 120.802 188.745 120.941C190.84 121.363 190.882 123.572 191.218 125.229C191.521 126.722 192.087 128.096 192.849 129.412C195.953 134.692 201.892 138.365 208.106 137.567C208.389 137.311 208.787 137.185 209.172 137.313C209.144 137.337 209.115 137.36 209.087 137.381C245.578 136.041 258.598 164.093 264.953 195.397C270.031 218.368 272.034 242.023 270.852 265.522C270.562 268.239 270.919 275.644 269.147 277.243C265.25 289.1 253.04 294.672 243.832 301.765C244.803 304.552 244.825 307.521 244.875 310.441C245.02 313.779 245.243 317.115 245.548 320.444C245.822 323.447 246.608 326.82 245.52 329.742C244.826 331.586 243.272 333.511 241.218 333.755C240.665 338.795 240.486 343.894 240.051 348.937C239.532 395.127 234.255 441.562 241.54 487.5C244.224 504.947 246.433 522.616 244.605 540.269C243.232 553.384 240.636 566.358 237.784 579.216C237.265 580.916 235.922 582.533 234.027 582.241C233.374 582.636 232.579 582.941 231.871 582.597C231.771 590.811 230.707 599.014 231.296 607.234C231.69 606.998 232.088 606.765 232.488 606.539C232.718 606.047 233.178 605.572 233.733 605.866C233.855 605.811 234.012 605.918 233.984 606.043C234.996 608.789 235.678 611.775 236.239 614.66C238.209 618.453 239.404 622.682 239.802 626.955C239.997 628.622 240.282 630.777 238.819 631.971C239.327 631.989 239.958 632.031 240.111 632.623C240.831 634.39 242.008 645.256 239.334 645.208C228.976 645.841 218.57 646.009 208.199 646.382C207.635 646.403 207.097 645.966 206.952 645.432C206.622 644.22 206.266 643.014 205.921 641.806C189.456 650.849 150.134 645.579 140.214 643.56C138.171 643.56 138.038 637.191 138.171 635.25C137.017 633.786 137.741 631.337 138.45 629.79C141.441 623.296 149.275 622.602 155.486 621.564C165.069 619.716 174.458 616.094 182.033 609.822C179.989 607.88 177.565 604.674 177.826 601.747C178.099 600.473 179.242 599.766 180.494 599.842C183.345 600.081 185.42 603.083 187.027 605.142C187.363 604.787 187.693 604.428 188.021 604.067C188.057 603.302 188.566 602.556 189.456 602.663C191.218 602.874 192.932 603.304 194.609 603.875C195.025 601.943 195.791 600.055 196.219 598.115C197.349 593.251 197.615 588.278 197.722 583.296C195.663 583.264 194.48 583.164 192.881 582.316C192.012 582.571 191.029 582.25 190.761 581.084C189.886 577.299 189.839 573.388 189.573 569.52C186.614 520.469 181.284 471.067 164.275 424.646C162.501 430.242 160.165 435.637 158.168 441.155C144.215 477.54 135.54 515.609 125.46 553.177C124.607 556.332 123.74 559.482 122.852 562.627C121.613 567.987 119.017 570.456 113.324 570.433C109.586 570.608 105.841 570.565 102.106 570.316C97.6932 574.492 95.5566 580.071 94.0105 585.779C95.137 586.342 98.4695 585.514 98.617 587.042C100.014 589.331 99.4185 592.286 99.4453 594.845C99.238 598.279 99.4149 601.917 98.3959 605.206C98.3388 608.672 98.2026 612.138 98.0189 615.601C101.067 617.802 100.154 622.185 99.3174 625.285C99.4902 627.482 81.3286 626.493 78.7412 626.685C74.4812 626.335 68.204 627.662 65.9497 623.023C51.8208 629.983 32.2434 625.026 17.0277 623.616C11.6674 622.829 6.33069 621.898 1.01953 620.835C0.248932 620.68 -0.123596 619.8 0.0360718 619.101C0.619324 616.524 1.21964 613.95 1.81354 611.375Z" fill="#313131"/>
<path fill-rule="evenodd" clip-rule="evenodd" d="M139.904 72.2868C140.406 65.7649 139.629 58.929 142.132 52.73C146.498 42.4445 158.74 39.0151 168.231 35.0993C172.033 33.971 184.827 33.8133 189.279 32.32C199.354 28.9403 201.762 24.9134 209.768 31.3485C211.119 32.4478 211.965 33.6425 212.581 35.2749L212.556 35.2819C212.732 35.9625 212.543 36.6415 212.147 37.1602C215.618 40.7237 217.07 46.0661 215.289 50.8097C209.477 63.1537 209.75 69.8282 211.623 83.0986C214.069 95.4874 208.48 100.013 199.225 106.754C199.602 107.488 199.68 108.463 199.189 109.11C188.486 124.214 168.307 131.426 151.017 123.759C143.999 120.622 140.866 113.116 139.078 106.343C136.995 98.7596 136.355 90.7684 138.051 83.0432C138.735 79.4704 139.626 75.9235 139.904 72.2868Z" fill="#FAFAFA"/>
<path fill-rule="evenodd" clip-rule="evenodd" d="M201.637 0.029288C200.338 -0.166622 199.357 0.642833 198.89 1.78374L198.865 1.84518C198.715 2.23339 198.549 2.61099 198.369 2.98223C195.118 1.3806 190.48 1.79214 188.422 5.03571C186.954 7.35224 187.85 10.1015 188.403 12.5581L188.767 14.1767C188.064 14.6255 187.535 15.4293 187.56 16.2616L187.563 16.3256L187.71 18.5828C187.242 18.1054 186.813 17.5857 186.43 17.032C186.166 16.5462 185.881 16.0689 185.575 15.6065C183.773 12.8848 179.728 15.2501 181.215 18.1648C181.5 18.727 181.821 19.2595 182.166 19.7728C182.554 20.5302 182.873 21.3087 183.118 22.1085C182.415 22.4161 181.874 23.0991 181.817 24.1301C181.684 26.5379 182.943 28.5468 184.945 29.809C185.535 30.1803 186.143 30.2524 186.694 30.1145C186.792 30.246 186.889 30.3776 186.982 30.5112C186.183 31.1625 185.463 31.9049 184.844 32.728C182.981 32.448 181.107 32.3165 179.234 32.3122C176.944 31.1858 174.202 31.2091 171.742 31.6313C170.157 31.9028 168.636 32.431 167.078 32.8108C165.434 33.2096 163.766 33.2244 162.103 33.496C160.008 33.8375 158.17 34.8091 157.015 36.3598C155.745 36.398 154.41 36.9198 153.303 37.6284C150.726 39.2788 148.164 40.9526 145.594 42.6136C144.607 43.2513 144.238 44.2693 144.419 45.4048L144.432 45.4774L144.518 45.9484L144.315 46.2382C143.528 47.354 142.672 48.5226 142.163 49.7541C141.221 51.1181 140.37 52.548 139.616 54.0223C138.6 56.0037 137.761 58.1038 137.193 60.2591C137.051 60.8043 136.91 61.3537 136.817 61.9095C136.684 62.6944 136.889 63.3033 137.001 64.0564C137.14 65.011 137.191 65.9783 137.339 66.9351C137.438 67.5693 137.975 67.8812 138.536 67.8982C138.325 69.5125 138.173 71.1375 138.027 72.7497C137.822 75.0535 137.683 77.3637 137.563 79.6739C136.942 80.5797 135.672 81.2967 134.755 81.5449C133.486 81.8864 132.155 81.5152 130.955 81.0803C130.201 80.8067 129.582 81.7592 129.95 82.3956C131.105 84.3939 133.577 84.3854 135.448 83.5008C136.24 83.1274 136.935 82.5865 137.451 81.8822C137.419 82.5526 137.385 83.2229 137.351 83.8954L137.32 84.5045C136.939 91.6178 136.118 98.9759 137.449 106.019C139.753 118.219 149.806 127.508 162.086 128.23C168.53 128.608 173.897 126.697 176.565 125.63C179.234 124.564 178.197 122.39 176.344 123.011C173.153 124.082 167.29 125.677 162.044 124.988C149.679 123.365 139.193 117.158 140.271 90.4249C140.423 86.6339 140.894 82.8411 140.995 79.0502C141.092 75.3441 141.056 71.636 141.219 67.9321L141.273 66.6684C141.337 65.1917 141.405 63.7082 141.515 62.2299C141.648 61.6571 141.758 61.0758 141.92 60.5137C142.362 58.9842 142.938 57.4971 143.654 56.0779C143.813 56.1988 143.99 56.2858 144.183 56.3197C145.642 56.5828 147.011 56.5085 148.378 55.8976C149.015 55.6154 149.577 55.24 150.101 54.7754C150.35 54.5569 150.517 54.3447 150.648 54.1241C151.309 54.1347 151.971 53.9353 152.385 53.458C152.857 52.914 152.935 52.3521 152.75 51.8319L152.731 51.78L152.777 51.763C153.335 53.2119 154.446 54.4869 155.665 55.3481C157.591 56.7143 160.001 57.1089 162.312 57.1449C164.864 57.1831 167.555 56.7886 170.073 56.3855C170.738 56.2794 171.399 56.1585 172.048 55.9952C172.073 56.0206 172.099 56.0503 172.126 56.0758C174.287 58.1526 177.326 58.6872 180.068 57.5013C181.652 56.8161 182.981 55.713 184.155 54.4487C184.172 55.1106 184.206 55.7724 184.263 56.4279L184.287 56.6882C184.404 57.9091 184.629 59.2041 185.547 60.0852C187.032 61.5128 189.187 60.9401 190.9 60.0109C190.898 60.0555 190.898 60.1021 190.898 60.1488C190.435 61.7271 189.971 63.3075 189.506 64.8879L189.406 65.2246C189.068 66.3468 188.697 67.4704 188.596 68.6449C188.401 70.8893 189.888 73.1061 192.372 72.353C193.675 71.9594 194.719 70.8592 195.721 69.9779L196.352 69.4298C194.719 74.7905 193.587 80.3421 193.481 85.9361C193.475 86.2395 193.735 86.4686 194.022 86.4792C194.694 86.5068 195.416 86.3731 196.092 86.1037C196.13 86.1016 196.168 86.0995 196.208 86.0931C197.361 85.9255 198.432 85.5076 199.377 84.8903C199.159 85.584 199.062 86.3286 199.119 87.1071C199.134 87.2959 199.427 87.3617 199.47 87.1538C200.015 84.4618 203.151 82.4274 205.855 82.9429C208.757 83.4966 210.895 86.004 211.419 88.8572C211.981 91.9226 210.905 95.4674 208.914 97.8327C207.997 98.9231 206.791 99.8332 205.359 100.062C204.704 100.166 204.024 100.13 203.388 99.9435C203.117 99.8629 202.864 99.7505 202.606 99.6444C202.23 99.4917 201.791 99.4683 201.436 99.3071C200.631 98.9443 199.822 99.6889 200.23 100.518C200.585 101.242 200.904 101.73 201.493 102.103C201.016 102.689 200.583 103.503 200.422 103.722C199.603 104.833 198.77 105.883 197.837 106.899C196.886 107.93 195.849 108.872 194.753 109.744L194.292 110.11C193.236 110.951 192.317 111.73 191.572 112.937C190.984 113.889 191.745 115.181 192.845 115.166C196.288 115.118 198.792 112.08 200.574 109.426C200.828 109.046 201.066 108.645 201.288 108.234C201.368 108.363 201.457 108.484 201.556 108.594L201.36 109.125C200.777 110.686 203.289 111.706 204.017 110.249C204.547 109.193 205.162 108.187 205.847 107.237C206.25 107.179 206.645 106.933 206.865 106.615C207.42 105.807 208.043 104.99 208.569 104.129C208.861 103.851 209.161 103.584 209.467 103.323C209.556 103.401 209.647 103.48 209.733 103.563C210.118 104.443 210.593 105.247 211.182 106.004L211.309 106.166C212.438 107.595 213.908 109.057 215.728 109.407C216.283 109.513 216.818 108.819 216.326 108.376C215.052 107.226 213.546 106.443 212.371 105.16C211.793 104.528 211.262 103.831 210.805 103.102L210.701 102.933C210.625 102.807 210.546 102.682 210.466 102.555C210.996 102.192 211.526 101.827 212.057 101.462C213.516 102.715 215.417 103.288 217.031 104.325L217.192 104.43C218.651 105.41 220.189 103.242 219.019 102.052C217.729 100.745 216.652 99.1866 215.509 97.7339C216.047 96.7398 216.301 95.5644 216.396 94.3764C216.434 94.0402 216.463 93.7037 216.492 93.3673C217.312 93.38 218.136 93.0979 218.833 92.6121L219.097 92.4233C219.944 92.6948 220.833 92.8263 221.684 92.803C223.687 92.7436 224.507 90.4462 223.254 88.993C221.976 87.5081 219.739 87.1835 217.967 87.9048C217.91 87.8751 217.851 87.8432 217.794 87.8114C217.878 87.4211 217.859 87.067 217.763 86.756L217.791 86.5664C218.181 85.9658 218.437 85.2802 218.534 84.5558C218.611 83.9819 218.595 83.4132 218.463 82.8466C218.419 82.658 218.328 82.4626 218.258 82.266C218.402 81.9007 218.487 81.5231 218.513 81.1433C218.553 81.0952 218.593 81.0457 218.631 80.9923C219.511 79.7523 219.333 78.2583 218.496 77.2549C218.492 77.191 218.486 77.1272 218.478 77.0637C218.527 76.953 218.572 76.8412 218.613 76.7281C219.43 75.8997 220.031 74.9029 219.919 73.6676C219.853 72.9409 219.556 72.2866 219.106 71.7977C219.185 71.5605 219.193 71.2858 219.096 71.0564C219.815 69.1375 219.724 66.8262 219.207 64.68C219.321 64.3534 219.38 63.9991 219.367 63.6236C219.308 62.0305 217.935 60.5667 216.309 60.5858C216.113 60.5875 215.93 60.6132 215.753 60.6507L215.751 60.6127C215.689 60.1346 215.558 59.6927 215.367 59.2962C215.461 59.2621 215.548 59.2131 215.624 59.1479C216.666 59.7063 217.769 60.1331 218.925 60.4239C219.775 60.6378 220.646 59.6673 220.118 58.8658C219.873 58.4939 219.602 58.16 219.31 57.855C219.725 57.8573 220.146 57.8855 220.571 57.9405C221.336 58.0402 222.189 57.5162 222.686 56.8077C223.302 57.4101 223.921 58.0105 224.54 58.6108C226.108 60.1361 228.475 59.0139 228.723 57.0028C229.189 56.8777 229.625 56.6655 230.007 56.3622C232.478 57.4398 235.138 58.0317 237.856 58.1441C239.808 58.2247 240.949 55.9421 240.036 54.3299C239.423 53.248 238.663 52.2764 237.786 51.4321C239.147 51.85 240.551 52.1513 241.986 52.3443C242.761 52.4482 243.857 51.8033 244.168 51.0884C245.355 48.3392 245.253 45.4732 243.887 42.7981C243.834 42.6921 243.775 42.5903 243.718 42.4884C243.576 42.1342 243.422 41.7841 243.255 41.4405C244.937 39.6797 245.082 37.062 244.176 34.8706C244.539 34.2787 244.679 33.566 244.432 32.9211C243.728 31.0649 242.714 29.3508 241.434 27.8786C241.557 27.641 241.665 27.3885 241.755 27.117C242.476 24.9214 241.641 22.2718 239.958 20.7423C238.9 19.7792 237.683 19.2022 236.384 18.8331C235.837 17.8615 235.133 16.9854 234.314 16.2471C234.282 16.1771 234.25 16.1071 234.215 16.0371C232.939 13.623 230.615 12.329 228.125 12.0299C228.028 11.0858 227.394 10.1843 226.473 9.89152C226.22 9.07479 225.841 8.29413 225.322 7.58559C224.504 6.46976 223.146 5.94366 221.866 6.67553C221.165 7.07647 220.493 7.5368 219.864 8.04593C219.581 7.91277 219.26 7.82661 218.899 7.79913L218.808 7.79349L216.725 7.68742C215.852 7.29921 214.982 6.89191 214.11 6.49521C213.586 6.06033 213.001 5.69758 212.363 5.42816C211.641 5.12481 210.901 4.95298 210.16 4.8957C209.558 4.69842 208.952 4.52446 208.335 4.3887C206.886 4.07049 205.369 3.8923 203.865 3.90714C203.834 3.51621 203.819 3.1206 203.822 2.72031L203.825 2.51977C203.859 1.23634 202.839 0.211725 201.637 0.029288ZM203.096 102.714C203.303 102.759 203.512 102.795 203.722 102.82C203.658 102.977 203.595 103.134 203.534 103.291C203.365 103.386 203.194 103.478 203.022 103.563C203.073 103.274 203.103 102.983 203.096 102.714ZM213.949 99.4753L214.089 99.735C214.112 99.7775 214.134 99.8195 214.156 99.8608C213.858 99.8374 213.559 99.8438 213.263 99.8777L213.264 99.8461C213.302 99.8332 213.34 99.8213 213.376 99.8035C213.58 99.7051 213.77 99.5948 213.949 99.4753ZM208.083 87.6269C206.215 87.7362 204.631 88.024 202.932 88.845L202.786 88.9167C201.284 89.6655 198.8 91.0486 199.009 93.0321C199.068 93.5964 199.476 94.1904 200.118 94.1458C201.878 94.0249 202.883 92.243 204.074 91.1314C205.276 90.0113 206.753 88.8594 208.208 88.0893C208.414 87.9809 208.333 87.6378 208.109 87.6267L208.083 87.6269ZM216.558 61.4937C217.006 61.5086 216.856 61.9456 216.626 61.5807C216.607 61.551 216.583 61.5213 216.558 61.4937ZM192.386 32.3203C196.627 32.4323 200.895 34.9472 204.072 37.4892C206.836 39.7007 209.223 42.3312 211.336 45.1664C211.88 46.5784 212.347 48.0199 212.741 49.472C213.001 50.4308 213.164 51.4003 213.381 52.3676L213.449 52.6642C213.62 52.985 213.747 53.3301 213.839 53.6867C213.454 54.0745 212.954 54.3522 212.404 54.4839C212.227 54.5263 212.08 54.6182 211.964 54.74C211.521 53.9979 211.134 53.2147 210.909 52.3844L210.9 52.346C210.049 50.9461 209.125 49.5897 208.134 48.2798C205.401 44.6628 202.391 41.3662 198.772 38.6233C196.029 36.5444 192.962 34.9152 189.7 33.8566C190.498 33.2098 191.405 32.6981 192.386 32.3203Z" fill="#313131"/>
<path fill-rule="evenodd" clip-rule="evenodd" d="M175.235 106.357C172.565 103.248 168.069 103.032 164.345 103.809C161.954 104.308 159.627 105.139 157.2 105.447C156.066 105.591 154.92 105.634 153.778 105.613C152.656 105.592 151.533 105.365 150.415 105.408C150.243 105.414 150.178 105.64 150.327 105.732C151.86 106.676 153.926 106.979 155.738 107.163C155.732 107.297 155.724 107.429 155.706 107.54C155.656 107.836 155.611 108.131 155.575 108.429C155.492 109.102 155.4 109.773 155.309 110.444C155.128 111.766 155.071 113.13 154.753 114.429L154.697 114.645C154.624 114.918 154.607 115.164 154.631 115.386L154.558 115.353L154.325 115.24L154.172 115.167C153.616 114.909 153.084 114.72 152.43 114.783C151.932 114.831 151.513 115.171 151.51 115.705C151.498 118.098 154.716 118.867 156.557 119.325L157.097 119.458C159.44 120.031 161.833 120.533 164.243 120.653C168.111 120.846 172.457 119.777 174.987 116.633C177.347 113.7 177.78 109.32 175.235 106.357ZM157.671 116.411C158.076 112.808 162.495 112.61 163.766 114.894C164.33 111.71 172.674 114.619 172.021 115.252C169.548 117.652 165.796 117.868 162.57 117.424C160.927 117.198 159.282 116.83 157.671 116.411ZM162.574 106.968L163.685 106.808L164.123 106.747C166.876 106.378 169.973 106.187 172.237 107.956C173.064 108.602 173.529 109.444 173.703 110.349C171.561 110.031 169.41 109.788 167.254 109.586L166.665 109.532C165.316 109.41 163.967 109.281 162.619 109.146L161.661 109.049L160.704 108.95C160.367 108.914 158.095 108.798 157.668 108.876C157.623 108.492 157.563 107.66 157.467 107.285C159.08 107.34 160.687 107.22 162.291 107.007L162.574 106.968ZM157.461 90.8651C155.815 91.8677 153.306 94.2056 155.077 96.6911C157.162 98.8828 160.163 96.3699 161.642 95.2335C163.013 94.3527 164.554 96.618 163.282 97.6464C152.595 105.574 148.258 91.1273 156.628 89.6863C157.55 89.5275 157.892 90.5549 157.461 90.8651ZM154.515 95.0888L154.436 95.0457L154.409 95.0295C154.363 94.9995 154.392 95.0027 154.497 95.0392L154.576 95.0676V95.1235C154.556 95.1111 154.535 95.1017 154.515 95.0888ZM175.597 86.1812L175.597 86.132C175.594 84.7391 174.785 81.5589 172.784 81.5589C171.533 81.5589 170.774 83.7233 170.643 85.9544L170.638 86.0454C170.58 87.4326 170.96 90.4646 172.784 90.4646C174.626 90.4646 175.578 87.5929 175.597 86.1812ZM146.134 85.7444L146.134 85.6952C146.137 84.3023 146.947 81.122 148.948 81.122C150.167 81.122 150.919 83.1795 151.077 85.3504L151.088 85.5176C151.167 86.8579 150.812 90.0278 148.948 90.0278C147.105 90.0278 146.153 87.156 146.134 85.7444ZM174.455 72.0621C172.822 71.8133 170.659 72.286 169.898 73.95C169.559 74.6914 169.961 75.5111 170.816 75.5522C172.883 75.6514 174.736 75.1905 176.55 76.5371C177.331 77.1167 177.987 77.9193 178.538 78.7198L178.747 79.0244L178.919 79.2754C179.293 79.8264 179.648 80.425 179.592 81.0898C179.576 81.2866 179.777 81.4734 179.967 81.4655C181.156 81.4166 181.284 79.923 181.128 79.0259C180.837 77.361 180.033 75.7981 178.918 74.5393C177.748 73.2174 176.202 72.3284 174.455 72.0621ZM151.961 74.0827C150.835 73.3573 149.394 73.0786 148.075 73.1854C145.474 73.3953 141.11 75.6111 141.684 78.7947C141.861 79.7765 143.224 80.2946 144.027 79.7499C144.891 79.1643 145.101 78.2541 145.743 77.4887C146.256 76.8773 146.906 76.435 147.602 76.0582C148.288 75.6865 149.081 75.4613 149.86 75.3792L149.989 75.3669C150.458 75.3269 152.823 75.3376 152.476 76.2224C152.408 76.3957 152.665 76.5328 152.783 76.4018C153.509 75.598 152.687 74.5506 151.961 74.0827Z" fill="#313131"/>
</svg>
