<svg width="284" height="425" viewBox="0 0 284 425" fill="none" xmlns="http://www.w3.org/2000/svg">
<path fill-rule="evenodd" clip-rule="evenodd" d="M126.833 273.166C126.346 278.25 127.342 283.105 129.715 287.209L130.487 288.544L129.018 289.058C126.343 289.994 123.369 290.449 119.924 290.449C116.38 290.449 112.694 289.955 109.732 289.558L107.836 289.304L108.767 287.657C109.516 286.333 109.655 284.729 109.802 283.031C109.841 282.574 109.882 282.103 109.936 281.636C112.742 256.551 116.289 231.139 119.72 206.564C120.623 200.097 121.556 193.41 122.462 186.832L125.06 186.933C125.759 199.108 126.437 211.489 127.092 223.462C127.381 228.728 127.669 233.993 127.96 239.257C128.997 252.567 128.639 263.345 126.833 273.166ZM125.773 423.589C129.588 423.589 133.41 423.192 137.133 422.408C148.784 419.962 159.368 414.192 168.375 408.976C168.835 408.715 169.301 408.455 169.78 408.187C173.307 406.214 177.695 403.759 180.445 400.765C183.462 397.48 183.981 394.206 182.078 390.463L181.778 389.871L182.092 389.286C184.062 385.619 183.915 381.083 181.736 378.255L179.904 375.879L182.916 376.198C185.952 376.52 189.013 376.957 191.972 377.379C195.256 377.848 198.652 378.332 201.997 378.656L202.927 378.746L203.14 379.642C203.259 380.141 203.406 380.443 204.438 380.443C205.333 380.443 206.535 380.181 207.808 379.904C209.387 379.56 211.177 379.17 212.904 379.17C213.663 379.17 214.346 379.242 214.992 379.392L215.368 379.478L215.635 379.752C215.806 379.927 216.097 380.036 216.395 380.036C216.62 380.036 216.829 379.973 216.968 379.864L217.39 379.534L217.925 379.593C227.249 380.617 235.289 382.414 242.504 385.085L242.536 385.098L242.693 385.165C245.302 386.291 247.999 387.455 250.455 387.455C252.251 387.455 253.709 386.844 255.044 385.533L255.422 385.163L255.954 385.157C261.355 385.108 263.823 378.809 264.165 374.588L264.207 374.056L264.619 373.711C274.032 365.811 279.589 354.962 281.609 340.543C283.448 327.409 282.036 313.562 280.412 301.748C276.656 271.131 272.738 243.685 262.78 217.655L262.314 216.438L263.554 215.992C267.855 214.447 271.142 212.603 273.604 210.355L273.774 210.199L273.989 210.111C277.516 208.662 279.244 203.312 279.689 201.707L279.725 201.578L279.787 201.458C280.507 200.078 280.673 198.157 280.242 196.189L280.196 195.977L280.223 195.762C280.455 193.893 279.684 191.94 278.867 189.871C278.494 188.926 278.108 187.95 277.826 186.977C276.857 184.197 275.89 181.367 274.953 178.631C272.853 172.491 270.681 166.143 268.367 159.967L268.051 159.123L268.748 158.54C269.938 157.546 269.541 156.376 267.825 153.579C267.419 152.918 267.036 152.293 266.744 151.677C264.544 147.876 262.187 144.227 259.736 140.831L259.685 140.761L259.645 140.686C247.068 117.197 224.759 104.261 196.828 104.261L196.259 104.262L195.944 104.073C190.709 100.924 186.972 95.523 184.519 87.5597L184.441 87.3058L184.471 87.0421C184.555 86.3081 184.647 85.3458 184.616 84.4121C184.536 82.0473 183.609 79.9371 182.073 78.6223C179.159 76.1278 174.734 75.9189 170.452 75.9189H169.838C164.363 75.9357 160.498 76.8862 157.674 78.9117C154.393 81.2651 152.58 85.0641 152.13 90.5256C151.996 92.1599 152.001 93.8529 152.005 95.4902L152.006 95.9471L151.951 96.1285C151.557 97.4265 151.096 98.6738 150.581 99.8359L150.051 101.031L148.845 100.492C148.065 100.144 147.077 99.9648 145.822 99.9446C145.461 99.9363 145.108 99.9324 144.752 99.9324C141.839 99.9324 138.724 100.198 135.71 100.455C133.44 100.649 131.092 100.85 128.82 100.939L128.789 100.94C128.789 100.94 128.475 100.938 128.334 100.938C122.811 100.938 118.807 101.807 115.733 103.672C112.424 105.68 110.045 108.903 108.246 113.814C98.5954 141.967 94.6279 172.292 91.1284 199.046C89.1433 213.037 88.5396 227.38 87.9557 241.25C87.3391 255.891 86.7019 271.03 84.4452 285.829L84.267 286.999L83.0687 286.921C77.7952 286.581 72.0965 285.848 66.0632 285.072C56.8965 283.893 47.4176 282.673 38.2544 282.673C25.4423 282.673 15.7279 285.194 8.56104 290.379C3.5646 295.088 0.979775 301.462 1.08598 308.819C1.23615 319.214 6.73423 330.706 15.0929 338.097L15.1245 338.126C25.6899 348.107 44.9758 356.764 72.4462 363.857C97.707 370.379 123.836 373.923 137.163 375.455L140.462 375.835L137.785 377.77C136.701 378.554 135.712 379.244 134.762 379.88L134.149 380.289L133.477 379.981C131.562 379.103 130.346 378.919 129.662 378.919C129.055 378.919 128.324 379.05 128.283 379.678C128.257 380.089 128.55 380.7 129.167 380.777L132.446 381.186L129.769 383.095C127.981 384.37 125.313 385.907 122.223 387.687C112.117 393.51 96.8432 402.311 99.47 410.039L99.6424 410.547L99.3982 411.025C98.6925 412.409 98.6322 413.693 99.2146 414.952C100.462 417.649 104.363 419.696 107.676 420.529L107.733 420.543L107.788 420.562C113.553 422.571 119.604 423.589 125.773 423.589Z" fill="#FAFAFA"/>
<mask id="mask0_602_82" style="mask-type:luminance" maskUnits="userSpaceOnUse" x="0" y="80" width="284" height="345">
<path d="M284 80.9253H0.000485809V424.786H284V80.9253Z" fill="white"/>
</mask>
<g mask="url(#mask0_602_82)">
<path fill-rule="evenodd" clip-rule="evenodd" d="M106.632 288.977C105.955 285.286 107.239 281.474 107.461 277.757C110.821 251.242 114.532 224.745 119.448 198.463C120.654 192.173 121.873 185.909 123.27 179.653C123.059 175.865 122.874 172.077 122.752 168.287C115.929 163.997 108.236 161.221 100.279 159.821C98.1289 171.8 95.9808 183.771 94.4898 195.858C89.8433 225.774 92.4941 256.216 87.9869 286.098C94.2398 286.799 100.444 287.837 106.632 288.977ZM94.6306 312.284C99.3326 313.534 104.039 314.731 108.779 315.834C117.213 317.797 125.645 319.769 134.057 321.82C138.256 322.844 142.465 323.837 146.655 324.894C148.644 325.396 150.619 325.954 152.565 326.6C153.536 326.922 154.485 327.292 155.434 327.672C156.266 328.004 157.05 328.463 157.964 328.397C158.018 328.394 158.052 328.341 158.026 328.292C157.548 327.413 156.562 326.996 155.692 326.551C154.733 326.061 153.734 325.641 152.734 325.239C150.512 324.347 148.198 323.692 145.89 323.057C137.501 320.748 129.041 318.68 120.589 316.611C112.097 314.532 103.604 312.541 94.9995 310.966C94.1327 310.808 93.7577 312.052 94.6306 312.284ZM136.282 383.368C135.906 383.267 135.527 383.175 135.15 383.087C129.118 388.11 100.706 401.153 102.867 408.943C103.63 409.912 105.459 410.133 106.614 410.446C108.628 410.991 110.66 411.462 112.712 411.835C119.346 413.042 126.216 413.252 132.841 411.876C135.279 411.505 137.479 410.466 139.699 409.46C146.872 406.304 154.772 402.818 161.911 399.689C170.98 396.094 186.887 389.008 180.344 377.053C174.146 384.024 166.279 383.415 162.315 374.75C160.949 372.12 159.756 368.574 156.546 367.511C154.853 366.366 152.687 366.128 151.273 367.403C151.17 367.245 151.079 367.022 151.029 366.825C149.434 369.095 148.058 371.485 146.189 373.56C146.831 373.595 153.512 378.54 151.541 378.542C149.168 377.32 146.811 376.302 144.25 375.644C142.393 377.511 140.352 379.248 138.236 380.853C140.291 382.21 142.137 383.872 143.621 385.675C143.749 385.833 143.592 386.039 143.401 385.953C141.096 384.926 138.726 384.024 136.282 383.368ZM105.7 417.055C128.776 427.421 153.206 415.879 172.884 403.573C177.426 401.037 183.4 397.442 182.482 391.472C179.136 396.366 173.622 399.153 168.329 401.569C159.436 405.588 150.485 409.479 141.571 413.45C140.729 416.243 136.702 416.35 134.269 416.97C123.437 419.071 111.794 418.027 101.6 413.838C102.19 415.585 104.12 416.386 105.7 417.055ZM197.768 376.695C198.338 376.767 198.909 376.834 199.479 376.898C199.42 376.144 199.875 375.389 200.606 375.155C200.277 373.556 200.156 371.903 200.332 370.28C199.379 372.743 196.301 371.995 194.347 371.286C191.555 370.527 188.78 369.71 186.02 368.839C184.932 370.861 183.779 372.853 182.362 374.684C187.52 375.142 192.63 376.054 197.768 376.695ZM200.038 368.947C200.175 369.236 200.371 369.543 200.375 369.89C200.515 368.692 200.787 367.508 201.2 366.374C200.813 367.232 200.425 368.089 200.038 368.947ZM203.294 362.522C205.832 359.214 210.521 356.511 214.857 357.432C215.135 357.493 215.142 357.94 214.857 357.996C209.033 358.787 203.919 363.407 203.716 369.38C203.257 372.083 205.137 374.737 204.504 377.331C204.63 377.34 204.756 377.346 204.88 377.355C204.926 377.528 204.968 377.683 205.022 377.818C204.393 377.923 204.208 378.935 204.95 379.115C205.39 379.222 205.849 379.278 206.317 379.301C208.691 378.66 211.196 378.512 213.466 377.565C215.712 376.572 215.15 373.783 215.943 371.852C216.524 369.624 217.192 367.405 218.034 365.268C218.095 365.096 218.328 365.135 218.348 365.309C218.942 369.573 218.922 373.91 218.778 378.208C219.558 378.287 220.332 378.375 221.11 378.472C221.059 377.271 224.661 362.644 226.559 366.398C225.603 370.525 225.488 374.836 225.386 379.083C231.02 380.011 236.572 381.394 241.974 383.276C245.78 384.429 250.307 387.842 254.002 384.757C256.864 382.391 257.829 378.261 257.559 374.748C253.837 353.96 224.443 351.531 207.092 353.068C205.453 356.849 203.783 360.618 202.092 364.378C202.443 363.731 202.843 363.109 203.294 362.522ZM262.475 374.343C262.793 369.622 261.999 363.746 258.501 360.228C250.496 353.46 239.288 351.331 229.286 348.881C224.626 347.961 219.904 347.35 215.162 347.046C213.479 346.913 211.342 347.294 210.154 345.918C209.542 347.368 208.922 348.815 208.302 350.262C228.215 347.653 269.762 356.716 258.127 383.996C260.59 381.327 262.223 378.077 262.475 374.343ZM276.377 286.962C275.82 282.91 275.211 278.863 274.567 274.822C271.933 255.494 266.49 236.682 263.245 217.484C257.628 219.311 251.876 220.702 246.205 222.346C258.494 242.785 268.547 264.489 276.377 286.962ZM230.23 267.944C231.31 262.807 232.522 257.572 233.073 252.351C233.098 252.116 232.737 252.091 232.672 252.297C231.77 255.189 231.155 258.187 230.393 261.118C229.629 264.06 228.919 267.015 228.167 269.96C227.926 270.901 227.685 271.841 227.444 272.781C227.3 272.787 227.156 272.792 227.012 272.795C226.461 272.808 226.296 273.5 226.739 273.788C226.869 273.872 226.998 273.945 227.129 274.011C224.825 282.973 222.464 291.914 219.888 300.807C216.886 311.17 213.506 321.408 210.805 331.854C210.742 332.096 210.854 332.265 211.018 332.338C209.613 337.092 208.435 341.908 207.151 346.698C206.883 347.695 208.356 348.341 208.86 347.407C209.635 345.969 209.806 344.004 210.186 342.423C210.614 340.643 211.02 338.859 211.426 337.074C212.071 334.234 212.65 331.36 213.127 328.481C214.906 324.013 216.498 319.491 217.908 314.883C221.064 304.565 223.976 294.176 226.567 283.706C227.332 280.615 228.082 277.52 228.798 274.418C232.056 274.468 235.46 270.782 238.734 272.744C238.885 272.835 239.039 272.628 238.92 272.507C237.614 271.185 235.81 271.07 234.058 271.397C232.919 271.61 231.827 272.013 230.712 272.317C230.221 272.451 229.717 272.549 229.207 272.622C229.558 271.065 229.901 269.506 230.23 267.944ZM160.039 365.202C161.704 366.291 163.062 367.9 164.02 369.631C170.157 385.688 176.721 377.087 184.876 368.471C177.974 365.866 168.834 363.915 163.541 358.738C162.624 361.028 161.504 363.208 160.039 365.202ZM162.235 326.035C162.768 323.393 163.207 320.735 163.606 318.071C163.99 315.516 164.589 312.778 164.491 310.192C164.488 310.089 164.342 310.071 164.311 310.168C163.481 312.746 163.233 315.598 162.707 318.253C162.197 320.82 161.638 323.378 161.075 325.934C159.918 331.181 158.282 336.348 157.292 341.627C157.185 342.193 157.95 342.391 158.157 341.862C160.14 336.814 161.167 331.328 162.235 326.035ZM274.482 207.001C277.163 204.114 279.27 200.426 278.863 196.514C277.252 194.366 276.719 191.564 275.781 189.081C272.114 178.693 268.71 168.224 264.719 157.947C256.229 160.558 247.876 163.69 239.998 167.804C238.549 168.544 237.114 169.311 235.697 170.107C234.213 170.938 232.594 172.383 230.814 171.97C232.759 174.724 236.766 177.591 237.443 180.774C237.589 181.782 236.875 182.716 235.778 182.491C218.609 194.687 200.878 206.626 184.649 220.211C172.497 229.832 163.167 237.636 158.999 253.247C156.189 263.359 156.181 273.928 156.594 284.325C156.674 286.347 156.677 288.416 156.84 290.45C156.596 291.972 157.06 295.07 158.77 295.126C158.731 295.494 158.609 295.835 158.415 296.135C158.47 296.208 158.526 296.277 158.585 296.348C158.67 295.932 158.753 295.518 158.831 295.102C160.163 289.202 160.342 282.357 160.12 276.076C160.026 274.275 162.788 274.318 162.942 276.076C163.358 280.825 163.774 285.573 164.189 290.319C164.688 293.396 163.902 297.42 166.361 299.758C168.862 297.447 168.035 292.89 167.913 289.908C167.717 285.043 167.506 280.181 167.325 275.317C167.269 273.776 169.822 273.379 170.111 274.946C170.932 279.414 171.82 283.869 172.775 288.311C173.352 290.028 173.748 297.733 176.629 296.395C178.347 295.222 177.108 288.347 177.334 286.07C177.228 281.564 177.165 277.064 176.834 272.569C176.699 270.755 179.652 270.369 180.057 272.14C180.714 275.006 181.343 277.873 181.913 280.758C183.165 285.622 182.71 292.217 187.228 295.449C188.997 282.814 186.451 270.266 186.094 257.676C186.308 253.596 187.008 249.557 187.626 245.527C188.31 241.07 188.708 236.219 187.108 231.921C187.546 229.995 189.265 235.203 189.426 235.636C190.721 233.085 193.875 232.887 196.369 232.092C201.912 230.298 207.59 228.945 213.198 227.35C228.072 223.219 242.962 219.152 257.857 215.094C263.807 213.448 270.07 211.499 274.482 207.001ZM125.544 274.211C127.596 263.087 127.54 251.815 126.663 240.569C125.699 223.127 124.763 205.681 123.762 188.241C119.415 219.806 114.782 251.335 111.239 283C110.987 285.204 111.026 287.537 109.914 289.503C116.06 290.326 122.611 291.155 128.587 289.065C125.964 284.531 125.039 279.369 125.544 274.211ZM258.941 145.228C248.581 123.96 227.458 108.861 203.768 105.568C203.742 105.594 203.714 105.62 203.688 105.647C203.766 105.718 203.838 105.795 203.903 105.875C203.266 105.405 202.391 105.995 202.674 106.644C202.323 107.444 202.064 108.267 201.74 109.073C201.603 109.06 201.463 109.047 201.324 109.026C199.918 111.817 199.157 115.035 197.688 117.818C189.648 131.748 169.809 137.403 154.927 131.78C143.118 126.663 141.442 112.092 142.5 100.89C142.555 100.136 142.937 99.6019 143.449 99.2868C137.009 100.318 130.569 101.358 124.123 102.337C121.017 102.809 117.827 103.491 115.429 105.624C105.99 115.337 104.305 141.476 101.13 155.066C108.727 155.861 117.22 160.192 122.665 165.442C122.408 159.474 122.776 153.535 123.464 147.61C123.475 147.32 123.957 147.222 124.003 147.539C125.363 153.546 126.41 159.604 126.841 165.759C128.632 190.526 129.696 215.343 131.231 240.127C131.755 249.249 132.41 258.45 131.111 267.539C126.928 286.253 134.304 295.437 154.1 292.326C151.695 268.611 153.438 241.478 173.297 225.034C173.903 224.494 174.629 224.531 175.18 224.852C191.326 211.132 208.367 198.424 226.504 187.357C226.374 185.07 232.095 183.049 233.697 181.471C227.75 175.31 223.22 167.819 219.271 160.286C218.922 159.467 214.38 151.226 215.825 151.745C220.141 158.14 224.433 164.576 229.514 170.428C229.238 167.729 236.231 165.92 238.383 164.687C246.699 161.184 255.393 158.442 264.353 157.023C262.741 153.008 260.978 149.053 258.941 145.228ZM148.278 101.849C148.55 101.383 148.809 100.907 149.057 100.425C148.217 100.457 147.399 100.487 146.572 100.625C146.609 101.956 146.535 103.298 146.52 104.64C146.933 103.658 147.743 102.762 148.278 101.849ZM7.9433 289.325C27.7894 274.893 60.3868 284.087 83.3774 285.571C87.7606 256.829 85.9716 227.618 90.0568 198.829C93.8195 170.068 97.787 140.906 107.237 113.35C111.137 102.695 117.883 99.5312 128.991 99.6169C134.628 99.3961 140.589 98.4936 146.067 98.6222C147.268 98.6415 148.524 98.8002 149.608 99.2847C151.131 95.8503 151.958 92.163 152.376 88.4478C152.402 88.212 152.703 88.1691 152.792 88.3942C154.08 91.6292 154.217 95.16 153.517 98.5472C153.01 100.974 149.991 110.525 146.485 106.788C146.206 114.623 147.928 123.981 155.604 128.048C169.016 133.896 187.557 128.571 195.326 116.158C196.828 113.678 198.123 111.039 199.786 108.657C188.201 105.377 181.698 91.4963 184.427 80.9253C186.114 89.1467 189.189 98.3328 196.847 102.938C224.735 102.875 247.922 115.577 261.023 140.042C263.587 143.595 265.957 147.286 268.129 151.042C269.298 153.555 272.721 157.049 269.816 159.476C273.172 168.432 276.149 177.513 279.296 186.541C280.16 189.549 282.136 192.704 281.742 195.866C282.169 197.815 282.149 200.12 281.172 201.993C280.245 205.333 278.164 209.827 274.715 211.244C271.788 213.917 268.086 215.759 264.225 217.146C274.521 244.054 278.441 273.075 281.929 301.506C285.349 326.378 287.113 356.633 265.69 374.608C265.274 379.752 262.223 386.305 256.19 386.361C252.011 390.464 246.919 388.213 242.268 386.206C234.418 383.299 226.185 381.687 218.004 380.789C217.127 381.475 215.699 381.361 214.918 380.562C209.962 379.419 203.094 384.046 202.092 379.854C195.703 379.235 189.383 378.073 182.999 377.395C185.69 380.886 185.496 386.033 183.47 389.804C188.63 399.955 176.61 405.833 169.26 409.998C159.338 415.743 148.977 421.195 137.629 423.577C127.653 425.675 117.202 425.039 107.576 421.686C102.519 420.415 95.4541 416.241 98.4553 410.36C94.6509 399.17 121.368 387.574 129.226 381.97C126.014 381.569 125.897 374.902 134.252 378.733C135.261 378.058 136.254 377.361 137.235 376.652C103.441 372.767 38.9017 362.08 14.444 338.979C1.00752 327.1 -6.74482 303.073 7.9433 289.325Z" fill="#313131"/>
</g>
<path fill-rule="evenodd" clip-rule="evenodd" d="M131.524 51.1149C132.335 37.7677 136.655 22.6354 149.368 16.0822C177.394 4.80444 214.243 33.2051 216.194 62.2186C216.874 72.1501 211.374 83.0024 201.324 85.7636C199.09 88.7319 195.71 90.5446 192.375 92.1179C152.649 112.783 126.988 95.9846 131.524 51.1149Z" fill="#FAFAFA"/>
<path fill-rule="evenodd" clip-rule="evenodd" d="M122.474 42.812C123.877 38.9024 125.361 35.0228 126.921 31.1733C128.44 27.4267 129.813 23.5992 131.699 20.0302C142.969 -1.28594 163.463 -1.28595 174.056 1.49927C179.55 -0.873957 189.839 -0.20453 195.559 1.93701C204.82 5.40395 216.109 19.0421 219.968 25.1696C228.49 38.6985 233.808 56.7052 228.148 72.3385C227.408 74.3817 226.464 76.2741 225.402 78.0978C226.071 79.0072 226.841 79.8685 227.695 80.7148C230.23 83.2301 232.766 85.6625 234.956 88.4995C237.133 91.3188 238.937 94.3169 240.281 97.6225C242.814 103.856 242.936 110.915 239.587 116.863C236.673 122.039 231.512 125.893 225.697 126.261C225.399 126.302 225.1 126.34 224.799 126.371C224.029 127.643 223.089 128.815 222.017 129.836C218.732 132.969 210.902 134.576 206.435 134.679C206.206 134.864 205.975 135.048 205.744 135.231C203.011 137.387 200.144 139.563 197.006 141.097C194.881 142.138 192.095 143.007 189.878 142.256C188.872 142.93 187.222 142.788 186.224 142.237C184.585 141.331 183.252 139.7 182.441 138.031C180.474 133.978 180.947 129.542 181.452 125.212C182.008 120.429 182.544 115.644 183.087 110.861C183.513 107.121 183.958 103.319 185.092 99.7159C185.679 97.8491 186.447 96.0552 187.44 94.3686C187.414 94.227 187.419 94.0854 187.459 93.9523C187.785 92.8923 188.457 92.3365 189.253 91.6156C189.355 91.5233 189.458 91.4289 189.559 91.3323C189.957 90.8774 190.383 90.4547 190.838 90.0963C191.014 89.9182 191.187 89.738 191.361 89.5578C192.801 88.045 194.162 86.455 195.371 84.7512C196.544 83.099 197.603 81.3738 198.611 79.6164C199.636 77.8289 200.315 75.857 201.338 74.0824C201.425 73.93 201.648 73.9 201.772 74.0266C202.089 74.3549 202.292 74.7197 202.254 75.1038L202.412 75.1274C202.472 74.548 203.005 74.076 203.728 74.2026C204.811 74.3914 205.701 74.4622 206.639 74.1017C206.474 73.0052 206.322 71.9066 206.172 70.8058C205.898 68.7802 205.644 66.7481 205.425 64.7161C204.897 64.8427 204.372 65.0251 203.859 65.2568C203.127 65.5851 202.436 66.0271 201.845 66.57C201.263 67.1065 200.86 67.8296 200.15 68.203C199.332 68.63 198.346 67.924 198.586 66.997C199.071 65.1238 201.821 64.0509 203.523 63.6968C204.107 63.5745 204.704 63.523 205.301 63.5359C205.166 62.2313 205.046 60.9266 204.948 59.6198C204.901 59.0019 204.858 58.3839 204.817 57.7637C203.495 57.3625 202.078 57.2423 200.702 57.4312C200.248 57.7938 199.795 58.1521 199.356 58.5148C197.963 59.6692 196.576 60.8301 195.206 62.0124C195.082 62.1175 194.96 62.2227 194.836 62.33C194.023 63.0316 193.008 62.3364 193.145 61.3429C194.263 53.2018 189.289 46.7259 183.466 41.709C177.02 36.1536 165.301 35.5067 157.635 25.8839C154.105 26.6044 146.222 28.7442 142.969 33.9413C138.415 41.2241 139.01 47.7494 138.663 56.0106C138.317 64.2783 137.435 72.9022 139.307 81.054C141.034 88.5707 145.711 94.993 152.965 97.9456C153.145 98.0186 153.327 98.0894 153.509 98.158C157.261 99.5764 161.355 99.9777 165.301 99.2309C169.669 98.4027 173.315 96.3985 176.949 93.933C177.159 93.7935 177.465 94.0811 177.307 94.2913C172.517 100.656 163.109 102.782 155.647 101.102C155.298 101.023 154.951 100.937 154.607 100.842C156.276 105.655 155.94 110.938 153.766 115.625C152.458 118.444 150.464 120.884 148.035 122.809C145.357 124.929 142.036 126.641 140.178 129.617C138.477 132.345 138.982 135.409 141.895 136.984C142.629 137.383 142.911 138.672 142.184 139.239C141.906 139.454 141.627 139.672 141.343 139.887C139.712 141.121 135.233 143.438 134.507 143.524C128.066 144.29 123.734 139.548 120.958 133.954C117.699 127.388 118.547 119.386 122.138 113.133C125.018 108.117 130.691 103.173 128.436 96.8234C127.631 94.5553 125.985 92.6219 124.387 90.8753C122.563 88.8861 120.603 87.0236 118.855 84.9636C117.117 82.9187 115.576 80.6935 114.716 78.1272C113.46 74.3764 114.084 70.3208 115.028 66.5765C117.051 58.5384 119.676 50.6076 122.474 42.812Z" fill="#313131"/>
<path fill-rule="evenodd" clip-rule="evenodd" d="M153.644 83.6708C152.916 82.3837 150.744 82.5929 150.412 84.0941C149.738 87.1373 153.36 89.9475 156.111 90.0177C158.844 90.0872 161.911 87.756 161.516 84.8114C161.418 84.0831 160.447 84.1715 160.116 84.6282L159.987 84.8034C159.088 86.0135 157.902 87.2661 156.234 86.9711C155.542 86.849 154.914 86.4162 154.496 85.8589C153.992 85.1865 154.047 84.3835 153.644 83.6708ZM171.026 61.4069C170.655 61.3046 170.281 61.3441 169.953 61.484C169.22 61.6186 168.608 62.2309 168.393 62.9299C168.376 62.9905 168.357 63.0502 168.336 63.1094L168.303 63.1976L168.391 62.9735C168.351 63.1942 168.171 63.4262 168.107 63.6477C168.028 63.92 168.008 64.2294 168.035 64.5291C167.802 64.5315 167.569 64.5394 167.337 64.5596L167.112 64.5797C165.855 64.6968 164.475 64.9114 163.73 65.9995C163.312 66.611 163.705 67.7118 164.473 67.8296C165.657 68.011 166.676 67.3549 167.855 67.2235C168.97 67.0991 170.137 67.1703 171.237 67.3721C173.509 67.7882 175.596 68.7109 177.81 69.2898L178.112 69.3665L178.111 69.365C178.491 69.4569 178.921 68.9283 178.546 68.6192C176.772 67.1593 174.502 65.9761 172.265 65.2556C172.591 64.7362 172.691 64.0521 172.469 63.4944C172.434 63.3788 172.391 63.2665 172.346 63.1544L172.252 62.924C172.243 62.8154 172.222 62.708 172.192 62.6027L172.187 62.5706L172.184 62.5726C172.018 62.0302 171.583 61.5608 171.026 61.4069ZM148.398 61.4908C147.913 61.0045 147.231 61.0764 146.725 61.4591L146.658 61.5118C146.181 61.7242 145.786 62.1883 145.527 62.6184C145.257 63.0651 145.078 63.5201 145.071 64.0118C143.897 64.0157 142.772 64.3686 141.91 65.3185C141.632 65.6251 141.442 66.0979 141.595 66.5135L141.686 66.7608C141.976 67.5458 143.277 67.9977 143.72 67.0745L143.74 67.0295C144.21 65.9334 146.014 66.0484 146.973 66.1604C147.641 66.2389 148.301 66.4053 148.947 66.5918C149.174 66.6575 149.4 66.7288 149.625 66.8016L149.85 66.8748C149.97 66.9137 150.596 67.254 150.206 67.1735C150.102 67.1518 150.023 67.3044 150.13 67.3557C150.594 67.5778 151.088 67.1354 151.057 66.6362C151.004 65.7697 149.63 65.2946 148.97 64.9958L148.93 64.9777C148.677 64.8603 148.411 64.7479 148.137 64.6435C148.291 64.4139 148.419 64.1588 148.525 63.8849C148.625 63.6264 148.692 63.3751 148.728 63.1002C148.764 62.9658 148.764 62.8315 148.728 62.6969L148.723 62.6584C148.741 62.5695 148.75 62.4777 148.749 62.3852L148.753 62.3493H148.749C148.736 62.0255 148.608 61.7011 148.398 61.4908ZM156.148 70.7188C154.285 71.2958 151.21 72.8676 152.182 75.2936C153.538 77.5217 157.134 75.8842 158.876 75.1643C160.442 74.6447 161.257 76.8433 159.743 77.506C147.234 82.4649 147.28 69.3773 155.695 69.5695C156.621 69.5905 156.65 70.527 156.148 70.7188ZM172.699 53.6537L172.382 53.5608C170.73 53.0813 169.044 52.2535 167.577 53.5452C167.001 54.0525 166.882 55.1066 167.295 55.7393C168.233 57.181 169.625 56.9607 171.141 57.0836C172.296 57.1771 173.433 57.5169 174.51 57.9415C175.391 58.2886 176.207 58.7774 176.978 59.3225C177.736 59.8585 178.253 60.6964 179.03 61.1788C179.315 61.3557 179.644 61.1737 179.746 60.8869C180.109 59.8696 179.496 58.6022 178.978 57.7354C178.346 56.678 177.385 55.8131 176.352 55.1587C175.221 54.442 173.97 54.0282 172.699 53.6537ZM148.63 52.5591C145.838 52.5582 143.152 54.1143 141.59 56.3953C141.059 57.1702 141.448 58.3183 142.21 58.7646C143.065 59.2654 143.978 58.9048 144.541 58.187L144.575 58.1435C145.47 56.9485 146.625 56.0073 147.993 55.3946C148.661 55.0954 149.4 54.8529 150.122 54.7298L150.355 54.6897C150.682 54.6348 151.062 54.5823 151.358 54.6337C151.516 54.6545 151.662 54.707 151.796 54.787C151.731 54.9281 151.898 55.0982 152.052 55.0136C152.746 54.6318 152.661 53.9506 152.087 53.4212C151.277 52.6722 149.677 52.5593 148.63 52.5591Z" fill="#313131"/>
</svg>
