<svg width="230" height="624" viewBox="0 0 230 624" fill="none" xmlns="http://www.w3.org/2000/svg">
<path fill-rule="evenodd" clip-rule="evenodd" d="M40.1205 206.202C34.242 213.094 34.7617 215.011 37.8937 221.969C44.8133 238.116 54.7352 254.53 65.9982 269.503C65.2547 235.911 64.6152 202.137 63.5155 168.24C56.8184 181.337 49.6865 193.168 40.1205 206.202ZM39.0114 621.365C35.3112 621.006 9.26937 621.971 16.2388 614.359C14.0875 609.677 20.0976 605.727 23.8011 602.165C27.2663 598.851 30.6812 595.169 34.2394 590.909C37.5529 586.959 41.2882 582.29 43.7031 576.842C44.2377 575.988 44.7806 575.39 45.3182 575.064L45.6283 574.875L45.8214 574.568C47.8595 571.307 49.5423 567.937 51.3942 564.616C46.865 562.976 42.7498 561.328 37.6196 559.051C44.8585 516.317 55.7076 474.682 62.7224 431.821C66.9921 394.524 69.2843 356.877 79.0547 320.145L80.3047 320.241L81.0013 317.834C79.9751 317.808 77.8962 317.738 76.867 317.698L77.108 318.929C72.4503 318.389 67.8861 317.058 63.3582 315.929C61.0473 315.613 58.7305 313.956 59.5621 311.195C59.8296 307.189 60.6562 303.281 61.0453 299.276C59.5717 298.268 58.0516 297.117 56.5955 295.936C52.745 297.757 48.091 303.634 43.8806 302.139C34.041 288.899 25.7832 272.983 18.3104 260.268C0.261486 230.864 -5.46712 212.483 13.148 181.823C29.242 156.138 46.6025 115.313 78.866 108.867C82.4883 108.189 86.284 108.161 89.7651 106.506C89.9438 104.134 91.1262 102.771 91.9917 102.752C94.0941 102.289 96.4025 101.545 98.4555 101.526C99.1792 101.223 100.063 101.472 100.758 101.608C102.827 97.4451 102.642 92.1299 104.91 88.2269C104.992 85.2698 105.891 82.0026 114.982 81.4081C121.17 80.8903 129.935 80.3914 134.882 83.1021C138.343 85.8957 138.379 92.1538 137.945 96.5634C137.468 99.8018 137.681 103.568 140.211 107.372C147.421 105.14 152.449 109.857 156.962 118.656C175.857 121.235 179.931 122.699 187.262 141.461C190.758 149.598 194.398 158.291 197.123 167.198C200.773 178.087 201.093 189.485 204.642 200.451C214.278 224.619 224.078 240.216 227.164 268.353C228.67 280.776 227.805 286.937 226.373 288.803C222.3 287.622 217.047 286.718 212.77 286.215L217.346 289.705C213.468 307.334 224.638 357.606 194.352 353.744C194.083 353.088 194.577 349.479 194.707 347.982C193.879 348.04 192.348 348.094 191.533 347.991C190.088 352.169 187.92 355.923 186.551 360.173C185.874 362.763 185.019 365.369 184.183 367.887C165.11 432.282 161.333 494.274 169.844 558.922L169.459 559.062L169.304 559.34L169.07 559.428C168.469 560.232 167.618 560.267 166.26 560.269C157.917 560.563 150.587 560.94 143.79 561.13C144.511 564.749 144.049 568.558 143.731 572.239C147.687 571.961 151.317 573.57 154.933 575.503C161.843 578.904 168.725 582.476 175.415 586.381C182.057 590.642 192.799 594.285 187.466 601.944L189.008 602.551C189.06 602.571 189.093 602.589 189.112 602.602C189.295 603.252 187.206 605.945 186.587 605.916C171.98 606.599 159.523 603.18 140.838 599.597C136.561 598.041 115.015 595.396 114.925 591.311C114.993 590.038 116.306 590.125 117.221 589.966C114.476 576.07 123.755 574.948 125.084 562.339C123.247 562.689 121.26 562.99 119.379 562.472C117.728 535.564 120.38 508.019 117.447 480.847L114.465 480.516C104.441 510.083 94.0469 540.335 86.0643 571.046C85.9122 571.713 85.1663 571.257 84.8253 571.013C79.6078 570.889 74.3887 570.331 69.2726 569.45C69.1497 572.471 69.0205 575.547 68.8936 578.565L69.6821 578.99C70.1906 579.699 69.9766 583.021 69.8845 584.451C69.7916 585.913 69.7148 586.97 69.8439 587.962C71.4893 591.214 65.863 598.262 62.8872 602.181C56.4037 610.593 51.033 623.051 39.0114 621.365Z" fill="#FAFAFA"/>
<path fill-rule="evenodd" clip-rule="evenodd" d="M103.377 88.5643C105.144 87.3657 102.629 97.7664 102.624 98.7671L102.58 98.985C102.14 101.103 101.364 103.568 99.5804 104.927C100.403 111.669 101.427 118.39 102.688 125.062L103.429 125.16C114.428 126.619 125.5 128.626 136.683 127.58C142.708 127.628 146.697 123.5 149.126 118.379C148.962 117.775 148.797 117.174 148.628 116.57C140.976 111.878 135.182 102.356 138.63 93.3671C138.777 92.9828 139.233 92.9565 139.468 93.1563C139.506 93.1598 139.541 93.191 139.538 93.2332L139.425 94.987C139.184 98.8134 139.077 102.779 141.147 106.225C149.473 104.324 154.649 111.274 158.13 117.853L160.631 118.223C170.198 119.646 179.425 121.331 184.149 131.145L184.796 132.523C191.397 146.625 197.549 161.126 201.15 176.312C202.962 184.391 203.619 192.716 206.278 200.596C211.8 215.227 219.581 228.977 223.799 244.125C226.417 249.59 233.785 290.732 226.516 291.044C223.903 290.261 221.241 289.626 218.55 289.175C218.965 289.492 219.116 290.03 219.037 290.579C218.098 297.174 218.028 303.854 218.032 310.504C218.528 326.608 218.083 361.256 193.862 355.695C192.093 355.043 193.242 352.204 193.17 350.22C193.032 350.227 192.892 350.224 192.751 350.215C191.361 353.973 189.411 357.441 188.189 361.259C187.153 364.54 186.429 368.069 184.985 371.211C169.692 425.671 163.378 482.951 169.358 539.317C169.693 542.693 170.071 546.064 170.493 549.428C170.44 551.532 172.929 560.339 170.694 560.93C170.607 561.101 170.306 561.296 170.126 561.357C168.769 562.823 166.512 562.279 164.721 562.474C158.39 562.756 152.059 563.017 145.725 563.227C146.104 565.919 145.798 568.65 145.573 571.338C150.193 571.376 154.438 574.191 158.523 576.103C164.591 579.1 170.56 582.304 176.416 585.701C181.822 589.49 193.9 593.148 189.745 601.739C192.843 602.998 188.537 608.264 186.183 608.323C170.858 608.246 155.63 604.765 140.653 601.709C132.144 599.457 122.858 598.602 114.986 594.718C112.751 593.706 113.219 589.671 115.677 589.296C113.852 575.843 121.261 576.029 123.345 564.824C122.132 565.023 120.793 564.911 119.577 564.664C116.761 567.272 117.796 546.746 117.413 544.742C117.337 523.695 118.333 502.604 116.094 481.629L112.289 492.848C103.418 519.032 94.6798 545.283 87.7253 572.051C87.3086 573.667 85.6144 573.861 84.5325 573.156C79.9657 573.022 75.4164 572.591 70.9111 571.862C70.8233 574.003 70.7333 576.144 70.6433 578.285C72.5866 579.334 71.2708 585.941 71.519 588.176C73.6226 593.028 65.0964 602.369 62.2934 606.373C57.2943 613.365 52.3326 623.149 42.6656 623.475L42.3712 623.482C35.1563 623.658 27.8759 623.235 20.731 622.203L19.9598 622.078C17.8967 621.736 15.5871 621.251 14.3954 619.406C13.3903 617.851 13.5132 615.844 14.7333 614.656C13.1221 608.8 19.3938 605.254 22.897 601.688C29.4411 595.365 35.3889 588.411 40.5322 580.901L40.8276 580.2C41.781 577.947 42.9202 575.447 44.6952 574.368C46.3874 571.676 47.8334 568.843 49.363 566.06C45.189 564.525 41.0786 562.81 37.0144 561.005C36.2054 560.644 35.9483 559.591 36.0894 558.807L36.0997 558.754C44.0344 517.483 53.5475 476.506 60.9468 435.14C65.6725 397.017 67.6098 358.408 77.5451 321.123C72.7253 320.621 67.9278 319.234 63.1977 318.048C59.4054 317.24 57.4876 315.311 58.2355 311.287C58.4927 307.711 59.2076 304.193 59.5939 300.632C58.5842 299.925 57.5991 299.181 56.64 298.416C54.8623 299.745 53.0278 300.997 51.1427 302.165C46.6293 305.421 43.1452 305.928 40.3566 300.59C32.281 287.811 24.4928 274.845 17.1427 261.633C10.3252 248.959 1.87579 236.311 0.145189 221.718C-2.36886 195.457 28.3936 153.43 43.804 132.087C52.3023 121.806 62.6526 111.226 76.1123 108.236C80.2523 107.622 84.617 107.538 88.5639 106.034C88.8845 104.112 89.7855 102.342 91.8205 101.872C93.9615 101.397 96.2566 100.665 98.4129 100.612C98.9005 100.474 99.4757 100.387 99.9908 100.482C101.467 96.6427 101.684 92.3168 103.377 88.5643ZM20.9219 617.691C21.2906 617.873 21.6724 618.031 22.0631 618.171C22.5437 618.237 23.0221 618.299 23.5005 618.354C22.6336 618.158 21.7734 617.939 20.9219 617.691ZM68.8153 580.368C61.7458 582.939 59.8024 570.87 45.8978 575.753C40.4637 585.86 33.4287 595.04 25.3875 603.201C22.5294 606.76 14.0697 610.802 18.6286 616.022L19.3269 616.15C27.2439 617.592 35.2801 618.738 43.3478 618.086C49.4442 616.401 54.016 611.506 57.7112 606.57C60.3843 601.823 63.5116 597.356 66.7039 592.951C68.4591 590.76 68.6371 587.972 68.6288 585.278C68.6878 583.639 68.7495 582.003 68.8153 580.368ZM148.233 574.442C145.231 573.34 142.152 574.377 139.422 575.73C134.758 577.821 124.656 580.326 120.341 576.992C118.225 580.498 117.515 584.396 118.096 588.44L118.102 588.69C118.151 590.323 118.379 591.638 120.36 591.754L125.985 593.171C144.959 597.943 164.12 602.557 183.651 603.884C188.863 600.624 189.01 596.337 183.469 593.352L182.051 592.482C171.173 585.814 160.041 579.261 148.233 574.442ZM189.512 602.174C189.459 602.264 189.409 602.354 189.356 602.441C189.438 602.481 189.512 602.538 189.582 602.6C189.582 602.452 189.56 602.308 189.512 602.174ZM50.4164 566.443C50.4888 567.925 49.7624 569.598 49.2511 570.929C48.9504 571.715 48.641 572.837 48.1626 573.738C60.0516 570.224 63.6678 580.52 67.9542 578.379L68.0843 578.31V578.308C67.2096 576.305 68.1635 573.486 68.7516 571.489C62.5091 570.358 56.3798 568.598 50.4164 566.443ZM144.353 563.274L140.926 563.38C135.594 563.542 130.262 563.683 124.927 563.675C125.485 567.517 124.393 573.853 121.912 576.839C121.908 576.84 121.903 576.841 121.901 576.843C128.924 577.908 135.575 574.685 141.829 571.974C142.093 569.03 143.247 566.026 144.353 563.274ZM121.42 574.976L120.78 576.175C120.872 576.279 120.977 576.373 121.089 576.454C121.024 575.956 121.201 575.462 121.42 574.976ZM49.6502 566.168C49.5317 566.684 49.3937 567.2 49.2467 567.716C49.4705 567.209 49.7251 566.724 50.0343 566.307L49.6502 566.168ZM124.559 563.678L124.183 563.682L124.181 563.898C124.269 564.045 124.284 564.224 124.174 564.369C124.161 565.033 124.133 565.698 124.082 566.363L124.207 565.595C124.313 564.956 124.425 564.316 124.559 563.678ZM119.79 563.458L119.81 563.792C120.29 563.774 120.775 563.794 121.254 563.77C121.506 563.757 121.765 563.713 122.026 563.667C121.273 563.643 120.523 563.583 119.79 563.458ZM205.199 288.231C204.962 288.51 204.703 288.679 204.439 288.765C204.442 295.105 203.164 301.339 199.664 306.829C198.208 308.764 197.386 310.966 196.682 313.261C192.98 323.766 192.293 335.05 193.642 346.05C197.279 340.704 198.725 334.324 199.741 328.034C199.796 327.718 200.318 327.722 200.375 328.034C201.604 334.767 199.491 341.38 196.965 347.602C195.387 348.733 195.763 351.693 195.573 353.435C222.388 357.35 213.064 305.765 216.498 289.878C216.562 289.441 216.933 289.123 217.354 288.989C213.332 288.374 209.257 288.329 205.199 288.231ZM78.9211 319.922C78.954 320.091 78.9825 320.26 79.0045 320.429L79.1493 319.931C79.0747 319.928 78.9979 319.926 78.9211 319.922ZM97.0433 101.725L96.5739 101.848C91.6194 103.129 90.0159 102.953 89.7355 108.948C88.5176 117.083 84.0214 124.179 82.0002 132.045C81.1918 134.823 82.047 139.943 85.8799 139.191C87.1218 138.809 88.0898 140.486 87.1506 141.376C84.3745 144.007 81.6796 146.719 78.9694 149.413C89.8525 186.218 103.99 222.067 121.212 256.365C121.894 257.727 119.847 258.923 119.169 257.562C102.048 223.154 87.809 187.317 76.7574 150.503L76.4235 149.387C75.9354 148.031 82.1762 143.174 83.3124 141.589C71.9168 136.087 87.8265 116.82 88.2588 107.542C84.9973 108.979 81.3 108.464 77.8546 109.042C71.2449 110.204 65.4432 114.029 60.2865 118.159C39.3399 136.691 25.9542 162.349 12.564 186.532C3.4451 202.311 -0.950976 221.6 8.19999 238.385C18.818 259.905 31.135 280.647 44.1576 300.784C45.5875 302.647 47.7882 300.505 49.295 299.723C57.9561 294.508 65.4664 287.413 71.2424 279.118C57.2396 261.903 45.042 243.089 36.4157 222.591L36.2967 222.353C34.3613 218.455 32.831 213.74 36.0595 210.069C47.5244 195.356 57.7209 179.736 67.3162 163.751C67.4152 163.591 67.6366 163.731 67.5644 163.898C66.5791 166.134 65.5411 168.352 64.4592 170.55C66.6445 203.051 66.2753 236.186 67.2199 268.893C69.7677 272.273 72.3902 275.595 75.0741 278.865C83.7804 272.854 94.0221 268.933 104.54 267.718L105.22 267.65C109.688 267.189 117.067 266.321 117.653 272.133C116.929 279.282 102.182 275.263 97.4671 279.318C105.196 282.439 114.052 283.318 121.148 288.023C123.424 289.353 127.886 293.592 123.527 295.215C121.625 295.378 119.661 294.638 117.76 294.475C119.899 295.197 121.866 296.42 123.119 298.337C124.021 299.653 124.679 302.382 122.524 302.945C117.612 303.084 112.719 301.479 107.88 300.681L108.31 300.855C111.838 302.302 117.321 304.901 112.57 308.734C107.814 311.2 102.055 307.004 97.3178 305.884C84.5573 302.909 75.1175 311.062 62.0364 302.235C61.6653 305.185 61.1077 308.114 60.8847 311.081L60.8559 311.249C60.4024 313.956 60.7908 314.933 63.7045 315.451C67.2175 316.514 70.8968 316.847 74.5474 317.045C92.1155 317.975 109.8 317.315 127.249 315.06C129.76 314.385 135.658 315.022 136.707 312.253C134.741 241 105.109 173.954 96.9491 103.627C96.8153 102.95 96.8065 102.261 97.0433 101.725ZM146.572 107.815C145.171 107.872 143.866 108.177 142.472 108.318C143.244 109.963 147.318 112.29 146.947 113.107C147.241 113.335 147.54 113.555 147.842 113.768C147.421 112.283 146.995 110.801 146.569 109.316C162.049 147.115 164.176 191.838 166.233 233.072C166.911 253.864 167.279 274.719 166.277 295.498C165.719 301.017 164.244 306.594 164.646 312.168C173.731 313.479 182.948 313.591 192.071 312.62C192.341 311.911 192.646 311.213 192.992 310.527C206.648 293.837 199.406 272.922 192.83 254.843C188.854 255.012 184.855 254.759 180.874 254.808C182.104 258.623 182.421 262.66 183.076 266.605C183.521 269.416 184.09 272.206 184.743 274.974L184.941 275.805C185.184 276.8 185.481 277.866 185.134 278.848C184.783 279.847 183.571 280.251 182.768 279.474C181.32 277.819 181.476 275.353 181.008 273.301L180.922 272.655C180.125 266.763 179.075 260.651 180.532 254.806C179.102 254.498 175.193 255.628 174.988 253.701C175.049 250.519 172.746 243.623 175.309 241.527C176.834 240.361 179.457 240.73 181.245 240.657C183.313 240.574 185.378 240.497 187.443 240.51C170.847 200.305 175.462 187.929 177.146 147.916L177.196 146.695C177.192 146.431 177.616 146.365 177.662 146.631C180.199 163.021 176.817 179.615 178.419 196.056C181.265 227.295 201.011 254.116 204.312 285.205C211.432 284.377 218.635 285.393 225.535 287.184C225.68 285.921 225.792 284.654 225.871 283.387C227.181 260.182 219.059 237.645 209.582 216.832C203.903 205.785 200.392 193.994 198.923 181.666C196.069 165.609 189.667 150.483 183.286 135.566C179.252 124.413 170.531 121.783 159.717 120.488C163.364 126.549 166.99 132.623 170.609 138.701C171.416 140.54 168.941 141.852 167.861 142.983C181.146 150.246 173.389 172.674 173.664 185.241C172.677 196.789 172.305 208.402 170.567 219.87C170.44 220.665 169.224 220.432 169.213 219.687C169.373 202.505 171.417 185.392 172.314 168.237L172.423 166.987C173.122 158.865 173.806 147.148 164.064 144.918C162.75 144.703 162.649 142.744 163.705 142.156C165.109 141.372 166.34 140.414 167.442 139.275C163.72 133.014 160.005 126.749 156.322 120.461L156.15 120.169C153.534 115.72 151.104 110.544 146.572 107.815ZM114.96 271.697C113.885 268.524 103.455 270.591 100.671 270.936C90.4048 272.879 80.0732 277.433 72.2539 284.448C71.7713 284.88 71.2008 284.874 70.7509 284.639C67.2486 289.124 63.2043 293.189 58.7687 296.76C59.5805 297.402 60.4146 298.023 61.2725 298.618C61.6831 298.662 62.0539 298.875 62.2207 299.257C74.4247 308.122 83.4025 301.207 96.0801 302.804C100.814 303.761 105.172 306.779 110.05 306.906C113.63 306.09 110.478 304.59 108.806 304.01C105.02 302.198 101.161 300.546 97.2937 298.918L94.1992 297.617C92.6786 296.978 93.2009 294.674 94.8995 295.076C97.8731 295.779 100.855 296.446 103.84 297.103C109.579 298.277 115.456 299.783 121.256 300.353C119.966 296.761 106.287 292.881 102.31 291.453C100.808 290.742 96.5239 290.877 97.013 288.543C97.408 286.371 101.967 288.858 103.487 289.035C109.691 290.613 116.024 291.569 122.346 292.531C115.556 285.701 105.029 285.112 96.3566 281.913L96.1184 281.859C94.576 281.499 92.4635 280.82 93.7171 279.063C98.1724 272.478 115.706 275.81 114.96 271.697ZM102.128 235.027C105.291 232.425 106.986 237.769 106.785 240.253C106.934 242.315 107.095 244.377 107.229 246.439C107.032 248.051 108.746 253.93 106.454 253.983C96.4326 253.472 86.4284 253.601 76.4038 252.997C76.3909 255.023 76.2921 257.048 76.3953 259.077C76.3408 261.615 77.2202 264.149 76.7067 266.658C76.3931 267.811 74.8284 267.967 74.2176 266.983C72.3865 262.664 73.6455 257.094 74.9423 252.726C70.0338 251.817 69.3565 247.191 70.65 243.064L70.6366 242.84C70.5644 241.567 70.5701 240.202 71.137 239.173C72.6532 237.383 75.797 238.546 77.8853 238.411C84.2863 237.749 90.8052 237.566 97.1314 236.388C98.7689 235.963 100.439 235.107 102.128 235.027ZM62.337 174.731C57.3537 184.267 51.6201 193.341 45.516 202.177C44.208 204.063 42.865 205.925 41.5004 207.774L41.3322 207.99C38.5799 211.511 35.6621 214.402 38.2655 219.057C45.0167 235.495 54.0562 250.932 64.5294 265.259C63.8662 235.082 63.2803 204.898 62.337 174.731ZM187.627 240.993C175.106 243.623 174.872 238.698 176.962 252.638C181.983 252.673 187.002 252.56 192.025 252.641C190.59 248.747 189.102 244.871 187.627 240.993ZM103.581 237.056C97.0416 239.334 90.0983 239.009 83.2685 239.289C83.2824 240.761 76.2948 239.395 74.9535 239.597L74.4871 239.556C73.3707 239.464 71.935 239.428 71.9226 240.811C72.2783 243.196 70.9397 245.807 71.769 248.15C72.8884 251.306 77.6766 250.981 80.3189 251.042C84.6752 251.141 89.0311 251.246 93.3875 251.361C97.3003 251.464 101.226 251.659 105.141 251.688C104.79 248.894 104.694 246.031 104.481 243.24C104.213 241.233 104.6 238.854 103.581 237.056ZM131.078 247.203C131.085 247.238 131.092 247.274 131.1 247.311C131.151 247.298 131.204 247.286 131.257 247.274L131.337 247.258V247.256C131.252 247.241 131.164 247.223 131.078 247.203ZM150.044 121.768C147.215 126.628 142.528 129.749 136.881 129.794C126.97 130.366 116.928 129.709 107.27 127.357C105.85 127.001 104.154 126.691 102.848 125.914C110.305 166.413 122.359 205.866 130.859 246.132C137.015 246.675 143.152 246.618 149.322 246.327C154.083 246.255 158.892 246.768 163.621 246.059L163.474 241.06C162.28 201.044 160.619 160.545 150.044 121.768Z" fill="#313131"/>
<path fill-rule="evenodd" clip-rule="evenodd" d="M158.863 23.2743C152.254 14.1548 140.087 11.5322 129.535 13.7503C108.907 17.5205 89.1987 33.3003 85.5538 54.7606C79.8673 67.7436 83.4986 88.1932 100.036 89.7209C102.391 89.8541 104.723 89.3107 107.082 89.6041C121.477 91.9096 138.488 101.779 151.231 90.14C151.87 90.5988 152.711 90.8206 153.427 90.543C158.851 88.4414 159.106 82.3618 159.568 77.3642C160.165 70.9068 160.726 64.4458 161.248 57.9822C161.435 46.8354 165.841 32.9061 158.863 23.2743Z" fill="#FAFAFA"/>
<path fill-rule="evenodd" clip-rule="evenodd" d="M118.868 0.0366592C127.553 -0.426304 143.556 3.56223 151.133 8.23838C163.478 15.8572 164.435 31.0552 163.931 33.683C163.74 34.6859 163.129 35.614 162.172 35.3056C162.984 42.2102 162.92 46.1566 163.056 53.101L163.15 57.7374C163.211 60.8283 163.263 63.9196 163.276 67.0118C163.588 66.8951 163.896 67.0382 164.011 67.3383C164.039 67.411 163.94 67.4507 163.892 67.4088C163.342 66.928 163.733 68.0237 163.923 68.2465C164.184 68.553 164.62 68.8418 164.925 69.1041L165.755 69.8247L166.585 70.5437C167.657 71.4713 168.695 72.4007 169.695 73.3999L169.967 73.6742C171.79 75.5305 174.074 77.327 175.209 79.728C176.293 82.0206 175.958 84.6198 174.158 86.4474C173.502 87.111 172.737 87.6182 171.906 88.0018C173.386 90.4445 173.601 93.6742 172.058 96.1872C170.512 98.7095 167.539 100.03 164.677 99.8272C164.589 100.187 164.452 100.537 164.272 100.87C163.137 102.961 160.879 103.233 158.738 103.121L158.654 103.116C153.835 102.838 149.198 101.628 144.976 99.2761C143.512 99.3753 142.206 98.1692 141.92 96.8464C141.15 96.818 140.376 96.7538 139.587 96.6634C137.245 96.3925 134.844 95.8876 132.78 94.695C132.463 94.512 132.61 94.0292 132.962 94.0201C135.478 93.9628 137.995 94.1372 140.506 93.8638C142.81 93.6145 145.266 92.9776 147.415 92.1112C151.275 90.5503 154.587 87.9026 156.414 84.234C158.78 79.4853 158.564 73.7823 158.822 68.6235C159.106 62.9132 159.457 57.2082 159.832 51.5038L160.014 48.7694C160.379 43.4397 160.68 40.5885 161.603 35.0565C158.822 35.3056 147.267 31.136 143.674 24.3155C136.855 38.825 102.305 32.8869 100.773 55.2241C100.76 55.4135 100.461 55.3607 100.45 55.1797L100.421 54.6707C100.407 54.4191 100.395 54.1716 100.386 53.9259L100.379 53.6808L99.8362 53.6875C99.8362 53.7556 99.7394 53.78 99.7152 53.7073C99.2029 52.2498 96.7623 52.7194 95.7003 53.0658C94.7439 53.3786 93.8424 53.8592 93.0333 54.4524C91.4084 55.6429 90.1485 57.2457 89.7308 59.2494C88.937 63.0547 91.3535 66.9304 94.5614 68.7668C96.5842 69.9242 98.8006 70.6716 100.74 71.9833C102.453 73.1407 104.049 74.4965 105.432 76.0375C110.911 82.142 114.135 91.4013 111.542 99.4591C111.344 100.074 110.821 100.777 110.128 100.877C108.983 101.042 107.837 100.874 107.195 99.7809C106.945 99.3532 106.826 98.866 106.852 98.3854C106.408 99.9152 104.968 101.428 103.64 101.997C101.83 102.773 99.7922 102.541 98.1959 101.54L97.9942 101.69C95.3983 103.605 92.4983 105.352 89.1723 104.999C86.7625 104.743 84.3967 103.513 83.0642 101.573C81.2921 102.572 79.3989 103.368 77.4465 103.91L77.2387 103.967C74.5524 104.7 71.126 105.373 68.6186 103.883C66.211 102.453 65.4106 99.3288 65.9757 96.7207C66.0438 96.4101 66.1296 96.1081 66.2351 95.8149C64.4234 95.9117 62.6138 95.7377 60.8944 95.2042C59.1376 94.6595 57.4622 93.6123 56.6201 91.915C55.6702 89.9946 55.9231 87.8122 56.6311 85.8568C57.7634 82.7194 59.584 79.9284 61.8509 77.497C64.0308 75.1568 66.6604 73.1714 69.3932 71.5164L69.8539 71.24C72.314 69.7688 75.2807 68.0449 78.1874 68.1584C78.1787 68.1209 78.1721 68.0854 78.1677 68.0481C77.7279 64.8008 77.7785 61.4895 77.6751 58.2157C77.5806 55.2042 77.4729 52.1927 77.4025 49.1791C77.2882 44.0554 77.3255 38.9101 77.9918 33.8219C78.5832 29.3069 79.6474 24.9042 81.5889 20.7706C83.6271 16.4278 86.6965 12.7218 90.4872 9.80738C98.4422 3.68966 108.95 0.56576 118.868 0.0366592ZM91.8481 60.2151C92.7144 58.5771 94.6867 58.0613 96.4171 58.3567C98.8423 58.7711 100.491 60.8966 101.907 62.7242C103.394 64.6397 100.293 66.4453 99.4953 64.5893L99.3062 64.1508C98.6657 62.6788 97.909 61.1266 96.6018 60.1666C95.2122 59.1481 93.2509 58.9982 92.024 60.3518C91.9361 60.451 91.7888 60.3232 91.8481 60.2151Z" fill="#313131"/>
<path fill-rule="evenodd" clip-rule="evenodd" d="M136.401 86.2672C134.936 85.6682 133.628 84.669 132.672 83.3926C132.34 82.9488 132.254 82.4803 132.324 82.0517C132.402 81.5698 132.686 81.133 133.075 80.8401C133.464 80.5462 133.951 80.4013 134.421 80.4752C134.83 80.5394 135.238 80.7638 135.56 81.2292L135.627 81.3222C136.195 82.0926 136.936 82.7247 137.78 83.1321C138.593 83.5248 139.503 83.7081 140.444 83.6015C142.237 83.3986 143.472 82.4271 144.786 81.1079C144.949 80.9413 145.111 80.7696 145.275 80.595C145.378 80.4368 145.522 80.3351 145.681 80.2817C145.858 80.2225 146.058 80.2258 146.241 80.2899C146.418 80.3517 146.576 80.4688 146.682 80.6247C146.783 80.7728 146.84 80.9558 146.821 81.1663C146.701 82.5335 145.988 83.7536 144.974 84.7117C143.849 85.7758 142.357 86.5119 140.953 86.7701C139.405 87.0545 137.829 86.8507 136.401 86.2672ZM141.683 65.1757C143.329 66.1783 145.837 68.5162 144.066 71.0018C141.982 73.1934 138.98 70.6805 137.502 69.5441C136.13 68.6633 134.589 70.9286 135.862 71.957C146.549 79.885 150.886 65.4379 142.515 63.9969C141.594 63.8381 141.251 64.8655 141.683 65.1757ZM122.532 55.9534C122.714 53.6913 126.152 53.1776 126.494 55.4161C126.8 57.4213 126.44 59.2633 125.538 61.0686C124.677 62.7933 122.512 61.9887 122.349 60.4182C122.129 58.313 122.419 57.3606 122.532 55.9534ZM148.705 54.9519C149.184 54.3229 149.876 53.8934 150.706 54.1361C153.296 54.8947 152.533 58.5803 151.623 60.3742C151.128 61.3484 149.53 61.5955 148.808 60.7377C147.631 59.3389 147.067 56.5454 148.564 55.1675C148.604 55.0963 148.649 55.0245 148.705 54.9519ZM125.502 46.0551L125.911 45.9833C127.177 45.7639 128.751 45.5531 129.647 46.573C130.122 47.1138 130.285 48.119 129.647 48.6367C128.524 49.5475 127.282 49.1946 125.936 49.2717C124.827 49.3354 123.761 49.5194 122.693 49.8254C120.349 50.4966 118.439 51.722 116.437 53.0675C116.175 53.244 115.906 52.9074 116.032 52.6613C117.187 50.3933 119.427 48.5303 121.67 47.3947C122.867 46.7886 124.177 46.2857 125.502 46.0551ZM146.343 45.0391L146.656 45.1034C150.065 45.8173 154.494 47.2435 156.108 50.5985C156.17 51.0729 156.105 51.1746 156.052 51.241L156.034 51.2631C155.991 51.3198 155.956 51.398 155.751 51.4626C155.694 51.449 155.636 51.4346 155.578 51.4193C154.838 51.225 154.253 50.9574 153.686 50.6796L153.072 50.3763C152.359 50.026 151.639 49.6884 150.877 49.4393C149.25 48.9076 147.577 48.5331 145.878 48.3331C145.51 48.2898 145.155 48.1653 144.875 47.9518C144.61 47.7492 144.407 47.4687 144.314 47.0959C144.195 46.6134 144.229 46.2481 144.487 45.8127C144.682 45.4858 144.96 45.2592 145.279 45.1291C145.604 44.9965 145.975 44.9652 146.343 45.0391Z" fill="#313131"/>
</svg>
