<svg width="238" height="646" viewBox="0 0 238 646" fill="none" xmlns="http://www.w3.org/2000/svg">
<path fill-rule="evenodd" clip-rule="evenodd" d="M41.5182 213.663C35.4349 220.795 35.9727 222.779 39.2139 229.98C46.3745 246.689 56.6421 263.675 68.2974 279.169C67.528 244.408 66.8662 209.457 65.7283 174.379C58.7979 187.933 51.4174 200.175 41.5182 213.663ZM40.3705 643.29C36.5414 642.918 9.5923 643.917 16.8045 636.04C14.5782 631.195 20.7978 627.107 24.6303 623.421C28.2162 619.992 31.75 616.181 35.4322 611.773C38.8612 607.685 42.7266 602.854 45.2256 597.216C45.7788 596.332 46.3407 595.713 46.897 595.375L47.2179 595.18L47.4178 594.862C49.5268 591.488 51.2682 588.001 53.1847 584.564C48.4976 582.866 44.2391 581.161 38.9302 578.805C46.4213 534.582 57.6483 491.497 64.9075 447.143C69.3259 408.547 71.698 369.587 81.8089 331.576L83.1024 331.675L83.8232 329.185C82.7613 329.157 80.61 329.085 79.5449 329.043L79.7943 330.318C74.9743 329.758 70.2511 328.381 65.5654 327.213C63.1741 326.886 60.7766 325.171 61.6371 322.314C61.9139 318.169 62.7694 314.124 63.172 309.98C61.6471 308.937 60.074 307.745 58.5672 306.524C54.5825 308.408 49.7664 314.49 45.4093 312.943C35.2269 299.241 26.6814 282.771 18.9483 269.613C0.270604 239.184 -5.65757 220.164 13.606 188.435C30.2607 161.855 48.226 119.608 81.6136 112.938C85.362 112.236 89.2899 112.207 92.8924 110.494C93.0772 108.039 94.3008 106.629 95.1965 106.609C97.3721 106.13 99.761 105.36 101.885 105.34C102.634 105.027 103.549 105.284 104.268 105.426C106.409 101.118 106.218 95.6172 108.564 91.5783C108.65 88.5182 109.58 85.1371 118.988 84.522C125.392 83.9861 134.462 83.4698 139.581 86.275C143.163 89.1658 143.2 95.642 142.75 100.205C142.257 103.556 142.478 107.454 145.096 111.39C152.557 109.081 157.76 113.962 162.431 123.068C181.983 125.736 186.199 127.252 193.786 146.667C197.403 155.087 201.17 164.083 203.99 173.3C207.767 184.569 208.099 196.364 211.771 207.712C221.743 232.722 231.884 248.863 235.078 277.98C236.636 290.836 235.741 297.211 234.259 299.142C230.045 297.92 224.608 296.985 220.182 296.464L224.918 300.076C220.905 318.318 232.464 370.342 201.123 366.346C200.845 365.667 201.356 361.932 201.491 360.382C200.634 360.443 199.049 360.499 198.205 360.392C196.711 364.716 194.467 368.601 193.05 372.998C192.35 375.678 191.465 378.375 190.599 380.982C170.862 447.619 166.953 511.772 175.761 578.672L175.363 578.817L175.202 579.104L174.96 579.195C174.338 580.027 173.457 580.063 172.052 580.065C163.419 580.369 155.833 580.76 148.799 580.956C149.545 584.701 149.067 588.643 148.738 592.453C152.832 592.164 156.589 593.83 160.331 595.83C167.481 599.349 174.603 603.046 181.526 607.087C188.4 611.496 199.516 615.267 193.997 623.192L195.593 623.82C195.646 623.842 195.68 623.86 195.701 623.873C195.889 624.546 193.728 627.332 193.087 627.302C177.972 628.01 165.08 624.471 145.745 620.763C141.318 619.154 119.022 616.416 118.929 612.189C119 610.872 120.358 610.961 121.305 610.796C118.465 596.417 128.067 595.255 129.441 582.207C127.54 582.57 125.485 582.881 123.538 582.346C121.829 554.5 124.574 525.995 121.539 497.877L118.453 497.534C108.079 528.131 97.3233 559.437 89.0626 591.218C88.9052 591.909 88.1333 591.437 87.7804 591.184C82.3811 591.056 76.9803 590.478 71.6859 589.566C71.5588 592.692 71.425 595.876 71.2938 598.999L72.1097 599.438C72.6359 600.173 72.4145 603.61 72.3191 605.089C72.223 606.602 72.1436 607.697 72.2771 608.723C73.9799 612.088 68.1575 619.382 65.0781 623.437C58.3687 632.142 52.8109 645.035 40.3705 643.29Z" fill="#FAFAFA"/>
<path fill-rule="evenodd" clip-rule="evenodd" d="M106.979 91.9275C108.807 90.6871 106.204 101.45 106.199 102.486L106.154 102.711C105.698 104.903 104.896 107.454 103.05 108.86C103.901 115.837 104.961 122.792 106.265 129.697L107.033 129.798C118.415 131.308 129.872 133.385 141.445 132.303C147.68 132.352 151.808 128.08 154.322 122.781C154.151 122.156 153.981 121.534 153.806 120.909C145.888 116.053 139.891 106.199 143.459 96.8977C143.612 96.5 144.084 96.4727 144.327 96.6795C144.366 96.6831 144.402 96.7154 144.4 96.7591L144.282 98.5739C144.033 102.534 143.922 106.638 146.064 110.203C154.68 108.236 160.037 115.429 163.639 122.236L166.227 122.619C176.128 124.092 185.676 125.836 190.565 135.991L191.234 137.418C198.065 152.011 204.431 167.018 208.157 182.732C210.033 191.093 210.712 199.708 213.464 207.862C219.178 223.003 227.23 237.232 231.596 252.907C234.305 258.563 241.929 301.138 234.408 301.462C231.703 300.65 228.948 299.994 226.164 299.528C226.593 299.855 226.75 300.412 226.668 300.98C225.696 307.804 225.624 314.717 225.628 321.599C226.142 338.264 225.681 374.119 200.615 368.364C198.786 367.69 199.974 364.752 199.9 362.699C199.757 362.706 199.612 362.703 199.466 362.694C198.027 366.582 196.01 370.171 194.745 374.123C193.673 377.518 192.924 381.17 191.43 384.421C175.603 440.778 169.07 500.054 175.258 558.384C175.605 561.877 175.996 565.365 176.432 568.847C176.377 571.024 178.954 580.138 176.641 580.75C176.551 580.926 176.239 581.128 176.053 581.191C174.648 582.709 172.313 582.146 170.459 582.348C163.908 582.639 157.356 582.909 150.802 583.127C151.194 585.912 150.877 588.739 150.645 591.52C155.425 591.559 159.818 594.473 164.046 596.451C170.325 599.553 176.502 602.868 182.562 606.384C188.156 610.304 200.655 614.09 196.355 622.98C199.562 624.283 195.106 629.732 192.669 629.794C176.81 629.714 161.052 626.111 145.553 622.949C136.747 620.619 127.138 619.733 118.992 615.715C116.679 614.668 117.164 610.492 119.707 610.104C117.818 596.182 125.486 596.374 127.642 584.779C126.387 584.985 125.001 584.869 123.743 584.613C120.829 587.312 121.899 566.071 121.504 563.997C121.425 542.217 122.456 520.391 120.139 498.686L116.201 510.295C107.021 537.391 97.9782 564.557 90.7815 592.258C90.3503 593.93 88.5971 594.131 87.4775 593.401C82.7515 593.263 78.0438 592.817 73.3815 592.062C73.2906 594.278 73.1975 596.494 73.1044 598.71C75.1154 599.794 73.7537 606.632 74.0105 608.945C76.1875 613.966 67.3643 623.632 64.4636 627.775C59.2903 635.011 54.1557 645.136 44.152 645.473L43.8473 645.48C36.381 645.663 28.8471 645.225 21.4532 644.158L20.6551 644.027C18.5202 643.673 16.1301 643.172 14.8969 641.262C13.8568 639.653 13.9839 637.576 15.2466 636.347C13.5792 630.287 20.0695 626.618 23.6947 622.928C30.4667 616.385 36.6218 609.188 41.9443 601.416L42.25 600.691C43.2366 598.36 44.4154 595.772 46.2523 594.656C48.0035 591.87 49.4998 588.938 51.0827 586.059C46.7633 584.47 42.5097 582.695 38.3039 580.827C37.4667 580.454 37.2006 579.364 37.3467 578.553L37.3573 578.498C45.5685 535.789 55.413 493.384 63.0701 450.577C67.9604 411.126 69.9652 371.172 80.2466 332.588C75.2589 332.069 70.2943 330.633 65.3994 329.406C61.4749 328.57 59.4903 326.573 60.2643 322.41C60.5304 318.709 61.2703 315.069 61.67 311.383C60.6251 310.651 59.6057 309.881 58.6133 309.09C56.7736 310.465 54.8752 311.76 52.9245 312.969C48.2537 316.339 44.6483 316.863 41.7626 311.34C33.4056 298.116 25.3461 284.698 17.7399 271.026C10.6849 257.91 1.94114 244.822 0.150247 229.72C-2.45139 202.544 29.3828 159.053 45.3301 136.966C54.1245 126.328 64.8353 115.378 78.7639 112.285C83.0481 111.649 87.5649 111.562 91.6493 110.005C91.981 108.017 92.9135 106.185 95.0194 105.699C97.235 105.208 99.61 104.45 101.841 104.394C102.346 104.252 102.941 104.162 103.474 104.26C105.001 100.287 105.226 95.8107 106.979 91.9275ZM21.6508 639.488C22.0323 639.676 22.4274 639.84 22.8317 639.985C23.329 640.053 23.8241 640.117 24.3192 640.174C23.4221 639.972 22.5319 639.744 21.6508 639.488ZM71.2127 600.864C63.8969 603.525 61.8858 591.035 47.4968 596.089C41.8734 606.548 34.5933 616.048 26.272 624.493C23.3143 628.176 14.5599 632.359 19.2776 637.76L20.0002 637.893C28.193 639.386 36.5092 640.572 44.8579 639.896C51.1667 638.153 55.8979 633.088 59.7217 627.98C62.488 623.067 65.7242 618.444 69.0278 613.886C70.8441 611.619 71.0283 608.734 71.0196 605.945C71.0807 604.25 71.1446 602.557 71.2127 600.864ZM153.397 594.733C150.291 593.592 147.105 594.665 144.279 596.065C139.453 598.228 128.999 600.821 124.533 597.371C122.343 601 121.609 605.033 122.21 609.218L122.217 609.477C122.267 611.167 122.503 612.527 124.553 612.647L130.374 614.114C150.009 619.052 169.838 623.827 190.049 625.2C195.443 621.826 195.594 617.39 189.86 614.301L188.394 613.4C177.136 606.501 165.616 599.719 153.397 594.733ZM196.114 623.43C196.06 623.523 196.008 623.616 195.953 623.707C196.037 623.748 196.114 623.807 196.187 623.871C196.187 623.718 196.164 623.569 196.114 623.43ZM52.1728 586.454C52.2477 587.988 51.496 589.72 50.9669 591.097C50.6557 591.91 50.3355 593.072 49.8405 594.003C62.1437 590.367 65.8859 601.021 70.3216 598.806L70.4562 598.735V598.733C69.551 596.66 70.5382 593.743 71.1468 591.676C64.6868 590.506 58.3439 588.684 52.1728 586.454ZM149.382 583.175L145.835 583.284C140.318 583.452 134.8 583.598 129.279 583.591C129.857 587.566 128.727 594.123 126.159 597.212C126.155 597.214 126.15 597.214 126.148 597.217C133.415 598.319 140.298 594.984 146.771 592.178C147.043 589.132 148.237 586.023 149.382 583.175ZM125.65 595.285L124.987 596.526C125.083 596.633 125.192 596.73 125.307 596.815C125.24 596.298 125.424 595.788 125.65 595.285ZM51.38 586.17C51.2573 586.704 51.1145 587.238 50.9623 587.772C51.194 587.247 51.4574 586.745 51.7774 586.313L51.38 586.17ZM128.898 583.593L128.51 583.597L128.507 583.82C128.598 583.973 128.614 584.159 128.5 584.309C128.487 584.995 128.457 585.684 128.405 586.372L128.535 585.577C128.644 584.915 128.76 584.254 128.898 583.593ZM123.963 583.366L123.983 583.711C124.481 583.693 124.983 583.713 125.478 583.689C125.739 583.675 126.007 583.629 126.277 583.582C125.498 583.557 124.722 583.495 123.963 583.366ZM212.347 298.55C212.102 298.839 211.834 299.014 211.562 299.103C211.564 305.663 210.242 312.115 206.62 317.796C205.114 319.799 204.262 322.077 203.534 324.453C199.703 335.323 198.992 347 200.388 358.383C204.152 352.851 205.648 346.249 206.699 339.74C206.756 339.412 207.297 339.417 207.356 339.74C208.628 346.707 206.441 353.55 203.827 359.99C202.194 361.16 202.583 364.223 202.387 366.026C230.136 370.077 220.486 316.695 224.041 300.255C224.107 299.803 224.49 299.473 224.926 299.335C220.764 298.698 216.547 298.652 212.347 298.55ZM81.6706 331.345C81.7046 331.52 81.7341 331.695 81.7569 331.87L81.9067 331.354C81.8295 331.352 81.75 331.349 81.6706 331.345ZM100.424 105.547L99.9384 105.674C94.8112 106.999 93.1518 106.817 92.8617 113.021C91.6013 121.44 86.9485 128.783 84.857 136.923C84.0203 139.798 84.9053 145.096 88.8718 144.318C90.157 143.923 91.1587 145.659 90.1867 146.579C87.3139 149.302 84.5252 152.108 81.7205 154.897C92.9828 192.984 107.613 230.082 125.435 265.574C126.141 266.983 124.022 268.222 123.321 266.813C105.603 231.206 90.8681 194.121 79.4315 156.024L79.086 154.869C78.5809 153.466 85.0391 148.44 86.2148 146.8C74.4223 141.106 90.8862 121.168 91.3336 111.567C87.9584 113.053 84.1323 112.52 80.5669 113.119C73.7269 114.321 67.7231 118.28 62.3867 122.553C40.7104 141.731 26.8584 168.282 13.0017 193.309C3.56513 209.637 -0.984106 229.598 8.48566 246.967C19.4736 269.237 32.2197 290.702 45.6959 311.54C47.1757 313.469 49.453 311.252 51.0123 310.442C59.9752 305.046 67.7472 297.704 73.7244 289.12C59.2337 271.305 46.6111 251.835 37.6844 230.623L37.5612 230.377C35.5583 226.344 33.9748 221.464 37.3158 217.665C49.1801 202.439 59.7317 186.275 69.6614 169.734C69.7638 169.568 69.9929 169.713 69.9182 169.886C68.8986 172.199 67.8244 174.495 66.7048 176.769C68.9662 210.402 68.5842 244.692 69.5617 278.539C72.1983 282.036 74.9121 285.474 77.6895 288.858C86.6992 282.637 97.2976 278.58 108.182 277.323L108.886 277.252C113.509 276.776 121.145 275.877 121.752 281.891C121.002 289.29 105.742 285.13 100.863 289.326C108.861 292.556 118.026 293.466 125.369 298.335C127.724 299.712 132.341 304.098 127.831 305.777C125.862 305.946 123.829 305.18 121.862 305.011C124.076 305.759 126.112 307.024 127.408 309.009C128.341 310.37 129.023 313.195 126.793 313.777C121.709 313.92 116.646 312.259 111.638 311.433L112.083 311.614C115.734 313.112 121.408 315.801 116.491 319.767C111.57 322.32 105.611 317.977 100.708 316.818C87.5031 313.74 77.7345 322.177 64.1976 313.042C63.8136 316.095 63.2365 319.126 63.0058 322.196L62.976 322.37C62.5067 325.172 62.9086 326.183 65.9238 326.718C69.5592 327.818 73.3667 328.163 77.1445 328.368C95.3246 329.331 113.626 328.647 131.682 326.314C134.28 325.615 140.384 326.274 141.47 323.41C139.435 249.674 108.77 180.292 100.327 107.515C100.188 106.815 100.179 106.101 100.424 105.547ZM151.678 111.848C150.228 111.908 148.878 112.223 147.436 112.369C148.235 114.071 152.45 116.48 152.066 117.325C152.371 117.562 152.68 117.789 152.993 118.009C152.557 116.473 152.116 114.939 151.675 113.402C167.695 152.518 169.896 198.799 172.024 241.47C172.725 262.985 173.107 284.568 172.069 306.07C171.492 311.781 169.966 317.553 170.382 323.321C179.784 324.678 189.322 324.793 198.762 323.789C199.041 323.055 199.357 322.332 199.715 321.623C213.847 304.352 206.353 282.707 199.548 263.999C195.434 264.174 191.294 263.912 187.176 263.963C188.448 267.911 188.776 272.088 189.454 276.171C189.915 279.08 190.503 281.967 191.179 284.831L191.384 285.692C191.636 286.721 191.943 287.824 191.584 288.84C191.22 289.874 189.967 290.292 189.135 289.488C187.637 287.775 187.798 285.223 187.314 283.1L187.225 282.432C186.4 276.335 185.314 270.01 186.822 263.961C185.342 263.642 181.297 264.812 181.085 262.818C181.147 259.524 178.764 252.388 181.417 250.219C182.995 249.012 185.709 249.394 187.56 249.319C189.699 249.233 191.836 249.153 193.973 249.167C176.799 207.561 181.575 194.754 183.318 153.347L183.37 152.083C183.365 151.81 183.803 151.742 183.851 152.017C186.477 168.978 182.977 186.15 184.635 203.164C187.58 235.492 208.014 263.247 211.43 295.419C218.797 294.562 226.251 295.613 233.393 297.467C233.542 296.16 233.658 294.848 233.74 293.537C235.096 269.524 226.69 246.202 216.883 224.664C211.006 213.232 207.373 201.031 205.853 188.273C202.9 171.656 196.275 156.003 189.671 140.567C185.496 129.025 176.472 126.303 165.281 124.963C169.056 131.235 172.807 137.521 176.552 143.811C177.388 145.714 174.826 147.071 173.709 148.242C187.457 155.758 179.429 178.968 179.714 191.972C178.693 203.922 178.308 215.941 176.509 227.808C176.377 228.63 175.119 228.389 175.108 227.619C175.273 209.838 177.389 192.128 178.317 174.376L178.43 173.082C179.153 164.677 179.862 152.552 169.78 150.245C168.42 150.022 168.315 147.995 169.408 147.386C170.861 146.575 172.135 145.584 173.275 144.404C169.424 137.925 165.579 131.442 161.768 124.936L161.59 124.633C158.883 120.03 156.368 114.672 151.678 111.848ZM118.965 281.44C117.853 278.157 107.059 280.295 104.178 280.652C93.5544 282.663 82.8628 287.376 74.7711 294.635C74.2717 295.083 73.6812 295.076 73.2157 294.833C69.5914 299.474 65.4062 303.681 60.8161 307.377C61.6562 308.04 62.5194 308.683 63.4071 309.299C63.832 309.345 64.2158 309.565 64.3884 309.961C77.0175 319.134 86.3081 311.979 99.4274 313.631C104.326 314.621 108.836 317.745 113.884 317.876C117.589 317.032 114.327 315.479 112.597 314.879C108.679 313.004 104.685 311.294 100.683 309.609L97.4809 308.263C95.9073 307.602 96.4478 305.218 98.2056 305.634C101.283 306.361 104.369 307.052 107.458 307.732C113.397 308.946 119.478 310.504 125.48 311.095C124.146 307.377 109.99 303.362 105.874 301.885C104.32 301.149 99.8866 301.289 100.393 298.873C100.802 296.625 105.519 299.199 107.092 299.382C113.512 301.015 120.066 302.005 126.609 303C119.581 295.932 108.688 295.322 99.7135 292.012L99.467 291.956C97.8709 291.584 95.6847 290.881 96.982 289.063C101.593 282.248 119.737 285.696 118.965 281.44ZM105.686 243.492C108.959 240.8 110.713 246.33 110.505 248.901C110.659 251.035 110.825 253.169 110.964 255.303C110.76 256.971 112.534 263.054 110.162 263.109C99.7921 262.581 89.4394 262.714 79.0656 262.088C79.0522 264.186 78.95 266.281 79.0567 268.381C79.0004 271.006 79.9104 273.629 79.379 276.226C79.0545 277.419 77.4352 277.58 76.8032 276.562C74.9083 272.093 76.2112 266.329 77.5531 261.809C72.4736 260.867 71.7728 256.081 73.1113 251.81L73.0974 251.578C73.0228 250.261 73.0286 248.848 73.6152 247.783C75.1842 245.931 78.4376 247.134 80.5987 246.995C87.2227 246.31 93.9687 246.121 100.515 244.901C102.21 244.462 103.938 243.575 105.686 243.492ZM64.5087 181.096C59.3518 190.965 53.4184 200.355 47.1017 209.498C45.7482 211.45 44.3583 213.377 42.9462 215.29L42.7721 215.514C39.924 219.157 36.9045 222.15 39.5986 226.967C46.585 243.977 55.9394 259.952 66.7775 274.778C66.0912 243.55 65.4848 212.314 64.5087 181.096ZM194.164 249.667C181.207 252.389 180.964 247.291 183.127 261.718C188.323 261.753 193.517 261.636 198.715 261.72C197.229 257.691 195.69 253.68 194.164 249.667ZM107.189 245.592C100.422 247.949 93.2372 247.613 86.1694 247.903C86.1837 249.426 78.9527 248.013 77.5647 248.222L77.0821 248.18C75.9268 248.084 74.4411 248.047 74.4282 249.478C74.7964 251.946 73.4111 254.648 74.2693 257.073C75.4277 260.338 80.3827 260.002 83.117 260.066C87.6251 260.168 92.1328 260.277 96.6409 260.395C100.69 260.502 104.753 260.704 108.804 260.734C108.441 257.843 108.341 254.88 108.121 251.992C107.843 249.915 108.244 247.453 107.189 245.592ZM135.645 256.093C135.652 256.13 135.659 256.166 135.668 256.205C135.721 256.191 135.775 256.178 135.83 256.167L135.913 256.15V256.148C135.824 256.132 135.734 256.114 135.645 256.093ZM155.271 126.288C152.344 131.317 147.493 134.547 141.649 134.594C131.393 135.186 121.002 134.506 111.007 132.071C109.538 131.703 107.782 131.383 106.431 130.578C114.147 172.489 126.621 213.316 135.418 254.984C141.788 255.547 148.139 255.488 154.524 255.187C159.451 255.112 164.428 255.643 169.321 254.909L169.169 249.736C167.934 208.326 166.215 166.416 155.271 126.288Z" fill="#313131"/>
<path fill-rule="evenodd" clip-rule="evenodd" d="M159.446 24.0851C152.607 14.6479 140.016 11.934 129.096 14.2293C107.749 18.1309 87.3545 34.4604 83.5826 56.6684C77.698 70.1037 81.4558 91.2656 98.5699 92.8466C101.006 92.9844 103.42 92.4221 105.861 92.7257C120.758 95.1116 138.361 105.325 151.548 93.2803C152.209 93.7551 153.079 93.9846 153.82 93.6974C159.433 91.5225 159.697 85.2311 160.175 80.0594C160.794 73.377 161.373 66.691 161.914 60.0022C162.107 48.467 166.667 34.0525 159.446 24.0851Z" fill="#FAFAFA"/>
<path fill-rule="evenodd" clip-rule="evenodd" d="M118.059 0.0379363C127.046 -0.441155 143.606 3.68633 151.447 8.52539C164.222 16.4096 165.213 32.1371 164.691 34.8565C164.494 35.8943 163.861 36.8548 162.871 36.5356C163.711 43.6807 163.645 47.7646 163.786 54.951L163.883 59.7488C163.946 62.9475 164 66.1464 164.013 69.3463C164.337 69.2256 164.655 69.3737 164.773 69.6842C164.803 69.7595 164.701 69.8005 164.651 69.7572C164.082 69.2596 164.487 70.3935 164.682 70.6241C164.953 70.9412 165.404 71.2401 165.72 71.5116L166.579 72.2572L167.438 73.0013C168.547 73.9612 169.621 74.923 170.656 75.957L170.937 76.2409C172.824 78.1618 175.188 80.0209 176.362 82.5056C177.483 84.878 177.138 87.5678 175.274 89.459C174.596 90.1457 173.804 90.6707 172.944 91.0676C174.475 93.5954 174.698 96.9377 173.101 99.5382C171.502 102.148 168.425 103.515 165.463 103.305C165.372 103.677 165.231 104.04 165.044 104.384C163.869 106.548 161.533 106.829 159.317 106.714L159.231 106.709C154.243 106.421 149.445 105.169 145.076 102.735C143.56 102.837 142.209 101.589 141.913 100.22C141.117 100.191 140.316 100.125 139.499 100.031C137.076 99.7506 134.591 99.2282 132.455 97.9939C132.127 97.8046 132.279 97.305 132.643 97.2956C135.246 97.2363 137.852 97.4168 140.45 97.1339C142.835 96.8758 145.376 96.2167 147.599 95.3202C151.595 93.7049 155.021 90.965 156.912 87.1685C159.36 82.2544 159.137 76.3527 159.404 71.0142C159.699 65.105 160.062 59.2013 160.45 53.2981L160.638 50.4685C161.015 44.9531 161.327 42.0025 162.282 36.2778C159.404 36.5356 147.447 32.2207 143.729 25.1626C136.672 40.1776 100.918 34.0326 99.3326 57.1479C99.3192 57.344 99.0095 57.2894 98.9981 57.1021L98.9686 56.5753C98.9544 56.315 98.9414 56.0588 98.9326 55.8046L98.9253 55.551L98.3633 55.5578C98.3633 55.6283 98.2632 55.6536 98.2382 55.5784C97.708 54.0701 95.1824 54.5561 94.0834 54.9145C93.0937 55.2382 92.1608 55.7355 91.3234 56.3495C89.642 57.5814 88.3382 59.24 87.9059 61.3135C87.0845 65.2514 89.5851 69.2621 92.9048 71.1625C94.9981 72.3603 97.2916 73.1336 99.2985 74.4911C101.071 75.6888 102.723 77.0919 104.154 78.6865C109.824 85.0037 113.16 94.5855 110.477 102.924C110.272 103.561 109.731 104.288 109.014 104.391C107.829 104.562 106.643 104.389 105.979 103.257C105.719 102.815 105.597 102.31 105.624 101.813C105.164 103.396 103.674 104.961 102.3 105.55C100.427 106.353 98.3178 106.113 96.6659 105.077L96.4572 105.232C93.7708 107.215 90.7699 109.022 87.328 108.657C84.8342 108.393 82.3859 107.119 81.0071 105.112C79.1732 106.145 77.2141 106.969 75.1936 107.53L74.9786 107.589C72.1987 108.348 68.6529 109.044 66.0582 107.503C63.5667 106.022 62.7385 102.789 63.3232 100.09C63.3938 99.7689 63.4825 99.4563 63.5917 99.1529C61.7168 99.253 59.8442 99.073 58.0649 98.5209C56.2469 97.9572 54.5131 96.8736 53.6417 95.1171C52.6587 93.1298 52.9204 90.8714 53.6531 88.8479C54.8249 85.6012 56.7088 82.713 59.0547 80.1968C61.3106 77.7751 64.0318 75.7205 66.8598 74.0079L67.3366 73.7218C69.8823 72.1994 72.9524 70.4154 75.9604 70.5329C75.9513 70.4941 75.9445 70.4573 75.9399 70.4188C75.4849 67.0583 75.5372 63.6317 75.4303 60.2438C75.3324 57.1274 75.2209 54.011 75.1481 50.8924C75.0298 45.5902 75.0685 40.2657 75.7579 35.0002C76.37 30.3279 77.4712 25.7718 79.4803 21.4942C81.5896 17.0001 84.7659 13.1651 88.6886 10.1491C96.9208 3.8182 107.795 0.58547 118.059 0.0379363ZM90.097 62.3129C90.9935 60.6179 93.0345 60.084 94.8252 60.3897C97.3348 60.8186 99.0413 63.0181 100.507 64.9094C102.045 66.8917 98.8366 68.7601 98.0106 66.8394L97.8149 66.3856C97.1521 64.8624 96.3691 63.2562 95.0163 62.2627C93.5783 61.2087 91.5487 61.0536 90.279 62.4544C90.188 62.557 90.0356 62.4247 90.097 62.3129Z" fill="#313131"/>
<path fill-rule="evenodd" clip-rule="evenodd" d="M138.112 89.7048C136.595 89.085 135.242 88.051 134.253 86.7301C133.909 86.2709 133.82 85.786 133.892 85.3425C133.973 84.8438 134.268 84.3919 134.669 84.0887C135.072 83.7846 135.576 83.6346 136.063 83.7111C136.486 83.7775 136.908 84.0097 137.241 84.4913L137.311 84.5876C137.899 85.3849 138.665 86.039 139.539 86.4606C140.38 86.867 141.321 87.0566 142.296 86.9463C144.151 86.7363 145.429 85.731 146.789 84.3658C146.957 84.1935 147.126 84.0157 147.295 83.8351C147.402 83.6713 147.55 83.5661 147.715 83.5109C147.898 83.4496 148.105 83.453 148.295 83.5194C148.478 83.5833 148.641 83.7045 148.751 83.8658C148.855 84.0191 148.914 84.2084 148.895 84.4263C148.771 85.8411 148.032 87.1037 146.984 88.0952C145.819 89.1963 144.275 89.9581 142.822 90.2253C141.221 90.5196 139.589 90.3087 138.112 89.7048ZM143.577 67.8786C145.281 68.9161 147.877 71.3354 146.044 73.9076C143.887 76.1756 140.781 73.5752 139.251 72.3991C137.832 71.4877 136.237 73.8319 137.554 74.8961C148.613 83.1003 153.101 68.1499 144.439 66.6587C143.485 66.4944 143.131 67.5576 143.577 67.8786ZM123.759 58.335C123.948 55.9941 127.506 55.4625 127.86 57.779C128.177 59.854 127.803 61.7602 126.871 63.6284C125.979 65.4132 123.739 64.5805 123.57 62.9553C123.343 60.7768 123.642 59.7912 123.759 58.335ZM150.844 57.2986C151.34 56.6477 152.057 56.2033 152.915 56.4544C155.596 57.2394 154.806 61.0534 153.864 62.9099C153.352 63.918 151.699 64.1736 150.951 63.286C149.733 61.8384 149.15 58.9476 150.698 57.5217C150.74 57.4481 150.787 57.3737 150.844 57.2986ZM126.833 48.0918L127.256 48.0175C128.567 47.7905 130.196 47.5723 131.122 48.6278C131.614 49.1874 131.783 50.2277 131.122 50.7634C129.96 51.706 128.675 51.3407 127.282 51.4205C126.135 51.4865 125.032 51.6768 123.926 51.9935C121.5 52.6881 119.524 53.9562 117.452 55.3486C117.181 55.5312 116.903 55.1829 117.033 54.9282C118.229 52.5812 120.546 50.6533 122.867 49.4781C124.106 48.8509 125.462 48.3305 126.833 48.0918ZM148.4 47.0405L148.724 47.107C152.252 47.8458 156.835 49.3217 158.505 52.7935C158.569 53.2845 158.502 53.3897 158.447 53.4584L158.429 53.4813C158.384 53.54 158.348 53.6209 158.136 53.6877C158.077 53.6737 158.017 53.6588 157.957 53.643C157.191 53.4419 156.585 53.1649 155.999 52.8775L155.363 52.5636C154.625 52.2011 153.881 51.8518 153.092 51.5939C151.409 51.0438 149.677 50.6562 147.919 50.4493C147.538 50.4044 147.171 50.2756 146.881 50.0547C146.607 49.845 146.397 49.5547 146.301 49.1689C146.177 48.6696 146.213 48.2915 146.48 47.8411C146.681 47.5028 146.969 47.2683 147.299 47.1336C147.636 46.9964 148.019 46.964 148.4 47.0405Z" fill="#313131"/>
</svg>
