<svg width="272" height="407" viewBox="0 0 272 407" fill="none" xmlns="http://www.w3.org/2000/svg">
<path fill-rule="evenodd" clip-rule="evenodd" d="M121.474 261.624C121.007 266.493 121.961 271.143 124.234 275.074L124.974 276.353L123.566 276.845C121.005 277.741 118.156 278.176 114.857 278.176C111.462 278.176 107.932 277.704 105.095 277.324L103.279 277.08L104.171 275.503C104.889 274.235 105.022 272.699 105.162 271.072C105.2 270.635 105.239 270.183 105.291 269.736C107.978 245.711 111.376 221.373 114.662 197.836C115.526 191.643 116.42 185.238 117.288 178.938L119.776 179.034C120.445 190.695 121.094 202.553 121.722 214.021C121.999 219.063 122.275 224.106 122.553 229.148C123.546 241.896 123.203 252.218 121.474 261.624ZM120.459 405.691C124.112 405.691 127.773 405.31 131.339 404.56C142.497 402.218 152.635 396.692 161.261 391.696C161.701 391.446 162.148 391.196 162.607 390.94C165.984 389.05 170.187 386.699 172.82 383.831C175.71 380.685 176.207 377.55 174.385 373.965L174.097 373.398L174.398 372.837C176.285 369.326 176.144 364.981 174.057 362.273L172.303 359.997L175.187 360.303C178.095 360.611 181.026 361.029 183.861 361.434C187.006 361.883 190.259 362.346 193.462 362.657L194.352 362.743L194.557 363.601C194.671 364.079 194.812 364.369 195.8 364.369C196.657 364.369 197.808 364.118 199.027 363.852C200.54 363.523 202.254 363.149 203.908 363.149C204.635 363.149 205.289 363.218 205.908 363.361L206.268 363.444L206.524 363.706C206.688 363.874 206.967 363.978 207.251 363.978C207.467 363.978 207.667 363.918 207.8 363.814L208.204 363.498L208.717 363.554C217.647 364.535 225.347 366.256 232.257 368.814L232.288 368.826L232.438 368.891C234.937 369.969 237.52 371.084 239.873 371.084C241.592 371.084 242.989 370.499 244.268 369.243L244.629 368.888L245.139 368.883C250.312 368.836 252.676 362.804 253.003 358.761L253.044 358.251L253.438 357.92C262.454 350.355 267.776 339.964 269.71 326.154C271.471 313.575 270.119 300.313 268.564 288.998C264.966 259.675 261.214 233.389 251.676 208.458L251.231 207.293L252.418 206.866C256.538 205.386 259.686 203.62 262.043 201.467L262.206 201.318L262.412 201.233C265.79 199.845 267.445 194.722 267.871 193.185L267.906 193.061L267.965 192.946C268.654 191.624 268.813 189.785 268.401 187.9L268.357 187.697L268.383 187.49C268.605 185.701 267.866 183.83 267.084 181.849C266.727 180.944 266.357 180.008 266.087 179.077C265.159 176.414 264.232 173.704 263.336 171.083C261.324 165.203 259.244 159.123 257.028 153.208L256.725 152.399L257.393 151.842C258.532 150.89 258.152 149.769 256.508 147.09C256.12 146.457 255.753 145.858 255.473 145.268C253.367 141.628 251.109 138.133 248.761 134.88L248.713 134.814L248.674 134.741C236.629 112.245 215.263 99.8557 188.511 99.8557L187.966 99.8567L187.665 99.6754C182.651 96.6604 179.072 91.4871 176.723 83.8603L176.648 83.6171L176.677 83.3646C176.757 82.6616 176.846 81.74 176.815 80.8457C176.739 78.5808 175.851 76.5598 174.38 75.3005C171.589 72.9114 167.351 72.7114 163.25 72.7114H162.662C157.418 72.7274 153.717 73.6378 151.012 75.5778C147.869 77.8317 146.133 81.4702 145.702 86.7009C145.574 88.2661 145.578 89.8876 145.582 91.4557L145.583 91.8933L145.53 92.067C145.154 93.3103 144.712 94.5048 144.218 95.6178L143.711 96.7629L142.556 96.2466C141.809 95.9129 140.862 95.7412 139.661 95.7219C139.315 95.7139 138.977 95.7102 138.636 95.7102C135.846 95.7102 132.862 95.9649 129.976 96.2111C127.802 96.3967 125.553 96.5887 123.377 96.6739L123.347 96.6752C123.347 96.6752 123.046 96.6733 122.912 96.6733C117.622 96.6733 113.787 97.5052 110.843 99.2916C107.674 101.215 105.395 104.301 103.672 109.005C94.4295 135.969 90.6296 165.012 87.278 190.636C85.3768 204.036 84.7986 217.772 84.2393 231.057C83.6488 245.079 83.0385 259.578 80.8772 273.752L80.7065 274.872L79.5589 274.798C74.5082 274.472 69.0503 273.77 63.2719 273.027C54.4925 271.898 45.4142 270.73 36.6381 270.73C24.3673 270.73 15.0635 273.144 8.19941 278.11C3.41408 282.619 0.938478 288.725 1.0402 295.771C1.18402 305.726 6.44979 316.733 14.4553 323.811L14.4855 323.839C24.6046 333.399 43.0755 341.69 69.3852 348.483C93.5786 354.729 118.604 358.124 131.368 359.591L134.527 359.955L131.963 361.809C130.925 362.559 129.978 363.22 129.068 363.829L128.481 364.221L127.837 363.926C126.003 363.085 124.838 362.908 124.183 362.908C123.602 362.908 122.902 363.035 122.863 363.636C122.838 364.029 123.118 364.614 123.709 364.688L126.849 365.08L124.286 366.908C122.573 368.13 120.018 369.602 117.059 371.306C107.38 376.884 92.7513 385.312 95.2672 392.714L95.4323 393.2L95.1984 393.659C94.5224 394.983 94.4647 396.214 95.0225 397.419C96.2168 400.002 99.9531 401.962 103.126 402.76L103.181 402.774L103.234 402.792C108.755 404.716 114.55 405.691 120.459 405.691Z" fill="#FAFAFA"/>
<mask id="mask0_602_82" style="mask-type:luminance" maskUnits="userSpaceOnUse" x="0" y="77" width="272" height="330">
<path d="M272 77.5063H0.000485822V406.837H272V77.5063Z" fill="white"/>
</mask>
<g mask="url(#mask0_602_82)">
<path fill-rule="evenodd" clip-rule="evenodd" d="M102.126 276.767C101.478 273.232 102.708 269.581 102.92 266.021C106.139 240.627 109.692 215.249 114.401 190.077C115.556 184.053 116.723 178.054 118.061 172.062C117.859 168.434 117.682 164.806 117.565 161.176C111.031 157.068 103.662 154.409 96.042 153.068C93.9826 164.542 91.9253 176.007 90.4973 187.583C86.0472 216.235 88.5859 245.39 84.2692 274.01C90.2578 274.681 96.2002 275.675 102.126 276.767ZM90.6322 299.089C95.1355 300.287 99.6429 301.433 104.182 302.489C112.26 304.37 120.336 306.258 128.393 308.223C132.415 309.203 136.445 310.155 140.458 311.167C142.363 311.648 144.255 312.181 146.119 312.8C147.049 313.109 147.958 313.463 148.867 313.827C149.663 314.145 150.414 314.585 151.29 314.522C151.342 314.518 151.374 314.468 151.349 314.421C150.891 313.579 149.947 313.18 149.114 312.754C148.195 312.285 147.238 311.882 146.28 311.497C144.152 310.643 141.936 310.016 139.725 309.407C131.691 307.196 123.588 305.215 115.494 303.233C107.36 301.242 99.2267 299.335 90.9855 297.827C90.1553 297.675 89.7961 298.867 90.6322 299.089ZM130.524 367.17C130.163 367.073 129.801 366.985 129.44 366.901C123.662 371.712 96.4505 384.203 98.5201 391.665C99.2517 392.593 101.003 392.804 102.11 393.104C104.038 393.625 105.984 394.077 107.95 394.434C114.303 395.59 120.883 395.791 127.228 394.473C129.563 394.118 131.67 393.122 133.796 392.159C140.666 389.137 148.233 385.798 155.07 382.801C163.755 379.358 178.99 372.572 172.724 361.121C166.788 367.798 159.253 367.215 155.457 358.916C154.148 356.397 153.006 353.001 149.932 351.982C148.31 350.886 146.236 350.658 144.881 351.88C144.783 351.728 144.695 351.514 144.648 351.325C143.12 353.5 141.802 355.789 140.012 357.776C140.627 357.809 147.026 362.546 145.138 362.548C142.865 361.378 140.608 360.402 138.155 359.772C136.377 361.56 134.421 363.224 132.395 364.761C134.363 366.061 136.131 367.652 137.552 369.379C137.675 369.531 137.525 369.728 137.342 369.646C135.134 368.662 132.864 367.798 130.524 367.17ZM101.234 399.434C123.335 409.361 146.732 398.307 165.579 386.521C169.929 384.092 175.651 380.649 174.771 374.931C171.567 379.618 166.286 382.288 161.216 384.602C152.699 388.451 144.127 392.178 135.589 395.98C134.782 398.655 130.926 398.758 128.596 399.352C118.222 401.364 107.07 400.364 97.307 396.352C97.8721 398.025 99.7207 398.793 101.234 399.434ZM189.412 360.778C189.958 360.848 190.504 360.911 191.05 360.973C190.994 360.251 191.429 359.528 192.13 359.304C191.815 357.772 191.698 356.189 191.867 354.635C190.954 356.994 188.007 356.278 186.135 355.598C183.461 354.871 180.803 354.089 178.16 353.255C177.118 355.191 176.013 357.099 174.656 358.852C179.597 359.292 184.49 360.164 189.412 360.778ZM191.586 353.358C191.717 353.635 191.905 353.929 191.909 354.261C192.042 353.114 192.303 351.98 192.699 350.894C192.328 351.715 191.957 352.536 191.586 353.358ZM194.704 347.205C197.134 344.036 201.626 341.447 205.778 342.33C206.045 342.388 206.051 342.817 205.778 342.87C200.201 343.628 195.302 348.052 195.108 353.773C194.669 356.362 196.469 358.904 195.863 361.388C195.984 361.396 196.105 361.402 196.223 361.411C196.267 361.577 196.307 361.725 196.359 361.854C195.757 361.954 195.58 362.924 196.29 363.096C196.711 363.199 197.151 363.252 197.599 363.275C199.873 362.661 202.272 362.519 204.447 361.612C206.597 360.661 206.06 357.99 206.819 356.14C207.375 354.007 208.015 351.882 208.821 349.835C208.88 349.67 209.103 349.707 209.122 349.874C209.691 353.957 209.672 358.111 209.534 362.228C210.28 362.304 211.023 362.388 211.767 362.48C211.719 361.33 215.168 347.322 216.986 350.917C216.071 354.869 215.96 358.998 215.862 363.065C221.259 363.955 226.576 365.279 231.75 367.082C235.395 368.186 239.731 371.455 243.27 368.5C246.011 366.234 246.934 362.279 246.676 358.914C243.112 339.004 214.96 336.678 198.341 338.15C196.772 341.772 195.173 345.381 193.553 348.983C193.889 348.363 194.272 347.767 194.704 347.205ZM251.384 358.526C251.689 354.005 250.928 348.377 247.578 345.007C239.912 338.526 229.177 336.487 219.598 334.14C215.135 333.259 210.612 332.674 206.07 332.382C204.459 332.255 202.412 332.62 201.274 331.302C200.688 332.69 200.094 334.076 199.5 335.462C218.572 332.964 258.363 341.644 247.22 367.771C249.58 365.215 251.143 362.103 251.384 358.526ZM264.7 274.837C264.166 270.957 263.583 267.08 262.966 263.21C260.443 244.698 255.23 226.682 252.122 208.295C246.743 210.045 241.234 211.377 235.802 212.952C247.572 232.527 257.2 253.314 264.7 274.837ZM220.502 256.622C221.537 251.703 222.697 246.689 223.225 241.688C223.248 241.463 222.903 241.44 222.841 241.637C221.977 244.407 221.388 247.278 220.658 250.085C219.927 252.903 219.246 255.733 218.526 258.554C218.296 259.455 218.065 260.355 217.834 261.255C217.695 261.261 217.557 261.266 217.42 261.269C216.892 261.281 216.734 261.944 217.159 262.219C217.283 262.3 217.407 262.371 217.532 262.434C215.325 271.016 213.064 279.58 210.597 288.097C207.721 298.022 204.484 307.828 201.897 317.833C201.837 318.064 201.945 318.226 202.101 318.296C200.756 322.849 199.628 327.461 198.398 332.049C198.142 333.004 199.552 333.623 200.035 332.729C200.777 331.351 200.941 329.469 201.305 327.955C201.715 326.25 202.104 324.541 202.492 322.832C203.11 320.112 203.665 317.36 204.122 314.602C205.825 310.322 207.35 305.991 208.7 301.579C211.723 291.696 214.512 281.746 216.994 271.719C217.727 268.759 218.445 265.794 219.13 262.823C222.251 262.871 225.511 259.341 228.647 261.22C228.792 261.307 228.939 261.109 228.824 260.994C227.574 259.727 225.847 259.616 224.168 259.93C223.077 260.134 222.032 260.52 220.964 260.811C220.493 260.94 220.01 261.034 219.522 261.104C219.859 259.612 220.187 258.119 220.502 256.622ZM153.277 349.771C154.871 350.814 156.172 352.356 157.089 354.013C162.967 369.391 169.254 361.154 177.064 352.902C170.454 350.408 161.7 348.539 156.631 343.581C155.753 345.773 154.68 347.862 153.277 349.771ZM155.38 312.259C155.89 309.729 156.311 307.183 156.694 304.632C157.061 302.184 157.635 299.563 157.541 297.086C157.537 296.987 157.398 296.969 157.368 297.063C156.574 299.532 156.336 302.263 155.832 304.806C155.344 307.265 154.808 309.715 154.269 312.163C153.161 317.188 151.594 322.137 150.645 327.193C150.544 327.734 151.276 327.924 151.474 327.418C153.374 322.583 154.358 317.328 155.38 312.259ZM262.884 198.255C265.452 195.489 267.47 191.958 267.08 188.211C265.537 186.154 265.027 183.47 264.128 181.092C260.616 171.143 257.356 161.117 253.534 151.274C245.402 153.775 237.403 156.774 229.857 160.714C228.469 161.423 227.095 162.158 225.738 162.919C224.317 163.716 222.766 165.1 221.061 164.704C222.924 167.342 226.762 170.087 227.41 173.136C227.55 174.101 226.866 174.996 225.815 174.781C209.372 186.461 192.39 197.896 176.847 210.907C165.208 220.122 156.272 227.595 152.28 242.547C149.59 252.232 149.581 262.354 149.977 272.312C150.054 274.248 150.056 276.229 150.213 278.178C149.979 279.636 150.423 282.603 152.062 282.656C152.024 283.009 151.907 283.336 151.722 283.623C151.774 283.693 151.828 283.759 151.884 283.826C151.966 283.428 152.045 283.032 152.12 282.633C153.396 276.983 153.567 270.427 153.354 264.411C153.265 262.687 155.909 262.728 156.057 264.411C156.455 268.959 156.854 273.507 157.252 278.053C157.729 280.999 156.977 284.853 159.332 287.093C161.727 284.88 160.935 280.515 160.818 277.659C160.631 273 160.428 268.343 160.255 263.684C160.201 262.208 162.646 261.828 162.924 263.329C163.709 267.608 164.56 271.875 165.475 276.129C166.027 277.773 166.407 285.153 169.166 283.872C170.811 282.748 169.625 276.164 169.841 273.983C169.739 269.667 169.679 265.358 169.362 261.052C169.233 259.315 172.061 258.946 172.449 260.642C173.078 263.387 173.681 266.132 174.227 268.895C175.425 273.554 174.99 279.87 179.317 282.966C181.012 270.864 178.573 258.847 178.231 246.789C178.436 242.881 179.106 239.013 179.698 235.153C180.353 230.885 180.734 226.238 179.202 222.121C179.621 220.278 181.268 225.265 181.422 225.68C182.662 223.236 185.683 223.047 188.071 222.286C193.38 220.567 198.819 219.272 204.19 217.744C218.435 213.788 232.696 209.893 246.961 206.006C252.66 204.429 258.659 202.563 262.884 198.255ZM120.239 262.625C122.205 251.971 122.151 241.175 121.311 230.404C120.387 213.699 119.491 196.99 118.532 180.288C114.37 210.519 109.932 240.715 106.539 271.043C106.297 273.154 106.334 275.388 105.269 277.27C111.156 278.059 117.43 278.853 123.153 276.852C120.642 272.509 119.756 267.565 120.239 262.625ZM248 139.092C238.078 118.722 217.847 104.262 195.158 101.108C195.133 101.133 195.106 101.157 195.081 101.184C195.156 101.252 195.225 101.326 195.288 101.401C194.677 100.952 193.839 101.516 194.11 102.138C193.774 102.904 193.526 103.693 193.216 104.465C193.084 104.453 192.951 104.44 192.818 104.42C191.471 107.093 190.742 110.175 189.335 112.84C181.635 126.182 162.634 131.598 148.381 126.212C137.071 121.311 135.466 107.356 136.479 96.6278C136.531 95.9051 136.898 95.3938 137.388 95.092C131.22 96.0796 125.052 97.0754 118.878 98.0137C115.904 98.4654 112.848 99.1183 110.551 101.161C101.511 110.464 99.8981 135.499 96.8567 148.514C104.133 149.276 112.267 153.423 117.482 158.452C117.236 152.736 117.588 147.048 118.247 141.373C118.257 141.096 118.72 141.002 118.764 141.305C120.066 147.059 121.069 152.861 121.482 158.755C123.197 182.476 124.216 206.244 125.686 229.981C126.188 238.718 126.816 247.53 125.571 256.235C121.565 274.158 128.629 282.954 147.589 279.975C145.285 257.262 146.955 231.275 165.975 215.526C166.555 215.009 167.251 215.044 167.778 215.352C183.242 202.212 199.563 190.04 216.934 179.441C216.809 177.251 222.289 175.315 223.823 173.804C218.126 167.903 213.789 160.729 210.006 153.514C209.672 152.729 205.322 144.837 206.706 145.334C210.839 151.459 214.949 157.622 219.817 163.227C219.552 160.642 226.249 158.909 228.31 157.729C236.275 154.374 244.602 151.748 253.183 150.389C251.639 146.543 249.95 142.755 248 139.092ZM142.013 97.5456C142.273 97.1 142.521 96.6442 142.759 96.1823C141.954 96.2131 141.171 96.2418 140.379 96.3732C140.414 97.6482 140.343 98.9336 140.329 100.219C140.725 99.2785 141.5 98.4203 142.013 97.5456ZM7.60769 277.1C26.6152 263.278 57.8353 272.084 79.8545 273.505C84.0524 245.978 82.339 218.001 86.2516 190.428C89.8553 162.883 93.6551 134.953 102.706 108.561C106.441 98.3566 112.902 95.3261 123.541 95.4082C128.94 95.1967 134.649 94.3323 139.895 94.4555C141.046 94.474 142.248 94.6259 143.286 95.09C144.745 91.8007 145.538 88.2692 145.938 84.711C145.963 84.4852 146.25 84.4441 146.336 84.6597C147.57 87.758 147.701 91.1396 147.03 94.3837C146.544 96.7079 143.653 105.855 140.295 102.276C140.029 109.781 141.677 118.743 149.029 122.638C161.875 128.239 179.632 123.139 187.073 111.251C188.511 108.875 189.752 106.347 191.344 104.067C180.249 100.925 174.021 87.6307 176.634 77.5063C178.25 85.3804 181.195 94.1783 188.53 98.5886C215.239 98.5291 237.446 110.694 249.994 134.125C252.45 137.528 254.72 141.063 256.8 144.66C257.919 147.067 261.198 150.413 258.415 152.738C261.629 161.316 264.481 170.013 267.495 178.659C268.322 181.54 270.215 184.562 269.838 187.591C270.246 189.457 270.227 191.664 269.291 193.459C268.403 196.658 266.411 200.961 263.107 202.318C260.304 204.879 256.758 206.642 253.06 207.971C262.922 233.743 266.676 261.537 270.017 288.766C273.292 312.588 274.982 341.564 254.463 358.78C254.065 363.706 251.143 369.983 245.365 370.036C241.363 373.966 236.486 371.81 232.031 369.888C224.513 367.104 216.627 365.56 208.792 364.7C207.952 365.357 206.585 365.248 205.837 364.482C201.09 363.388 194.512 367.819 193.553 363.805C187.434 363.211 181.381 362.098 175.267 361.449C177.844 364.792 177.658 369.722 175.717 373.333C180.66 383.055 169.147 388.685 162.109 392.675C152.606 398.177 142.682 403.399 131.814 405.679C122.259 407.69 112.25 407.08 103.031 403.869C98.1868 402.651 91.4209 398.654 94.2952 393.022C90.6515 382.304 116.239 371.198 123.766 365.831C120.69 365.447 120.577 359.062 128.579 362.731C129.546 362.084 130.497 361.417 131.437 360.737C99.0706 357.017 37.258 346.782 13.8337 324.656C0.964974 313.279 -6.4598 290.267 7.60769 277.1Z" fill="#313131"/>
</g>
<path fill-rule="evenodd" clip-rule="evenodd" d="M125.967 48.9549C126.744 36.1717 130.881 21.6789 143.057 15.4026C169.899 4.60131 205.191 31.8019 207.059 59.5895C207.711 69.1014 202.443 79.4951 192.818 82.1397C190.678 84.9825 187.442 86.7187 184.247 88.2255C146.2 108.018 121.623 91.9288 125.967 48.9549Z" fill="#FAFAFA"/>
<path fill-rule="evenodd" clip-rule="evenodd" d="M117.3 41.003C118.644 37.2586 120.065 33.5429 121.559 29.8561C123.014 26.2678 124.329 22.6021 126.136 19.1839C136.929 -1.23161 156.557 -1.23161 166.702 1.43592C171.964 -0.837029 181.819 -0.195887 187.297 1.85517C196.167 5.17561 206.978 18.2375 210.675 24.1061C218.836 37.0633 223.93 54.3092 218.509 69.282C217.8 71.2388 216.896 73.0512 215.879 74.7979C216.52 75.6688 217.257 76.4938 218.075 77.3043C220.503 79.7133 222.931 82.043 225.029 84.76C227.114 87.4602 228.842 90.3316 230.129 93.4975C232.555 99.4681 232.672 106.229 229.464 111.926C226.674 116.882 221.731 120.574 216.162 120.926C215.876 120.966 215.589 121.002 215.302 121.031C214.564 122.25 213.664 123.372 212.637 124.35C209.491 127.351 201.991 128.89 197.714 128.989C197.494 129.165 197.273 129.342 197.052 129.517C194.434 131.582 191.688 133.666 188.683 135.135C186.648 136.132 183.979 136.964 181.856 136.245C180.892 136.89 179.312 136.755 178.357 136.227C176.787 135.359 175.51 133.797 174.733 132.199C172.849 128.316 173.302 124.069 173.786 119.921C174.319 115.341 174.831 110.758 175.352 106.177C175.76 102.595 176.186 98.9531 177.273 95.5025C177.834 93.7146 178.57 91.9965 179.521 90.3812C179.496 90.2455 179.501 90.1099 179.539 89.9825C179.851 88.9673 180.495 88.435 181.257 87.7445C181.355 87.6561 181.454 87.5657 181.55 87.4732C181.931 87.0375 182.339 86.6327 182.776 86.2894C182.944 86.1189 183.11 85.9462 183.276 85.7736C184.655 84.3248 185.959 82.8019 187.117 81.1702C188.24 79.5877 189.255 77.9354 190.22 76.2523C191.202 74.5404 191.852 72.6517 192.831 70.9521C192.915 70.8062 193.129 70.7775 193.248 70.8987C193.551 71.2131 193.746 71.5625 193.709 71.9304L193.86 71.953C193.918 71.3981 194.428 70.946 195.121 71.0672C196.158 71.2481 197.011 71.3159 197.908 70.9706C197.751 69.9205 197.605 68.8683 197.462 67.814C197.199 65.874 196.955 63.9278 196.746 61.9816C196.24 62.1028 195.738 62.2775 195.246 62.4995C194.545 62.8139 193.883 63.2373 193.317 63.7572C192.76 64.271 192.374 64.9635 191.694 65.3211C190.911 65.7301 189.966 65.054 190.196 64.1662C190.661 62.3721 193.295 61.3445 194.924 61.0054C195.484 60.8883 196.056 60.8389 196.627 60.8513C196.498 59.6018 196.384 58.3523 196.289 57.1007C196.244 56.5088 196.203 55.9169 196.164 55.323C194.898 54.9387 193.541 54.8236 192.223 55.0045C191.788 55.3518 191.354 55.695 190.933 56.0423C189.599 57.148 188.271 58.2598 186.959 59.3921C186.84 59.4928 186.723 59.5935 186.605 59.6963C185.826 60.3683 184.854 59.7025 184.985 58.7509C186.055 50.9538 181.292 44.7515 175.715 39.9467C169.541 34.626 158.317 34.0064 150.975 24.7902C147.594 25.4802 140.045 27.5297 136.929 32.5072C132.568 39.4822 133.137 45.7318 132.805 53.644C132.473 61.5623 131.629 69.8218 133.422 77.6292C135.076 84.8283 139.555 90.9792 146.503 93.8071C146.675 93.8769 146.85 93.9447 147.024 94.0105C150.617 95.3689 154.538 95.7532 158.317 95.0381C162.501 94.2448 165.993 92.3253 169.474 89.964C169.674 89.8304 169.968 90.1058 169.816 90.3072C165.229 96.4027 156.218 98.4393 149.071 96.8301C148.737 96.7541 148.405 96.6719 148.075 96.5815C149.674 101.191 149.352 106.251 147.27 110.739C146.017 113.44 144.107 115.776 141.781 117.62C139.217 119.65 136.036 121.29 134.256 124.141C132.627 126.753 133.111 129.687 135.9 131.196C136.603 131.578 136.874 132.813 136.177 133.356C135.91 133.561 135.644 133.771 135.371 133.976C133.81 135.158 129.52 137.377 128.825 137.46C122.655 138.193 118.507 133.652 115.848 128.294C112.727 122.005 113.539 114.342 116.978 108.353C119.737 103.548 125.17 98.8133 123.01 92.7322C122.239 90.56 120.663 88.7083 119.132 87.0355C117.386 85.1304 115.508 83.3465 113.834 81.3736C112.169 79.4151 110.694 77.2839 109.87 74.826C108.666 71.2337 109.265 67.3495 110.169 63.7634C112.106 56.0649 114.621 48.4692 117.3 41.003Z" fill="#313131"/>
<path fill-rule="evenodd" clip-rule="evenodd" d="M147.152 80.1355C146.455 78.9028 144.375 79.1032 144.057 80.5409C143.411 83.4556 146.88 86.147 149.514 86.2142C152.132 86.2808 155.07 84.0481 154.691 81.228C154.597 80.5304 153.667 80.6151 153.35 81.0524L153.227 81.2202C152.366 82.3793 151.23 83.5789 149.632 83.2963C148.97 83.1795 148.368 82.7649 147.968 82.2312C147.485 81.5871 147.538 80.8181 147.152 80.1355ZM163.799 58.8123C163.444 58.7144 163.086 58.7522 162.772 58.8862C162.07 59.0151 161.484 59.6015 161.278 60.271C161.261 60.329 161.243 60.3862 161.223 60.4429L161.192 60.5274L161.276 60.3128C161.237 60.5241 161.066 60.7463 161.004 60.9585C160.928 61.2193 160.909 61.5156 160.935 61.8027C160.712 61.8049 160.489 61.8124 160.266 61.8318L160.051 61.8511C158.847 61.9632 157.526 62.1688 156.812 63.2109C156.411 63.7965 156.788 64.8509 157.524 64.9637C158.657 65.1374 159.633 64.509 160.763 64.3831C161.83 64.264 162.948 64.3322 164.002 64.5255C166.177 64.9241 168.177 65.8077 170.297 66.3622L170.586 66.4356L170.585 66.4342C170.949 66.5222 171.361 66.016 171.002 65.7199C169.303 64.3217 167.128 63.1885 164.986 62.4984C165.298 62.001 165.394 61.3457 165.181 60.8116C165.148 60.701 165.107 60.5933 165.064 60.486L164.974 60.2653C164.965 60.1613 164.945 60.0585 164.916 59.9577L164.911 59.9269L164.909 59.9287C164.749 59.4093 164.333 58.9597 163.799 58.8123ZM142.128 58.8927C141.663 58.427 141.01 58.4958 140.525 58.8623L140.461 58.9128C140.004 59.1163 139.626 59.5608 139.377 59.9727C139.12 60.4005 138.948 60.8362 138.942 61.3072C137.817 61.3109 136.74 61.6489 135.914 62.5587C135.648 62.8523 135.465 63.3051 135.612 63.7032L135.7 63.94C135.977 64.6919 137.223 65.1247 137.647 64.2405L137.666 64.1974C138.117 63.1475 139.844 63.2577 140.763 63.365C141.403 63.4401 142.035 63.5996 142.653 63.7781C142.871 63.8411 143.087 63.9094 143.303 63.9791L143.518 64.0492C143.633 64.0864 144.232 64.4124 143.86 64.3353C143.759 64.3145 143.684 64.4607 143.786 64.5098C144.23 64.7225 144.704 64.2988 144.675 63.8207C144.623 62.9908 143.308 62.5357 142.675 62.2496L142.637 62.2323C142.395 62.1199 142.14 62.0122 141.878 61.9122C142.026 61.6923 142.147 61.4479 142.249 61.1857C142.345 60.9381 142.409 60.6974 142.444 60.4341C142.479 60.3054 142.479 60.1767 142.444 60.0478L142.439 60.011C142.457 59.9259 142.465 59.8379 142.464 59.7493L142.468 59.7149H142.464C142.451 59.4048 142.329 59.0941 142.128 58.8927ZM149.551 67.7308C147.766 68.2834 144.821 69.7888 145.751 72.1123C147.05 74.2462 150.494 72.6779 152.163 71.9885C153.663 71.4908 154.444 73.5965 152.994 74.2312C141.012 78.9806 141.056 66.4459 149.116 66.63C150.004 66.6502 150.031 67.5471 149.551 67.7308ZM165.402 51.3868L165.098 51.2977C163.516 50.8386 161.901 50.0457 160.496 51.2829C159.945 51.7687 159.831 52.7783 160.226 53.3842C161.125 54.765 162.458 54.554 163.91 54.6717C165.015 54.7613 166.104 55.0867 167.136 55.4933C167.98 55.8258 168.762 56.294 169.5 56.816C170.226 57.3294 170.721 58.1318 171.466 58.5939C171.738 58.7633 172.053 58.589 172.151 58.3143C172.498 57.34 171.912 56.1262 171.416 55.296C170.81 54.2832 169.89 53.4549 168.9 52.8281C167.817 52.1417 166.619 51.7454 165.402 51.3868ZM142.35 50.3384C139.676 50.3376 137.103 51.8279 135.607 54.0125C135.099 54.7547 135.472 55.8542 136.201 56.2816C137.02 56.7614 137.895 56.4159 138.434 55.7285L138.466 55.6869C139.324 54.5423 140.429 53.6409 141.74 53.0541C142.38 52.7676 143.087 52.5352 143.779 52.4173L144.002 52.379C144.315 52.3263 144.679 52.2761 144.962 52.3253C145.114 52.3453 145.253 52.3956 145.382 52.4721C145.32 52.6073 145.48 52.7702 145.627 52.6892C146.291 52.3235 146.21 51.6711 145.661 51.1641C144.885 50.4467 143.353 50.3386 142.35 50.3384Z" fill="#313131"/>
</svg>
