<svg width="272" height="647" viewBox="0 0 272 647" fill="none" xmlns="http://www.w3.org/2000/svg">
<path fill-rule="evenodd" clip-rule="evenodd" d="M49.5995 237.957L49.2982 241.554L49.0734 241.132C49.0415 248.387 47.9676 255.721 46.7832 262.959C43.6872 260.411 41.1421 258.164 41.8771 253.814C43.7389 247.615 46.1267 241.568 48.057 235.402L48.3806 237.019L49.6548 237.276L49.5995 237.957ZM270.712 620.134C270.142 617.614 269.519 614.945 268.936 612.417C268.879 612.204 268.345 612.156 268.173 612.098C265.091 604.545 262.394 602.823 256.425 601.795C246.8 600.052 237.301 596.274 228.209 590.675C228.421 589.841 229.001 588.403 229.529 586.866C229.46 586.889 229.39 586.91 229.319 586.924C229.197 586.948 229.082 586.953 228.973 586.946C228.356 588.395 227.685 589.668 227.33 590.137C226.194 589.404 224.93 588.598 223.817 587.819L223.822 587.805C222.832 587.118 221.607 586.269 220.638 585.74C220.456 584.735 218.985 584.423 218.216 583.76C216.725 582.693 215.897 582.143 214.529 583.505C211.577 579.668 209.2 575.611 206.863 570.367C205.401 567.301 204.682 563.907 202.716 561.17C202.754 561.148 204.004 560.759 204.034 560.724C181.689 511.177 178.109 456.045 173.343 403.084C172.291 391.24 171.191 379.288 169.142 367.791C168.861 366.05 168.608 364.336 167.562 362.948C180.119 352.592 180.241 332.518 174.159 317.63C188.144 279.87 160.731 239.767 162.754 201.231C163.888 175.091 159.187 144.803 129.686 138.532C126.028 136.424 121.642 136.109 118.151 136.053C115.008 134.464 114.513 130.955 113.394 128.071L112.301 128.078C111.98 126.772 111.662 125.341 111.386 124.026C110.971 123.192 111.217 122.105 109.91 122.336C106.948 118.043 83.2407 115.885 82.9714 122.797C82.1156 123.302 81.9466 124.288 81.7474 125.485C80.4327 133.974 71.3754 140.744 63.2145 139.379L63.0823 139.26C28.3391 137.971 14.6619 162.709 7.87274 196.425C2.56818 222.621 -0.803492 251.01 3.35049 277.25C7.40889 289.141 19.7016 294.862 29.2119 302.188C28.1156 304.953 28.0132 308.004 27.9798 310.996C27.8544 314.45 27.6034 317.931 27.2981 321.339C26.6727 325.658 25.6603 333.092 31.5339 333.596C33.8093 385.213 38.5618 436.694 31.2997 488.461C25.271 517.09 27.5789 551.73 35.0331 579.741C35.4631 581.125 36.5677 582.37 37.9786 581.928C38.6951 582.391 39.2547 582.682 39.8472 582.244C40.1963 582.892 40.5788 583.513 40.9924 584.116C41.1489 591.812 42.0206 599.362 41.6238 607.108C41.032 607.039 39.7303 606.387 39.2245 606.814L39.1521 607.404L38.6706 607.569C37.6627 610.415 37.0302 613.403 36.5623 615.813C34.5228 619.944 31.917 627.256 33.3701 631.858C33.2996 631.94 32.9084 632.395 32.8469 632.464C32.4997 632.663 32.4356 632.929 32.3509 633.234C31.361 633.606 31.2595 634.738 31.1575 635.896C30.6617 638.701 31.3983 641.251 31.6514 643.995L31.6663 643.977C31.6663 643.977 32.4973 644.941 32.4986 644.942C42.9432 645.578 53.2281 645.742 63.6262 646.116C64.4109 644.611 64.6472 642.578 65.2368 640.926C77.5642 649.952 98.9227 646.499 114.407 644.282C120.695 643.375 126.636 642.517 131.903 642.232C132.246 642.185 132.27 642.037 132.279 641.9C132.331 639.834 132.719 637.716 132.525 635.711C133.613 634.653 133.117 632.726 132.37 631.034C129.621 625.076 122.151 624.424 116.099 623.407C104.712 621.195 95.5562 617.035 88.1493 610.675C88.6476 610.224 89.1 609.781 89.5121 609.347C89.3511 609.24 89.1902 609.133 89.0297 609.024C88.6399 608.853 88.2672 608.678 87.9253 608.457C87.7512 608.555 87.533 608.575 87.3176 608.454C86.5732 608.035 85.9665 607.42 85.2593 606.95C85.1191 607.152 84.9781 607.357 84.8364 607.572C84.1581 606.857 83.3905 606.047 82.7198 605.296C82.6957 605.089 82.7502 604.572 82.4975 604.516C80.5906 604.709 78.3819 605.352 76.387 606.067C74.1323 598.651 72.8263 590.624 72.9771 583.045C75.1943 583.045 77.1363 583.025 78.7897 581.97C79.2417 582.091 79.8713 582.354 79.9882 581.643C80.6592 578.74 80.8335 575.667 81.0023 572.695C84.4342 516.48 89.6632 471.308 107.007 423.688C108.672 430.3 111.469 437.177 114.013 443.759C125.59 471.267 133.93 500.934 141.08 529.807C143.893 540.614 146.95 552.49 149.97 563.185C151.141 568.327 153.522 570.209 158.511 570.168C162.356 570.348 166.213 570.292 170.073 570.021C175.336 574.823 177.494 581.305 179.031 587.141C177.75 588.095 175.717 587.735 174.22 588.05C172.928 590.133 173.375 593.046 173.406 595.616C173.608 598.955 173.436 602.537 174.407 605.689C174.58 609.137 174.602 612.914 174.861 616.923C172.008 618.579 172.53 622.238 173.478 625.738C173.901 626.629 189.234 626.452 193.038 626.415C197.508 626.154 203.881 627.297 205.347 622.393C215.988 628.309 232.176 626.31 244.573 624.569C253.57 623.472 261.721 622.451 270.556 620.589C270.647 620.549 270.776 620.264 270.712 620.134Z" fill="#FAFAFA"/>
<path fill-rule="evenodd" clip-rule="evenodd" d="M174.227 587.954C176.625 589.286 178.543 591.366 181.06 592.519C191.954 597.982 205.746 595.04 214.047 586.278C215.218 586.302 216.158 585.019 215.91 583.864C218.4 584.084 220.363 586.005 222.217 587.522C221.964 589.277 222.081 591.041 222.79 592.721C222.845 592.855 223.085 592.909 223.115 592.721C223.33 591.443 223.552 590.156 223.841 588.894C224.364 589.322 224.895 589.73 225.436 590.135C225.482 591.185 226.577 591.95 227.471 591.588C234.806 596.572 243.096 600.109 251.706 602.177C258.443 603.586 261.942 603.441 264.93 610.544C263.822 610.766 262.733 611.305 261.068 611.712C232.902 615.003 204.476 611.456 176.264 613.857C175.887 607.647 175.55 601.441 175.123 595.235C174.973 593.002 174.908 590.748 174.042 588.661C174.059 588.406 174.099 588.154 174.18 587.958C174.195 587.956 174.21 587.956 174.227 587.954ZM175.279 572.666C175.37 572.252 175.046 571.904 174.725 571.631C174.357 571.009 173.938 570.423 173.44 569.929C183.222 569.062 192.602 566.049 201.792 562.942C202.902 570.851 206.843 578.035 211.284 584.561C203.746 592.427 191.472 594.342 181.605 590.042C182.263 588.588 180.851 586.488 180.492 584.987C179.255 581.39 177.56 577.952 176.092 574.458C175.841 573.88 175.577 573.269 175.279 572.666ZM173.265 572.53C173.331 572.577 173.399 572.626 173.465 572.668C173.506 572.766 173.544 572.864 173.584 572.962C173.482 572.851 173.378 572.743 173.273 572.636C173.271 572.6 173.269 572.566 173.265 572.53ZM82.8263 605.153C83.0222 605.5 83.2265 605.843 83.4394 606.18C83.0298 606.435 79.943 612.997 81.6683 611.948C82.6262 610.583 83.5842 609.207 84.6166 607.892C84.904 608.276 85.1999 608.653 85.5064 609.021C84.4442 609.786 84.8571 611.577 86.2642 611.581C86.7674 611.584 87.1576 611.479 87.6266 611.305C93.9236 617.338 102.202 620.906 110.536 623.116C117.441 625.283 130.448 624.176 130.799 634.029C130.097 634.012 129.344 634.24 128.809 634.747C98.3221 645.074 66.825 634.188 36.0754 631.173C36.4997 630.32 35.9594 628.779 34.8343 628.847C34.8237 621.946 36.7291 615.094 39.4877 608.815C55.1332 623.754 66.3356 609.14 82.1175 605.566C82.4219 605.504 82.656 605.353 82.8263 605.153ZM90.8921 602.471C90.8469 602.471 90.732 602.457 90.6877 602.471C90.0527 604.615 88.7027 606.547 86.9837 607.933C86.5261 607.513 86.0769 607.085 85.6362 606.65C86.7836 605.317 88.0396 604.084 89.4935 603.042C89.9011 602.763 90.3773 602.44 90.8921 602.471ZM30.0575 326.396C29.6503 324.905 30.1109 323.344 30.1576 321.828C30.5067 317.702 30.9814 313.544 30.8898 309.399C30.7772 307.908 30.7457 306.466 31.0772 305.009C30.9763 304.618 30.6276 305.542 30.5237 305.629C30.5024 305.512 30.4747 305.395 30.4513 305.277C30.6174 305.088 30.7941 304.922 30.9856 304.762C39.1618 311.53 47.086 318.603 54.7272 325.972C55.5191 326.732 56.6878 326.685 57.4861 325.972C59.1422 324.489 60.858 323.098 62.6248 321.788C63.2357 323.786 64.1702 325.637 65.2389 327.427C58.2547 328.28 51.3632 326.422 44.4285 325.88C39.7783 325.523 35.1107 325.742 30.4918 326.357C30.3726 326.374 30.1852 326.374 30.0575 326.396ZM45.4545 260.127C43.0159 258.018 41.9939 256.639 42.2936 253.317C43.736 248.407 45.6059 243.635 47.2022 238.776C47.4076 239.803 47.4251 240.854 47.5109 241.895C46.9468 247.987 46.5097 254.1 45.4545 260.127ZM47.9345 237.07C47.9004 237.006 47.8664 236.942 47.8302 236.88C47.8834 236.716 47.9366 236.552 47.9899 236.388C47.9707 236.616 47.9537 236.842 47.9345 237.07ZM3.96155 274.569C3.97646 271.964 3.63586 269.342 3.48472 266.743C2.2375 244.883 3.76677 222.863 8.0423 201.388C13.6809 171.025 24.1265 140.535 60.2215 139.916C61.4876 141.063 61.9321 142.833 62.6376 144.353C64.7648 148.567 67.8893 152.216 71.4718 155.264C86.3196 167.358 125.586 181.164 129.035 151.864C129.043 150.954 128.981 149.994 128.834 149.033C129.16 148.025 129.009 146.763 128.779 145.629C128.934 144.818 128.696 143.887 128.285 143.011C128.353 142.954 128.417 142.89 128.472 142.82C126.852 139.724 124.074 138.711 120.99 137.545C120.564 137.119 120.941 136.237 121.595 136.468C123.031 136.972 124.509 137.313 126.007 137.571C126.216 137.607 126.348 137.716 126.414 137.854C161.418 148.457 160.274 177.309 159.736 207.804C160.266 240.66 179.288 271.506 173.738 304.702C167.186 264.644 154.299 225.686 151.374 185.009C151.154 181.361 150.613 177.759 150.202 174.131C149.992 172.602 149.763 168.321 149.24 169.037C146.742 183.027 148.694 197.401 150.79 211.329C155.412 239.634 163.048 267.33 168.216 295.528C171.067 308.063 171.373 321.245 158.808 328.493C145.227 335.972 128.329 334.469 113.654 331.438C112.484 331.163 111.598 331.772 111.177 332.611C108.312 326.604 101.882 323.648 97.6976 318.721C93.5067 313.345 90.765 306.989 86.9113 301.373C87.303 297.956 84.128 292.569 80.5039 292.496C71.3523 282.936 61.454 274.086 50.7572 266.289C50.6018 265.797 50.1846 265.52 49.8908 265.079C49.4542 264.336 49.1706 263.41 49.2392 262.553C50.8632 253.165 51.2425 243.424 48.703 234.158C53.2312 220.078 55.9868 205.538 58.5717 191.008C58.8133 190.305 57.6374 189.976 57.4627 190.701C57.1582 192.243 56.8666 193.788 56.5814 195.332C51.362 214.61 45.1442 233.568 38.3612 252.345C37.5698 254.963 36.829 257.577 37.276 260.318C37.6632 261.917 40.0855 261.763 40.3626 260.124C40.9046 259.966 41.384 260.107 41.808 260.429C41.8123 260.423 41.8144 260.416 41.8187 260.412C45.0641 265.056 49.3652 268.894 53.7416 272.528C61.2386 278.906 68.5916 285.454 75.5163 292.454C77.1616 294.582 82.6852 298.381 83.0756 301.258C82.3514 306.381 77.0522 308.81 72.8916 310.813C66.8388 313.756 61.1621 317.483 56.1279 321.952C45.1684 311.812 33.7502 302.143 21.6831 293.344C14.7627 288.36 6.19075 283.418 3.96155 274.569ZM126.791 143.286C126.821 143.45 126.848 143.614 126.876 143.776C126.746 143.595 126.612 143.416 126.469 143.246C126.576 143.261 126.682 143.273 126.791 143.286ZM166.317 359.72C166.2 359.372 166.076 359.027 165.953 358.682C166.273 357.142 166.756 355.698 166.902 354.079C170.006 350.923 171.932 346.624 172.448 342.24C172.601 340.951 172.69 339.715 171.745 338.708C171.398 338.337 170.662 338.297 170.321 338.708C169.163 340.103 169.463 342.206 169.05 343.908C168.181 347.512 166.171 350.911 163.29 353.206C161.667 354.533 159.595 356.208 157.738 356.718C159.188 351.049 162.377 345.653 162.8 339.679C162.922 337.928 162.811 336.29 162.383 334.586C162.065 333.525 161.586 332.603 161.964 331.497C166.346 328.666 170.219 324.588 172.186 319.662C172.885 319.739 173.605 319.428 173.921 318.648C175.494 330.298 177.616 342.6 171.539 353.282C170.177 355.704 168.419 357.902 166.317 359.72ZM103.816 332.746C102.104 330.989 100.563 329.091 98.9897 327.214C97.3189 325.48 94.4691 328.182 97.4187 330.72C102.559 337.148 102.376 345.163 99.9348 352.607C99.5134 350.694 99.177 348.794 98.5448 346.917C96.9759 342.263 94.596 337.926 91.6265 334.023C90.9112 333.084 89.0592 333.561 89.5297 334.908C91.0134 339.149 91.6839 343.842 91.0113 348.315C90.6962 350.4 89.7979 352.383 89.6765 354.501C89.6361 355.234 90.0704 357.087 88.9145 356.667C88.4696 356.505 88.0736 355.562 87.8842 354.961C86.9401 351.859 87.1387 348.573 86.7772 345.384C86.3281 341.238 85.6362 336.98 82.6667 333.832C82.0153 333.14 81.0531 333.585 80.7445 334.339C78.3969 340.007 80.8255 347.038 76.6509 352.011C76.4423 352.241 75.2502 353.406 75.0565 353.252C74.7287 352.993 75.0821 351.525 75.1374 351.184C78.0078 339.313 68.2519 329.457 64.7663 320.254C71.7057 314.543 83.5861 312.717 86.6006 303.354C89.4128 309.57 91.8502 316.147 96.3075 321.42C100.679 326.656 108.877 330.111 109.216 337.758C107.129 336.543 105.503 334.448 103.816 332.746ZM40.9097 580.982C46.273 581.066 51.6623 582.731 56.9794 582.643C61.8902 582.818 66.8073 582.591 71.7102 582.294C69.8578 589.609 70.5717 598.186 73.0215 605.281C63.4903 609.742 54.8117 616.114 44.3582 609.893C44.2433 608.972 43.9304 608.058 43.6281 607.164C43.7484 606.669 43.8399 606.022 43.3876 605.63C43.4125 597.361 42.5601 589.087 40.9097 580.982ZM228.554 581.093C229.187 581.762 226.932 586.972 226.389 587.854C225.746 587.438 225.109 587.031 224.478 586.597C224.98 585.097 225.657 583.664 226.64 582.354C226.907 582 227.956 580.577 228.554 581.093ZM269.368 611.375C269.264 610.923 268.832 610.512 268.361 610.397C267.006 606.895 264.841 603.393 261.488 601.551C259.463 600.501 257.219 600.196 255.012 599.757C245.747 597.949 236.942 594.275 228.897 589.413C229.687 587.177 230.428 584.956 230.902 582.638C231.676 580.042 229.613 577.872 227.028 578.961C224.754 579.983 223.379 583.115 222.702 585.36C222.13 584.966 221.525 584.571 220.904 584.214C220.58 583.308 219.511 582.923 218.688 582.409C217.404 581.553 215.68 580.052 214.136 581.214C211.346 577.49 209.11 573.361 207.222 569.115C205.74 566.124 205.174 562.722 203.097 560.051C203.388 558.201 202.258 556.356 201.503 554.711C200.802 553.209 200.134 551.691 199.504 550.157C186.429 514.548 181.777 476.37 176.289 439.006C172.341 413.85 172.941 388.041 167.371 363.173C180.902 352.16 180.581 331.837 174.691 316.814C187.273 281.627 165.94 246.602 163.362 211.553C162.534 185.975 166.787 155.262 140.216 140.822C136.851 138.964 133.237 137.465 129.456 136.721C125.957 134.752 121.788 134.272 117.827 134.195C115.591 132.98 114.957 130.191 114.154 127.951C113.935 127.144 113.444 126.234 113.356 125.408C113.348 125.335 113.237 125.306 113.218 125.389C110.115 133.572 117.939 142.123 125.899 143.154C129.487 155.819 121.939 167.111 108.336 166.394C92.5863 165.212 70.3214 156.514 64.6279 140.506C67.1383 140.459 69.5276 139.676 71.8954 138.93C72.4424 138.679 73.2041 138.717 73.5409 138.161C78.9834 135.424 83.1818 130.274 84.0887 124.221C84.0503 124.251 83.9844 124.296 83.88 124.362C83.9737 124.302 84.0589 124.238 84.1355 124.172C84.2121 123.244 84.2228 122.315 84.1334 121.384C83.7161 121.007 83.1243 120.802 82.4368 120.941C80.3421 121.363 80.2995 123.572 79.9632 125.229C79.6609 126.722 79.0947 128.096 78.3326 129.412C75.2283 134.692 69.2896 138.365 63.0761 137.567C62.793 137.311 62.3949 137.185 62.0096 137.313C62.0373 137.337 62.0671 137.36 62.0947 137.381C25.6032 136.041 12.5839 164.093 6.22906 195.397C1.151 218.368 -0.852756 242.023 0.32996 265.522C0.619253 268.239 0.262262 275.644 2.03506 277.243C5.93147 289.1 18.142 294.672 27.3498 301.765C26.3785 304.552 26.357 307.521 26.3067 310.441C26.162 313.779 25.9384 317.115 25.634 320.444C25.3594 323.447 24.5739 326.82 25.6617 329.742C26.3557 331.586 27.9092 333.511 29.9639 333.755C30.5165 338.795 30.6959 343.894 31.1304 348.937C31.6498 395.127 36.9269 441.562 29.6418 487.5C26.9575 504.947 24.7483 522.616 26.5771 540.269C27.9494 553.384 30.5452 566.358 33.3973 579.216C33.9169 580.916 35.2601 582.533 37.1547 582.241C37.8078 582.636 38.6028 582.941 39.3111 582.597C39.4105 590.811 40.4742 599.014 39.8858 607.234C39.492 606.998 39.0939 606.765 38.6937 606.539C38.4636 606.047 38.0032 605.572 37.4484 605.866C37.3271 605.811 37.1696 605.918 37.1972 606.043C36.1855 608.789 35.5041 611.775 34.9427 614.66C32.9726 618.453 31.7773 622.682 31.3794 626.955C31.1842 628.622 30.8992 630.777 32.3629 631.971C31.8546 631.989 31.2232 632.031 31.0708 632.623C30.3506 634.39 29.1741 645.256 31.8478 645.208C42.2061 645.841 52.6113 646.009 62.9824 646.382C63.5465 646.403 64.0851 645.966 64.2298 645.432C64.5598 644.22 64.9153 643.014 65.2602 641.806C81.7258 650.849 121.047 645.579 130.967 643.56C133.011 643.56 133.143 637.191 133.011 635.25C134.165 633.786 133.441 631.337 132.732 629.79C129.741 623.296 121.906 622.602 115.696 621.564C106.113 619.716 96.7241 616.094 89.1486 609.822C91.1931 607.88 93.6164 604.674 93.3552 601.747C93.0825 600.473 91.9394 599.766 90.6877 599.842C87.8371 600.081 85.7616 603.083 84.1546 605.142C83.8183 604.787 83.4884 604.428 83.1605 604.067C83.1244 603.302 82.6156 602.556 81.7258 602.663C79.9632 602.874 78.2496 603.304 76.5722 603.875C76.1571 601.943 75.3907 600.055 74.9628 598.115C73.8331 593.251 73.5668 588.278 73.46 583.296C75.5187 583.264 76.7014 583.164 78.3007 582.316C79.1692 582.571 80.1527 582.25 80.4209 581.084C81.2958 577.299 81.3426 573.388 81.6087 569.52C84.5672 520.469 89.8979 471.067 106.906 424.646C108.68 430.242 111.016 435.637 113.014 441.155C126.966 477.54 135.641 515.609 145.721 553.177C146.575 556.332 147.441 559.482 148.329 562.627C149.568 567.987 152.165 570.456 157.858 570.433C161.595 570.608 165.341 570.565 169.076 570.317C173.488 574.492 175.625 580.071 177.171 585.779C176.045 586.342 172.712 585.514 172.565 587.042C171.167 589.331 171.763 592.286 171.736 594.845C171.944 598.279 171.767 601.917 172.786 605.206C172.843 608.672 172.979 612.138 173.163 615.601C170.115 617.802 171.027 622.185 171.864 625.285C171.691 627.482 189.853 626.493 192.44 626.685C196.7 626.335 202.978 627.662 205.232 623.023C219.361 629.983 238.938 625.026 254.154 623.616C259.514 622.829 264.851 621.898 270.162 620.835C270.933 620.68 271.305 619.8 271.146 619.101C270.562 616.524 269.962 613.95 269.368 611.375Z" fill="#313131"/>
<path fill-rule="evenodd" clip-rule="evenodd" d="M131.277 72.2868C130.775 65.7649 131.553 58.929 129.049 52.73C124.684 42.4445 112.442 39.0151 102.951 35.0993C99.1487 33.971 86.3549 33.8133 81.903 32.32C71.8273 28.9403 69.42 24.9134 61.414 31.3485C60.0625 32.4478 59.217 33.6425 58.6002 35.2749L58.6255 35.2819C58.4494 35.9625 58.6382 36.6415 59.0351 37.1602C55.5638 40.7237 54.1112 46.0661 55.8922 50.8097C61.7046 63.1537 61.4313 69.8282 59.5585 83.0986C57.1129 95.4874 62.7014 100.013 71.9566 106.754C71.5798 107.488 71.5016 108.463 71.9929 109.11C82.6953 124.214 102.875 131.426 120.164 123.759C127.182 120.622 130.316 113.116 132.104 106.343C134.187 98.7596 134.827 90.7684 133.131 83.0432C132.447 79.4704 131.556 75.9235 131.277 72.2868Z" fill="#FAFAFA"/>
<path fill-rule="evenodd" clip-rule="evenodd" d="M69.5449 0.029288C70.844 -0.166622 71.825 0.642833 72.2917 1.78374L72.3162 1.84518C72.4662 2.23339 72.633 2.61099 72.8126 2.98223C76.0634 1.3806 80.702 1.79214 82.7593 5.03571C84.2274 7.35224 83.3318 10.1015 82.7784 12.5581L82.415 14.1767C83.1173 14.6255 83.6469 15.4293 83.6221 16.2616L83.6191 16.3256L83.4712 18.5828C83.9401 18.1054 84.3689 17.5857 84.7512 17.032C85.0153 16.5462 85.3004 16.0689 85.6067 15.6065C87.4085 12.8848 91.4535 15.2501 89.9665 18.1648C89.6813 18.727 89.3602 19.2595 89.0159 19.7728C88.6273 20.5302 88.3083 21.3087 88.0633 22.1085C88.7667 22.4161 89.3074 23.0991 89.3645 24.1301C89.4976 26.5379 88.2386 28.5468 86.2362 29.809C85.6469 30.1803 85.0385 30.2524 84.4872 30.1145C84.39 30.246 84.2929 30.3776 84.1999 30.5112C84.9984 31.1625 85.7187 31.9049 86.3376 32.728C88.2006 32.448 90.0742 32.3165 91.9478 32.3122C94.2375 31.1858 96.9793 31.2091 99.4401 31.6313C101.024 31.9028 102.545 32.431 104.104 32.8108C105.747 33.2096 107.416 33.2244 109.078 33.496C111.174 33.8375 113.012 34.8091 114.167 36.3598C115.436 36.398 116.771 36.9198 117.878 37.6284C120.455 39.2788 123.017 40.9526 125.588 42.6136C126.575 43.2513 126.944 44.2693 126.762 45.4048L126.75 45.4774L126.663 45.9484L126.867 46.2382C127.653 47.354 128.509 48.5226 129.018 49.7541C129.961 51.1181 130.812 52.5479 131.566 54.0223C132.582 56.0037 133.42 58.1038 133.989 60.2591C134.13 60.8043 134.272 61.3537 134.365 61.9095C134.498 62.6944 134.293 63.3033 134.181 64.0564C134.041 65.011 133.991 65.9783 133.843 66.9351C133.744 67.5693 133.207 67.8812 132.645 67.8982C132.856 69.5125 133.009 71.1375 133.154 72.7497C133.359 75.0535 133.499 77.3637 133.619 79.6739C134.24 80.5797 135.51 81.2967 136.426 81.5449C137.696 81.8864 139.026 81.5152 140.226 81.0803C140.98 80.8067 141.599 81.7592 141.232 82.3956C140.076 84.3939 137.605 84.3854 135.733 83.5008C134.941 83.1274 134.246 82.5865 133.731 81.8822C133.763 82.5526 133.796 83.2229 133.83 83.8954L133.862 84.5045C134.242 91.6178 135.064 98.9759 133.733 106.019C131.429 118.219 121.376 127.508 109.095 128.23C102.651 128.608 97.2848 126.697 94.6163 125.63C91.9478 124.564 92.985 122.39 94.8375 123.011C98.0287 124.082 103.891 125.677 109.138 124.988C121.503 123.365 131.988 117.158 130.911 90.4249C130.758 86.6339 130.288 82.8411 130.187 79.0502C130.089 75.3441 130.125 71.636 129.963 67.9321L129.908 66.6684C129.845 65.1917 129.777 63.7082 129.667 62.2299C129.534 61.6571 129.424 61.0758 129.261 60.5137C128.82 58.9842 128.243 57.4971 127.527 56.0779C127.369 56.1988 127.191 56.2858 126.999 56.3197C125.54 56.5828 124.171 56.5085 122.804 55.8976C122.166 55.6154 121.604 55.24 121.08 54.7754C120.831 54.5569 120.664 54.3447 120.533 54.1241C119.872 54.1347 119.211 53.9353 118.797 53.458C118.325 52.914 118.246 52.3521 118.431 51.8319L118.451 51.78L118.404 51.763C117.847 53.2119 116.736 54.4869 115.517 55.3481C113.59 56.7143 111.18 57.1089 108.869 57.1449C106.318 57.1831 103.627 56.7886 101.109 56.3855C100.443 56.2794 99.7823 56.1585 99.1338 55.9952C99.1085 56.0206 99.0831 56.0503 99.0556 56.0758C96.8948 58.1526 93.8552 58.6872 91.1135 57.5013C89.5292 56.8161 88.2006 55.713 87.0262 54.4487C87.0093 55.1106 86.9755 55.7724 86.9184 56.4279L86.8948 56.6882C86.7779 57.9091 86.5529 59.2041 85.6342 60.0852C84.1492 61.5128 81.9947 60.9401 80.2816 60.0109C80.2838 60.0555 80.2837 60.1021 80.2837 60.1488C80.7463 61.7271 81.211 63.3075 81.6757 64.8879L81.7758 65.2246C82.1138 66.3468 82.4844 67.4704 82.5861 68.6449C82.7805 70.8893 81.2934 73.1061 78.8094 72.353C77.5064 71.9594 76.4625 70.8592 75.461 69.9779L74.8298 69.4298C76.4626 74.7905 77.5948 80.3421 77.7004 85.9361C77.7068 86.2395 77.447 86.4686 77.1597 86.4792C76.488 86.5068 75.7656 86.3731 75.0896 86.1037C75.0516 86.1016 75.0136 86.0995 74.9735 86.0931C73.8202 85.9255 72.7492 85.5076 71.805 84.8903C72.0226 85.584 72.1198 86.3286 72.0627 87.1071C72.0479 87.2959 71.7543 87.3617 71.7121 87.1538C71.1671 84.4618 68.0304 82.4274 65.3266 82.9429C62.4244 83.4966 60.2867 86.004 59.7629 88.8572C59.201 91.9226 60.2762 95.4674 62.268 97.8327C63.1848 98.9231 64.3909 99.8332 65.823 100.062C66.4778 100.166 67.158 100.13 67.7938 99.9435C68.0642 99.8629 68.3176 99.7505 68.5753 99.6444C68.9513 99.4917 69.3907 99.4683 69.7455 99.3071C70.5503 98.9443 71.3593 99.6889 70.9517 100.518C70.5968 101.242 70.2778 101.73 69.6885 102.103C70.1659 102.689 70.5989 103.503 70.7594 103.722C71.579 104.833 72.4113 105.883 73.3449 106.899C74.2954 107.93 75.3325 108.872 76.4288 109.744L76.8896 110.11C77.9456 110.951 78.8651 111.73 79.6099 112.937C80.1971 113.889 79.4367 115.181 78.3362 115.166C74.8932 115.118 72.3901 112.08 70.6074 109.426C70.3539 109.046 70.1152 108.645 69.8934 108.234C69.8131 108.363 69.7244 108.484 69.6251 108.594L69.8216 109.125C70.4046 110.686 67.8931 111.706 67.1643 110.249C66.6341 109.193 66.0195 108.187 65.3351 107.237C64.9316 107.179 64.5366 106.933 64.317 106.615C63.7614 105.807 63.1383 104.99 62.6124 104.129C62.3209 103.851 62.0209 103.584 61.7146 103.323C61.6259 103.401 61.5351 103.48 61.4485 103.563C61.064 104.443 60.5888 105.247 59.9995 106.004L59.8731 106.166C58.7441 107.595 57.2735 109.057 55.4538 109.407C54.8983 109.513 54.3639 108.819 54.856 108.376C56.1297 107.226 57.6358 106.443 58.8102 105.16C59.3888 104.528 59.9201 103.831 60.377 103.102L60.4811 102.933C60.5571 102.807 60.6352 102.682 60.7155 102.555C60.1853 102.192 59.6551 101.827 59.125 101.462C57.6654 102.715 55.7648 103.288 54.1504 104.325L53.99 104.43C52.5304 105.41 50.9927 103.242 52.1629 102.052C53.4528 100.745 54.5297 99.1866 55.6724 97.7339C55.1351 96.7398 54.8807 95.5644 54.7855 94.3764C54.7479 94.0402 54.7185 93.7037 54.6892 93.3673C53.8696 93.38 53.0458 93.0979 52.3487 92.6121L52.0847 92.4233C51.2377 92.6948 50.3484 92.8263 49.4972 92.803C47.4947 92.7436 46.6751 90.4462 47.9277 88.993C49.2057 87.5081 51.4426 87.1835 53.2148 87.9048C53.2718 87.8751 53.331 87.8432 53.388 87.8114C53.3035 87.4211 53.3223 87.067 53.4184 86.756L53.3905 86.5664C53.0008 85.9658 52.7446 85.2802 52.6474 84.5558C52.5705 83.9819 52.5862 83.4132 52.7184 82.8466C52.7623 82.658 52.8538 82.4626 52.9237 82.266C52.7797 81.9007 52.6949 81.5231 52.6688 81.1433C52.6284 81.0952 52.5883 81.0457 52.5503 80.9923C51.6709 79.7523 51.8486 78.2583 52.6854 77.2549C52.6892 77.191 52.6952 77.1272 52.7038 77.0637C52.6548 76.953 52.6098 76.8412 52.5688 76.7281C51.7512 75.8997 51.1509 74.9029 51.2628 73.6676C51.3285 72.9409 51.6259 72.2866 52.076 71.7977C51.9962 71.5605 51.9886 71.2858 52.0853 71.0564C51.367 69.1375 51.4578 66.8262 51.9749 64.68C51.8608 64.3534 51.8017 63.9991 51.8143 63.6236C51.8735 62.0305 53.2465 60.5667 54.8729 60.5858C55.0687 60.5875 55.2521 60.6132 55.4282 60.6507L55.4306 60.6127C55.4929 60.1346 55.6238 59.6927 55.815 59.2962C55.721 59.2621 55.634 59.2131 55.5577 59.1479C54.5155 59.7063 53.4127 60.1331 52.2564 60.4239C51.4062 60.6378 50.5353 59.6673 51.0638 58.8658C51.3091 58.4939 51.5797 58.16 51.8712 57.855C51.4567 57.8573 51.036 57.8855 50.6103 57.9405C49.8457 58.0402 48.9923 57.5162 48.4959 56.8077C47.8791 57.4101 47.2602 58.0105 46.6413 58.6108C45.074 60.1361 42.7062 59.0139 42.459 57.0028C41.9922 56.8777 41.5571 56.6655 41.1747 56.3622C38.7034 57.4398 36.044 58.0317 33.3255 58.1441C31.3737 58.2247 30.2331 55.9421 31.1456 54.3299C31.7582 53.248 32.5186 52.2764 33.3952 51.4321C32.0349 51.85 30.6302 52.1513 29.196 52.3443C28.4207 52.4482 27.3245 51.8033 27.014 51.0884C25.8269 48.3392 25.9282 45.4732 27.2949 42.7982C27.3477 42.6921 27.4068 42.5903 27.4639 42.4884C27.6054 42.1342 27.7596 41.7841 27.9265 41.4405C26.2451 39.6797 26.0993 37.062 27.0055 34.8706C26.6422 34.2787 26.5028 33.566 26.7499 32.9211C27.4533 31.0649 28.4672 29.3508 29.7473 27.8786C29.6248 27.641 29.517 27.3885 29.4262 27.117C28.7059 24.9214 29.5403 22.2718 31.2238 20.7423C32.282 19.7792 33.4987 19.2022 34.7977 18.8331C35.3448 17.8615 36.0482 16.9854 36.8678 16.2471C36.8995 16.1771 36.9312 16.1071 36.9671 16.0371C38.2429 13.623 40.5664 12.329 43.0568 12.0299C43.154 11.0858 43.7876 10.1843 44.7086 9.89152C44.9621 9.07479 45.3402 8.29413 45.8598 7.58559C46.6773 6.46976 48.0355 5.94366 49.3155 6.67553C50.0168 7.07647 50.6885 7.5368 51.3179 8.04593C51.6007 7.91277 51.9212 7.82661 52.2828 7.79913L52.3741 7.79349L54.4568 7.68742C55.3292 7.29921 56.1994 6.89191 57.0718 6.49521C57.5957 6.06033 58.1808 5.69758 58.8187 5.42816C59.5411 5.12481 60.2804 4.95298 61.0218 4.8957C61.6238 4.69842 62.23 4.52446 62.8468 4.3887C64.2958 4.07049 65.8125 3.8923 67.3164 3.90714C67.3472 3.51621 67.3625 3.1206 67.3595 2.72031L67.3566 2.51977C67.3228 1.23634 68.343 0.211725 69.5449 0.029288ZM68.0853 102.714C67.8783 102.759 67.6692 102.795 67.4601 102.82C67.5234 102.977 67.5868 103.134 67.648 103.291C67.817 103.386 67.9881 103.478 68.1592 103.563C68.1085 103.274 68.079 102.983 68.0853 102.714ZM57.233 99.4753L57.0926 99.735C57.0698 99.7775 57.0474 99.8195 57.0253 99.8608C57.3232 99.8374 57.6231 99.8438 57.9188 99.8777L57.918 99.8461C57.88 99.8332 57.842 99.8213 57.8056 99.8035C57.6016 99.7051 57.4119 99.5948 57.233 99.4753ZM63.0982 87.6269C64.967 87.7362 66.5502 88.024 68.2498 88.845L68.3958 88.9167C69.8976 89.6655 72.3817 91.0486 72.1726 93.0321C72.1134 93.5964 71.7057 94.1904 71.0636 94.1458C69.3041 94.0249 68.2986 92.243 67.1073 91.1314C65.9054 90.0113 64.4289 88.8594 62.9736 88.0893C62.7678 87.9809 62.8489 87.6378 63.0727 87.6267L63.0982 87.6269ZM54.6237 61.4937C54.1759 61.5086 54.3258 61.9456 54.5561 61.5807C54.5751 61.551 54.5983 61.5213 54.6237 61.4937ZM78.7959 32.3203C74.5548 32.4323 70.2865 34.9472 67.1094 37.4892C64.3455 39.7007 61.9588 42.3312 59.8455 45.1664C59.3018 46.5784 58.8349 48.0199 58.4406 49.472C58.1808 50.4308 58.0181 51.4003 57.8006 52.3676L57.733 52.6642C57.5621 52.985 57.4351 53.3301 57.3426 53.6867C57.7277 54.0745 58.2272 54.3522 58.7773 54.4839C58.9545 54.5263 59.1017 54.6182 59.2181 54.74C59.6609 53.9979 60.0478 53.2147 60.273 52.3844L60.2812 52.346C61.1323 50.9461 62.0566 49.5897 63.0475 48.2798C65.7808 44.6628 68.7908 41.3662 72.4091 38.6233C75.153 36.5444 78.22 34.9152 81.4814 33.8566C80.6832 33.2098 79.7766 32.6981 78.7959 32.3203Z" fill="#313131"/>
<path fill-rule="evenodd" clip-rule="evenodd" d="M95.9471 106.357C98.6166 103.248 103.113 103.032 106.837 103.809C109.227 104.308 111.554 105.139 113.982 105.447C115.116 105.591 116.262 105.634 117.404 105.613C118.525 105.592 119.649 105.365 120.767 105.408C120.939 105.414 121.004 105.64 120.855 105.732C119.321 106.676 117.255 106.979 115.444 107.163C115.449 107.297 115.457 107.429 115.476 107.54C115.525 107.836 115.571 108.131 115.607 108.429C115.689 109.102 115.781 109.773 115.873 110.444C116.054 111.766 116.111 113.13 116.429 114.429L116.484 114.645C116.558 114.918 116.575 115.164 116.55 115.386L116.624 115.353L116.857 115.24L117.009 115.167C117.566 114.909 118.097 114.72 118.752 114.783C119.25 114.831 119.668 115.171 119.671 115.705C119.684 118.098 116.465 118.867 114.625 119.325L114.085 119.458C111.741 120.031 109.349 120.533 106.939 120.653C103.071 120.846 98.725 119.777 96.1949 116.633C93.8343 113.7 93.4016 109.32 95.9471 106.357ZM113.511 116.411C113.105 112.808 108.687 112.61 107.416 114.894C106.852 111.71 98.5078 114.619 99.1603 115.252C101.633 117.652 105.386 117.868 108.612 117.424C110.255 117.198 111.899 116.83 113.511 116.411ZM108.607 106.968L107.497 106.808L107.059 106.747C104.305 106.378 101.208 106.187 98.9443 107.956C98.1176 108.602 97.6524 109.444 97.4787 110.349C99.621 110.031 101.771 109.788 103.928 109.586L104.516 109.532C105.866 109.41 107.214 109.281 108.562 109.146L109.52 109.049L110.478 108.95C110.815 108.914 113.086 108.798 113.513 108.876C113.559 108.492 113.618 107.66 113.715 107.285C112.101 107.34 110.495 107.22 108.891 107.007L108.607 106.968ZM113.721 90.8651C115.367 91.8677 117.875 94.2056 116.104 96.6911C114.02 98.8828 111.019 96.3699 109.54 95.2335C108.168 94.3527 106.628 96.618 107.9 97.6464C118.587 105.574 122.924 91.1273 114.553 89.6863C113.632 89.5275 113.29 90.5549 113.721 90.8651ZM116.667 95.0888L116.746 95.0457L116.773 95.0295C116.819 94.9995 116.789 95.0027 116.684 95.0392L116.605 95.0676V95.1235C116.626 95.1111 116.647 95.1017 116.667 95.0888ZM95.5844 86.1812L95.5842 86.132C95.5872 84.7391 96.3968 81.5589 98.398 81.5589C99.6482 81.5589 100.407 83.7233 100.539 85.9544L100.543 86.0454C100.601 87.4326 100.221 90.4646 98.398 90.4646C96.5554 90.4646 95.6034 87.5929 95.5844 86.1812ZM125.047 85.7444L125.048 85.6952C125.045 84.3023 124.235 81.122 122.234 81.122C121.015 81.122 120.263 83.1795 120.104 85.3504L120.093 85.5176C120.014 86.8579 120.369 90.0278 122.234 90.0278C124.076 90.0278 125.028 87.156 125.047 85.7444ZM96.7262 72.0621C98.3594 71.8133 100.522 72.286 101.284 73.95C101.623 74.6914 101.221 75.5111 100.366 75.5522C98.2991 75.6514 96.4455 75.1905 94.6313 76.5371C93.8506 77.1167 93.1942 77.9193 92.6434 78.7198L92.435 79.0244L92.2623 79.2754C91.8883 79.8264 91.5341 80.425 91.5894 81.0898C91.6058 81.2866 91.405 81.4734 91.2143 81.4655C90.0253 81.4166 89.8974 79.923 90.0537 79.0259C90.3445 77.361 91.1487 75.7981 92.2633 74.5393C93.4339 73.2174 94.9792 72.3284 96.7262 72.0621ZM119.221 74.0827C120.347 73.3573 121.787 73.0786 123.107 73.1854C125.708 73.3953 130.072 75.6111 129.498 78.7947C129.32 79.7765 127.957 80.2946 127.154 79.7499C126.291 79.1643 126.081 78.2541 125.438 77.4887C124.925 76.8773 124.276 76.435 123.58 76.0582C122.894 75.6865 122.1 75.4613 121.322 75.3792L121.193 75.3669C120.724 75.3269 118.358 75.3376 118.706 76.2224C118.774 76.3957 118.516 76.5328 118.398 76.4018C117.673 75.598 118.494 74.5506 119.221 74.0827Z" fill="#313131"/>
</svg>
