<svg width="197" height="649" viewBox="0 0 197 649" fill="none" xmlns="http://www.w3.org/2000/svg">
<path fill-rule="evenodd" clip-rule="evenodd" d="M45.2505 319.058C45.0455 320.075 44.7365 321.176 44.4148 322.164C46.0177 323.708 48.2864 325.777 49.9143 327.272C48.304 317.318 53.2035 308.132 56.2023 298.717C55.0712 297.266 51.132 295.78 51.2589 294.171C51.5628 288.209 52.0114 281.556 52.6581 274.093C54.8476 250.786 57.0261 226.48 51.8584 203.102C51.5053 200.561 50.9697 197.889 47.5638 197.83C37.5043 237.893 45.6556 278.23 45.4337 318.546L45.7265 318.809L45.2505 319.058ZM30.1866 647.311C21.9209 647.311 14.3226 645.81 6.9665 642.767C4.84374 642.019 2.20679 641.091 1.83898 639.587C1.23417 635.472 1.65289 631.427 2.09597 627.145C2.79668 619.801 2.72689 614.091 4.70768 606.183C6.82759 598.838 8.63434 593.098 6.56556 585.503C6.39965 583.242 8.16669 580.942 9.33396 578.827C10.9864 575.741 11.825 572.528 13.1375 569.363C10.5589 568.912 7.8814 568.294 5.40576 567.527L4.99011 569.024C4.89882 569.353 4.6471 569.52 4.24243 569.52C3.99203 569.52 3.35145 569.4 3.25797 568.864C3.6464 563.081 4.20908 557.327 4.80006 551.451C10.9364 494.854 20.2283 448.197 35.8322 401.666C39.58 390.768 43.4084 379.423 43.4356 367.583C41.305 367.126 38.932 366.863 36.7603 367.164C21.2869 363.576 24.3456 330.822 24.9612 321.02C23.8699 320.692 22.6486 320.228 21.7431 319.606L21.3769 319.785C6.0121 281.627 12.3218 218.539 15.8364 176.126C18.1424 160.881 14.8988 133.342 28.4073 125.808C39.3141 121.943 50.1726 119.771 61.5699 117.222C63.6806 116.01 66.2855 115.318 68.6407 114.533L67.424 112.822C65.8284 110.572 66.0406 106.159 68.1278 104.608C69.4105 104.68 71.2129 105.969 72.4387 106.574C74.202 102.926 75.8343 99.1097 77.0058 94.7258L77.4269 94.8767C78.6596 82.4768 94.7272 80.3126 103.787 84.4562C113.676 89.8887 108.526 102.178 113.022 111.049L114.652 108.876C117.168 108.829 122.492 112.13 123.773 113.37C124.691 113.798 124.027 116.679 124.161 117.837C137.428 120.843 155.588 121.669 159.805 136.569C166.821 164.589 165.835 193.314 173.795 221.234C182.129 243.865 194.369 271.558 194.472 292.285C194.71 296.169 195.232 318.139 192.019 317.256L189.898 319.373C192.787 323.988 190.493 330.894 189.387 336.358C186.66 347.951 181.331 360.443 169.949 354.888C157.707 422.527 126.94 490.759 137.435 560.524C137.561 560.932 137.306 561.38 136.869 561.202L136.353 560.963C135.018 561.376 133.324 561.52 131.93 561.833C133.116 566.281 133.752 570.673 134.368 575.594C135.115 576.039 134.766 577.218 134.804 577.931C145.942 577.397 152.188 589.067 160.176 595.485C165.45 600.193 171.456 604.676 178.029 608.809C183.46 611.897 188.043 615.433 187.218 621.266C187.296 621.256 188.972 620.997 189.054 620.99C191.581 629.402 183.285 631.141 174.741 632.155C153.863 634.256 136.015 629.613 111.843 620.818C108.879 621.169 106.568 616.759 106.174 613.768C105.784 611.764 106.893 609.726 106.046 607.569C103.131 601.372 101.614 584.966 105.724 577.606C107.166 575.938 109.016 574.398 108.776 571.518C108.709 568.634 108.438 565.752 108.682 562.919C103.742 562.441 98.8527 561.376 94.5436 559.648C93.7807 559.943 92.9143 559.581 92.861 558.624C92.0341 545.437 91.0444 531.026 90.8304 517.526C89.8374 488.143 96.5524 459.472 101.692 430.975C102.048 421.833 103.735 413.002 104.266 403.855C104.838 395.181 104.939 386.69 105.437 378.029L102.471 377.384C77.8491 440.903 58.5678 504.474 45.0723 566.678C45.3776 566.939 46.2451 567.233 46.2082 567.763C46.1981 568.046 46.2049 568.065 46.0113 568.093C42.7509 568.749 39.5243 569.23 36.2931 569.604C37.204 577.366 32.3445 586.338 36.6453 593.608C37.7876 595.36 37.8367 595.726 37.1369 596.931C43.4027 608.601 47.2859 618.312 49.8026 628.744L51.4241 627.372C53.7749 629.081 53.8236 632.308 53.875 635.719C53.7078 637.706 54.6773 639.788 53.1921 641.461C49.6165 645.642 37.1551 647.288 30.1866 647.311Z" fill="#FAFAFA"/>
<path fill-rule="evenodd" clip-rule="evenodd" d="M75.9806 92.8569C77.6897 94.2424 75.9071 104.236 74.5298 106.275C83.8444 112.278 93.2565 118.143 102.865 123.642L103.86 124.209L103.829 124.2C104.228 124.38 104.903 124.539 105.299 124.46L105.571 124.37C105.627 124.352 105.659 124.344 105.644 124.356C105.804 124.271 105.96 124.181 106.111 124.078C108.851 121.576 110.847 117.337 112.993 114.04C109.339 110.814 111.16 104.526 111.308 100.231C111.999 100.214 112.08 102.408 112.278 103.044L112.389 103.651C112.653 105.073 112.953 106.521 113.496 107.842C115.076 105.839 123.077 110.573 124.576 112.096C126.209 113.138 125.708 114.991 125.687 116.62C140.87 119.577 160.231 121.657 162.271 140.734C164.672 150.968 165.955 161.384 167.141 171.814L167.334 173.479C169.408 191.426 171.249 209.596 177.104 226.78L179.341 232.121C184.182 243.704 188.903 255.381 191.994 267.569C194.39 272.77 200.771 322.406 191.173 318.577C194.455 323.937 191.999 330.99 190.859 336.72C188.498 346.125 183.784 361.496 171.102 356.964C161.54 408.123 142.598 457.411 137.809 509.46C136.254 526.378 136.287 543.498 138.928 560.311C139.285 561.908 137.759 563.319 136.201 562.619C135.418 562.843 134.589 562.91 133.787 563.062C134.711 566.785 135.253 570.672 135.744 574.477L135.799 574.899L135.801 574.901C136.185 575.327 136.373 575.867 136.356 576.478C142.15 576.498 146.998 580.242 150.858 584.221C157.552 591.233 164.619 597.918 172.63 603.422C178.364 608.088 188.423 610.823 188.746 619.498C191.673 619.002 190.973 625.405 190.454 627.095C189.846 628.991 188.079 630.082 186.385 630.927C162.02 639.1 135.184 631.14 112.019 622.363C107.959 622.901 105.058 617.522 104.624 613.977C104.181 612.019 105.22 610.117 104.615 608.21L104.415 607.686C103.686 605.769 102.997 603.895 102.582 601.863L102.521 601.44C101.533 594.423 100.738 582.541 104.494 576.671C108.874 572.912 106.607 569.31 107.046 564.303C102.721 563.809 98.4436 562.83 94.3969 561.27C92.8014 561.611 91.4092 560.317 91.3039 558.768L91.1479 556.29C90.3314 543.398 89.4811 530.492 89.2687 517.572C88.2696 488.258 94.9056 459.57 100.131 430.938C100.645 419.9 102.75 409 103.046 397.934C103.267 391.267 103.543 384.617 103.877 377.961C80.1801 439.086 60.7315 501.916 46.7734 565.99C48.0572 566.862 48.1977 569.24 46.2863 569.622C43.4904 570.18 40.6748 570.637 37.8483 570.981C38.3006 577.862 34.212 587.168 37.9997 593L38.1508 593.233C38.8696 594.352 39.573 595.628 38.838 596.927C43.7606 606.175 48.0276 615.825 50.6534 626.011C53.6528 624.779 55.3619 630.881 55.2733 633.086C55.0806 635.976 56.637 640.848 54.1473 642.824C41.0703 651.261 23.3181 649.953 9.06463 645.281C6.42088 644.146 3.39111 643.374 1.12504 641.561C0.0980021 640.517 0.168228 638.803 0.0846161 637.448L0.0590262 636.746C-0.0753878 632.846 -0.0622785 628.873 1.00435 625.031C0.719056 619.467 1.54859 613.827 2.64146 608.383C3.3413 603.989 5.35653 599.814 5.62778 595.379C7.05839 591.41 4.47828 587.699 5.17175 583.733C5.73764 581.316 7.51155 579.228 8.53852 576.977L8.61058 576.816C9.53997 574.769 10.2058 572.648 11.0114 570.548C9.46864 570.254 7.94564 569.892 6.44458 569.457C5.72653 572.061 1.57054 571.326 1.69343 568.671C5.1068 525.855 11.8899 483.277 22.3894 441.622C27.2878 416.986 39.9379 394.016 41.8445 368.875C40.3267 368.59 38.5977 368.516 37.1105 368.688L36.9332 368.71C35.9829 368.828 35.07 368.995 34.0511 368.514C20.9783 360.433 22.322 335.672 23.3139 322.12C22.7236 321.922 22.1596 321.678 21.6461 321.373C21.1918 321.711 20.5027 321.731 20.2372 321.107C19.5679 319.533 18.7076 317.995 18.1256 316.395C2.97832 264.264 12.6507 209.329 15.7004 156.189C16.8888 145.272 16.8978 130.45 27.7337 124.433C31.37 122.709 35.4738 121.969 39.3493 120.975C48.2431 118.32 57.5326 117.131 66.1468 113.734C64.1425 110.948 64.6191 106.883 66.2892 104.081C67.6136 102.063 70.1559 103.607 71.7274 104.465C73.5412 100.755 74.7855 96.7994 75.9806 92.8569ZM51.202 628.391L51.2821 628.765C51.7065 630.762 52.0731 632.86 51.8604 634.891C57.4941 640.388 31.5331 641.084 28.6684 641.071C22.1131 641.004 2.83985 638.817 1.88654 630.908L1.89749 631.097C2.02502 633.613 1.59879 638.311 2.96625 640.171C13.3012 645.552 25.3263 647.681 36.8939 646.355L37.3095 646.299C41.9208 645.665 50.6785 643.798 52.9537 639.951C52.4507 636.369 53.6858 631.238 51.202 628.391ZM32.5068 592.86C26.1798 585.967 15.7871 591.006 9.11532 594.849C8.86339 597.868 6.74918 598.978 6.6636 602.145C5.24198 611.816 1.96643 622.749 6.13954 632.087C18.5799 638.752 33.3739 638.301 46.8327 635.432C47.1851 634.973 47.6302 634.835 48.2657 634.661C48.666 631.827 47.8569 628.979 47.3221 626.228C45.9764 620.447 44.2355 614.771 42.6872 609.042C39.9127 607.249 38.8986 603.481 37.4511 600.64C37.0583 599.843 36.6567 599.046 36.2353 598.255C33.9765 597.515 33.3853 594.816 32.5068 592.86ZM106.675 611.873C105.995 618.824 112.77 621.596 118.247 623.264C124.411 625.457 130.727 627.278 137.078 628.852C150.089 632.207 163.654 633.677 176.99 631.574L177.222 631.532C181.07 630.854 187.964 630.04 188.838 625.58L188.848 625.478C188.907 624.748 189.021 621.997 188.746 621.294C188.645 621.292 188.547 621.27 188.452 621.223C187.337 624.792 183.275 626.962 179.36 627.522C177.514 629.378 174.112 628.689 171.651 628.795C155.404 628.634 139.784 623.6 124.389 618.92C119.49 617.216 109.726 615.995 106.675 611.873ZM108.071 576.091C105.251 575.097 104.716 583.002 104.355 584.932C103.447 593.095 103.468 605.823 110.07 611.612C116.959 614.565 124.394 615.92 131.5 618.244L133.182 618.738C146.651 622.685 160.492 626.375 174.629 625.793C175.696 623.658 182.465 625.433 185.047 621.628C188.509 615.586 179.765 611.693 175.627 609.119C167.681 604.014 160.259 598.078 153.566 591.41C150.419 588.277 147.54 584.689 143.844 582.17L143.651 582.04C140.485 579.939 136.421 578.636 132.702 580.016C129.081 581.357 127.752 585.497 124.715 587.636C117.947 592.026 111.015 585.087 108.817 578.807L108.751 578.617C108.672 578.421 108.887 578.303 109.05 578.355C109.034 578.294 109.023 578.23 109.01 578.169C108.157 577.945 108.076 576.881 108.071 576.091ZM11.8102 570.696C12.6944 575.697 10.2034 580.185 8.34461 584.609C7.84425 587.543 9.68327 590.354 9.25797 593.339C15.3425 588.558 24.5512 584.319 31.8923 588.685C31.9318 584.468 33.3818 580.376 34.6421 576.39L35.1537 574.808C35.5524 573.58 35.9579 572.356 36.4065 571.148C28.2323 572.002 19.9565 572.088 11.8102 570.696ZM131.535 563.405C124.381 564.393 117.148 564.96 109.945 564.562L110.764 576.994C110.797 577.503 110.582 577.857 110.263 578.059C111.325 582.098 114.668 585.693 118.813 586.567C125.215 587.395 126.076 578.898 131.513 577.328C130.472 574.987 131.218 571.911 131.116 569.363C131.173 567.358 131.276 565.373 131.535 563.405ZM107.977 574.655C107.838 574.94 107.676 575.206 107.498 575.463C107.687 575.481 107.869 575.538 108.04 575.641C108.021 575.314 107.999 574.984 107.977 574.655ZM43.5453 321.362C37.2839 323.533 30.4512 323.978 24.0008 322.328C25.4158 332.941 26.837 358.082 35.8513 364.212C37.3743 363.993 38.9039 363.885 40.4422 364.039C41.3573 364.13 42.2626 364.278 43.17 364.419C43.5108 364.466 44.1899 364.502 44.6236 364.471L44.6974 364.465C44.5825 364.473 44.4929 364.472 44.6135 364.463L44.7984 364.454L44.8932 364.447C48.0187 364.166 50.8393 359.747 53.932 361.867C54.386 361.179 55.0725 360.738 55.5998 360.125C57.9469 356.011 55.4535 350.716 57.0219 346.379C56.4294 345.568 56.6247 344.354 57.5552 343.66C59.0051 342.326 62.0706 343.32 62.9054 341.405C62.8482 341.509 62.8442 341.389 62.8663 341.326L62.8717 341.313L62.7245 341.191C56.3185 335.882 50.1246 329.949 45.9266 322.583L45.7859 322.335C44.9829 323.115 43.6631 322.519 43.5453 321.362ZM189.813 317.76C185.402 320.176 180.653 321.926 175.726 322.938C174.714 332.637 173.551 342.34 171.965 351.959L172.341 352.026C174.541 352.429 176.858 352.972 178.759 351.454C185.017 345.366 187.272 333.122 189.729 324.853L189.826 324.477C190.343 322.449 190.935 319.643 189.813 317.76ZM125.673 117.299C125.016 120.591 128.641 156.433 122.03 150.302C117.557 143.269 112.439 136.688 107.865 129.728C107.235 132.216 109.079 135.173 108.207 137.282C119.848 195.675 128.294 254.968 131.423 314.453C136.568 318.07 141.08 322.455 145.503 326.898C146.881 328.072 147.882 329.99 149.594 330.664C156.542 322.799 164.569 315.981 171.875 308.458C171.807 307.942 171.73 307.428 171.642 306.914C171.278 304.778 174.023 303.695 175.083 305.006C177.299 299.374 177.506 292.755 176.957 286.713C175.88 276.557 172.094 266.853 169.39 257.065C161.595 227.123 156.201 195.711 158.754 164.715C158.791 164.427 159.173 164.423 159.207 164.714C161.325 197.462 164.626 230.3 174.462 261.776L174.696 262.554C178.539 275.276 183.293 288.761 180.003 302.103C180.276 303.899 179.415 305.689 178.114 306.98C177.534 308.383 176.889 309.773 176.123 311.082C176.387 314.121 176.26 317.166 175.992 320.189C181.048 319.106 185.764 317.034 190.274 314.537C190.541 313.013 190.776 311.484 190.958 309.949C194.459 281.483 183.782 253.799 173.099 227.957C162.92 197.842 164.908 165.16 156.401 134.695C151.019 122.815 136.319 121.881 125.673 117.299ZM67.9748 115.092L67.6247 115.214C65.174 116.078 62.7166 117.08 60.0964 117.154C51.8733 119.893 43.4414 121.996 35.0821 124.282L34.2734 124.503C30.7051 125.485 27.1017 126.607 24.6943 129.607C22.3856 132.484 21.42 136.188 20.6656 139.726C17.1302 170.639 15.127 201.864 13.3308 232.962C12.4501 258.855 12.952 285.18 19.5635 310.375C20.4968 313.827 21.6325 317.291 22.0345 320.837C22.5151 320.843 22.9979 320.877 23.4829 320.925C23.4901 320.693 23.8422 320.731 23.8165 320.958C30.2405 321.972 36.9176 321.372 42.9462 318.878C41.457 273.52 31.7782 224.291 53.7016 182.212C53.7915 182.052 54.0637 182.162 54.0022 182.34L53.4618 183.9C51.723 188.929 50.0239 193.966 48.8012 199.152C50.5436 198.893 51.8143 202.978 52.1437 203.979C61.6458 232.856 55.7934 263.669 54.5838 293.326C70.9435 305.232 87.4635 316.943 104.465 327.917C112.188 322.894 119.104 316.307 127.038 311.752C124.771 250.484 112.281 189.865 105.492 129.354C102.974 132.487 100.41 135.583 97.8489 138.679C94.5549 142.726 91.3707 146.879 88.1227 150.965C87.4512 151.813 85.9875 151.484 85.5091 150.629C79.1122 139.059 75.0449 126.28 67.9748 115.092ZM48.6915 199.614C39.2537 238.503 47.0951 278.551 46.9468 317.883C47.6488 318.505 47.3886 319.683 46.5693 320.11C46.4486 320.652 46.306 321.19 46.1392 321.729C46.7976 322.354 47.4603 322.976 48.1297 323.591C47.6205 315.028 51.9262 307.25 54.4214 299.211C52.6273 297.609 49.2664 296.617 49.7141 293.692C50.0608 287.333 50.5041 280.977 51.0414 274.633L51.3733 271.081C53.4648 248.564 55.242 225.68 50.3242 203.412L50.2948 203.243C50.1344 202.269 49.8274 199.812 48.6915 199.614ZM190.236 317.53L190.16 317.571L190.331 317.716C190.296 317.657 190.265 317.594 190.236 317.53ZM133.784 304.279C131.596 302.134 134.974 298.731 137.133 300.928C139.318 303.078 135.939 306.48 133.784 304.279ZM132.342 278.764C131.859 277.495 133.203 275.482 134.625 276.326L134.669 276.353L134.688 276.326C136.034 277.121 135.538 278.768 134.748 279.75C133.872 280.652 132.782 279.581 132.342 278.764ZM130.288 249.388C126.483 244.399 134.478 242.353 133.168 248.494C132.888 249.643 130.587 251.318 130.288 249.388ZM124.662 221.593C122.642 219.123 126.984 216.997 127.892 219.946C128.412 221.913 125.96 223.126 124.662 221.593ZM144.867 160.318C146.062 160.504 152.108 159.268 150.553 161.787C152.985 173.95 159.826 188.79 150.059 199.418L149.972 199.504C148.531 200.944 146.228 204.367 144.024 202.956C139.131 198.826 132.827 195.874 129.088 190.588C127.516 186.441 128.854 181.807 128.438 177.469C128.261 171.981 127.348 166.544 127.152 161.065C127.144 160.799 127.431 160.713 127.611 160.825C133.349 160.369 139.117 160.47 144.867 160.318ZM127.806 161.21C130.402 169.666 130.461 178.707 130.392 187.472C130.432 188.375 130.592 189.254 131.063 189.945C134.773 194.324 140.06 197.068 144.465 200.705C146.248 199.539 147.66 198.049 148.924 196.359C156.664 186.222 149.651 173.463 149.66 162.176L148.667 162.178C141.72 162.187 134.707 162.096 127.806 161.21ZM121.966 192.615L122.033 192.615C124.695 192.622 124.084 197.136 121.572 196.517C119.454 196.015 119.778 192.642 121.966 192.615ZM116.744 169.57C114.899 166.425 120.986 165.208 120.345 168.841L120.359 168.692C120.362 168.663 120.364 168.637 120.367 168.615L120.321 168.955C120.099 170.562 116.93 171.713 116.744 169.57ZM112.658 143.521C114.349 143.073 115.597 145.451 114.146 146.516C111.989 148.145 110.132 144.088 112.658 143.521ZM71.1832 106.679L70.9768 106.488C68.7695 104.459 67.1145 103.445 66.6252 107.579C66.2843 109.595 66.5769 112.138 68.508 113.33C77.7543 122.48 81.2587 135.542 87.2164 146.795C92.5961 140.274 97.6031 133.486 102.806 126.834C95.6381 122.462 88.3993 118.125 81.3285 113.563C77.9489 111.315 74.3126 109.268 71.1832 106.679ZM117.729 112.072C114.948 116.615 112.381 121.529 108.835 125.549C108.383 126.003 107.913 126.364 107.428 126.638C108.122 126.438 109.04 126.957 108.953 127.719C114.115 132.868 118.335 138.859 122.366 144.92C123.137 134.893 121.668 124.824 122.237 114.782C120.927 113.576 119.366 112.751 117.729 112.072Z" fill="#313131"/>
<path fill-rule="evenodd" clip-rule="evenodd" d="M104.194 100.853C99.3138 100.882 95.1661 99.4932 92.0013 97.1962C88.0519 95.7842 83.2881 93.6063 80.3946 91.3199C79.266 91.6087 77.9155 90.4066 77.0519 89.7721C71.6815 85.7511 67.4661 79.8656 66.217 73.97C64.2887 76.4105 61.5447 76.5119 58.9161 75.299C53.406 72.1658 53.6121 65.5686 55.5958 60.6396C51.4254 51.2575 48.5352 26.4899 54.9012 16.4941C56.2033 14.9985 58.1142 14.1039 59.4899 12.5701C60.7142 11.2306 61.8786 9.86048 63.303 8.80052C67.649 5.48394 75.1344 3.71806 79.8212 2.8876C99.3859 -1.35359 114.418 6.26943 132.14 12.6995C131.12 15.2569 129.71 17.5891 128.093 19.7637C132.492 21.4103 130.471 25.1125 127.058 26.9892L125.026 25.9989C128.194 37.3627 135.484 65.6215 132.338 74.6962C129.83 88.8541 118.822 100.956 104.194 100.853Z" fill="#FAFAFA"/>
<path fill-rule="evenodd" clip-rule="evenodd" d="M107.02 102.072C100.683 102.724 93.1553 101.222 88.931 96.061C88.8046 95.9065 88.7493 95.7316 88.746 95.5627C88.7424 95.3749 88.8052 95.1934 88.9139 95.0522C89.0281 94.9039 89.1906 94.8004 89.377 94.7669C89.5339 94.7386 89.7128 94.7568 89.8972 94.8605L90.2856 95.0773C93.1706 96.6751 96.1669 98.0376 99.4365 98.6207C102.803 99.221 106.231 99.1539 109.567 98.3915C115.645 97.0031 120.563 93.4613 124.183 88.7913C128.223 83.5798 130.649 76.9643 131.268 70.3483C132.017 62.3306 130.279 54.3616 128.481 46.5984C126.591 38.4412 124.525 30.3256 122.126 22.3042C122.054 22.0627 122.034 21.8367 122.055 21.6286C121.347 21.3506 120.594 21.4277 119.844 21.6815C118.475 22.1452 117.11 23.1909 115.972 24.054C115.56 24.3666 115.177 24.6572 114.832 24.8936C113.421 25.8617 111.878 26.5584 110.154 26.6679C108.359 26.7816 106.601 26.2226 104.971 25.523C104.144 25.1675 103.329 24.7988 102.518 24.4316C100.208 23.3859 97.9258 22.3506 95.4315 21.6777C92.0893 20.7758 88.6386 20.3316 85.1773 20.3634C78.9998 20.4201 72.8034 22.0144 69.0173 27.2529C67.4836 29.375 66.4837 31.8139 67.2636 34.4329C67.6878 35.8576 68.4884 37.1509 69.3621 38.3404L69.6619 38.7455C70.1413 39.3985 70.5576 40.0488 70.6831 40.7412C70.7883 41.3212 70.7062 41.9349 70.2931 42.6074C70.0332 43.0308 69.7023 43.4104 69.3696 43.7888C69.1296 44.0618 68.8889 44.3342 68.6818 44.6276C68.2645 45.219 67.895 45.856 67.6052 46.5204C67.0378 47.8208 66.7971 49.2197 66.7467 50.6306C66.6858 52.3327 66.9245 53.9979 67.1612 55.6654C67.3291 56.8477 67.4966 58.0313 67.5642 59.2292C67.576 59.4382 67.5123 59.594 67.423 59.7092C67.3137 59.8503 67.1543 59.9392 66.9729 59.9638C66.9178 59.9713 66.8608 59.9725 66.8035 59.9674C66.8316 60.0826 66.8565 60.1984 66.8781 60.3145C66.7634 60.1667 66.6414 60.0233 66.5126 59.8846C66.5044 59.8805 66.4962 59.8762 66.4881 59.8717C66.3553 59.7986 66.2429 59.6871 66.172 59.5436C65.9896 59.3737 65.7965 59.2125 65.594 59.061C64.5399 58.2725 63.309 57.805 62.0743 57.7895C60.884 57.7746 59.6908 58.181 58.7734 59.0393C56.9499 60.745 56.4157 63.5295 56.3967 65.9203C56.3773 68.3608 56.9407 71.2897 59.0629 72.805C59.9142 73.4128 60.9539 73.778 62.0013 73.7885C62.8695 73.7973 63.7003 73.4893 64.5184 73.1958C64.7706 73.1054 65.0217 73.0154 65.2721 72.9336C65.5567 72.8408 65.816 72.8467 66.042 72.9145C66.2968 72.9911 66.513 73.1491 66.6746 73.3598C66.8355 73.5697 66.9409 73.8325 66.9736 74.1077C67.0053 74.3742 66.9689 74.6508 66.8563 74.9003C66.8281 74.9631 66.7983 75.0241 66.7673 75.0836L67.2341 75.8532C69.0213 78.7922 70.8399 81.6775 73.2246 84.2037C74.5933 85.6536 76.0442 87.0219 77.6357 88.2197L77.8652 88.3905C78.0026 88.4916 78.1549 88.6163 78.3174 88.7495C78.7816 89.1303 79.3379 89.6409 79.8573 89.661C80.0115 89.667 80.146 89.6477 80.2684 89.6316C80.5642 89.5926 80.8123 89.5812 81.0561 89.681C81.2522 89.7612 81.4558 89.911 81.6648 90.2203C81.8061 90.4297 81.8787 90.6923 81.8787 90.9588C81.8787 91.2265 81.8053 91.4942 81.6746 91.7059C81.4042 92.144 81.0771 92.4154 80.7222 92.5695C80.3265 92.7413 79.8893 92.7675 79.4348 92.6825C78.3151 92.4731 77.0756 91.5432 76.2868 90.9364L76.1343 90.8192C74.3865 89.4825 72.7302 88.0035 71.2741 86.3495C68.7943 83.5328 66.5672 80.2136 65.4233 76.5869C64.617 77.1179 63.6209 77.37 62.5794 77.4097C61.062 77.4675 59.4561 77.0761 58.2726 76.5134C55.6646 75.2733 54.0804 72.9278 53.338 70.2306C52.4759 67.0983 52.7561 63.4971 53.8475 60.6833C53.8792 60.6015 53.9122 60.5201 53.9461 60.4373C50.5861 51.9018 49.5529 42.4237 49.8407 33.3147C49.9753 29.0509 50.2649 24.5776 51.2682 20.4192C51.7178 18.5554 52.4991 16.7805 53.7465 15.3131C54.4577 14.4764 55.3304 13.825 56.207 13.1754C56.9663 12.6128 57.7285 12.0513 58.3698 11.3488L58.6731 11.0153C58.7388 10.9427 58.8044 10.8703 58.8698 10.7979C59.9773 9.57401 61.0556 8.38638 62.3995 7.38263C63.9582 6.21884 65.6782 5.30792 67.4654 4.55138C71.3156 2.92217 75.4595 1.94528 79.5589 1.18952C88.4277 -0.445214 97.5318 -0.525877 106.292 1.772C110.365 2.84022 114.317 4.30242 118.263 5.76286C118.63 5.89846 118.996 6.03404 119.362 6.16928C122.429 7.30138 125.497 8.42864 128.565 9.55592C129.991 10.0798 131.417 10.6037 132.843 11.1281C133.152 11.2419 133.455 11.4871 133.628 11.7917C133.796 12.0889 133.846 12.4355 133.71 12.7806C132.835 15.0031 131.731 17.0882 130.388 19.0354C130.855 19.3538 131.252 19.7773 131.553 20.273C131.933 20.8999 132.158 21.642 132.173 22.4294C132.224 25.0663 129.831 26.8539 127.846 28.1467C127.66 28.2673 127.477 28.3385 127.3 28.3712C129.224 35.7472 131.066 43.1481 132.631 50.6076L132.738 51.1247C134.351 58.9316 135.391 66.8986 133.866 74.8091C132.553 81.621 129.504 88.1952 124.738 93.2698C120.068 98.2432 113.801 101.374 107.02 102.072ZM65.2949 57.1622C64.4651 54.5221 64.0254 51.6496 64.3429 48.9734C64.5427 47.2911 65.0472 45.6716 65.8685 44.1888C66.3389 43.3396 66.9123 42.5535 67.538 41.813L67.7538 41.5643C67.8631 41.4373 67.9718 41.3205 68.0055 41.1742C68.0251 41.0892 68.0051 40.9962 67.9536 40.885C67.8394 40.6389 67.6271 40.4017 67.4284 40.1702C67.302 40.023 67.1787 39.8786 67.0751 39.7381C65.2566 37.2699 63.9004 34.3314 64.3413 31.2015C64.7713 28.1478 66.7673 25.3013 68.8923 23.1562C73.5713 18.4326 80.8255 17.3471 87.1804 17.6077C90.8797 17.7592 94.573 18.4129 98.0959 19.5548C99.8331 20.1181 101.532 20.804 103.182 21.5901L103.548 21.766C103.745 21.8619 103.942 21.9587 104.139 22.0557C105.429 22.6901 106.725 23.3307 108.125 23.6756C110.86 24.349 112.716 22.9306 114.666 21.5002C115.334 21.01 116.013 20.513 116.734 20.0768L116.883 19.9888C118.184 19.2326 119.74 18.7236 121.235 18.7464C122.534 18.7663 123.787 19.182 124.807 20.1645C125.016 20.3664 125.137 20.5866 125.193 20.8058C125.306 20.9645 125.397 21.1536 125.457 21.3771C125.822 22.7519 126.186 24.1276 126.548 25.5037L126.845 25.3122C127.723 24.7403 128.678 24.0867 129.109 23.1299C129.275 22.7616 129.251 22.1481 129.042 21.697C128.969 21.5394 128.872 21.3993 128.739 21.3118C128.642 21.2482 128.524 21.2183 128.388 21.2293C128.057 21.272 127.754 21.2235 127.496 21.1143C127.199 20.9884 126.962 20.7812 126.808 20.5315C126.65 20.2758 126.579 19.9752 126.617 19.6635C126.65 19.3955 126.765 19.1155 126.993 18.8525C128.491 17.1211 129.753 15.2112 130.712 13.1381L124.369 10.7853C122.108 9.94675 119.846 9.10933 117.583 8.27512L116.344 7.81869C112.229 6.30543 108.091 4.82656 103.811 3.8523C95.3073 1.91626 86.4393 2.37128 77.9586 4.19369L77.4463 4.30469C73.8876 5.08274 70.281 6.02412 67.0145 7.66046C65.4112 8.46359 63.8872 9.44022 62.5784 10.6741C62.0004 11.219 61.4779 11.8156 60.9551 12.4114C60.2225 13.2463 59.4891 14.079 58.6181 14.7824L57.8096 15.4315C56.6068 16.4033 55.5219 17.35 54.8432 18.8571C54.1336 20.4327 53.7949 22.1733 53.5185 23.8692C52.8215 28.1413 52.5464 32.4818 52.5726 36.8092C52.617 44.0751 53.718 51.193 55.1088 58.2858C56.2248 56.6846 57.7923 55.4432 59.8042 55.1785C61.1159 55.006 62.4164 55.2512 63.544 55.8327C64.1958 56.1688 64.7897 56.6173 65.2949 57.1622ZM63.1869 65.79C61.7177 65.2193 60.1751 65.0324 58.6208 65.3053C58.4579 65.3337 58.3026 65.2997 58.1721 65.2237C58.0397 65.1466 57.9354 65.0247 57.8788 64.89C57.8133 64.7344 57.81 64.5659 57.8678 64.4163C57.9179 64.2864 58.0134 64.1604 58.189 64.0762C59.8722 63.2708 61.7429 62.9155 63.5998 63.1683L63.7833 63.1944C64.7326 63.3356 66.0674 63.6327 67.0685 64.2175C67.855 64.6769 68.4306 65.3102 68.5738 66.1376C68.6485 66.5687 68.5418 67.0188 68.2939 67.3451C68.0543 67.6605 67.688 67.8708 67.2138 67.8573C66.3775 67.8334 65.8822 67.479 65.2864 67.02C65.2141 66.9643 65.14 66.9072 65.063 66.8494C64.4873 66.4175 63.8581 66.0507 63.1869 65.79Z" fill="#313131"/>
<path fill-rule="evenodd" clip-rule="evenodd" d="M103.954 86.1617C102.489 85.5627 101.181 84.5635 100.225 83.2871C99.8928 82.8434 99.8066 82.3748 99.8763 81.9462C99.9547 81.4643 100.239 81.0276 100.627 80.7346C101.016 80.4408 101.503 80.2958 101.974 80.3697C102.383 80.4339 102.79 80.6583 103.112 81.1237L103.18 81.2168C103.748 81.9872 104.489 82.6192 105.333 83.0267C106.146 83.4194 107.055 83.6026 107.997 83.4961C109.789 83.2931 111.025 82.3217 112.338 81.0024C112.501 80.8359 112.664 80.6641 112.828 80.4895C112.931 80.3313 113.075 80.2296 113.234 80.1763C113.411 80.117 113.611 80.1204 113.794 80.1845C113.971 80.2463 114.129 80.3634 114.235 80.5192C114.335 80.6673 114.392 80.8503 114.374 81.0608C114.254 82.428 113.54 83.6482 112.527 84.6063C111.402 85.6703 109.91 86.4065 108.506 86.6646C106.958 86.949 105.382 86.7453 103.954 86.1617ZM109.235 65.0702C110.882 66.0728 113.39 68.4107 111.619 70.8963C109.534 73.0879 106.533 70.5751 105.054 69.4386C103.683 68.5578 102.142 70.8231 103.415 71.8515C114.101 79.7795 118.438 65.3324 110.068 63.8914C109.146 63.7326 108.804 64.7601 109.235 65.0702ZM90.0845 55.848C90.2664 53.5858 93.7047 53.0721 94.0468 55.3106C94.353 57.3158 93.9925 59.1578 93.0911 60.9631C92.2298 62.6879 90.065 61.8832 89.9013 60.3127C89.6818 58.2075 89.9714 57.2551 90.0845 55.848ZM116.258 54.8465C116.737 54.2174 117.429 53.788 118.258 54.0306C120.849 54.7892 120.086 58.4748 119.176 60.2688C118.681 61.243 117.083 61.49 116.361 60.6322C115.184 59.2334 114.62 56.4399 116.117 55.0621C116.157 54.9909 116.202 54.919 116.258 54.8465ZM93.0546 45.9496L93.4638 45.8778C94.7299 45.6584 96.3041 45.4476 97.1997 46.4675C97.6747 47.0083 97.8382 48.0135 97.1997 48.5312C96.0766 49.4421 94.8349 49.0891 93.489 49.1662C92.3799 49.23 91.3139 49.4139 90.2455 49.7199C87.9017 50.3912 85.9918 51.6165 83.99 52.9621C83.7273 53.1386 83.4592 52.802 83.5845 52.5558C84.7401 50.2878 86.9796 48.4248 89.2227 47.2892C90.4199 46.6831 91.7301 46.1803 93.0546 45.9496ZM113.896 44.9337L114.209 44.9979C117.618 45.7119 122.047 47.1381 123.661 50.493C123.722 50.9674 123.657 51.0691 123.605 51.1355L123.587 51.1576C123.543 51.2144 123.509 51.2926 123.303 51.3571C123.247 51.3435 123.189 51.3291 123.131 51.3139C122.391 51.1196 121.806 50.8519 121.239 50.5741L120.624 50.2708C119.911 49.9205 119.192 49.583 118.43 49.3338C116.803 48.8022 115.13 48.4276 113.431 48.2277C113.063 48.1844 112.708 48.0598 112.428 47.8464C112.163 47.6438 111.96 47.3633 111.867 46.9904C111.747 46.5079 111.782 46.1426 112.04 45.7073C112.234 45.3804 112.512 45.1538 112.832 45.0237C113.157 44.891 113.528 44.8597 113.896 44.9337Z" fill="#313131"/>
<path fill-rule="evenodd" clip-rule="evenodd" d="M129.609 64.0126C126.946 66.7398 122.499 67.5224 118.955 66.0598C109.856 62.2926 114.31 50.5426 121.327 47.3872C122.204 47.1706 123.375 46.6569 124.443 46.5404C124.539 46.4935 124.749 46.6293 125.004 46.5008C132.742 47.3569 134.504 59.2595 129.609 64.0126ZM100.26 64.7106C97.2725 68.6369 91.7185 69.8482 87.1806 68.023C78.216 64.5248 81.3956 54.1054 87.529 50.0206C100.485 45.1965 105.836 57.4713 100.26 64.7106ZM80.8265 56.0111C80.8182 56.0072 80.8098 56.0052 80.8013 56.0013C80.8487 55.9806 80.8961 55.96 80.9432 55.9389C80.9279 55.9787 80.9112 56.018 80.8963 56.0578C80.873 56.0419 80.8526 56.0235 80.8265 56.0111ZM135.777 51.7669C135.045 51.7685 133.989 51.8876 133.383 52.3904C131.89 47.4006 126.378 42.7826 121.585 46.15C117.811 47.3528 115.01 50.0204 113.418 53.5669C110.548 51.8752 106.034 52.5976 103.545 54.8348C101.915 49.4976 97.9037 47.6287 93.1287 47.3528C87.9169 46.5069 82.7222 51.5224 81.1014 55.5458C79.7537 55.3939 77.7399 54.9689 76.4721 55.793C68.2435 53.6548 53.8572 52.4758 52.1843 53.6639C50.9922 54.1172 50.338 56.9054 52.0031 57.0558C53.4542 56.8517 51.8338 55.0128 53.2964 54.8122C61.0897 54.3335 68.6553 55.8887 76.3661 56.5413C77.0546 57.4589 79.279 57.7658 80.4656 57.3972C78.5967 64.2224 82.6312 68.8658 88.6764 70.2567C98.037 72.3874 106.181 64.09 103.733 55.4595C106.569 54.0617 109.83 54.1217 112.919 54.858C107.758 73.6819 138.353 72.8374 133.574 53.0354C136.754 54.6028 137.445 52.0832 135.777 51.7669Z" fill="#313131"/>
</svg>
