<svg width="235" height="635" viewBox="0 0 235 635" fill="none" xmlns="http://www.w3.org/2000/svg">
<path fill-rule="evenodd" clip-rule="evenodd" d="M230.981 618.529C232.306 613.171 230.357 608.896 224.76 605.74C224.279 604.465 213.462 600.331 204.868 594.262C197.146 588.81 191.545 581.325 191.31 580.91C190.153 578.215 189.508 576.26 189.376 575.044C188.427 566.295 188.976 560.559 188.39 557.838C192.339 557.319 202.048 300.654 200.478 292.148C203.05 291.582 205.777 290.985 208.229 289.534C208.424 289.484 208.103 288.915 208.112 288.808C214.263 276.724 204.827 235.634 198.914 224.258C203.61 224.135 209.796 223.496 212.703 219.572C214.079 219.119 214.947 218.329 215.615 217.06C216.384 215.851 217.098 214.583 217.741 213.283C220.87 206.778 222.8 199.555 221.757 192.388C221.956 192.325 222.98 192.318 223.031 192.032C223.131 190.27 222.808 188.717 222.279 187.053C216.906 168.309 210.438 149.855 201.888 132.209C197.604 122.764 188.739 119.317 179.555 115.772C175.136 114.034 170.716 112.029 166.105 110.891C166.047 110.568 166.322 109.586 165.718 109.666C164.971 109.822 165.118 111.023 164.842 111.697C154.179 102.961 160.941 98.4601 154.511 93.6761C147.858 90.2202 139.745 90.0798 132.409 90.8277C129.703 90.9061 127.538 92.1268 126.9 94.8528C124.574 100.493 119.123 104.644 113.177 105.917C112.685 105.042 111.334 102.531 110.578 103.324C101.99 103.617 88.9692 106.772 80.9311 109.132C72.8618 111.195 64.6986 114.96 62.5874 123.734C58.7569 139.37 64.8511 203.627 74.8472 216.002L75.1722 216.007C76.9443 217.822 79.353 219.152 82.0825 220.044C82.0213 225.829 80.1992 231.477 79.2924 237.135C77.2508 247.396 75.6817 257.668 73.4075 267.984C73.3975 269.133 69.0705 284.861 73.3364 281.707C74.2169 282.14 75.2955 282.612 76.2438 283.017C71.7116 293.354 69.6378 310.032 69.9591 322.801C70.0394 330.405 69.7251 337.067 68.0206 344.854C55.4102 410.835 44.2919 558.415 44.0305 560.387C43.7902 562.273 45.3859 572.509 44.0305 575.209C42.8276 577.605 37.6968 576.19 36.7154 577.115C34.1664 581.269 35.3334 583.916 33.2427 588.064C32.1704 589.024 29.7731 591.124 28.9866 592.601C27.3945 594.135 1.02606 611.451 2.0948 614.079C2.0948 614.079 1.97453 615.339 1.93416 615.613C-0.31392 628.703 3.42951 628.594 15.5411 630.52C33.2338 633.643 46.4568 627.634 61.4094 619.606C66.3783 616.252 73.4407 609.85 71.1419 602.267C71.0785 601.804 69.715 593.828 69.1742 589.778C70.1512 587.616 68.7492 586.669 64.9681 586.939C65.9008 585.914 67.9498 572.642 67.2508 570.886C66.8068 566.363 67.4961 562.258 67.278 557.604C69.6538 557.78 111.365 359.886 137.527 347.588C137.689 348.903 137.375 351.349 139.119 351.595C147.211 414.775 166.668 556.312 167.561 556.56C166.22 563.775 166.261 580.5 166.236 587.663C166.03 587.854 165.089 588.695 164.937 588.901C164.905 588.847 164.292 589.46 164.261 589.476L164.178 589.286C161.422 595.505 157.405 601.91 160.955 608.005C158.32 607.813 158.743 612.887 158.626 615.222C160.126 619.791 202.788 632.119 212.322 632.705C215.454 633.252 230.042 628.608 232.849 627.941C236.486 627.26 232.918 620.495 230.981 618.529Z" fill="#FAFAFA"/>
<path fill-rule="evenodd" clip-rule="evenodd" d="M128.675 93.3167C130.056 93.2745 130.32 95.0133 129.376 95.7342L129.337 95.7629C128.532 96.334 128.155 96.8448 127.718 97.7562C125.589 103.396 119.584 106.63 113.711 105.432C115.751 109.24 117.121 112.926 119.163 116.669C128.565 136.051 159.443 142.357 163.136 115.763C157.478 114.669 154.125 101.937 157.756 98.138L157.854 98.6004C158.9 103.587 159.616 108.693 163.394 112.453C163.509 112.487 163.619 112.497 163.727 112.497C163.871 111.815 164.037 111.139 164.243 110.477C164.746 108.861 167.263 109.165 167.192 110.913C174.727 113.211 181.967 116.465 189.174 119.609C195.165 122.224 200.064 126.902 202.855 132.827C210.68 149.032 216.655 166.139 221.864 183.347C222.213 185.673 226.108 194.316 222.966 195.147C223.737 202.267 221.765 209.468 218.719 215.862C217.306 218.264 216.308 221.595 213.469 222.597C210.521 226.302 205.131 227.263 200.643 227.525C206.679 241.744 214.88 277.963 209.334 292.092C209.826 294.41 203.435 295.511 201.725 296.041C203.104 304.282 202.803 312.772 202.209 321.073C196.643 391.875 195.587 463.065 201.442 533.885C201.787 538.299 202.158 542.713 202.551 547.125L202.788 549.77C203.1 553.293 203.364 556.801 203.284 560.352C203.257 561.583 202.237 562.323 201.216 562.387C197.789 564.576 193.186 564.594 189.221 565.121C189.921 568.946 190.314 574.914 191.539 578.133C194.091 577.465 195.735 579.846 193.192 581.19C196.322 582.928 197.933 586.255 200.438 588.591C207.321 585.793 208.603 589.973 202.978 590.926C204.507 592.204 206.131 593.383 207.809 594.504L207.928 594.487C209.912 594.186 213.653 592.544 214.592 594.719C215.014 596.293 213.072 596.793 211.665 596.984C212.914 597.772 214.166 598.555 215.419 599.338C216.515 598.855 217.602 598.252 218.72 597.865C221.471 597.252 221.709 600.825 218.118 601.027C220.367 602.689 223.472 601.732 224.91 604.078C230.17 606.204 232.657 612.623 231.429 617.753C233.276 619.397 234.573 621.861 234.723 624.337C235.079 626.99 232.97 629.485 230.112 630.183C226.893 631.255 223.628 632.234 220.371 633.154L220.03 633.271C217.346 634.187 214.415 635.007 211.624 634.847C195.07 633.859 172.997 627.054 159.747 618.588C156.443 616.102 155.865 609.955 160.413 607.989C158.317 604.187 159.319 601.424 160.207 597.283C160.824 594.582 161.661 591.811 163.178 589.312C163.312 589.09 163.636 589.157 163.654 589.375C163.852 592.201 163.589 595.092 163.378 597.937L163.355 598.253C163.167 600.877 162.742 601.843 163.453 604.327C165.156 610.666 181.571 613.831 188.022 616.445C193.086 618.015 198.227 619.421 203.44 620.656L203.822 620.739C208.223 621.709 212.755 623.175 217.39 622.414C219.794 620.664 223.402 621.156 225.764 619.154C229.326 615.304 226.525 609.66 224.029 606.162C221.615 606.932 219.551 604.859 217.774 603.762L217.708 603.722C215.894 602.573 214.084 603.378 212.266 602.232L211.856 602.31C205.179 603.583 200.009 605.036 210.658 601.225C208.904 600.127 207.146 599.021 205.442 597.857C201.944 598.279 198.113 600.117 194.862 600.284C197.05 598.245 200.034 597.115 202.846 595.993C201.209 594.749 199.651 593.418 198.257 591.953L196.926 592.286C188.748 594.318 185.533 594.905 196.543 589.949C194.378 587.543 194.026 583.981 191.645 581.717C187.817 582.52 184.299 584.205 181.181 586.381C179.92 587.285 178.97 588.413 177.971 589.544C173.239 595.636 165.907 596.576 163.668 588.673C163.629 588.511 163.883 588.411 163.954 588.548L163.963 588.567C165.034 590.994 168.49 592.962 171.377 591.454L171.465 591.407C174.288 589.934 175.599 586.93 177.823 584.884C180.824 582.172 184.586 580.354 188.468 578.99C187.527 575.549 187.209 569.285 187.316 565.249C180.781 565.558 174.203 565.242 167.783 563.999C168.811 571.503 168.135 581.269 168.608 587.962C169.291 590.207 165.134 591.61 164.692 589.374C164.448 582.133 165.155 571.689 166.257 563.608L165.796 563.496C165.361 563.388 164.904 563.257 164.53 563.046C160.41 563.513 161.534 553.036 160.842 550.09C156.194 485.114 146.403 420.721 138.082 356.174C136.928 355.732 136.723 354.315 136.533 353.13C126.047 360.233 123.957 374.427 119.264 385.429C98.7653 442.397 89.6067 502.5 75.3997 561.164L75.4779 561.185C75.5337 561.201 75.5341 561.21 75.4175 561.201L75.3907 561.199V561.204C76.2686 561.32 76.9601 562.242 76.4244 563.101C74.825 566.331 70.3914 565.188 67.4729 564.983C67.7562 569.958 66.6916 580.692 67.3662 585.124C70.9664 585.191 71.1953 589.156 71.6719 591.513L71.7089 591.755C72.3451 595.782 74.4832 603.333 72.8859 606.589C75.355 609.529 73.5789 613.523 71.0175 615.53C68.2746 617.558 64.8603 618.747 61.7597 620.31C47.1663 626.209 33.0478 637.585 15.1645 633.207L14.386 633.043C1.85224 630.392 -1.74881 629.215 0.74034 616.801C-0.281871 614.278 -0.288675 611.516 1.14962 609.284C3.71458 605.99 8.0242 604.188 11.4534 601.686C17.2616 597.781 23.4434 594.365 29.1165 590.3C28.9056 590.117 29.1983 590.05 29.3704 590.081C33.3741 586.944 32.9995 581.514 35.7927 577.639C36.4912 575.643 40.0185 575.156 42.3414 575.433C41.6156 571.712 45.1609 554.773 45.6112 566.737L45.6111 566.909C45.6198 568.756 45.9221 574.923 45.3786 576.13C53.0888 578.488 54.7514 585.9 56.4015 591.886L56.5077 591.914C57.0344 592.05 57.7399 592.16 58.0033 592.677C60.4827 591.101 61.1755 587.996 63.5767 586.326C62.9032 585.799 62.8677 584.793 63.2113 584.013C64.3297 579.91 65.0001 569.467 66.6894 564.884C58.752 563.694 50.6659 563.089 42.9139 560.929C41.9066 561.919 39.8394 561.568 39.9206 559.781C42.3214 520.832 46.4506 482.004 51.6558 443.336C55.9356 407.14 63.4646 371.406 68.7088 335.4L68.7533 330.458C68.8948 315.603 69.2914 300.525 74.8268 286.539C74.3396 286.326 73.8568 286.106 73.3806 285.876C67.3783 288.365 72.1073 273.237 72.3281 270.51C75.2777 254.703 78.7523 238.898 80.9677 222.992C78.6455 222.151 76.5012 220.959 74.7124 219.226C63.8675 210.392 57.5806 138.848 61.5222 124.463C63.5796 115.414 72.2982 110.968 80.6078 108.923L81.8352 108.576C91.1157 105.963 100.557 103.596 110.22 103.014C110.564 102.702 111.576 102.792 111.708 103.052C112.313 103.417 112.888 104.129 113.374 104.882C126.786 103.339 123.158 94.5665 128.675 93.3167ZM160.761 608.561C158.883 612.828 161.378 616.074 165.561 617.868C180.047 624.589 196.218 629.99 212.82 631.022C217.886 629.796 222.903 627.77 228.036 626.516L228.258 626.476C230.065 626.144 230.914 625.811 230.759 623.933L230.824 623.173C230.94 621.824 231.038 620.477 230.944 619.128C229.365 622.907 224.638 624.984 220.495 625.747C213.924 628.868 206.566 625.695 200.111 624.358C189.627 621.168 166.943 616.156 160.761 608.561ZM69.7578 608.65L69.541 608.717C67.6605 609.299 65.7486 610.012 63.641 609.487C54.2265 612.681 45.0628 616.303 35.968 620.075C26.155 624.776 10.3539 630.242 1.85011 618.88C3.07269 624.839 1.34427 626.878 9.46337 628.364C22.3461 632.568 32.6975 630.416 43.3875 624.671C51.2196 620.861 59.6435 617.831 67.2245 613.69L67.3268 613.618C68.818 612.552 70.6172 610.609 69.7578 608.65ZM50.2041 582.995C47.7461 578.457 41.1313 575.965 36.2118 577.638C35.7113 582.014 37.008 586.914 34.231 590.714C36.69 591.146 39.1412 591.643 41.5887 592.157L43.8284 592.631C44.9276 592.872 46.3263 593.284 46.1427 594.451C45.9396 595.741 44.2483 595.347 43.1227 595.022L42.6866 594.894C39.5256 593.963 36.3698 593.013 33.249 591.949C31.604 593.761 29.3956 595.182 27.254 596.554L28.1423 596.655C31.2544 597.005 34.3966 597.322 37.4715 597.953C38.815 598.352 38.5251 600.185 37.1504 600.038C33.4794 599.079 29.8181 597.996 26.0841 597.308C24.2589 598.516 22.4423 599.73 20.6127 600.932C24.211 601.453 27.8252 601.5 31.4218 601.807C33.7504 602.022 33.7498 605.207 31.4216 605.023C27.2202 604.637 23.0214 603.393 19.0212 601.98L16.913 603.367C14.4524 604.985 11.9863 606.599 9.49563 608.178C7.99699 609.133 6.06141 610.042 5.01418 611.426C1.70703 616.771 9.97075 621.879 15.5549 621.794C24.0361 621.885 31.0999 617.478 38.5292 614.84C42.6389 613.822 63.5333 603.354 65.4346 606.109C66.63 605.535 68.2925 605.327 69.1532 604.381C69.3275 600.004 68.406 595.418 67.6327 591.004C67.4751 590.233 67.0985 589.309 67.0564 588.518C63.5758 589.803 62.5848 594.664 58.0035 594.25C57.2865 595.397 55.0784 594.863 54.0821 593.952C52.9978 592.962 52.8617 591.567 52.603 590.325L52.4831 589.754C51.9966 587.466 51.4135 585.122 50.2041 582.995ZM153.339 211.776L152.779 211.918C147.078 213.346 141.114 214.378 135.256 213.995C134.243 217.829 134.771 226.95 130.652 228.407C129.244 228.938 127.127 228.507 126.481 227.069C117.961 226.918 109.38 226.156 100.859 225.649C94.4447 225.144 87.7896 225.163 81.6149 223.215C82.363 226.985 82.6206 230.686 82.2019 234.542C80.7615 250.986 76.0199 267.007 74.4306 283.381L74.3573 284.161L74.3113 284.134C74.3113 284.165 74.3091 284.196 74.3066 284.226C74.7697 284.36 75.2327 284.501 75.6936 284.644C75.8582 284.56 76.0822 284.641 76.2005 284.8C110.136 295.362 146.156 299.95 181.525 295.301C187.719 294.527 193.868 293.443 199.974 292.158C199.921 291.612 200.754 291.469 200.9 291.985C202.255 291.748 203.61 291.489 204.958 291.315C204.796 290.856 204.767 290.36 204.934 289.912C207.562 282.019 206.362 273.021 205.532 264.836C204.475 252.269 201.84 239.942 199.711 227.545C189.633 227.087 179.615 225.441 169.488 225.647C168.421 228.414 164.702 230.738 161.791 229.156C159.735 228.045 159.126 225.622 158.301 223.621C156.67 219.663 155.004 215.72 153.339 211.776ZM110.636 103.39C100.053 106.518 89.2101 108.752 78.7234 112.225C70.008 114.398 64.0584 119.87 63.6911 129.202C62.9719 149.193 65.162 169.285 68.4679 188.985L68.6405 189.875C70.4746 199.369 72.1188 209.03 75.5826 218.079C80.6392 220.432 86.3805 221.102 91.9127 221.374C99.9857 221.785 108.058 222.207 116.124 222.736L122.448 223.146C124.283 223.265 126.835 222.951 128.214 224.379C128.336 224.58 128.584 224.555 128.773 224.68L128.81 224.707C129.011 224.844 129.214 225.176 129.504 225.112C129.976 224.965 130.157 224.024 130.268 223.574L130.278 223.534C130.892 221.129 131.337 218.672 131.905 216.254C133.198 211.497 133.755 206.468 135.72 201.914C132.907 200.117 130.257 198.063 127.985 195.626L125.245 194.661C118.691 192.359 112.062 190.129 105.231 188.75C105.067 190.251 102.915 191.109 102.112 189.538C100.782 185.538 100.535 181.194 99.6181 177.07C97.5357 164.768 95.0616 152.511 93.6214 140.111C97.5921 151.093 99.6495 164.573 102.684 176.443C102.825 176.361 103.02 176.409 103.026 176.603C113.771 172.537 125.7 172.702 136.304 177.017C138.96 178.083 141.658 179.041 144.3 180.14C145.203 180.65 147 180.619 147.303 181.734C147.628 180.977 148.064 180.268 148.643 179.79C148.824 179.417 150.878 178.752 151.079 179.49C163.125 181.144 174.838 186.389 187.234 185.503C185.767 180.145 185.941 174.358 185.842 168.824L185.872 168.2C186.127 162.749 186.312 156.001 188.159 151.515C186.977 162.809 187.835 174.122 189.277 185.312C198.02 184.183 193.994 189.186 188.171 188.998C176.42 189.845 165.574 184.644 154.759 180.854C148.852 178.491 148.183 180.493 148.446 186.109C148.451 193.422 151.761 200.096 154.759 206.584L156.105 209.614C158.344 214.657 160.551 219.667 162.726 224.77C172.228 221.617 182.926 223.346 192.769 223.921C200.28 224.865 205.673 224.53 212.027 220.182C214.319 215.8 217.339 211.645 218.52 206.702C219.889 202.172 220.345 197.427 220.745 192.733L220.385 191.419C215.754 174.566 210.629 157.794 203.626 141.741L203.247 140.856C200.873 135.297 198.461 129.463 193.658 125.569C185.597 119.613 175.627 116.971 167.153 111.671L167.099 112.059C166.239 118.138 164.754 124.441 160.865 129.332C153.68 138.16 140.115 138.409 130.92 132.675C121.355 127.383 115.617 117.53 112.825 107.23L112.792 107.117C112.531 106.199 111.803 103.42 110.636 103.39ZM136.612 202.471C136.606 205.708 135.967 208.9 135.536 212.096C140.508 211.113 145.466 210.429 150.357 209.101C145.593 207.3 140.963 205.13 136.612 202.471ZM124.638 176.359C117.387 174.939 109.964 175.788 102.794 176.933C103.573 180.557 104.463 184.148 105.207 187.777C107.774 187.659 132.131 191.976 129.382 195.44C132.977 197.364 136.383 199.626 139.962 201.592C143.561 203.568 147.309 205.267 151.175 206.648L150.971 206.193C147.644 198.755 144.535 190.385 147.099 182.255C143.651 183.64 138.945 180.666 135.605 179.553C132.06 178.129 128.408 177.006 124.638 176.359ZM72.437 147.557C72.4611 146.199 76.6496 150.091 77.1962 150.495L77.5267 150.794C81.5461 154.444 85.5167 158.459 87.7561 163.468C87.9198 168.39 80.589 156.466 79.5727 155.737C77.3551 152.881 74.6537 150.401 72.437 147.557ZM188.341 159.143C187.207 159.516 190.3 155.67 191.506 155.951C191.986 155.881 192.404 156.577 191.871 156.816L191.606 156.933C190.369 157.47 189.103 157.929 188.341 159.143Z" fill="#313131"/>
<path fill-rule="evenodd" clip-rule="evenodd" d="M143.409 1.69922C153.159 1.69922 164.856 6.48418 165.851 6.57988L165.878 6.58133C166.401 6.58133 168.446 8.15832 172.012 11.3123L168.149 18.9388L168.462 19.241C169.957 20.6928 171.234 22.0161 172.242 23.0592C180.472 31.5765 181.951 65.0177 180.011 76.6798C178.072 88.3419 174.48 99.7534 157.756 99.7534C141.033 99.7534 122.427 89.5732 119.561 86.403C117.651 84.2895 115.504 83.277 113.123 83.3654C113.025 83.2403 112.928 83.1156 112.831 82.9913L112.481 82.9411C109.185 82.4578 106.823 81.8072 105.396 80.9897C102.608 79.3928 99.5432 70.9979 99.5432 69.1486C99.5432 67.3178 94.9675 53.9994 94.876 52.59L94.8746 52.551C94.8746 51.3728 88.8968 45.9567 88.8968 44.2366C88.8968 42.5165 87.6919 42.6209 88.8968 36.5597L89.2469 34.7791C90.5291 28.3257 93.0387 17.6398 102.608 12.9964C113.123 7.89386 133.562 1.69922 143.409 1.69922Z" fill="#FAFAFA"/>
<path fill-rule="evenodd" clip-rule="evenodd" d="M100.985 12.7565C106.229 7.12118 136.002 -1.59532 151.064 0.252372L151.516 0.31161C152.718 0.465931 153.903 0.699618 155.072 1.01708C158.851 1.9106 162.755 3.26355 165.877 5.52347C168.484 7.37224 176.707 10.3914 174.283 15.2278C175.182 16.9516 175.517 19.0812 174.91 20.779C174.834 21.3654 174.655 21.9055 174.427 22.4655C176.347 25.3339 177.867 28.5777 179.097 31.663C181.248 39.4278 182.586 47.5085 182.782 55.4307C183.434 70.4818 181.804 88.4604 168.855 98.1932C161.033 104.361 148.78 104.568 139.99 96.921C139.491 96.3233 137.145 94.7104 137.928 94.4276C138.161 94.6767 138.401 94.9192 138.644 95.1573C138.633 95.1308 138.631 95.1044 138.636 95.0757L138.406 94.8654C137.974 94.4608 137.415 93.874 138.052 93.9889C138.08 94.0219 138.111 94.0506 138.141 94.0837C138.276 94.1656 138.378 94.2367 138.458 94.2994L138.498 94.3325L138.486 94.3192C138.119 93.9228 137.898 93.5185 138.447 93.7767L138.52 93.8125C138.764 94.0726 139.012 94.3217 139.265 94.5643C139.261 94.5356 139.265 94.5069 139.28 94.4761L139.045 94.2457C138.815 94.0177 138.85 94.0167 138.962 93.8323C138.474 93.139 139.386 93.5508 139.45 93.8213C140.021 93.6846 140.522 94.7693 140.889 94.9016C157.003 107.443 180.388 96.3149 180.009 61.3667L180.003 60.6829C179.893 49.508 178.964 38.0223 174.398 27.9064C173.954 26.932 173.457 25.984 172.911 25.0669C172.534 24.3791 172.131 23.7089 171.698 23.0563C170.485 22.9571 169.287 22.7322 168.107 22.3839C167.702 22.2803 167.301 22.1657 166.901 22.0312C161.048 22.3544 155.325 22.706 149.455 23.0393L147.621 23.155C142.649 23.4786 137.507 23.9969 133.494 27.1106C129.557 29.9452 129.539 35.5349 126.169 38.6471C121.363 41.9494 121.328 44.9271 120.403 49.7935C120.471 53.462 122.984 58.792 118.373 60.3359C119.151 61.4587 118.067 60.9192 117.981 60.5255C117.973 60.5277 117.964 60.5299 117.957 60.5299C118.65 61.8343 117.632 61.0129 117.541 60.5938C117.487 60.5784 117.433 60.5387 117.378 60.4836C118.076 61.6264 116.948 60.8262 117.014 60.618C115.665 58.5182 112.888 58.1921 110.93 58.7486C110.906 58.8235 110.819 58.8301 110.765 58.7904C102.441 60.6167 104.588 78.0629 113.119 76.3764C113.484 76.301 113.475 76.4785 113.548 76.4955C113.351 75.9717 113.906 76.1848 113.9 76.2949L113.934 76.2932C113.961 76.2908 113.95 76.2878 113.97 76.2949C113.779 75.2236 114.852 76.7757 114.767 76.8394C114.8 76.8195 114.837 76.8085 114.87 76.8041L114.833 76.7024C114.655 76.2225 114.67 76.422 114.671 76.1471C114.537 75.8074 114.528 75.956 114.559 75.7347C115.029 75.3661 115.168 76.4842 115.324 76.566C115.056 76.1868 115.269 75.8771 115.523 76.083C117.444 80.1743 119.926 84.0184 123.133 87.0466C123.484 87.3266 123.839 87.6022 124.207 87.8623C125.571 89.0654 127.664 89.8389 128.941 90.9046C128.941 90.9223 128.932 90.9443 128.919 90.9664L128.949 90.9931L128.978 91.0215L129.422 91.2375C129.553 91.35 129.671 91.4756 129.775 91.6145C129.886 91.7446 129.984 91.8879 130.067 92.04C130.108 92.2252 130.017 92.3023 129.843 92.223C129.766 92.1965 129.69 92.1657 129.614 92.137C129.618 92.1436 129.62 92.148 129.625 92.1524C129.65 92.1907 129.819 92.5877 129.624 92.5231L129.601 92.514C129.494 92.4743 129.388 92.4302 129.283 92.3883C129.407 92.5449 129.52 92.7146 129.62 92.8579C129.727 92.9703 129.792 93.1026 129.819 93.2525C129.814 93.3363 129.769 93.3716 129.686 93.3605C129.56 93.3187 129.435 93.2746 129.311 93.2283L129.346 93.2966C129.434 93.4715 129.559 93.7649 129.337 93.667C129.148 93.6075 128.965 93.5391 128.782 93.4642C128.767 93.495 128.736 93.5061 128.675 93.4774C128.094 93.268 127.532 93.0122 126.994 92.7102C126.522 92.3619 126.045 92.0202 125.57 91.674C125.124 91.4029 124.692 91.1008 124.281 90.7613C121.527 88.9606 119.117 86.6732 117.204 84.1255C114.005 86.93 107.61 84.2508 103.654 82.0554C100.155 80.0934 98.7793 76.4655 98.4237 72.5541C97.6844 67.2882 93.4338 65.4858 93.7295 53.9315C93.723 53.9337 93.7162 53.9337 93.7075 53.9337C93.5529 53.8875 93.4029 53.8257 93.2613 53.7464C93.1154 53.6758 92.9782 53.592 92.8495 53.4906L92.6906 53.268C92.608 53.2217 92.534 53.1732 92.4774 53.1247L92.448 53.163C92.3551 53.2765 92.4176 53.1057 92.4229 53.0718L92.1468 52.6915C91.492 51.7865 90.7737 50.771 90.1885 49.9589L90.1701 49.9919C90.1569 50.0168 90.1499 50.0348 90.1561 50.0427C88.7635 48.0171 87.4539 45.5704 87.09 43.2018C86.6604 41.3773 86.8283 39.4972 87.203 37.8072C88.8099 31.889 94.0736 18.4966 100.985 12.7565ZM138.777 94.6024L138.689 94.5237L138.766 94.621C138.806 94.6713 138.847 94.7165 138.914 94.7627C138.91 94.7472 138.91 94.7318 138.912 94.7142C138.868 94.6798 138.822 94.6422 138.777 94.6024ZM150.998 3.22607C140.783 2.33696 130.736 4.61518 120.989 7.3729L120.317 7.56856C114.774 9.16965 108.914 10.6104 104.23 14.0374C97.686 19.1117 94.3068 27.184 91.3579 34.637C88.7829 40.1745 90.0992 46.4185 93.9797 50.2852C94.3834 46.4428 95.0718 42.7128 96.1475 39.0129C96.372 38.4348 96.2022 38.2455 96.686 38.1701C97.4168 48.141 93.8175 55.5078 100.94 67.3248C104.031 72.9007 100.453 76.9805 109.181 79.9146L109.417 80.0059C111.236 80.7006 113.221 81.2489 115.002 80.8605L114.843 80.5978C114.68 80.3272 114.631 80.1959 114.867 80.0801C114.861 80.0669 114.852 80.0537 114.843 80.0382C114.652 79.6723 114.467 79.3019 114.29 78.9271C114.218 78.9514 114.147 78.969 114.072 78.9889C114.12 79.0792 114.127 79.1696 113.992 79.2005C113.512 79.3672 113.019 79.434 112.515 79.4027L112.407 79.3945C111.837 79.3592 111.478 79.2541 111.157 79.1564C111.05 79.1388 110.943 79.1211 110.839 79.0991C109.805 78.8672 108.712 78.2772 108.004 77.6926C99.9339 73.0523 100.768 57.2567 110.715 55.7635C110.919 45.8182 115.591 29.0396 123.346 19.5627C130.355 10.8456 149.49 7.06734 162.803 8.39957C162.997 8.46461 163.191 8.53031 163.385 8.59666C165.439 8.78141 167.396 9.70777 169.452 10.1381C167.976 9.0184 166.302 8.27259 164.578 7.63877C161.142 5.51113 157.203 4.35989 153.398 3.54794C152.609 3.35173 151.81 3.24371 150.998 3.22607ZM110.259 63.7529C110.794 63.4589 110.733 63.7428 110.856 63.6604C114.703 63.3427 118.851 66.7525 121.001 69.5951C120.832 69.7737 120.372 69.2446 120.292 69.1608C120.281 69.1718 120.268 69.1806 120.255 69.185L120.314 69.2706C121.186 70.5369 119.458 69.0468 119.296 68.7397C119.268 68.7551 119.24 68.764 119.207 68.7574C119.344 68.8934 119.762 69.2481 119.834 69.5003L119.945 69.5937C120.991 70.5004 120.904 71.1824 119.717 69.8949C119.745 69.9544 119.756 70.0096 119.736 70.0536L119.777 70.0812C120.361 70.4943 120.841 71.6457 119.621 70.4637C119.748 71.327 118.412 69.6584 118.369 69.6701C116.057 67.8325 112.652 66.0455 109.752 65.8054L109.652 65.7938C109.12 65.7246 108.868 65.5647 109.055 65.2124C108.4 65.0545 108.553 64.7278 108.864 64.7384C108.401 64.4306 108.817 64.1363 109.086 64.2512C108.901 63.7342 109.641 64.0786 109.709 64.0065C110.092 63.407 110.196 63.907 110.259 63.7529ZM102.196 31.7093C104.044 31.0241 109.501 33.0753 109.065 35.7918C108.805 36.4154 107.948 36.7728 107.346 36.4207L106.56 35.8864C105.192 34.9591 103.959 34.1461 102.491 33.3374C101.692 32.9359 101.347 32.0836 102.196 31.7093ZM112.708 27.6724L111.995 27.2023C108.144 24.6508 102.7 20.7847 112.354 24.7846C113.455 25.2624 114.917 25.545 115.517 26.6059C116.46 28.5611 113.978 28.6925 112.708 27.6724ZM113.141 16.2242C112.832 15.0371 116.677 16.4302 117.796 16.7974L117.967 16.8626C119.055 17.2734 120.303 17.6544 120.955 18.6056C121.718 19.92 120.173 20.1923 119.217 19.5986C117.255 18.301 115.105 17.3219 113.141 16.2242ZM122.918 10.6941C120.754 8.30134 126.546 10.5935 127.414 11.2297L127.439 11.2485C128.086 11.7099 127.955 12.7038 127.346 12.9956C125.616 13.0289 124.342 11.5686 122.918 10.6941ZM132.767 8.07255C129.326 5.56924 133.858 6.75994 135.432 7.74098C136.505 8.69887 135.4 10.3159 132.767 8.07255Z" fill="#313131"/>
<path fill-rule="evenodd" clip-rule="evenodd" d="M160.069 80.1179C160.409 79.5353 161.191 78.9956 161.907 79.0784C165.113 79.4493 165.108 83.2836 163.87 85.522C162.772 87.5069 160.5 88.672 158.226 88.5019C155.837 88.323 153.802 86.9377 152.906 84.7335C152.314 83.2755 152.04 80.5838 153.616 79.6041C153.645 79.5858 153.693 79.5904 153.717 79.6168C154.472 80.4837 154.502 81.7854 155.163 82.7506C155.779 83.6484 156.734 84.3897 157.854 84.5042C158.69 84.5898 159.536 84.2923 159.863 83.5518C160.04 83.1513 160.02 82.9338 159.954 82.6581L159.893 82.4186C159.684 81.5795 159.59 80.9406 160.069 80.1179ZM160.926 63.3021C162.599 64.3047 165.147 66.6425 163.348 69.1281C161.23 71.3197 158.181 68.8069 156.679 67.6704C155.286 66.7897 153.721 69.0549 155.013 70.0834C165.87 78.0113 170.275 63.5642 161.772 62.1232C160.836 61.9645 160.488 62.9919 160.926 63.3021ZM143.267 56.4271C144.294 54.9081 146.637 55.1318 147.202 56.9343C147.508 57.9107 147.085 58.7883 147.107 59.7634C147.125 60.5871 147.071 61.5049 146.815 62.3026C146.231 64.1217 144.572 65.4065 142.61 65.3532C140.654 65.3001 138.931 64.0791 138.112 62.3594C137.29 60.6332 137.464 58.8466 138.065 57.0913C138.093 57.007 138.205 56.9662 138.273 57.0372C138.982 57.7807 139.502 58.5657 140.039 59.3984L140.59 60.2518C141.01 60.8945 141.622 61.7154 142.408 61.6638L142.526 61.6523C142.744 61.6339 142.711 61.6766 142.879 61.383C142.957 61.2472 142.943 60.9947 142.981 60.8343L142.994 60.7802L142.986 60.751C142.97 60.6733 142.953 60.527 142.94 60.2731L142.937 60.2171C142.88 59.0295 142.54 57.5033 143.267 56.4271ZM169.286 57.4383C169.102 55.4956 171.871 55.0642 172.792 56.5017C173.272 57.2513 173.412 58.193 173.518 59.0851L173.567 59.5086C173.676 60.4249 173.72 61.3781 173.316 62.2328C172.681 63.579 171.3 64.2907 169.81 64.178C168.387 64.0701 167.089 63.2564 166.405 62.0212C165.795 60.919 165.188 58.767 165.929 57.6174C165.974 57.5477 166.063 57.5388 166.125 57.5925C166.825 58.2056 166.939 59.324 167.355 60.1228C167.785 60.9467 168.436 61.7497 169.423 61.8748C170.367 61.9945 170.728 61.4858 170.487 60.5979C170.176 59.4516 169.403 58.6718 169.286 57.4383ZM144.015 44.8772L144.468 44.7061C146.019 44.128 148.15 43.4598 149.411 44.7042C150.189 45.4716 150.337 46.6019 149.782 47.5384C149.109 48.6727 147.902 48.7006 146.736 48.8677C145.41 49.0578 144.062 49.419 142.827 49.9341C141.437 50.5145 140.146 51.2379 138.882 52.0459C137.681 52.8137 136.483 54.0685 135.045 54.3051C134.986 54.3147 134.92 54.2898 134.904 54.2262C134.578 52.8392 135.485 51.4742 136.295 50.3921C137.276 49.082 138.463 48.0067 139.791 47.0425C141.072 46.1118 142.536 45.4392 144.015 44.8772ZM172.199 49.8086L172.337 49.7847C173.278 49.6302 174.131 49.6658 174.84 50.4008C175.381 50.9615 175.589 51.6882 175.331 52.4296C175.093 53.1135 174.561 53.8083 173.788 53.9516C171.18 54.4356 168.291 54.3557 165.669 53.9892C164.47 53.8214 163.259 53.6161 162.091 53.2924L161.554 53.1387C160.578 52.8639 159.462 52.5768 158.753 51.8693C158.499 51.615 158.645 51.2511 158.95 51.1334C160.186 50.6559 161.881 50.91 163.199 50.8726C164.732 50.8293 166.268 50.716 167.794 50.5598C169.285 50.4069 170.728 50.0747 172.199 49.8086Z" fill="#313131"/>
</svg>
