<svg width="29" height="48" viewBox="0 0 29 48" fill="none" xmlns="http://www.w3.org/2000/svg">
<path d="M15.7664 0.671617C10.8401 0.0963641 7.01168 1.18719 4.42087 3.25062C1.83005 5.31406 0.67796 8.13698 0.129244 10.3206L5.83629 11.7559C6.23847 10.3242 6.87247 8.91948 8.10311 7.93935C9.33374 6.95922 11.2019 6.05353 15.085 6.50697C18.9101 6.95363 20.8875 8.13093 21.924 9.31664C22.9604 10.5024 23.2742 11.8403 23.097 13.3575C22.5314 18.2008 20.4042 19.3128 17.2066 21.542C14.0089 23.7712 9.74772 27.0591 8.95048 33.8865L8.78013 35.3453L14.5758 36.0221L14.7461 34.5633C15.3117 29.7199 17.265 28.5876 20.4627 26.3584C23.6603 24.1293 28.0954 20.8616 28.8926 14.0342C29.2197 11.2333 28.6024 7.96713 26.434 5.4071C24.2076 2.8403 20.6347 1.2401 15.7664 0.671617ZM8.09872 41.1807L7.41732 47.016L13.2129 47.6928L13.8944 41.8575L8.09872 41.1807Z" fill="#4F66AF"/>
</svg>
