<svg width="110" height="110" viewBox="0 0 110 110" fill="none" xmlns="http://www.w3.org/2000/svg">
<path d="M55 0L63.584 11.8455L76.0476 4.18663L79.4451 18.4153L93.8909 16.1091L91.5847 30.5549L105.813 33.9524L98.1545 46.416L110 55L98.1545 63.584L105.813 76.0476L91.5847 79.4451L93.8909 93.8909L79.4451 91.5847L76.0476 105.813L63.584 98.1545L55 110L46.416 98.1545L33.9524 105.813L30.5549 91.5847L16.1091 93.8909L18.4153 79.4451L4.18663 76.0476L11.8455 63.584L0 55L11.8455 46.416L4.18663 33.9524L18.4153 30.5549L16.1091 16.1091L30.5549 18.4153L33.9524 4.18663L46.416 11.8455L55 0Z" fill="#232323"/>
<path d="M54.9993 4.55176L62.8729 15.4169L74.3051 8.39192L77.4215 21.4431L90.6718 19.3278L88.5564 32.5781L101.608 35.6945L94.5826 47.1267L105.448 55.0003L94.5826 62.8739L101.608 74.3061L88.5564 77.4224L90.6718 90.6728L77.4215 88.5574L74.3051 101.609L62.8729 94.5836L54.9993 105.449L47.1257 94.5836L35.6935 101.609L32.5771 88.5574L19.3268 90.6728L21.4422 77.4224L8.39095 74.3061L15.416 62.8739L4.55078 55.0003L15.416 47.1267L8.39095 35.6945L21.4422 32.5781L19.3268 19.3278L32.5771 21.4431L35.6935 8.39192L47.1257 15.4169L54.9993 4.55176Z" fill="#FBE144"/>
</svg>
