<svg width="281" height="284" viewBox="0 0 281 284" fill="none" xmlns="http://www.w3.org/2000/svg">
<path d="M120 84.5663C116.986 92.3994 113.983 99.1406 111.243 103.849C102.23 119.341 80.7298 120.093 54.7224 128.801C28.715 137.509 95.699 154.837 109.687 169.848C123.675 184.859 135.256 280.37 142.112 259.875C148.969 239.381 159.174 186.889 170.689 169.9C182.204 152.91 199.712 142.437 227.217 136.948C242.025 133.992 232.703 130.527 215 125M129.645 56C132.891 45.1764 135.755 34.2721 137.81 24.8711C140.729 11.5162 147.76 29.5727 155.058 52.3255L165.629 86.3345C168.617 95.7474 171.272 103.422 173.241 106.902C175.489 110.877 178.765 112.764 187 116" stroke="#313131" stroke-width="10" stroke-linecap="round"/>
<path d="M111.242 103.848C120.255 88.3568 132.689 54.8068 138.371 28.8112C144.053 2.81565 164.752 91.8946 173.24 106.901C181.727 121.907 250.785 130.894 223.28 136.384C195.776 141.873 177.515 152.511 166 169.5C154.485 186.489 149.035 233.821 142.179 254.315C135.323 274.809 133.5 177.5 113.5 165C93.5001 152.5 31.7788 137.951 57.7862 129.243C83.7936 120.535 102.23 119.34 111.242 103.848Z" fill="#FBFAA2"/>
</svg>
