<svg width="284" height="286" viewBox="0 0 284 286" fill="none" xmlns="http://www.w3.org/2000/svg">
<path d="M117.506 197.778C114.454 188.386 111.747 180.729 109.755 177.263C101.167 162.315 28.1103 153.259 55.5771 147.583C83.044 141.908 100.481 131.316 111.881 114.249C123.281 97.1825 133.13 44.6223 139.847 24.0821C142.976 14.5155 147.3 30.1054 152.45 51.0007M128.307 231.715C135.759 254.418 142.912 272.426 145.74 259.052C151.246 233.018 162.864 195.448 171.772 179.896C180.68 164.344 202.175 163.446 228.123 154.562C254.071 145.678 186.971 128.804 172.881 113.888C170.123 110.968 167.437 104.964 164.849 97.3481" stroke="#313131" stroke-width="10" stroke-linecap="round"/>
<path d="M163.5 176.5C154.592 192.052 150.66 229.083 145.154 255.116C139.648 281.149 118.346 192.213 109.757 177.264C101.168 162.316 28.5354 152.242 59.5177 148.121C90.5 144 103.103 140 114.315 113.796C125.528 87.5917 133.101 50.1836 139.818 29.6433C146.536 9.10313 157.307 101.542 171.397 116.458C185.486 131.374 251.949 145.116 226.001 154C200.053 162.884 172.408 160.948 163.5 176.5Z" fill="#FBFAA2"/>
</svg>
