<svg width="297" height="282" viewBox="0 0 297 282" fill="none" xmlns="http://www.w3.org/2000/svg">
<path d="M154.125 180.516C165.903 176.233 169.772 164.628 169.139 153.229C204.323 162.518 236.211 125.911 210.186 109.686C239.763 93.8125 202.318 37.0909 176.994 57.2222C177.695 54.3778 177.722 51.8147 177.195 49.5356M121.648 191.223C97.7359 195.506 74.3164 182.512 80.2758 162.508C46.6402 183.795 -7.41441 115.874 53.8669 109.687C-3.54748 80.2663 109.374 19.1833 118.46 72.2133C109.85 40.5597 143 31.4736 162.5 37.9738" stroke="#313131" stroke-width="8" stroke-linecap="round"/>
<path d="M208.167 109.996C234.426 126.982 201.719 159.238 167.33 150.18C170.164 201.126 69.7501 200.235 82.0322 159.102C49.1561 179.861 -3.20523 116.029 56.6923 109.996C1.81388 81.9406 106.186 26.0587 119.129 71.9644C112.242 32.6937 183.267 28.3311 175.725 58.8358C200.477 39.2048 237.077 94.5167 208.167 109.996Z" fill="#FAFAFA"/>
<path d="M262.884 243.758C267.247 245.409 271.785 236.365 267.974 236.022C271.642 233.201 266.998 223.123 263.858 226.7C264.841 220.992 255.138 221.661 256.6 229.364C255.473 219.942 241.471 230.795 248.59 236.022C240.991 237.121 247.694 249.189 251.865 245.407C250.307 252.901 263.244 253.041 262.884 243.758Z" stroke="#313131" stroke-width="4"/>
<path d="M267.293 235.059C270.118 237.262 266.906 244.043 262.884 242.973C261.195 252.609 250.845 251.181 252.258 244.556C248.087 248.338 242.637 237.976 248.828 236.642C243.831 231.326 255.053 221.381 256.642 229.665C255.816 222.613 264.71 222.76 262.884 227.145C266.906 224.414 271.545 233.337 267.293 235.059Z" fill="#FAFAFA"/>
<path d="M198.5 220.474C201.813 221.346 204.642 220.543 207.351 216.789C209.512 231.987 233.233 218.581 225.798 210.24C240.529 213.356 240.803 187.482 222.558 188.201C225.802 179.476 208.025 170.399 207.351 178.022C201.807 170.687 181.998 179.973 189.028 186.253C177.807 184.288 179.123 203.694 194.264 200.77C185.7 201.812 184.555 207.142 188 212.474" stroke="#313131" stroke-width="5" stroke-linecap="round"/>
<path d="M206.588 178.732C207.262 171.109 224.108 180 220.864 188.725C239.11 188.006 238.452 212.184 223.72 209.068C231.155 217.41 209.463 231.047 207.302 215.849C197.26 229.766 177.566 204.654 193.969 201.406C179.978 203.118 179.254 185.028 190.171 186.941C183.141 180.66 201.044 171.397 206.588 178.732Z" fill="#FAFAFA"/>
<ellipse cx="91.5657" cy="113.839" rx="8.60507" ry="7.01154" transform="rotate(7.12301 91.5657 113.839)" fill="#313131"/>
<ellipse cx="133.793" cy="113.022" rx="8.26999" ry="7.34524" transform="rotate(7.12301 133.793 113.022)" fill="#313131"/>
<circle cx="174.794" cy="111.703" r="7.33024" transform="rotate(7.12301 174.794 111.703)" fill="#313131"/>
</svg>
