<svg width="277" height="289" viewBox="0 0 277 289" fill="none" xmlns="http://www.w3.org/2000/svg">
<path d="M118.964 88.9184C82.6502 97.3444 48.3058 104.949 46.5022 108.154C45.3834 119.72 51.3665 119.771 35.1172 123.866C49.6099 126.759 49.4959 147.907 39.3665 149.826C49.3146 153.063 56.4567 171.948 42.5657 177.007C57.4975 178.154 58.1758 194.671 46.5571 199.558C62.5392 199.483 60.8647 204.719 63.0556 213.736C63.5009 214.546 66.8186 214.707 72.2458 214.368M146.194 81.8713C181.111 74.4242 212.446 68.3205 213.368 70.9584C217.2 81.9157 226.973 84.7742 231.882 81.5561C223.651 86.1683 226.678 111.078 239.453 106.121C229.208 114.314 229.438 140.007 244.658 137.151C231.968 143.243 233.334 168.85 247.59 168.352C233.678 173.394 234.413 172.417 235.77 185.815C230.727 188.832 133.288 207.287 87.0149 212.91" stroke="#313131" stroke-width="6" stroke-linecap="round"/>
<path d="M48.535 108.548C52.2578 101.817 208.73 69.914 210.868 75.7234C214.724 86.2026 218.735 85.9819 223.871 86.479C219.325 94.2559 225.21 111.58 237.329 107.099C227.685 114.701 228.362 139.116 242.854 136.674C230.837 142.236 230.764 168.561 244.377 168.342C231.173 172.885 233.692 169.999 235.228 182.753C225.194 187.596 70.5059 213.746 67.2278 207.95C64.9738 199.344 66.7387 197.282 51.4683 197.07C58.89 192.226 57.6543 181.488 46.5321 176.239C55.9779 170.074 53.0063 152.646 43.4427 149.393C47.4226 145.975 48.5421 130.672 38.3292 123.868C47.5407 118.818 47.6718 119.517 48.535 108.548Z" fill="#A4D1A2"/>
<path d="M106.265 136.567C107.3 136.387 108.06 136.341 108.545 136.43C109.049 136.493 109.357 136.732 109.468 137.146C109.618 137.704 108.644 138.469 106.547 139.441C107.02 141.004 107.451 142.51 107.838 143.958C108.221 145.385 108.367 146.486 108.276 147.26C108.18 148.012 107.821 148.443 107.199 148.551C106.578 148.66 106.02 148.497 105.524 148.064C105.049 147.605 104.54 146.817 103.997 145.699C103.479 144.577 102.849 143.084 102.106 141.221C99.5933 142.157 97.7931 142.871 96.7057 143.364C95.8836 148.184 95.136 150.653 94.463 150.77C93.9193 150.865 93.1169 150.701 92.0557 150.28C91.0204 149.854 90.4196 149.331 90.2533 148.71C90.1591 148.358 90.3701 147.174 90.8865 145.157C90.3855 145.006 89.9113 144.753 89.4639 144.398C89.0369 144.018 88.7707 143.631 88.6654 143.238C88.4825 142.555 89.5893 141.68 91.9859 140.613C92.0822 140.163 92.1646 139.662 92.2331 139.109C92.322 138.53 92.5461 137.192 92.9053 135.094C93.2904 132.992 93.5672 131.244 93.7358 129.85C93.8025 129.189 94.4498 128.47 95.6778 127.693C96.9316 126.912 97.9468 126.453 98.7234 126.318C99.6295 126.16 100.701 127.024 101.937 128.909C103.2 130.789 104.422 133.38 105.605 136.682L106.265 136.567ZM97.4363 138.657C98.1908 138.439 99.2891 138.139 100.731 137.758C100.493 137.172 100.089 136.17 99.5202 134.754C98.9769 133.333 98.5805 132.308 98.3311 131.681C98.2013 132.916 97.9031 135.241 97.4363 138.657Z" fill="#313131"/>
<path d="M109.916 124.271C111.935 123.919 114.224 123.867 116.783 124.114C119.368 124.357 121.827 124.838 124.16 125.557C126.52 126.272 128.587 127.265 130.364 128.536C132.166 129.803 133.276 131.212 133.691 132.764C134.002 133.922 133.212 135.576 131.321 137.724C129.452 139.847 127.145 141.807 124.403 143.606C121.66 145.404 119.305 146.475 117.338 146.818C116.898 146.894 116.064 146.563 114.837 145.824C113.629 145.06 112.968 144.461 112.851 144.027C112.624 143.178 112.691 140.698 113.053 136.586C113.435 132.449 113.6 129.627 113.548 128.12C112.483 127.786 111.549 127.332 110.745 126.757C109.935 126.162 109.466 125.627 109.339 125.151C109.206 124.654 109.398 124.361 109.916 124.271ZM127.867 132.869C127.689 132.207 126.693 131.471 124.878 130.661C123.056 129.831 121.039 129.23 118.826 128.857C119.086 130.436 118.876 133.948 118.194 139.393C118.163 139.68 118.113 140.154 118.047 140.816C118 141.452 117.953 141.882 117.905 142.107C120.259 140.982 122.566 139.379 124.826 137.296C127.08 135.193 128.094 133.717 127.867 132.869Z" fill="#313131"/>
<path d="M136.144 119.767C136.636 119.681 137.707 119.939 139.358 120.539C141.03 121.114 141.921 121.608 142.032 122.022C142.226 122.746 142.842 123.884 143.881 125.435C144.919 126.986 146.007 128.366 147.144 129.576C147.727 128.716 148.677 127.154 149.994 124.89C151.331 122.6 152.481 120.775 153.445 119.417C154.409 118.058 155.201 117.324 155.823 117.216C156.444 117.108 157.166 117.274 157.989 117.716C158.811 118.157 159.297 118.657 159.447 119.215C159.597 119.774 159.687 120.516 159.718 121.442C159.744 122.347 159.73 123.204 159.676 124.015C159.643 124.8 159.567 125.885 159.451 127.27C159.36 128.65 159.287 129.745 159.234 130.555C159.2 131.341 159.17 132.19 159.144 133.104C159.113 133.998 159.086 134.706 159.063 135.23C159.061 135.728 159.042 136.262 159.005 136.831C158.988 137.375 158.954 137.804 158.902 138.116C158.844 138.407 158.768 138.68 158.674 138.935C158.506 139.419 158.163 139.706 157.645 139.796C157.127 139.887 156.501 139.573 155.767 138.857C155.054 138.115 154.578 137.299 154.34 136.41C153.752 134.217 153.763 131.173 154.372 127.277C154.054 127.809 153.6 128.592 153.01 129.626C152.414 130.639 151.965 131.389 151.662 131.874C151.379 132.335 151.011 132.886 150.56 133.528C149.748 134.644 148.837 135.29 147.828 135.465C146.482 135.7 145.41 135.443 144.613 134.694C144.212 134.309 143.563 133.404 142.667 131.98C141.791 130.53 141.172 129.534 140.81 128.99C141.044 131.18 141.109 133.193 141.005 135.03C140.901 136.867 140.83 138.07 140.793 138.639C140.756 139.209 140.685 139.903 140.579 140.723C140.411 142.116 140.119 142.849 139.705 142.921C139.239 143.003 138.462 142.629 137.373 141.801C136.304 140.948 135.695 140.242 135.546 139.684C135.396 139.125 135.399 136.201 135.553 130.913C135.734 125.62 135.647 122.311 135.292 120.987C135.109 120.305 135.393 119.898 136.144 119.767Z" fill="#313131"/>
<path d="M167.658 138.052C167.14 138.142 166.327 137.84 165.22 137.145C164.107 136.43 163.498 135.875 163.393 135.482C163.287 135.089 163.151 132.103 162.984 126.524C162.838 120.92 162.627 117.503 162.352 116.274C162.221 115.582 162.53 115.171 163.281 115.04C163.902 114.932 164.864 115.284 166.165 116.096C167.467 116.909 168.234 117.75 168.467 118.619C168.566 118.991 168.581 120.461 168.51 123.028C168.459 125.57 168.435 127.35 168.437 128.368C168.459 129.36 168.481 130.254 168.505 131.051C168.524 131.828 168.539 132.442 168.552 132.895C168.537 135.669 168.374 137.289 168.065 137.754C167.949 137.926 167.813 138.025 167.658 138.052Z" fill="#313131"/>
<path d="M176.561 117.339C173.798 117.95 172.288 118.278 172.029 118.323C171.408 118.431 170.706 118.239 169.924 117.748C169.136 117.235 168.654 116.648 168.477 115.986C168.205 114.972 171.758 113.823 179.136 112.538C182.915 111.879 185.781 111.705 187.734 112.014C189.686 112.324 190.782 112.923 191.02 113.813C191.092 114.082 190.967 114.374 190.645 114.69C190.318 114.985 189.857 115.185 189.261 115.289C188.666 115.392 187.57 115.551 185.975 115.764C184.379 115.977 182.931 116.186 181.631 116.39C181.801 116.621 181.931 116.901 182.019 117.232C182.108 117.563 182.127 118.242 182.077 119.268C182.053 120.29 182.002 121.717 181.923 123.55C181.84 125.362 181.804 127.555 181.816 130.129C181.823 132.683 181.761 134.22 181.63 134.741C181.518 135.237 181.346 135.505 181.113 135.546C180.57 135.641 179.779 135.367 178.74 134.725C177.721 134.058 177.145 133.476 177.012 132.98C176.879 132.483 176.861 130.343 176.958 126.558C177.05 122.753 176.917 119.68 176.561 117.339Z" fill="#313131"/>
<path d="M127.17 168.518C128.383 167.18 129.33 165.608 130.011 163.801C130.686 161.972 130.825 160.314 130.426 158.824C130.027 157.335 129.486 156.227 128.804 155.501C128.122 154.776 127.367 154.485 126.538 154.629C125.71 154.774 124.783 155.563 123.758 156.997C122.754 158.406 121.966 160.168 121.394 162.281C120.848 164.39 120.811 166.323 121.282 168.082C121.52 168.971 121.869 169.668 122.33 170.173C122.784 170.657 123.245 170.858 123.711 170.777C124.798 170.587 125.951 169.834 127.17 168.518ZM124.756 174.525C122.84 174.858 120.932 174.411 119.031 173.183C117.125 171.935 115.973 170.566 115.574 169.076C115.064 167.173 114.996 165.149 115.37 163.006C115.738 160.841 116.402 158.918 117.36 157.235C118.339 155.527 119.519 154.066 120.9 152.851C122.276 151.615 123.65 150.878 125.022 150.639C127.533 150.201 129.821 150.701 131.886 152.139C133.945 153.556 135.261 155.329 135.831 157.46C136.402 159.591 136.308 161.87 135.55 164.297C134.785 166.704 133.423 168.901 131.463 170.888C129.528 172.871 127.292 174.083 124.756 174.525Z" fill="#313131"/>
<path d="M152.067 145.83C152.818 145.699 153.73 145.865 154.802 146.328C155.9 146.786 156.502 147.212 156.607 147.605C156.956 148.908 157.175 151.241 157.263 154.604C157.371 157.941 157.223 161.182 156.82 164.327C156.416 167.472 155.735 169.128 154.777 169.295C154.389 169.363 153.84 169.285 153.13 169.062C152.414 168.819 151.892 168.488 151.563 168.069C151.228 167.629 150.567 166.726 149.578 165.361C147.302 162.228 145.26 159.661 143.45 157.659C143.435 158.312 143.425 159.234 143.419 160.426C143.439 161.613 143.447 162.554 143.443 163.247C143.434 163.92 143.424 164.744 143.415 165.72C143.4 166.676 143.361 167.44 143.298 168.014C143.261 168.584 143.198 169.158 143.109 169.736C142.966 170.822 142.714 171.396 142.351 171.46C141.834 171.55 141.061 171.295 140.033 170.694C138.999 170.073 138.411 169.494 138.267 168.956C138.117 168.397 138.082 165.383 138.161 159.913C138.265 154.438 138.205 151.027 137.98 149.681C137.847 148.881 138.039 148.436 138.557 148.346C138.997 148.269 139.609 148.379 140.393 148.676C141.203 148.968 141.934 149.371 142.587 149.885C143.26 150.374 144.691 152.128 146.882 155.145C149.072 158.163 150.744 160.308 151.897 161.58C152.264 159.004 152.226 155.221 151.784 150.232C151.605 148.249 151.512 147.042 151.504 146.61C151.491 146.158 151.679 145.898 152.067 145.83Z" fill="#313131"/>
<path d="M166.152 153.672C167.524 153.433 168.986 153.125 170.537 152.746C172.083 152.347 173.037 152.116 173.4 152.053C173.788 151.985 174.105 152.005 174.351 152.114C174.623 152.218 174.787 152.374 174.842 152.581C175.086 153.491 174.205 154.402 172.201 155.314C170.196 156.227 167.989 156.936 165.577 157.443C165.238 160.122 165.157 161.792 165.335 162.454C165.429 162.806 165.696 162.943 166.136 162.867C169.087 162.353 172.046 161.512 175.012 160.346C176.012 159.934 176.59 159.714 176.746 159.687C177.237 159.601 177.558 159.838 177.708 160.396C177.907 161.141 177.415 161.985 176.232 162.927C175.048 163.869 173.476 164.728 171.516 165.502C169.556 166.277 167.579 166.838 165.586 167.185C164.395 167.392 163.227 167.228 162.08 166.691C160.929 166.134 160.225 165.38 159.97 164.428C159.71 163.456 159.722 160.92 160.005 156.822C160.315 152.719 160.246 149.678 159.797 147.699C159.754 147.641 159.708 147.52 159.658 147.333C159.581 147.044 159.572 146.807 159.631 146.624C159.76 145.995 160.453 145.495 161.708 145.125C162.958 144.734 165.266 144.245 168.631 143.659C174.223 142.685 177.152 142.695 177.418 143.688C177.59 144.329 177.023 144.893 175.717 145.38C174.83 145.708 173.59 146.087 171.998 146.516C169.548 147.181 167.397 147.902 165.546 148.679C165.923 150.085 166.047 151.764 165.919 153.713L166.152 153.672Z" fill="#313131"/>
<path d="M211.637 124.09L215.595 128.349L221.432 129.054L218.52 134.026L219.66 139.66L213.903 138.474L208.77 141.251L208.124 135.545L203.812 131.628L209.17 129.288L211.637 124.09Z" fill="#313131"/>
<path d="M71.9301 154.556L72.6198 160.329L76.9223 164.337L71.6401 166.64L69.2435 171.864L65.2893 167.515L59.5057 166.735L62.344 161.744L61.1661 156.038L66.8744 157.303L71.9301 154.556Z" fill="#313131"/>
</svg>
