<svg width="328" height="322" viewBox="0 0 328 322" fill="none" xmlns="http://www.w3.org/2000/svg">
<path d="M181.559 146.248C149.668 153.032 119.512 159.13 117.883 161.904C116.719 172 121.95 172.14 107.675 175.46C120.302 178.224 119.862 196.715 110.973 198.23C119.62 201.221 125.562 217.85 113.334 222.051C126.373 223.294 126.7 237.749 116.461 241.836C130.439 242.027 128.89 246.579 130.661 254.5C131.037 255.215 133.936 255.409 138.688 255.2M205.484 140.523C236.139 134.572 263.638 129.739 264.403 132.06C267.577 141.704 276.078 144.361 280.422 141.625C273.15 145.526 275.397 167.358 286.648 163.229C277.557 170.229 277.345 192.7 290.7 190.448C279.506 195.571 280.288 217.985 292.762 217.78C280.516 221.965 281.174 221.123 282.145 232.86C277.687 235.418 192.182 249.989 151.626 254.163" stroke="#313131" stroke-width="6" stroke-linecap="round" stroke-linejoin="round"/>
<path d="M119.655 162.28C123.019 156.454 260.364 131.072 262.14 136.186C265.344 145.412 268.855 145.283 273.338 145.801C269.237 152.528 274.105 167.773 284.775 164.049C276.219 170.541 276.418 191.903 289.131 190C278.533 194.671 278.046 217.691 289.953 217.718C278.334 221.479 280.583 218.996 281.721 230.173C272.869 234.247 137.176 254.628 134.403 249.506C132.57 241.944 134.147 240.169 120.796 239.738C127.364 235.622 126.457 226.211 116.815 221.442C125.174 216.203 122.856 200.915 114.545 197.916C118.08 194.992 119.305 181.627 110.484 175.513C118.62 171.245 118.724 171.858 119.655 162.28Z" fill="#A4D1A2"/>
<path d="M169.69 187.711C170.599 187.57 171.264 187.542 171.686 187.628C172.127 187.691 172.392 187.905 172.482 188.269C172.604 188.76 171.74 189.413 169.891 190.229C170.279 191.603 170.631 192.927 170.947 194.2C171.259 195.454 171.369 196.419 171.277 197.094C171.181 197.751 170.86 198.122 170.315 198.206C169.77 198.291 169.284 198.14 168.858 197.753C168.45 197.344 168.017 196.647 167.56 195.66C167.125 194.67 166.598 193.355 165.979 191.714C163.766 192.492 162.18 193.088 161.222 193.501C160.425 197.703 159.732 199.85 159.141 199.942C158.664 200.016 157.965 199.86 157.044 199.474C156.146 199.085 155.629 198.618 155.493 198.073C155.416 197.763 155.62 196.731 156.104 194.976C155.668 194.836 155.258 194.607 154.872 194.289C154.505 193.95 154.278 193.607 154.193 193.262C154.044 192.662 155.026 191.914 157.138 191.02C157.23 190.628 157.31 190.191 157.379 189.708C157.466 189.204 157.683 188.037 158.031 186.208C158.402 184.376 158.672 182.852 158.842 181.636C158.911 181.059 159.488 180.44 160.575 179.781C161.684 179.118 162.579 178.733 163.26 178.627C164.055 178.504 164.978 179.276 166.029 180.944C167.103 182.609 168.13 184.895 169.111 187.801L169.69 187.711ZM161.936 189.397C162.599 189.218 163.565 188.974 164.832 188.664C164.633 188.147 164.296 187.265 163.821 186.017C163.369 184.766 163.039 183.863 162.831 183.31C162.698 184.388 162.399 186.417 161.936 189.397Z" fill="#313131"/>
<path d="M173.081 177.017C174.852 176.742 176.855 176.733 179.089 176.99C181.345 177.244 183.488 177.704 185.517 178.371C187.568 179.034 189.36 179.936 190.894 181.076C192.449 182.213 193.397 183.463 193.735 184.826C193.988 185.844 193.271 187.277 191.583 189.125C189.914 190.952 187.866 192.629 185.438 194.158C183.011 195.687 180.935 196.585 179.209 196.853C178.823 196.913 178.099 196.61 177.037 195.944C175.994 195.257 175.425 194.722 175.33 194.34C175.145 193.595 175.243 191.427 175.626 187.837C176.026 184.225 176.216 181.76 176.195 180.442C175.269 180.132 174.459 179.72 173.765 179.205C173.067 178.671 172.666 178.196 172.562 177.777C172.454 177.341 172.627 177.088 173.081 177.017ZM188.64 184.825C188.496 184.243 187.636 183.583 186.062 182.846C184.482 182.091 182.728 181.532 180.799 181.171C181.001 182.556 180.76 185.624 180.077 190.374C180.044 190.625 179.994 191.039 179.925 191.616C179.874 192.171 179.826 192.547 179.78 192.743C181.857 191.797 183.9 190.432 185.91 188.647C187.915 186.844 188.825 185.57 188.64 184.825Z" fill="#313131"/>
<path d="M196.089 173.5C196.521 173.433 197.453 173.676 198.888 174.227C200.34 174.757 201.111 175.203 201.201 175.567C201.359 176.203 201.88 177.208 202.764 178.581C203.647 179.954 204.576 181.179 205.551 182.255C206.074 181.513 206.93 180.162 208.118 178.203C209.324 176.222 210.36 174.645 211.224 173.472C212.089 172.299 212.794 171.671 213.339 171.586C213.884 171.501 214.512 171.659 215.225 172.058C215.937 172.457 216.354 172.902 216.476 173.393C216.598 173.884 216.665 174.534 216.678 175.344C216.685 176.136 216.659 176.886 216.599 177.593C216.557 178.28 216.474 179.227 216.35 180.436C216.248 181.641 216.167 182.598 216.107 183.306C216.065 183.992 216.025 184.735 215.988 185.533C215.946 186.314 215.911 186.933 215.883 187.391C215.873 187.826 215.848 188.293 215.806 188.79C215.782 189.266 215.746 189.64 215.695 189.912C215.64 190.166 215.57 190.404 215.483 190.625C215.328 191.045 215.023 191.291 214.569 191.361C214.115 191.432 213.573 191.148 212.942 190.509C212.33 189.849 211.927 189.128 211.733 188.347C211.255 186.42 211.313 183.758 211.909 180.361C211.622 180.821 211.212 181.498 210.68 182.393C210.142 183.269 209.737 183.918 209.464 184.338C209.209 184.736 208.879 185.212 208.474 185.766C207.746 186.728 206.94 187.279 206.054 187.416C204.873 187.6 203.94 187.357 203.255 186.69C202.911 186.347 202.358 185.545 201.597 184.285C200.854 183.003 200.329 182.122 200.021 181.641C200.19 183.559 200.215 185.321 200.095 186.926C199.974 188.53 199.893 189.581 199.851 190.079C199.81 190.576 199.736 191.182 199.631 191.897C199.461 193.113 199.194 193.749 198.831 193.806C198.422 193.869 197.748 193.53 196.809 192.789C195.889 192.025 195.367 191.398 195.246 190.907C195.124 190.416 195.173 187.86 195.393 183.238C195.636 178.612 195.613 175.717 195.325 174.554C195.176 173.954 195.43 173.603 196.089 173.5Z" fill="#313131"/>
<path d="M223.353 189.997C222.899 190.068 222.193 189.79 221.236 189.165C220.274 188.521 219.751 188.027 219.665 187.681C219.579 187.336 219.508 184.722 219.452 179.841C219.414 174.938 219.284 171.946 219.063 170.867C218.96 170.26 219.237 169.905 219.896 169.803C220.441 169.718 221.276 170.042 222.401 170.773C223.526 171.505 224.184 172.252 224.373 173.016C224.454 173.343 224.443 174.629 224.34 176.873C224.255 179.095 224.205 180.651 224.19 181.541C224.193 182.409 224.199 183.191 224.207 183.889C224.211 184.568 224.214 185.105 224.218 185.501C224.16 187.927 223.992 189.341 223.715 189.743C223.61 189.891 223.49 189.976 223.353 189.997Z" fill="#313131"/>
<path d="M231.472 172.027C229.046 172.517 227.72 172.779 227.493 172.815C226.948 172.899 226.337 172.72 225.662 172.278C224.981 171.817 224.569 171.296 224.424 170.714C224.203 169.823 227.329 168.875 233.801 167.87C237.117 167.355 239.626 167.248 241.328 167.55C243.031 167.852 243.979 168.394 244.173 169.176C244.232 169.412 244.118 169.666 243.831 169.937C243.54 170.19 243.134 170.357 242.611 170.438C242.089 170.519 241.128 170.64 239.729 170.801C238.331 170.961 237.061 171.121 235.921 171.279C236.066 171.483 236.175 171.731 236.247 172.021C236.319 172.312 236.325 172.906 236.265 173.803C236.227 174.696 236.159 175.943 236.062 177.545C235.959 179.127 235.893 181.045 235.862 183.296C235.827 185.53 235.748 186.873 235.625 187.327C235.52 187.758 235.365 187.99 235.16 188.022C234.683 188.096 233.996 187.844 233.098 187.266C232.218 186.666 231.723 186.148 231.615 185.712C231.507 185.276 231.525 183.403 231.671 180.096C231.812 176.77 231.746 174.08 231.472 172.027Z" fill="#313131"/>
<path d="M187.458 215.988C188.54 214.838 189.393 213.478 190.018 211.908C190.638 210.32 190.785 208.872 190.46 207.563C190.135 206.254 189.681 205.277 189.096 204.631C188.511 203.986 187.855 203.719 187.128 203.832C186.402 203.945 185.579 204.621 184.66 205.858C183.759 207.074 183.041 208.602 182.507 210.441C181.996 212.276 181.932 213.966 182.316 215.512C182.51 216.294 182.804 216.909 183.198 217.357C183.588 217.788 183.987 217.971 184.396 217.907C185.35 217.759 186.371 217.119 187.458 215.988ZM185.25 221.202C183.569 221.463 181.908 221.041 180.265 219.937C178.619 218.814 177.633 217.598 177.308 216.29C176.893 214.617 176.866 212.846 177.227 210.978C177.584 209.091 178.195 207.419 179.06 205.963C179.944 204.486 180.999 203.227 182.227 202.186C183.45 201.128 184.663 200.505 185.867 200.318C188.07 199.976 190.062 200.45 191.845 201.74C193.623 203.012 194.745 204.585 195.21 206.457C195.675 208.33 195.556 210.321 194.853 212.432C194.146 214.524 192.92 216.423 191.173 218.129C189.45 219.832 187.475 220.856 185.25 221.202Z" fill="#313131"/>
<path d="M209.595 196.548C210.253 196.446 211.048 196.606 211.978 197.027C212.931 197.446 213.45 197.828 213.536 198.173C213.821 199.319 213.974 201.362 213.997 204.304C214.038 207.224 213.857 210.056 213.453 212.8C213.049 215.544 212.427 216.981 211.587 217.111C211.246 217.164 210.767 217.088 210.15 216.881C209.528 216.657 209.077 216.359 208.796 215.987C208.51 215.597 207.946 214.797 207.103 213.588C205.164 210.811 203.419 208.534 201.869 206.754C201.845 207.324 201.821 208.13 201.797 209.172C201.796 210.211 201.788 211.034 201.773 211.64C201.754 212.228 201.732 212.949 201.708 213.803C201.68 214.638 201.634 215.306 201.569 215.807C201.528 216.304 201.463 216.805 201.376 217.309C201.234 218.257 201.004 218.755 200.686 218.804C200.232 218.875 199.56 218.639 198.671 218.098C197.777 217.538 197.272 217.022 197.154 216.549C197.032 216.058 197.05 213.422 197.207 208.639C197.387 203.853 197.389 200.87 197.214 199.689C197.11 198.987 197.286 198.601 197.74 198.531C198.126 198.471 198.659 198.577 199.34 198.849C200.044 199.117 200.676 199.481 201.239 199.942C201.819 200.38 203.043 201.936 204.91 204.611C206.777 207.285 208.204 209.187 209.193 210.318C209.555 208.071 209.583 204.763 209.276 200.393C209.151 198.656 209.089 197.599 209.09 197.221C209.086 196.825 209.254 196.601 209.595 196.548Z" fill="#313131"/>
<path d="M221.786 203.632C222.989 203.446 224.272 203.199 225.635 202.893C226.993 202.569 227.832 202.382 228.15 202.333C228.49 202.28 228.767 202.303 228.98 202.402C229.216 202.497 229.357 202.636 229.402 202.818C229.601 203.618 228.816 204.4 227.049 205.166C225.281 205.931 223.339 206.516 221.222 206.92C220.883 209.258 220.785 210.717 220.93 211.299C221.006 211.608 221.238 211.732 221.624 211.673C224.213 211.27 226.813 210.583 229.426 209.611C230.307 209.267 230.816 209.084 230.953 209.062C231.384 208.995 231.661 209.207 231.783 209.698C231.945 210.353 231.501 211.082 230.451 211.888C229.401 212.693 228.013 213.418 226.286 214.064C224.559 214.709 222.822 215.168 221.073 215.44C220.028 215.602 219.009 215.439 218.016 214.952C217.017 214.446 216.414 213.775 216.207 212.939C215.995 212.084 216.046 209.867 216.36 206.288C216.697 202.705 216.685 200.044 216.324 198.307C216.288 198.256 216.249 198.148 216.209 197.985C216.145 197.73 216.141 197.523 216.196 197.364C216.319 196.816 216.933 196.39 218.037 196.086C219.136 195.765 221.162 195.375 224.115 194.916C229.02 194.154 231.581 194.209 231.798 195.082C231.938 195.646 231.433 196.13 230.283 196.535C229.502 196.808 228.412 197.118 227.012 197.468C224.859 198.01 222.967 198.606 221.336 199.256C221.643 200.492 221.725 201.962 221.581 203.664L221.786 203.632Z" fill="#313131"/>
<path d="M262.038 178.495L265.431 182.283L270.524 182.993L267.898 187.295L268.804 192.239L263.788 191.11L259.255 193.455L258.782 188.455L255.074 184.961L259.797 183L262.038 178.495Z" fill="#313131"/>
<path d="M139.376 202.89L139.887 207.949L143.585 211.523L138.929 213.453L136.749 217.982L133.361 214.115L128.316 213.341L130.878 209.022L129.94 204.013L134.911 205.211L139.376 202.89Z" fill="#313131"/>
<path d="M82.4739 124.44C75.7641 127.033 67.9131 130.138 67.0749 130.833C70.0119 142.153 70.7006 139.339 59.4264 145.508C72.3009 144.337 76.3772 164.587 66.2909 171.495C78.9772 167.03 82.5733 189.053 74.8633 197.441C85.1733 191.497 91.0669 212.478 84.612 217.526C88.3994 214.114 97.1668 215.275 101.905 224.173C103.422 227.022 165.731 202.784 204.018 187.278M125.959 108.503C165.205 95.0085 209.964 79.0317 212.041 81.733C215.114 89.1833 214.37 93.8994 228.078 91.72C218.752 97.4525 221.519 111.541 234.488 110.549C223.233 116.73 231.862 131.995 240.829 133.458C232.388 136.445 235.088 154.612 247.911 155.179C234.505 160.844 239.647 160.096 240.217 170.171C239.825 171.214 233.828 174.229 228.054 177.104" stroke="#313131" stroke-width="6" stroke-linecap="round" stroke-linejoin="round"/>
<path d="M238.422 170.102C236.117 176.373 106.027 224.457 103.423 219.753C98.7269 211.268 95.3131 211.988 90.8393 212.241C93.7126 204.964 86.3695 190.872 76.5599 196.322C83.832 188.521 80.0211 167.653 67.9044 171.667C77.4836 165.302 74.0641 142.696 62.4081 144.685C73.1406 139.039 71.36 141.849 68.3552 131.105C76.3271 125.62 205.647 82.7104 209.227 87.2519C212.301 94.3415 211.058 96.3445 224.194 94.5067C218.464 99.6461 220.946 108.7 231.187 111.734C223.894 118.275 228.751 132.842 237.39 134.369C234.426 137.829 235.489 151.114 245.156 155.603C237.917 161.156 237.712 160.573 238.422 170.102Z" fill="#A4D1A2"/>
<path d="M123.798 148.611C124.67 148.341 125.32 148.218 125.747 148.242C126.189 148.241 126.48 148.413 126.621 148.757C126.812 149.221 126.057 149.988 124.358 151.056C124.937 152.35 125.474 153.6 125.968 154.805C126.454 155.992 126.701 156.924 126.708 157.601C126.708 158.26 126.446 158.671 125.923 158.832C125.4 158.994 124.901 158.915 124.426 158.597C123.966 158.254 123.441 157.631 122.85 156.728C122.28 155.818 121.573 154.601 120.728 153.078C118.666 154.161 117.194 154.975 116.311 155.519C116.134 159.762 115.762 161.971 115.195 162.146C114.737 162.288 114.028 162.235 113.067 161.989C112.128 161.736 111.553 161.351 111.341 160.835C111.222 160.543 111.273 159.499 111.496 157.704C111.047 157.63 110.611 157.464 110.187 157.207C109.777 156.927 109.505 156.623 109.371 156.296C109.138 155.728 109.995 154.852 111.942 153.669C111.976 153.271 111.992 152.83 111.99 152.346C112.003 151.837 112.048 150.66 112.127 148.813C112.227 146.959 112.273 145.423 112.265 144.204C112.25 143.627 112.728 142.936 113.7 142.132C114.694 141.321 115.519 140.814 116.173 140.612C116.936 140.376 117.954 141.002 119.227 142.49C120.521 143.971 121.86 146.068 123.242 148.783L123.798 148.611ZM116.423 151.384C117.049 151.113 117.962 150.734 119.162 150.246C118.892 149.767 118.434 148.949 117.788 147.792C117.163 146.627 116.709 145.788 116.425 145.275C116.449 146.353 116.449 148.389 116.423 151.384Z" fill="#313131"/>
<path d="M125.59 137.616C127.29 137.091 129.257 136.793 131.488 136.725C133.742 136.649 135.913 136.793 138.003 137.156C140.114 137.512 142.005 138.14 143.675 139.039C145.367 139.932 146.478 141.024 147.007 142.314C147.402 143.278 146.903 144.79 145.512 146.848C144.134 148.883 142.364 150.826 140.199 152.678C138.034 154.529 136.123 155.711 134.466 156.223C134.096 156.337 133.341 156.144 132.202 155.642C131.078 155.117 130.442 154.673 130.294 154.312C130.004 153.606 129.789 151.462 129.648 147.88C129.521 144.274 129.353 141.825 129.143 140.532C128.189 140.362 127.333 140.073 126.577 139.667C125.814 139.243 125.352 138.833 125.189 138.438C125.02 138.025 125.154 137.751 125.59 137.616ZM142.001 143.046C141.775 142.496 140.836 141.971 139.183 141.474C137.522 140.959 135.718 140.663 133.771 140.586C134.169 141.917 134.374 144.966 134.386 149.732C134.391 149.983 134.401 150.397 134.416 150.974C134.446 151.527 134.453 151.903 134.436 152.102C136.34 150.874 138.151 149.238 139.869 147.195C141.579 145.135 142.29 143.752 142.001 143.046Z" fill="#313131"/>
<path d="M147.689 130.848C148.103 130.72 149.055 130.824 150.543 131.159C152.046 131.47 152.868 131.798 153.009 132.142C153.256 132.744 153.912 133.657 154.978 134.879C156.044 136.101 157.133 137.17 158.245 138.087C158.653 137.282 159.299 135.832 160.184 133.736C161.084 131.616 161.875 129.917 162.555 128.641C163.236 127.364 163.838 126.645 164.361 126.483C164.884 126.322 165.525 126.386 166.282 126.675C167.039 126.965 167.513 127.342 167.704 127.807C167.894 128.271 168.054 128.901 168.182 129.695C168.304 130.472 168.387 131.212 168.429 131.916C168.487 132.596 168.542 133.539 168.594 134.745C168.667 135.944 168.725 136.895 168.768 137.599C168.826 138.28 168.894 139.015 168.972 139.805C169.043 140.578 169.098 141.191 169.136 141.645C169.189 142.075 169.231 142.537 169.262 143.031C169.308 143.502 169.325 143.875 169.315 144.149C169.298 144.407 169.262 144.65 169.209 144.88C169.117 145.316 168.853 145.601 168.417 145.735C167.981 145.87 167.408 145.669 166.696 145.133C166 144.572 165.5 143.922 165.197 143.182C164.449 141.357 164.124 138.734 164.22 135.311C164.004 135.804 163.699 136.528 163.304 137.484C162.903 138.422 162.598 139.118 162.39 139.57C162.197 139.998 161.942 140.513 161.623 141.115C161.047 142.166 160.333 142.823 159.483 143.085C158.349 143.436 157.398 143.332 156.629 142.774C156.241 142.487 155.582 141.779 154.653 140.651C153.739 139.498 153.096 138.708 152.724 138.28C153.167 140.14 153.445 141.867 153.557 143.461C153.67 145.055 153.742 146.1 153.772 146.594C153.803 147.089 153.818 147.695 153.817 148.413C153.826 149.632 153.655 150.295 153.306 150.403C152.914 150.524 152.203 150.288 151.174 149.695C150.159 149.077 149.557 148.536 149.366 148.072C149.176 147.607 148.856 145.088 148.407 140.515C147.98 135.935 147.541 133.094 147.089 131.993C146.857 131.425 147.057 131.043 147.689 130.848Z" fill="#313131"/>
<path d="M176.851 143.13C176.415 143.265 175.682 143.094 174.651 142.617C173.614 142.123 173.028 141.713 172.894 141.386C172.76 141.059 172.314 138.501 171.556 133.714C170.812 128.902 170.254 125.981 169.882 124.952C169.693 124.371 169.914 123.983 170.547 123.787C171.07 123.626 171.937 123.823 173.148 124.38C174.359 124.937 175.112 125.576 175.408 126.299C175.535 126.609 175.709 127.874 175.931 130.093C176.168 132.289 176.342 133.825 176.456 134.701C176.584 135.554 176.702 136.322 176.811 137.006C176.912 137.673 176.993 138.2 177.054 138.589C177.346 140.98 177.384 142.394 177.17 142.828C177.088 142.989 176.982 143.09 176.851 143.13Z" fill="#313131"/>
<path d="M182.24 124.305C179.928 125.136 178.662 125.585 178.444 125.652C177.921 125.814 177.296 125.726 176.568 125.389C175.833 125.034 175.353 124.581 175.127 124.03C174.781 123.187 177.716 121.806 183.93 119.886C187.114 118.903 189.563 118.437 191.28 118.488C192.996 118.54 194.005 118.936 194.309 119.676C194.4 119.9 194.325 120.165 194.082 120.473C193.833 120.763 193.457 120.986 192.956 121.141C192.454 121.296 191.528 121.553 190.177 121.912C188.826 122.271 187.601 122.611 186.504 122.93C186.676 123.11 186.818 123.337 186.931 123.613C187.044 123.888 187.135 124.471 187.205 125.36C187.297 126.243 187.41 127.479 187.544 129.066C187.672 130.636 187.882 132.529 188.176 134.746C188.463 136.945 188.579 138.276 188.523 138.74C188.482 139.179 188.363 139.429 188.167 139.489C187.709 139.631 186.997 139.482 186.032 139.044C185.081 138.581 184.521 138.144 184.351 137.731C184.182 137.317 183.931 135.475 183.598 132.204C183.258 128.916 182.805 126.283 182.24 124.305Z" fill="#313131"/>
<path d="M145.326 173.834C146.224 172.549 146.867 171.09 147.254 169.458C147.635 167.808 147.571 166.364 147.063 165.125C146.555 163.886 145.968 162.991 145.3 162.441C144.633 161.891 143.95 161.724 143.252 161.939C142.555 162.155 141.843 162.937 141.118 164.285C140.408 165.61 139.923 167.214 139.663 169.097C139.425 170.974 139.606 172.644 140.205 174.107C140.509 174.847 140.886 175.409 141.338 175.793C141.783 176.16 142.202 176.283 142.595 176.161C143.51 175.878 144.421 175.103 145.326 173.834ZM143.907 179.275C142.294 179.774 140.601 179.598 138.828 178.75C137.049 177.884 135.905 176.832 135.397 175.592C134.749 174.009 134.467 172.273 134.553 170.385C134.632 168.48 134.992 166.75 135.632 165.195C136.287 163.616 137.143 162.227 138.199 161.028C139.249 159.812 140.351 159.025 141.507 158.668C143.622 158.015 145.648 158.194 147.585 159.205C149.515 160.198 150.844 161.582 151.57 163.355C152.297 165.127 152.467 167.101 152.08 169.276C151.687 171.433 150.755 173.476 149.285 175.404C147.837 177.325 146.044 178.615 143.907 179.275Z" fill="#313131"/>
<path d="M164.277 151.547C164.909 151.352 165.713 151.395 166.687 151.675C167.684 151.949 168.249 152.25 168.383 152.577C168.827 153.661 169.273 155.647 169.719 158.534C170.179 161.397 170.409 164.206 170.407 166.959C170.406 169.713 170.002 171.215 169.195 171.464C168.868 171.565 168.386 171.559 167.75 171.445C167.107 171.314 166.62 171.086 166.291 170.761C165.954 170.419 165.285 169.715 164.282 168.648C161.977 166.199 159.935 164.212 158.156 162.687C158.214 163.251 158.307 164.046 158.433 165.074C158.581 166.095 158.692 166.904 158.765 167.502C158.831 168.082 158.913 168.794 159.013 169.636C159.105 170.46 159.156 171.123 159.165 171.625C159.195 172.119 159.204 172.621 159.191 173.129C159.188 174.08 159.034 174.603 158.728 174.697C158.292 174.832 157.598 174.697 156.647 174.293C155.688 173.872 155.117 173.437 154.934 172.99C154.743 172.525 154.381 169.932 153.847 165.211C153.334 160.483 152.907 157.551 152.564 156.416C152.362 155.742 152.479 155.337 152.915 155.203C153.285 155.088 153.825 155.115 154.533 155.284C155.262 155.447 155.937 155.714 156.556 156.085C157.189 156.432 158.616 157.785 160.835 160.144C163.054 162.502 164.731 164.166 165.864 165.134C165.897 162.875 165.447 159.621 164.517 155.371C164.144 153.683 163.931 152.653 163.877 152.282C163.817 151.893 163.95 151.649 164.277 151.547Z" fill="#313131"/>
<path d="M177.274 156.753C178.43 156.396 179.655 155.969 180.95 155.472C182.238 154.958 183.034 154.654 183.34 154.559C183.667 154.458 183.942 154.441 184.166 154.508C184.412 154.567 184.57 154.683 184.64 154.856C184.95 155.613 184.292 156.495 182.666 157.501C181.039 158.508 179.215 159.362 177.194 160.064C177.197 162.409 177.311 163.857 177.537 164.408C177.657 164.701 177.902 164.79 178.273 164.675C180.759 163.908 183.215 162.858 185.642 161.527C186.458 161.061 186.932 160.808 187.063 160.768C187.477 160.64 187.779 160.808 187.97 161.273C188.224 161.893 187.893 162.673 186.977 163.616C186.061 164.558 184.801 165.47 183.198 166.353C181.594 167.236 179.953 167.937 178.274 168.456C177.271 168.766 176.246 168.753 175.2 168.417C174.146 168.064 173.457 167.491 173.133 166.699C172.801 165.89 172.532 163.705 172.326 160.143C172.141 156.574 171.746 153.962 171.141 152.307C171.098 152.262 171.045 152.162 170.982 152.007C170.883 151.766 170.849 151.563 170.88 151.398C170.922 150.842 171.464 150.336 172.505 149.879C173.539 149.404 175.473 148.729 178.307 147.853C183.017 146.399 185.542 146.084 185.88 146.91C186.099 147.444 185.672 147.993 184.601 148.556C183.873 148.936 182.846 149.399 181.522 149.943C179.485 150.786 177.711 151.644 176.202 152.517C176.682 153.688 176.974 155.12 177.078 156.813L177.274 156.753Z" fill="#313131"/>
<path d="M212.736 123.166L215.541 127.364L220.449 128.775L217.265 132.637L217.464 137.624L212.691 135.812L207.906 137.484L208.141 132.502L204.984 128.548L209.902 127.281L212.736 123.166Z" fill="#313131"/>
<path d="M92.8831 165.533L96.4697 169.087L101.561 169.49L99.2116 173.909L100.403 178.757L95.3642 177.934L91.0093 180.527L90.2445 175.599L86.362 172.354L90.9277 170.132L92.8831 165.533Z" fill="#313131"/>
</svg>
