<svg width="284" height="283" viewBox="0 0 284 283" fill="none" xmlns="http://www.w3.org/2000/svg">
<path d="M73.0879 89.1817C64.9026 89.9844 55.3032 91.0023 54.1672 91.5111C53.9376 104.881 55.5576 101.992 41.2498 105.335C55.7907 107.987 54.0828 131.542 40.8571 136.064C56.199 135.03 53.4192 160.391 42.3584 167.271C55.5354 163.879 55.6057 188.795 46.9499 192.38C52.1664 189.781 61.4693 193.744 63.9654 204.997C64.7646 208.6 140.824 200.971 187.747 195.61M125.869 84.9363C173.234 82.084 227.431 78.1847 228.892 81.796C229.997 90.9441 227.733 95.9115 243.502 97.7068C231.473 101.167 230.209 117.533 244.799 120.411C230.509 123.775 235.342 143.232 244.773 147.589C234.56 148.295 231.973 169.135 245.925 173.684C229.423 175.821 235.317 176.571 232.86 187.844C232.109 188.874 224.58 190.358 217.34 191.759" stroke="#313131" stroke-width="6" stroke-linecap="round"/>
<path d="M230.906 187.22C226.448 193.422 68.4215 206.571 66.9932 200.592C64.4168 189.808 60.4357 189.556 55.43 188.465C60.8226 181.328 57.0472 163.557 44.5725 166.558C54.9714 160.19 57.1609 136.036 42.5845 136.748C55.0851 132.669 58.2378 106.72 44.7888 105.342C58.34 102.408 55.5183 104.959 55.4969 92.2033C65.9576 88.6014 221.551 80.9159 224.106 87.0149C225.321 95.7655 223.34 97.5917 238.372 99.588C230.487 103.496 230.449 114.229 240.802 120.706C230.767 125.68 231.658 143.213 240.707 147.54C236.383 150.444 233.488 165.404 242.763 173.308C233.089 177.21 233.041 176.505 230.906 187.22Z" fill="#A4D1A2"/>
<path d="M111.211 128.457C112.255 128.427 113.008 128.491 113.471 128.647C113.958 128.781 114.227 129.06 114.277 129.482C114.344 130.052 113.279 130.666 111.079 131.322C111.322 132.925 111.53 134.466 111.705 135.945C111.878 137.402 111.864 138.504 111.665 139.252C111.463 139.978 111.049 140.35 110.423 140.368C109.797 140.386 109.272 140.146 108.846 139.65C108.445 139.132 108.057 138.284 107.682 137.109C107.333 135.932 106.927 134.375 106.462 132.439C103.859 133.001 101.988 133.446 100.849 133.775C99.3551 138.395 98.2688 140.715 97.5907 140.734C97.043 140.75 96.2777 140.475 95.2948 139.91C94.338 139.344 93.8221 138.744 93.7471 138.111C93.7045 137.752 94.0806 136.618 94.8753 134.709C94.4044 134.489 93.9744 134.173 93.5853 133.761C93.2198 133.326 93.0133 132.908 92.9658 132.507C92.8833 131.81 94.0956 131.108 96.6027 130.4C96.7614 129.972 96.9138 129.491 97.0599 128.957C97.2297 128.401 97.6404 127.118 98.2921 125.107C98.97 123.096 99.491 121.418 99.8551 120.072C100.015 119.432 100.753 118.818 102.071 118.229C103.414 117.64 104.477 117.334 105.26 117.311C106.172 117.285 107.102 118.287 108.049 120.315C109.022 122.343 109.854 125.063 110.546 128.476L111.211 128.457ZM102.238 129.254C103.01 129.147 104.132 129.009 105.604 128.84C105.453 128.23 105.199 127.188 104.841 125.715C104.51 124.241 104.266 123.178 104.11 122.525C103.807 123.721 103.183 125.964 102.238 129.254Z" fill="#313131"/>
<path d="M116.55 116.894C118.585 116.835 120.842 117.11 123.321 117.717C125.827 118.324 128.175 119.147 130.366 120.186C132.582 121.225 134.473 122.495 136.038 123.997C137.629 125.499 138.518 127.041 138.706 128.625C138.846 129.808 137.834 131.32 135.67 133.162C133.531 134.982 130.985 136.58 128.034 137.957C125.082 139.334 122.616 140.051 120.633 140.108C120.19 140.12 119.418 139.676 118.317 138.775C117.239 137.853 116.674 137.169 116.622 136.726C116.519 135.86 116.938 133.432 117.879 129.443C118.844 125.431 119.408 122.682 119.572 121.194C118.573 120.714 117.719 120.134 117.011 119.455C116.3 118.755 115.915 118.162 115.858 117.676C115.798 117.169 116.029 116.908 116.55 116.894ZM132.967 127.899C132.887 127.223 132.012 126.358 130.343 125.304C128.672 124.229 126.775 123.351 124.653 122.67C124.685 124.258 123.977 127.679 122.532 132.933C122.46 133.211 122.344 133.67 122.185 134.31C122.048 134.929 121.941 135.345 121.861 135.559C124.335 134.789 126.83 133.542 129.348 131.817C131.863 130.071 133.069 128.765 132.967 127.899Z" fill="#313131"/>
<path d="M142.967 116.202C143.462 116.188 144.478 116.594 146.016 117.418C147.576 118.221 148.381 118.834 148.431 119.257C148.519 119.996 148.963 121.202 149.763 122.874C150.563 124.546 151.435 126.058 152.38 127.408C153.075 126.647 154.231 125.247 155.848 123.209C157.488 121.149 158.878 119.52 160.019 118.322C161.159 117.123 162.043 116.515 162.669 116.498C163.295 116.48 163.98 116.746 164.726 117.297C165.472 117.848 165.878 118.408 165.946 118.979C166.013 119.549 165.997 120.291 165.895 121.205C165.792 122.098 165.656 122.939 165.487 123.728C165.343 124.495 165.114 125.55 164.802 126.894C164.517 128.237 164.29 129.303 164.121 130.092C163.976 130.859 163.826 131.69 163.67 132.584C163.512 133.458 163.385 134.15 163.288 134.661C163.215 135.151 163.12 135.673 163.003 136.227C162.909 136.76 162.814 137.176 162.718 137.475C162.621 137.753 162.507 138.011 162.378 138.248C162.144 138.699 161.766 138.933 161.244 138.947C160.722 138.962 160.152 138.565 159.533 137.757C158.937 136.926 158.586 136.057 158.478 135.149C158.213 132.91 158.657 129.92 159.811 126.179C159.422 126.656 158.865 127.361 158.138 128.293C157.408 129.203 156.859 129.876 156.492 130.31C156.148 130.723 155.709 131.212 155.174 131.778C154.217 132.759 153.23 133.264 152.213 133.293C150.857 133.332 149.841 132.927 149.164 132.077C148.825 131.642 148.316 130.66 147.638 129.133C146.983 127.583 146.517 126.516 146.238 125.931C146.157 128.116 145.934 130.103 145.57 131.894C145.207 133.684 144.966 134.857 144.848 135.411C144.731 135.965 144.562 136.638 144.341 137.428C143.977 138.773 143.586 139.452 143.169 139.464C142.7 139.477 141.989 139 141.037 138.031C140.108 137.04 139.61 136.26 139.543 135.69C139.475 135.119 139.894 132.247 140.799 127.071C141.73 121.896 142.116 118.632 141.956 117.28C141.873 116.583 142.21 116.224 142.967 116.202Z" fill="#313131"/>
<path d="M171.332 138.659C170.811 138.674 170.055 138.261 169.066 137.421C168.074 136.559 167.554 135.928 167.507 135.526C167.459 135.125 167.751 132.171 168.381 126.665C169.035 121.137 169.315 117.749 169.219 116.501C169.189 115.803 169.552 115.443 170.308 115.421C170.934 115.403 171.829 115.886 172.992 116.87C174.156 117.854 174.79 118.79 174.895 119.677C174.94 120.057 174.745 121.503 174.309 124.016C173.898 126.507 173.62 128.253 173.477 129.253C173.357 130.231 173.252 131.113 173.162 131.9C173.07 132.666 172.997 133.272 172.946 133.718C172.535 136.442 172.145 138.011 171.776 138.424C171.637 138.576 171.489 138.655 171.332 138.659Z" fill="#313131"/>
<path d="M183.031 119.571C180.23 119.778 178.698 119.886 178.437 119.893C177.811 119.911 177.149 119.623 176.451 119.028C175.75 118.412 175.359 117.767 175.279 117.091C175.157 116.056 178.812 115.432 186.246 115.22C190.054 115.111 192.895 115.348 194.77 115.93C196.644 116.512 197.635 117.257 197.743 118.165C197.775 118.44 197.611 118.71 197.25 118.974C196.886 119.218 196.404 119.348 195.804 119.365C195.205 119.382 194.105 119.382 192.507 119.364C190.908 119.346 189.456 119.345 188.149 119.361C188.283 119.612 188.371 119.906 188.411 120.244C188.451 120.582 188.373 121.252 188.177 122.253C188.008 123.254 187.755 124.649 187.417 126.439C187.077 128.207 186.729 130.357 186.375 132.889C186.018 135.4 185.738 136.902 185.534 137.395C185.355 137.866 185.147 138.105 184.913 138.112C184.365 138.128 183.626 137.746 182.697 136.968C181.79 136.167 181.307 135.513 181.247 135.007C181.187 134.5 181.475 132.394 182.109 128.688C182.741 124.962 183.048 121.923 183.031 119.571Z" fill="#313131"/>
<path d="M127.205 162.833C128.588 161.692 129.743 160.281 130.669 158.602C131.593 156.902 131.965 155.291 131.785 153.77C131.605 152.25 131.232 151.084 130.665 150.274C130.098 149.464 129.397 149.071 128.562 149.095C127.728 149.118 126.705 149.762 125.494 151.026C124.306 152.268 123.281 153.886 122.418 155.882C121.581 157.876 121.269 159.771 121.481 161.566C121.589 162.474 121.833 163.209 122.213 163.77C122.591 164.311 123.015 164.574 123.484 164.561C124.58 164.529 125.82 163.953 127.205 162.833ZM123.977 168.393C122.047 168.448 120.236 167.737 118.543 166.259C116.848 164.761 115.91 163.251 115.73 161.731C115.5 159.788 115.721 157.789 116.394 155.736C117.065 153.661 117.99 151.865 119.172 150.348C120.376 148.809 121.744 147.541 123.275 146.544C124.803 145.525 126.258 144.996 127.641 144.957C130.171 144.885 132.348 145.702 134.173 147.409C135.995 149.094 137.035 151.025 137.292 153.2C137.55 155.375 137.133 157.601 136.042 159.879C134.948 162.135 133.296 164.1 131.087 165.774C128.903 167.447 126.533 168.32 123.977 168.393Z" fill="#313131"/>
<path d="M154.904 144.083C155.66 144.061 156.532 144.354 157.52 144.961C158.534 145.568 159.065 146.072 159.112 146.473C159.27 147.804 159.153 150.128 158.76 153.445C158.391 156.74 157.785 159.904 156.94 162.937C156.095 165.97 155.19 167.501 154.225 167.528C153.834 167.539 153.305 167.385 152.639 167.065C151.971 166.724 151.505 166.324 151.241 165.865C150.975 165.386 150.453 164.404 149.676 162.922C147.886 159.519 146.244 156.705 144.751 154.481C144.643 155.119 144.502 156.024 144.326 157.195C144.177 158.364 144.051 159.29 143.948 159.971C143.843 160.631 143.717 161.44 143.568 162.397C143.417 163.334 143.27 164.08 143.127 164.635C143.009 165.189 142.865 165.744 142.696 166.3C142.401 167.347 142.071 167.876 141.706 167.886C141.184 167.901 140.461 167.54 139.536 166.804C138.609 166.046 138.113 165.393 138.048 164.844C137.981 164.273 138.375 161.306 139.232 155.942C140.114 150.576 140.541 147.216 140.511 145.861C140.494 145.056 140.747 144.646 141.269 144.631C141.712 144.618 142.298 144.814 143.026 145.217C143.78 145.619 144.441 146.119 145.009 146.718C145.601 147.294 146.758 149.221 148.481 152.499C150.204 155.776 151.541 158.122 152.494 159.536C153.221 157.057 153.722 153.334 153.998 148.368C154.104 146.394 154.185 145.194 154.239 144.769C154.291 144.323 154.513 144.094 154.904 144.083Z" fill="#313131"/>
<path d="M167.629 153.795C169.011 153.756 170.491 153.66 172.07 153.509C173.646 153.337 174.617 153.246 174.982 153.235C175.373 153.224 175.682 153.29 175.908 153.432C176.16 153.573 176.299 153.749 176.324 153.96C176.434 154.889 175.439 155.659 173.339 156.27C171.239 156.881 168.968 157.264 166.527 157.419C165.812 160.003 165.495 161.633 165.575 162.309C165.617 162.668 165.86 162.841 166.304 162.828C169.277 162.744 172.304 162.339 175.385 161.615C176.427 161.353 177.026 161.219 177.183 161.214C177.678 161.2 177.96 161.478 178.027 162.049C178.117 162.809 177.513 163.568 176.216 164.325C174.919 165.083 173.252 165.703 171.215 166.185C169.179 166.667 167.156 166.936 165.148 166.994C163.948 167.028 162.823 166.7 161.773 166.009C160.721 165.298 160.137 164.456 160.022 163.485C159.904 162.492 160.277 160.002 161.139 156.015C162.028 152.027 162.393 149.029 162.234 147.02C162.2 146.957 162.172 146.831 162.149 146.641C162.114 146.345 162.139 146.112 162.223 145.94C162.44 145.34 163.192 144.948 164.479 144.763C165.763 144.556 168.1 144.405 171.491 144.308C177.125 144.147 180.001 144.573 180.121 145.587C180.199 146.242 179.562 146.716 178.209 147.009C177.29 147.204 176.018 147.4 174.392 147.594C171.89 147.899 169.674 148.301 167.744 148.802C167.914 150.238 167.797 151.904 167.394 153.802L167.629 153.795Z" fill="#313131"/>
<path d="M216.973 127.65L218.777 133.133L223.752 136.19L219.063 139.469L217.756 145.025L213.053 141.567L207.27 141.944L209.053 136.528L206.786 131.206L212.591 131.316L216.973 127.65Z" fill="#313131"/>
<path d="M71.9735 137.634L74.8366 142.648L80.3215 144.65L76.3811 148.799L76.2092 154.504L70.9108 152.055L65.3197 153.578L65.9855 147.916L62.7019 143.153L68.4118 142.102L71.9735 137.634Z" fill="#313131"/>
</svg>
